<?xml version="1.0" encoding="UTF-8"?>
<svg width="503px" height="504px" viewBox="0 0 503 504" version="1.1" xmlns="http://www.w3.org/2000/svg" xmlns:xlink="http://www.w3.org/1999/xlink">
    <!-- Generator: Sketch 48.2 (47327) - http://www.bohemiancoding.com/sketch -->
    <title>Layer_5</title>
    <desc>Created with Sketch.</desc>
    <defs></defs>
    <g id="Page-1" stroke="none" stroke-width="1" fill="none" fill-rule="evenodd">
        <g id="fb" transform="translate(-40.000000, -641.000000)" fill-rule="nonzero">
            <g id="Layer_5" transform="translate(0.000000, 634.000000)">
                <g id="Group">
                    <polygon id="Shape" fill="#2945AA" points="530 47.2 524.9 47.2 522.9 47.2 522.9 47.1 522.9 27.1 510 27.1 504.9 27.1 502.8 27.1 502.8 27 502.8 7 489.9 7 484.8 7 482.6 7 464.8 7 462.5 7 444.8 7 442.4 7 424.7 7 422.3 7 404.7 7 402.2 7 384.6 7 382 7 364.6 7 361.9 7 344.6 7 341.8 7 324.5 7 321.7 7 304.5 7 301.6 7 284.4 7 281.4 7 261.3 7 244.4 7 241.2 7 224.3 7 221.1 7 204.3 7 201 7 184.2 7 180.8 7 164.2 7 160.7 7 144.2 7 140.6 7 124.1 7 120.5 7 104.1 7 100.4 7 84 7 80.2 7 80.2 27 80.2 27.1 64 27.1 60.1 27.1 60.1 47.1 60.1 47.2 40 47.2 40 67.1 40 67.4 40 87.2 40 87.5 40 107.2 40 107.6 40 127.2 40 127.7 40 147.3 40 147.8 40 167.3 40 168 40 187.4 40 188.1 40 207.4 40 208.2 40 227.4 40 228.3 40 247.5 40 248.4 40 267.5 40 268.6 40 287.6 40 288.7 40 307.6 40 308.8 40 327.6 40 328.9 40 347.7 40 349 40 367.7 40 369.2 40 387.8 40 389.3 40 407.8 40 409.4 40 427.8 40 429.5 40 447.9 40 449.6 40 467.9 40 469.8 60.1 469.8 60.1 488 60.1 489.9 64 489.9 80.2 489.9 80.2 508 80.2 510 100.4 510 120.5 510 140.6 510 160.7 510 180.8 510 201 510 221.1 510 241.2 510 261.3 510 281.4 510 301.6 510 321.7 510 331.1 510 341.8 510 361.9 510 382 510 402.2 510 422.3 510 442.4 510 462.5 510 482.6 510 502.8 510 502.8 508 502.8 489.9 504.9 489.9 510 489.9 522.9 489.9 522.9 488 522.9 469.8 524.9 469.8 530 469.8 543 469.8 543 467.9 543 449.6 543 447.9 543 429.5 543 427.8 543 409.4 543 407.8 543 389.3 543 387.8 543 369.2 543 367.7 543 349 543 347.7 543 328.9 543 327.6 543 308.8 543 307.6 543 288.7 543 287.6 543 268.6 543 267.5 543 248.4 543 247.5 543 228.3 543 227.4 543 208.2 543 207.4 543 188.1 543 187.4 543 168 543 167.3 543 147.8 543 147.3 543 127.7 543 127.2 543 107.6 543 107.2 543 87.5 543 87.2 543 67.4 543 67.1 543 47.2"></polygon>
                    <rect id="Rectangle-path" fill="#2945AA" x="74" y="82" width="437" height="370"></rect>
                    <polygon id="Shape" fill="#FFFFFF" points="444.9 96 421.6 96 398.4 96 375.2 96 351.9 96 351.9 119.3 328.7 119.3 328.7 142.5 328.7 165.8 328.7 189 328.7 235.5 305.4 235.5 282.2 235.5 259 235.5 259 258.8 259 282 259 305.3 282.2 305.3 305.4 305.3 328.7 305.3 328.7 328.4 328.7 351.7 328.7 374.9 328.7 398.2 328.7 421.4 351.9 421.4 375.2 421.4 398.4 421.4 398.4 398.2 398.4 374.9 398.4 351.7 398.4 328.4 398.4 305.2 421.6 305.3 444.9 305.3 468.1 305.3 468.1 282 468.1 258.8 468.1 235.5 444.9 235.5 421.6 235.5 398.4 235.5 398.4 189 398.4 165.8 421.6 165.8 444.9 165.8 468.1 165.8 468.1 142.5 468.1 119.3 468.1 96"></polygon>
                    <polygon id="Shape-Copy" fill="#FFFFFF" points="351.9 208.3 328.7 208.3 328.7 231.5 328.7 254.8 328.7 278 328.7 301.2 328.7 371 328.7 394.2 328.7 417.4 328.7 440.7 328.7 463.9 328.7 487.2 328.7 510.4 351.9 510.4 375.2 510.4 398.4 510.4 398.4 487.2 398.4 463.9 398.4 440.7 398.4 417.4 398.4 394.2 398.4 371 398.4 301.2 398.4 278"></polygon>
                </g>
            </g>
        </g>
    </g>
</svg>