<?xml version="1.0" encoding="UTF-8"?>
<svg width="503px" height="503px" viewBox="0 0 503 503" version="1.1" xmlns="http://www.w3.org/2000/svg" xmlns:xlink="http://www.w3.org/1999/xlink">
    <!-- Generator: Sketch 48.2 (47327) - http://www.bohemiancoding.com/sketch -->
    <title>insta</title>
    <desc>Created with Sketch.</desc>
    <defs></defs>
    <g id="Page-1" stroke="none" stroke-width="1" fill="none" fill-rule="evenodd">
        <g id="insta" transform="translate(-725.000000, -7.000000)">
            <g id="Layer_8" transform="translate(725.000000, 7.000000)">
                <g id="Group">
                    <polygon id="Shape" fill="#F83B35" fill-rule="nonzero" points="482.9 261.6 482.9 281.7 482.9 301.8 482.9 321.9 503 321.9 503 301.8 503 281.7 503 261.6 503 241.4 482.9 241.4"></polygon>
                    <rect id="Rectangle-path" fill="#AA2AA1" fill-rule="nonzero" x="482.9" y="80.5" width="20.1" height="20.1"></rect>
                    <polygon id="Shape" fill="#882AB2" fill-rule="nonzero" points="482.9 40.2 462.8 40.2 462.8 60.4 482.9 60.4 482.9 80.5 503 80.5 503 60.4 503 40.2"></polygon>
                    <polygon id="Shape" fill="#FE4212" fill-rule="nonzero" points="482.9 301.8 462.8 301.8 462.8 281.7 442.6 281.7 442.6 301.8 442.6 321.9 442.6 342 442.6 362.2 442.6 382.3 462.8 382.3 462.8 402.4 462.8 422.5 462.8 442.6 462.8 462.8 442.6 462.8 442.6 482.9 422.5 482.9 422.5 503 442.6 503 462.8 503 462.8 482.9 482.9 482.9 482.9 462.8 503 462.8 503 442.6 503 422.5 503 402.4 503 382.3 503 362.2 503 342 503 321.9 482.9 321.9"></polygon>
                    <rect id="Rectangle-path" fill="#F5354C" fill-rule="nonzero" x="462.8" y="201.2" width="20.1" height="20.1"></rect>
                    <polygon id="Shape" fill="#F23160" fill-rule="nonzero" points="462.8 161 442.6 161 442.6 181.1 442.6 201.2 462.8 201.2 482.9 201.2 482.9 221.3 482.9 241.4 503 241.4 503 221.3 503 201.2 503 181.1 503 161 482.9 161"></polygon>
                    <polygon id="Shape" fill="#F22367" fill-rule="nonzero" points="462.8 140.8 442.6 140.8 422.5 140.8 422.5 161 442.6 161 462.8 161 482.9 161 503 161 503 140.8 482.9 140.8"></polygon>
                    <polygon id="Shape" fill="#E62E84" fill-rule="nonzero" points="462.8 120.7 442.6 120.7 422.5 120.7 402.4 120.7 402.4 140.8 422.5 140.8 442.6 140.8 462.8 140.8 482.9 140.8 503 140.8 503 120.7 482.9 120.7"></polygon>
                    <polygon id="Shape" fill="#DF2B82" fill-rule="nonzero" points="462.8 100.6 442.6 100.6 422.5 100.6 402.4 100.6 402.4 80.5 382.3 80.5 362.2 80.5 362.2 100.6 382.3 100.6 382.3 120.7 402.4 120.7 422.5 120.7 442.6 120.7 462.8 120.7 482.9 120.7 503 120.7 503 100.6 482.9 100.6"></polygon>
                    <rect id="Rectangle-path" fill="#AA2AA1" fill-rule="nonzero" x="462.8" y="60.4" width="20.1" height="20.1"></rect>
                    <polygon id="Shape" fill="#FB3E2B" fill-rule="nonzero" points="462.8 241.4 442.6 241.4 422.5 241.4 422.5 261.6 422.5 281.7 442.6 281.7 462.8 281.7 462.8 301.8 482.9 301.8 482.9 281.7 482.9 261.6 462.8 261.6"></polygon>
                    <polygon id="Shape" fill="#CA2A8C" fill-rule="nonzero" points="442.6 80.5 422.5 80.5 402.4 80.5 402.4 100.6 422.5 100.6 442.6 100.6 462.8 100.6 482.9 100.6 482.9 80.5 462.8 80.5"></polygon>
                    <polygon id="Shape" fill="#FD5605" fill-rule="nonzero" points="422.5 442.6 422.5 422.5 402.4 422.5 402.4 442.6 402.4 462.8 422.5 462.8 422.5 482.9 442.6 482.9 442.6 462.8 442.6 442.6"></polygon>
                    <polygon id="Shape" fill="#FF4800" fill-rule="nonzero" points="442.6 402.4 422.5 402.4 402.4 402.4 402.4 422.5 422.5 422.5 422.5 442.6 442.6 442.6 442.6 462.8 462.8 462.8 462.8 442.6 462.8 422.5 442.6 422.5"></polygon>
                    <polygon id="Shape" fill="#FB540E" fill-rule="nonzero" points="422.5 301.8 422.5 321.9 422.5 342 422.5 362.2 402.4 362.2 402.4 382.3 422.5 382.3 422.5 402.4 442.6 402.4 442.6 422.5 462.8 422.5 462.8 402.4 462.8 382.3 442.6 382.3 442.6 362.2 442.6 342 442.6 321.9 442.6 301.8 442.6 281.7 422.5 281.7"></polygon>
                    <polygon id="Shape" fill="#F63933" fill-rule="nonzero" points="422.5 201.2 422.5 221.3 422.5 241.4 442.6 241.4 462.8 241.4 462.8 261.6 482.9 261.6 482.9 241.4 482.9 221.3 462.8 221.3 462.8 201.2 442.6 201.2 442.6 181.1 422.5 181.1"></polygon>
                    <rect id="Rectangle-path" fill="#F43159" fill-rule="nonzero" x="422.5" y="161" width="20.1" height="20.1"></rect>
                    <polygon id="Shape" fill="#C62A8F" fill-rule="nonzero" points="422.5 60.4 402.4 60.4 382.3 60.4 362.2 60.4 342 60.4 342 40.2 321.9 40.2 301.8 40.2 301.8 20.1 281.7 20.1 261.6 20.1 241.4 20.1 221.3 20.1 201.2 20.1 201.2 40.2 181.1 40.2 161 40.2 161 60.4 140.8 60.4 120.7 60.4 100.6 60.4 80.5 60.4 60.4 60.4 40.2 60.4 40.2 80.5 60.4 80.5 80.5 80.5 100.6 80.5 120.7 80.5 140.8 80.5 161 80.5 181.1 80.5 181.1 60.4 201.2 60.4 221.3 60.4 221.3 40.2 241.4 40.2 261.6 40.2 281.7 40.2 281.7 60.4 301.8 60.4 321.9 60.4 321.9 80.5 342 80.5 362.2 80.5 382.3 80.5 402.4 80.5 422.5 80.5 442.6 80.5 462.8 80.5 462.8 60.4 442.6 60.4"></polygon>
                    <polygon id="Shape" fill="#882AB2" fill-rule="nonzero" points="422.5 20.1 402.4 20.1 382.3 20.1 382.3 40.2 402.4 40.2 422.5 40.2 442.6 40.2 442.6 20.1"></polygon>
                    <polygon id="Shape" fill="#FE6307" fill-rule="nonzero" points="422.5 462.8 402.4 462.8 402.4 442.6 402.4 422.5 402.4 402.4 422.5 402.4 422.5 382.3 402.4 382.3 382.3 382.3 382.3 402.4 362.2 402.4 362.2 422.5 342 422.5 342 442.6 362.2 442.6 362.2 462.8 382.3 462.8 382.3 482.9 402.4 482.9 402.4 503 422.5 503 422.5 482.9"></polygon>
                    <polygon id="Shape" fill="#FD720D" fill-rule="nonzero" points="382.3 482.9 382.3 462.8 362.2 462.8 362.2 442.6 342 442.6 321.9 442.6 321.9 462.8 321.9 482.9 342 482.9 342 503 362.2 503 382.3 503 402.4 503 402.4 482.9"></polygon>
                    <polygon id="Shape" fill="#F83F23" fill-rule="nonzero" points="362.2 221.3 362.2 241.4 382.3 241.4 382.3 221.3 382.3 201.2 362.2 201.2"></polygon>
                    <polygon id="Shape" fill="#FE6307" fill-rule="nonzero" points="342 261.6 342 281.7 321.9 281.7 321.9 301.8 321.9 321.9 342 321.9 342 342 362.2 342 382.3 342 382.3 321.9 382.3 301.8 382.3 281.7 382.3 261.6 362.2 261.6"></polygon>
                    <polygon id="Shape" fill="#FE5A05" fill-rule="nonzero" points="342 241.4 342 261.6 362.2 261.6 382.3 261.6 382.3 241.4 362.2 241.4"></polygon>
                    <rect id="Rectangle-path" fill="#FF4D03" fill-rule="nonzero" x="342" y="221.3" width="20.1" height="20.1"></rect>
                    <rect id="Rectangle-path" fill="#FB3E28" fill-rule="nonzero" x="342" y="201.2" width="20.1" height="20.1"></rect>
                    <polygon id="Shape" fill="#F43159" fill-rule="nonzero" points="342 181.1 342 201.2 362.2 201.2 382.3 201.2 382.3 181.1 362.2 181.1"></polygon>
                    <polygon id="Shape" fill="#FB8614" fill-rule="nonzero" points="321.9 482.9 321.9 462.8 321.9 442.6 301.8 442.6 301.8 422.5 281.7 422.5 261.6 422.5 261.6 442.6 281.7 442.6 281.7 462.8 281.7 482.9 301.8 482.9 301.8 503 321.9 503 342 503 342 482.9"></polygon>
                    <rect id="Rectangle-path" fill="#FC7C11" fill-rule="nonzero" x="321.9" y="362.2" width="20.1" height="20.1"></rect>
                    <polygon id="Shape" fill="#FD720D" fill-rule="nonzero" points="342 321.9 321.9 321.9 301.8 321.9 281.7 321.9 281.7 342 301.8 342 321.9 342 321.9 362.2 342 362.2 362.2 362.2 362.2 342 342 342"></polygon>
                    <polygon id="Shape" fill="#FFFFFF" fill-rule="nonzero" points="321.9 221.3 321.9 241.4 321.9 261.6 321.9 281.7 342 281.7 342 261.6 342 241.4 342 221.3"></polygon>
                    <rect id="Rectangle-path" fill="#FE4407" fill-rule="nonzero" x="321.9" y="201.2" width="20.1" height="20.1"></rect>
                    <rect id="Rectangle-path" fill="#FB3E28" fill-rule="nonzero" x="321.9" y="181.1" width="20.1" height="20.1"></rect>
                    <rect id="Rectangle-path" fill="#FFFFFF" fill-rule="nonzero" x="321.9" y="161" width="20.1" height="20.1"></rect>
                    <polygon id="Shape" fill="#E62E84" fill-rule="nonzero" points="201.2 140.8 221.3 140.8 241.4 140.8 261.6 140.8 281.7 140.8 301.8 140.8 321.9 140.8 342 140.8 342 120.7 321.9 120.7 301.8 120.7 281.7 120.7 261.6 120.7 241.4 120.7 221.3 120.7 201.2 120.7 181.1 120.7 161 120.7 161 140.8 181.1 140.8"></polygon>
                    <path d="M321.9,80.5 L301.8,80.5 L281.7,80.5 L261.6,80.5 L241.5,80.5 L221.4,80.5 L201.3,80.5 L181.2,80.5 L161,80.5 L140.9,80.5 L140.9,100.6 L120.8,100.6 L120.8,120.7 L100.7,120.7 L100.7,140.8 L80.6,140.8 L80.6,161 L80.6,181.1 L80.6,201.2 L80.6,221.3 L80.6,241.4 L80.6,261.5 L80.6,281.6 L80.6,301.7 L80.6,321.8 L80.6,342 L80.6,362.1 L100.7,362.1 L100.7,382.2 L120.8,382.2 L120.8,402.3 L140.9,402.3 L140.9,422.4 L161,422.4 L181.1,422.4 L201.2,422.4 L221.3,422.4 L241.4,422.4 L261.5,422.4 L281.6,422.4 L301.7,422.4 L321.8,422.4 L342,422.4 L362.1,422.4 L362.1,402.3 L382.2,402.3 L382.2,382.2 L402.3,382.2 L402.3,362.1 L422.4,362.1 L422.4,342 L422.4,321.9 L422.4,301.8 L422.4,281.7 L422.4,261.6 L422.4,241.5 L422.4,221.4 L422.4,201.3 L422.4,181.2 L422.4,161 L422.4,140.9 L402.3,140.9 L402.3,120.8 L382.2,120.8 L382.2,100.7 L362.1,100.7 L362.1,80.6 L342,80.6 L321.9,80.6 L321.9,80.5 Z M382.3,161 L382.3,181.1 L382.3,201.2 L382.3,221.3 L382.3,241.4 L382.3,261.5 L382.3,281.6 L382.3,301.7 L382.3,321.8 L382.3,342 L362.2,342 L362.2,362.1 L342,362.1 L342,382.2 L321.9,382.2 L301.8,382.2 L281.7,382.2 L261.6,382.2 L241.5,382.2 L221.4,382.2 L201.3,382.2 L181.2,382.2 L161,382.2 L161,362.1 L140.9,362.1 L140.9,342 L120.8,342 L120.8,321.9 L120.8,301.8 L120.8,281.7 L120.8,261.6 L120.8,241.5 L120.8,221.4 L120.8,201.3 L120.8,181.2 L120.8,161 L140.9,161 L140.9,140.9 L161,140.9 L161,120.8 L181.1,120.8 L201.2,120.8 L221.3,120.8 L241.4,120.8 L261.5,120.8 L281.6,120.8 L301.7,120.8 L321.8,120.8 L342,120.8 L342,140.9 L362.1,140.9 L362.1,161 L382.3,161 Z" id="Shape" fill="#FFFFFF" fill-rule="nonzero"></path>
                    <polygon id="Shape" fill="#FC7C11" fill-rule="nonzero" points="301.8 422.5 301.8 442.6 321.9 442.6 342 442.6 342 422.5 321.9 422.5"></polygon>
                    <polygon id="Shape" fill="#FF8722" fill-rule="nonzero" points="301.8 362.2 301.8 342 281.7 342 261.6 342 241.4 342 221.3 342 221.3 362.2 241.4 362.2 261.6 362.2 281.7 362.2 281.7 382.3 301.8 382.3 321.9 382.3 321.9 362.2"></polygon>
                    <rect id="Rectangle-path" fill="#FC7C11" fill-rule="nonzero" x="301.8" y="342" width="20.1" height="20.1"></rect>
                    <polygon id="Shape" fill="#FFFFFF" fill-rule="nonzero" points="301.8 301.8 281.7 301.8 281.7 321.9 301.8 321.9 321.9 321.9 321.9 301.8 321.9 281.7 301.8 281.7"></polygon>
                    <polygon id="Shape" fill="#FC6C0C" fill-rule="nonzero" points="301.8 261.6 281.7 261.6 261.6 261.6 261.6 281.7 281.7 281.7 301.8 281.7 321.9 281.7 321.9 261.6"></polygon>
                    <polygon id="Shape" fill="#F22367" fill-rule="nonzero" points="342 140.8 321.9 140.8 301.8 140.8 281.7 140.8 261.6 140.8 241.4 140.8 221.3 140.8 201.2 140.8 181.1 140.8 161 140.8 140.8 140.8 140.8 161 161 161 181.1 161 201.2 161 221.3 161 241.4 161 261.6 161 281.7 161 301.8 161 321.9 161 342 161 342 181.1 362.2 181.1 382.3 181.1 382.3 161 362.2 161 362.2 140.8"></polygon>
                    <rect id="Rectangle-path" fill="#FD9719" fill-rule="nonzero" x="281.7" y="482.9" width="20.1" height="20.1"></rect>
                    <rect id="Rectangle-path" fill="#FD720D" fill-rule="nonzero" x="281.7" y="281.7" width="20.1" height="20.1"></rect>
                    <polygon id="Shape" fill="#FE5A05" fill-rule="nonzero" points="281.7 241.4 261.6 241.4 241.4 241.4 221.3 241.4 201.2 241.4 181.1 241.4 181.1 261.6 201.2 261.6 221.3 261.6 241.4 261.6 261.6 261.6 281.7 261.6 301.8 261.6 321.9 261.6 321.9 241.4 301.8 241.4"></polygon>
                    <polygon id="Shape" fill="#FE4407" fill-rule="nonzero" points="281.7 201.2 261.6 201.2 241.4 201.2 221.3 201.2 201.2 201.2 201.2 221.3 221.3 221.3 241.4 221.3 261.6 221.3 281.7 221.3 301.8 221.3 301.8 201.2"></polygon>
                    <polygon id="Shape" fill="#FFFFFF" fill-rule="nonzero" points="301.8 201.2 301.8 221.3 321.9 221.3 321.9 201.2 321.9 181.1 301.8 181.1 281.7 181.1 281.7 201.2"></polygon>
                    <polygon id="Shape" fill="#F43159" fill-rule="nonzero" points="301.8 181.1 321.9 181.1 321.9 161 301.8 161 281.7 161 281.7 181.1"></polygon>
                    <polygon id="Shape" fill="#F8A71A" fill-rule="nonzero" points="261.6 482.9 241.4 482.9 241.4 503 261.6 503 281.7 503 281.7 482.9"></polygon>
                    <polygon id="Shape" fill="#FD9518" fill-rule="nonzero" points="261.6 362.2 241.4 362.2 221.3 362.2 201.2 362.2 181.1 362.2 161 362.2 161 382.3 181.1 382.3 201.2 382.3 221.3 382.3 241.4 382.3 261.6 382.3 281.7 382.3 281.7 362.2"></polygon>
                    <polygon id="Shape" fill="#FC7C11" fill-rule="nonzero" points="261.6 301.8 241.4 301.8 241.4 321.9 261.6 321.9 281.7 321.9 281.7 301.8"></polygon>
                    <polygon id="Shape" fill="#FD9719" fill-rule="nonzero" points="241.4 462.8 241.4 482.9 261.6 482.9 281.7 482.9 281.7 462.8 281.7 442.6 261.6 442.6 261.6 462.8"></polygon>
                    <rect id="Rectangle-path" fill="#FC9417" fill-rule="nonzero" x="241.4" y="422.5" width="20.1" height="20.1"></rect>
                    <polygon id="Shape" fill="#FFFFFF" fill-rule="nonzero" points="241.4 321.9 221.3 321.9 221.3 342 241.4 342 261.6 342 281.7 342 281.7 321.9 261.6 321.9"></polygon>
                    <polygon id="Shape" fill="#FB7C11" fill-rule="nonzero" points="241.4 301.8 261.6 301.8 281.7 301.8 281.7 281.7 261.6 281.7 241.4 281.7"></polygon>
                    <polygon id="Shape" fill="#FDA71C" fill-rule="nonzero" points="241.4 462.8 261.6 462.8 261.6 442.6 241.4 442.6 241.4 422.5 221.3 422.5 201.2 422.5 181.1 422.5 181.1 442.6 201.2 442.6 201.2 462.8 201.2 482.9 201.2 503 221.3 503 241.4 503 241.4 482.9"></polygon>
                    <rect id="Rectangle-path" fill="#FC790F" fill-rule="nonzero" x="221.3" y="301.8" width="20.1" height="20.1"></rect>
                    <polygon id="Shape" fill="#FC710A" fill-rule="nonzero" points="221.3 281.7 201.2 281.7 201.2 301.8 221.3 301.8 241.4 301.8 241.4 281.7"></polygon>
                    <polygon id="Shape" fill="#FB3E28" fill-rule="nonzero" points="241.4 201.2 261.6 201.2 281.7 201.2 281.7 181.1 261.6 181.1 241.4 181.1 221.3 181.1 221.3 201.2"></polygon>
                    <polygon id="Shape" fill="#FFFFFF" fill-rule="nonzero" points="241.4 181.1 261.6 181.1 281.7 181.1 281.7 161 261.6 161 241.4 161 221.3 161 221.3 181.1"></polygon>
                    <polygon id="Shape" fill="#FFFFFF" fill-rule="nonzero" points="201.2 301.8 201.2 281.7 181.1 281.7 181.1 301.8 181.1 321.9 201.2 321.9 221.3 321.9 221.3 301.8"></polygon>
                    <polygon id="Shape" fill="#FF650B" fill-rule="nonzero" points="221.3 281.7 241.4 281.7 261.6 281.7 261.6 261.6 241.4 261.6 221.3 261.6 201.2 261.6 181.1 261.6 181.1 281.7 201.2 281.7"></polygon>
                    <polygon id="Shape" fill="#DF2B82" fill-rule="nonzero" points="221.3 80.5 241.4 80.5 261.6 80.5 281.7 80.5 301.8 80.5 321.9 80.5 321.9 60.4 301.8 60.4 281.7 60.4 281.7 40.2 261.6 40.2 241.4 40.2 221.3 40.2 221.3 60.4 201.2 60.4 181.1 60.4 181.1 80.5 201.2 80.5"></polygon>
                    <polygon id="Shape" fill="#FFAE19" fill-rule="nonzero" points="201.2 462.8 201.2 442.6 181.1 442.6 181.1 422.5 161 422.5 140.8 422.5 140.8 442.6 120.7 442.6 120.7 462.8 140.8 462.8 161 462.8 181.1 462.8 181.1 482.9 181.1 503 201.2 503 201.2 482.9"></polygon>
                    <polygon id="Shape" fill="#FC8916" fill-rule="nonzero" points="201.2 362.2 221.3 362.2 221.3 342 201.2 342 181.1 342 161 342 161 362.2 181.1 362.2"></polygon>
                    <polygon id="Shape" fill="#FF4D03" fill-rule="nonzero" points="201.2 241.4 221.3 241.4 241.4 241.4 261.6 241.4 281.7 241.4 301.8 241.4 321.9 241.4 321.9 221.3 301.8 221.3 281.7 221.3 261.6 221.3 241.4 221.3 221.3 221.3 201.2 221.3 181.1 221.3 181.1 241.4"></polygon>
                    <polygon id="Shape" fill="#FFFFFF" fill-rule="nonzero" points="201.2 201.2 221.3 201.2 221.3 181.1 201.2 181.1 181.1 181.1 181.1 201.2 181.1 221.3 201.2 221.3"></polygon>
                    <polygon id="Shape" fill="#FBB321" fill-rule="nonzero" points="181.1 462.8 161 462.8 140.8 462.8 120.7 462.8 100.6 462.8 100.6 482.9 120.7 482.9 120.7 503 140.8 503 161 503 181.1 503 181.1 482.9"></polygon>
                    <polygon id="Shape" fill="#FC790F" fill-rule="nonzero" points="181.1 342 201.2 342 221.3 342 221.3 321.9 201.2 321.9 181.1 321.9 161 321.9 140.8 321.9 140.8 342 140.8 362.2 161 362.2 161 342"></polygon>
                    <polygon id="Shape" fill="#FFFFFF" fill-rule="nonzero" points="181.1 241.4 181.1 221.3 161 221.3 161 241.4 161 261.6 161 281.7 181.1 281.7 181.1 261.6"></polygon>
                    <polygon id="Shape" fill="#FC710A" fill-rule="nonzero" points="161 321.9 181.1 321.9 181.1 301.8 161 301.8 140.8 301.8 120.7 301.8 120.7 321.9 120.7 342 140.8 342 140.8 321.9"></polygon>
                    <polygon id="Shape" fill="#FF650B" fill-rule="nonzero" points="161 301.8 181.1 301.8 181.1 281.7 161 281.7 161 261.6 140.8 261.6 120.7 261.6 120.7 281.7 120.7 301.8 140.8 301.8"></polygon>
                    <polygon id="Shape" fill="#FE5A05" fill-rule="nonzero" points="161 261.6 161 241.4 140.8 241.4 120.7 241.4 120.7 261.6 140.8 261.6"></polygon>
                    <polygon id="Shape" fill="#FF4D03" fill-rule="nonzero" points="161 241.4 161 221.3 140.8 221.3 120.7 221.3 120.7 241.4 140.8 241.4"></polygon>
                    <polygon id="Shape" fill="#FE4407" fill-rule="nonzero" points="161 221.3 181.1 221.3 181.1 201.2 161 201.2 140.8 201.2 120.7 201.2 120.7 221.3 140.8 221.3"></polygon>
                    <polygon id="Shape" fill="#FB3E28" fill-rule="nonzero" points="161 201.2 181.1 201.2 181.1 181.1 161 181.1 140.8 181.1 120.7 181.1 120.7 201.2 140.8 201.2"></polygon>
                    <polygon id="Shape" fill="#F43159" fill-rule="nonzero" points="161 181.1 181.1 181.1 201.2 181.1 221.3 181.1 221.3 161 201.2 161 181.1 161 161 161 140.8 161 120.7 161 120.7 181.1 140.8 181.1"></polygon>
                    <polygon id="Shape" fill="#FDA71C" fill-rule="nonzero" points="120.7 402.4 120.7 422.5 100.6 422.5 100.6 442.6 80.5 442.6 80.5 462.8 100.6 462.8 120.7 462.8 120.7 442.6 140.8 442.6 140.8 422.5 140.8 402.4"></polygon>
                    <polygon id="Shape" fill="#F8A71A" fill-rule="nonzero" points="100.6 482.9 80.5 482.9 80.5 503 100.6 503 120.7 503 120.7 482.9"></polygon>
                    <rect id="Rectangle-path" fill="#FC9417" fill-rule="nonzero" x="100.6" y="402.4" width="20.1" height="20.1"></rect>
                    <rect id="Rectangle-path" fill="#FAB421" fill-rule="nonzero" x="80.5" y="462.8" width="20.1" height="20.1"></rect>
                    <polygon id="Shape" fill="#FC9417" fill-rule="nonzero" points="100.6 422.5 80.5 422.5 60.4 422.5 40.2 422.5 20.1 422.5 20.1 442.6 40.2 442.6 60.4 442.6 80.5 442.6 100.6 442.6"></polygon>
                    <rect id="Rectangle-path" fill="#F3AC1E" fill-rule="nonzero" x="60.4" y="482.9" width="20.1" height="20.1"></rect>
                    <rect id="Rectangle-path" fill="#FBAF1E" fill-rule="nonzero" x="60.4" y="462.8" width="20.1" height="20.1"></rect>
                    <polygon id="Shape" fill="#FE8113" fill-rule="nonzero" points="80.5 402.4 80.5 382.3 100.6 382.3 100.6 362.2 80.5 362.2 60.4 362.2 60.4 382.3 40.2 382.3 40.2 402.4 60.4 402.4"></polygon>
                    <rect id="Rectangle-path" fill="#FE5A05" fill-rule="nonzero" x="60.4" y="241.4" width="20.1" height="20.1"></rect>
                    <rect id="Rectangle-path" fill="#FF4D03" fill-rule="nonzero" x="60.4" y="221.3" width="20.1" height="20.1"></rect>
                    <rect id="Rectangle-path" fill="#FE4407" fill-rule="nonzero" x="60.4" y="201.2" width="20.1" height="20.1"></rect>
                    <polygon id="Shape" fill="#CA2A8C" fill-rule="nonzero" points="60.4 80.5 40.2 80.5 20.1 80.5 20.1 100.6 40.2 100.6 60.4 100.6 80.5 100.6 100.6 100.6 100.6 80.5 80.5 80.5"></polygon>
                    <polygon id="Shape" fill="#FBA01C" fill-rule="nonzero" points="60.4 462.8 80.5 462.8 80.5 442.6 60.4 442.6 40.2 442.6 20.1 442.6 20.1 462.8 20.1 482.9 40.2 482.9 40.2 503 60.4 503 60.4 482.9"></polygon>
                    <polygon id="Shape" fill="#FD9518" fill-rule="nonzero" points="60.4 422.5 80.5 422.5 100.6 422.5 100.6 402.4 120.7 402.4 120.7 382.3 100.6 382.3 80.5 382.3 80.5 402.4 60.4 402.4 40.2 402.4 40.2 422.5"></polygon>
                    <rect id="Rectangle-path" fill="#FC740E" fill-rule="nonzero" x="40.2" y="321.9" width="20.1" height="20.1"></rect>
                    <polygon id="Shape" fill="#FE4407" fill-rule="nonzero" points="60.4 221.3 40.2 221.3 40.2 241.4 20.1 241.4 20.1 261.6 40.2 261.6 60.4 261.6 60.4 241.4"></polygon>
                    <rect id="Rectangle-path" fill="#FE8113" fill-rule="nonzero" x="20.1" y="402.4" width="20.1" height="20.1"></rect>
                    <rect id="Rectangle-path" fill="#FF4D03" fill-rule="nonzero" x="20.1" y="261.6" width="20.1" height="20.1"></rect>
                    <polygon id="Shape" fill="#F43159" fill-rule="nonzero" points="40.2 181.1 60.4 181.1 80.5 181.1 80.5 161 60.4 161 40.2 161 20.1 161 0 161 0 181.1 20.1 181.1"></polygon>
                    <polygon id="Shape" fill="#F22367" fill-rule="nonzero" points="40.2 161 60.4 161 80.5 161 80.5 140.8 60.4 140.8 40.2 140.8 20.1 140.8 0 140.8 0 161 20.1 161"></polygon>
                    <polygon id="Shape" fill="#E62E84" fill-rule="nonzero" points="40.2 140.8 60.4 140.8 80.5 140.8 100.6 140.8 100.6 120.7 80.5 120.7 60.4 120.7 40.2 120.7 20.1 120.7 0 120.7 0 140.8 20.1 140.8"></polygon>
                    <polygon id="Shape" fill="#DF2B82" fill-rule="nonzero" points="40.2 120.7 60.4 120.7 80.5 120.7 100.6 120.7 120.7 120.7 120.7 100.6 140.8 100.6 140.8 80.5 120.7 80.5 100.6 80.5 100.6 100.6 80.5 100.6 60.4 100.6 40.2 100.6 20.1 100.6 0 100.6 0 120.7 20.1 120.7"></polygon>
                    <rect id="Rectangle-path" fill="#FD9518" fill-rule="nonzero" x="0" y="442.6" width="20.1" height="20.1"></rect>
                    <rect id="Rectangle-path" fill="#FE8113" fill-rule="nonzero" x="0" y="422.5" width="20.1" height="20.1"></rect>
                    <polygon id="Shape" fill="#FC790F" fill-rule="nonzero" points="20.1 402.4 40.2 402.4 40.2 382.3 60.4 382.3 60.4 362.2 80.5 362.2 80.5 342 80.5 321.9 60.4 321.9 60.4 342 40.2 342 20.1 342 20.1 362.2 0 362.2 0 382.3 0 402.4 0 422.5 20.1 422.5"></polygon>
                    <polygon id="Shape" fill="#FF650B" fill-rule="nonzero" points="20.1 342 40.2 342 40.2 321.9 60.4 321.9 80.5 321.9 80.5 301.8 80.5 281.7 60.4 281.7 60.4 301.8 40.2 301.8 20.1 301.8 20.1 321.9 0 321.9 0 342 0 362.2 20.1 362.2"></polygon>
                    <polygon id="Shape" fill="#FB540E" fill-rule="nonzero" points="20.1 301.8 40.2 301.8 60.4 301.8 60.4 281.7 80.5 281.7 80.5 261.6 60.4 261.6 40.2 261.6 40.2 281.7 20.1 281.7 0 281.7 0 301.8 0 321.9 20.1 321.9"></polygon>
                    <rect id="Rectangle-path" fill="#FE4407" fill-rule="nonzero" x="0" y="261.6" width="20.1" height="20.1"></rect>
                    <polygon id="Shape" fill="#FB3E28" fill-rule="nonzero" points="20.1 241.4 40.2 241.4 40.2 221.3 60.4 221.3 60.4 201.2 80.5 201.2 80.5 181.1 60.4 181.1 40.2 181.1 20.1 181.1 0 181.1 0 201.2 20.1 201.2 20.1 221.3 0 221.3 0 241.4 0 261.6 20.1 261.6"></polygon>
                    <rect id="Rectangle-path" fill="#FE4407" fill-rule="nonzero" x="0" y="201.2" width="20.1" height="20.1"></rect>
                    <rect id="Rectangle-path" fill="#AA2AA1" fill-rule="nonzero" x="0" y="80.5" width="20.1" height="20.1"></rect>
                    <g>
                        <polygon id="Shape" points="402.4 40.2 422.5 40.2 442.6 40.2 442.6 20.1 422.5 20.1 402.4 20.1 382.3 20.1 382.3 40.2"></polygon>
                        <polygon id="Shape" fill="#7726C9" fill-rule="nonzero" points="462.8 20.1 462.8 0 442.6 0 422.5 0 402.4 0 382.3 0 382.3 20.1 402.4 20.1 422.5 20.1 442.6 20.1 442.6 40.2 462.8 40.2 482.9 40.2 482.9 20.1"></polygon>
                        <polygon id="Shape" fill="#882AB2" fill-rule="nonzero" points="342 20.1 362.2 20.1 382.3 20.1 382.3 0 362.2 0 342 0 321.9 0 321.9 20.1"></polygon>
                        <polygon id="Shape" fill="#AA2AA1" fill-rule="nonzero" points="422.5 40.2 402.4 40.2 382.3 40.2 382.3 20.1 362.2 20.1 342 20.1 321.9 20.1 321.9 0 301.8 0 281.7 0 261.6 0 241.4 0 221.3 0 201.2 0 181.1 0 181.1 20.1 161 20.1 140.8 20.1 120.7 20.1 120.7 40.2 100.6 40.2 80.5 40.2 60.4 40.2 40.2 40.2 40.2 60.4 60.4 60.4 80.5 60.4 100.6 60.4 120.7 60.4 140.8 60.4 161 60.4 161 40.2 181.1 40.2 201.2 40.2 201.2 20.1 221.3 20.1 241.4 20.1 261.6 20.1 281.7 20.1 301.8 20.1 301.8 40.2 321.9 40.2 342 40.2 342 60.4 362.2 60.4 382.3 60.4 402.4 60.4 422.5 60.4 442.6 60.4 462.8 60.4 462.8 40.2 442.6 40.2"></polygon>
                        <polygon id="Shape" fill="#882AB2" fill-rule="nonzero" points="140.8 20.1 161 20.1 181.1 20.1 181.1 0 161 0 140.8 0 120.7 0 120.7 20.1"></polygon>
                        <polygon id="Shape" fill="#882AB2" fill-rule="nonzero" points="80.5 20.1 60.4 20.1 60.4 40.2 80.5 40.2 100.6 40.2 120.7 40.2 120.7 20.1 100.6 20.1"></polygon>
                        <polygon id="Shape" fill="#7726C9" fill-rule="nonzero" points="60.4 40.2 60.4 20.1 80.5 20.1 100.6 20.1 120.7 20.1 120.7 0 100.6 0 80.5 0 60.4 0 40.2 0 40.2 20.1 20.1 20.1 20.1 40.2 40.2 40.2"></polygon>
                        <rect id="Rectangle-path" fill="#AA2AA1" fill-rule="nonzero" x="20.1" y="60.4" width="20.1" height="20.1"></rect>
                        <polygon id="Shape" fill="#882AB2" fill-rule="nonzero" points="20.1 40.2 0 40.2 0 60.4 0 80.5 20.1 80.5 20.1 60.4 40.2 60.4 40.2 40.2"></polygon>
                    </g>
                </g>
            </g>
            <g id="Layer_11" transform="translate(725.000000, 7.000000)" fill-rule="nonzero">
                <g id="Group">
                    <polygon id="Shape" fill="#F83B35" points="482.9 261.6 482.9 281.7 482.9 301.8 482.9 321.9 503 321.9 503 301.8 503 281.7 503 261.6 503 241.4 482.9 241.4"></polygon>
                    <rect id="Rectangle-path" fill="#AA2AA1" x="482.9" y="80.5" width="20.1" height="20.1"></rect>
                    <polygon id="Shape" fill="#882AB2" points="482.9 40.2 462.8 40.2 462.8 60.4 482.9 60.4 482.9 80.5 503 80.5 503 60.4 503 40.2"></polygon>
                    <polygon id="Shape" fill="#FE4212" points="482.9 301.8 462.8 301.8 462.8 281.7 442.6 281.7 442.6 301.8 442.6 321.9 442.6 342 442.6 362.2 442.6 382.3 462.8 382.3 462.8 402.4 462.8 422.5 462.8 442.6 462.8 462.8 442.6 462.8 442.6 482.9 422.5 482.9 422.5 503 442.6 503 462.8 503 462.8 482.9 482.9 482.9 482.9 462.8 503 462.8 503 442.6 503 422.5 503 402.4 503 382.3 503 362.2 503 342 503 321.9 482.9 321.9"></polygon>
                    <rect id="Rectangle-path" fill="#F5354C" x="462.8" y="201.2" width="20.1" height="20.1"></rect>
                    <polygon id="Shape" fill="#F23160" points="462.8 161 442.6 161 442.6 181.1 442.6 201.2 462.8 201.2 482.9 201.2 482.9 221.3 482.9 241.4 503 241.4 503 221.3 503 201.2 503 181.1 503 161 482.9 161"></polygon>
                    <polygon id="Shape" fill="#F22367" points="462.8 140.8 442.6 140.8 422.5 140.8 422.5 161 442.6 161 462.8 161 482.9 161 503 161 503 140.8 482.9 140.8"></polygon>
                    <polygon id="Shape" fill="#E62E84" points="462.8 120.7 442.6 120.7 422.5 120.7 402.4 120.7 402.4 140.8 422.5 140.8 442.6 140.8 462.8 140.8 482.9 140.8 503 140.8 503 120.7 482.9 120.7"></polygon>
                    <polygon id="Shape" fill="#DF2B82" points="462.8 100.6 442.6 100.6 422.5 100.6 402.4 100.6 402.4 80.5 382.3 80.5 362.2 80.5 362.2 100.6 382.3 100.6 382.3 120.7 402.4 120.7 422.5 120.7 442.6 120.7 462.8 120.7 482.9 120.7 503 120.7 503 100.6 482.9 100.6"></polygon>
                    <rect id="Rectangle-path" fill="#AA2AA1" x="462.8" y="60.4" width="20.1" height="20.1"></rect>
                    <polygon id="Shape" fill="#FB3E2B" points="462.8 241.4 442.6 241.4 422.5 241.4 422.5 261.6 422.5 281.7 442.6 281.7 462.8 281.7 462.8 301.8 482.9 301.8 482.9 281.7 482.9 261.6 462.8 261.6"></polygon>
                    <polygon id="Shape" fill="#CA2A8C" points="442.6 80.5 422.5 80.5 402.4 80.5 402.4 100.6 422.5 100.6 442.6 100.6 462.8 100.6 482.9 100.6 482.9 80.5 462.8 80.5"></polygon>
                    <polygon id="Shape" fill="#FD5605" points="422.5 442.6 422.5 422.5 402.4 422.5 402.4 442.6 402.4 462.8 422.5 462.8 422.5 482.9 442.6 482.9 442.6 462.8 442.6 442.6"></polygon>
                    <polygon id="Shape" fill="#FF4800" points="442.6 402.4 422.5 402.4 402.4 402.4 402.4 422.5 422.5 422.5 422.5 442.6 442.6 442.6 442.6 462.8 462.8 462.8 462.8 442.6 462.8 422.5 442.6 422.5"></polygon>
                    <polygon id="Shape" fill="#FB540E" points="422.5 301.8 422.5 321.9 422.5 342 422.5 362.2 402.4 362.2 402.4 382.3 422.5 382.3 422.5 402.4 442.6 402.4 442.6 422.5 462.8 422.5 462.8 402.4 462.8 382.3 442.6 382.3 442.6 362.2 442.6 342 442.6 321.9 442.6 301.8 442.6 281.7 422.5 281.7"></polygon>
                    <polygon id="Shape" fill="#F63933" points="422.5 201.2 422.5 221.3 422.5 241.4 442.6 241.4 462.8 241.4 462.8 261.6 482.9 261.6 482.9 241.4 482.9 221.3 462.8 221.3 462.8 201.2 442.6 201.2 442.6 181.1 422.5 181.1"></polygon>
                    <rect id="Rectangle-path" fill="#F43159" x="422.5" y="161" width="20.1" height="20.1"></rect>
                    <polygon id="Shape" fill="#C62A8F" points="422.5 60.4 402.4 60.4 382.3 60.4 362.2 60.4 342 60.4 342 40.2 321.9 40.2 301.8 40.2 301.8 20.1 281.7 20.1 261.6 20.1 241.4 20.1 221.3 20.1 201.2 20.1 201.2 40.2 181.1 40.2 161 40.2 161 60.4 140.8 60.4 120.7 60.4 100.6 60.4 80.5 60.4 60.4 60.4 40.2 60.4 40.2 80.5 60.4 80.5 80.5 80.5 100.6 80.5 120.7 80.5 140.8 80.5 161 80.5 181.1 80.5 181.1 60.4 201.2 60.4 221.3 60.4 221.3 40.2 241.4 40.2 261.6 40.2 281.7 40.2 281.7 60.4 301.8 60.4 321.9 60.4 321.9 80.5 342 80.5 362.2 80.5 382.3 80.5 402.4 80.5 422.5 80.5 442.6 80.5 462.8 80.5 462.8 60.4 442.6 60.4"></polygon>
                    <polygon id="Shape" fill="#882AB2" points="422.5 20.1 402.4 20.1 382.3 20.1 382.3 40.2 402.4 40.2 422.5 40.2 442.6 40.2 442.6 20.1"></polygon>
                    <polygon id="Shape" fill="#FE6307" points="422.5 462.8 402.4 462.8 402.4 442.6 402.4 422.5 402.4 402.4 422.5 402.4 422.5 382.3 402.4 382.3 382.3 382.3 382.3 402.4 362.2 402.4 362.2 422.5 342 422.5 342 442.6 362.2 442.6 362.2 462.8 382.3 462.8 382.3 482.9 402.4 482.9 402.4 503 422.5 503 422.5 482.9"></polygon>
                    <polygon id="Shape" fill="#FD720D" points="382.3 482.9 382.3 462.8 362.2 462.8 362.2 442.6 342 442.6 321.9 442.6 321.9 462.8 321.9 482.9 342 482.9 342 503 362.2 503 382.3 503 402.4 503 402.4 482.9"></polygon>
                    <polygon id="Shape" fill="#F83F23" points="362.2 221.3 362.2 241.4 382.3 241.4 382.3 221.3 382.3 201.2 362.2 201.2"></polygon>
                    <polygon id="Shape" fill="#FE6307" points="342 261.6 342 281.7 321.9 281.7 321.9 301.8 321.9 321.9 342 321.9 342 342 362.2 342 382.3 342 382.3 321.9 382.3 301.8 382.3 281.7 382.3 261.6 362.2 261.6"></polygon>
                    <polygon id="Shape" fill="#FE5A05" points="342 241.4 342 261.6 362.2 261.6 382.3 261.6 382.3 241.4 362.2 241.4"></polygon>
                    <rect id="Rectangle-path" fill="#FF4D03" x="342" y="221.3" width="20.1" height="20.1"></rect>
                    <rect id="Rectangle-path" fill="#FB3E28" x="342" y="201.2" width="20.1" height="20.1"></rect>
                    <polygon id="Shape" fill="#F43159" points="342 181.1 342 201.2 362.2 201.2 382.3 201.2 382.3 181.1 362.2 181.1"></polygon>
                    <polygon id="Shape" fill="#FB8614" points="321.9 482.9 321.9 462.8 321.9 442.6 301.8 442.6 301.8 422.5 281.7 422.5 261.6 422.5 261.6 442.6 281.7 442.6 281.7 462.8 281.7 482.9 301.8 482.9 301.8 503 321.9 503 342 503 342 482.9"></polygon>
                    <rect id="Rectangle-path" fill="#FC7C11" x="321.9" y="362.2" width="20.1" height="20.1"></rect>
                    <polygon id="Shape" fill="#FD720D" points="342 321.9 321.9 321.9 301.8 321.9 281.7 321.9 281.7 342 301.8 342 321.9 342 321.9 362.2 342 362.2 362.2 362.2 362.2 342 342 342"></polygon>
                    <polygon id="Shape" fill="#FFFFFF" points="321.9 221.3 321.9 241.4 321.9 261.6 321.9 281.7 342 281.7 342 261.6 342 241.4 342 221.3"></polygon>
                    <rect id="Rectangle-path" fill="#FE4407" x="321.9" y="201.2" width="20.1" height="20.1"></rect>
                    <rect id="Rectangle-path" fill="#FB3E28" x="321.9" y="181.1" width="20.1" height="20.1"></rect>
                    <rect id="Rectangle-path" fill="#FFFFFF" x="321.9" y="161" width="20.1" height="20.1"></rect>
                    <polygon id="Shape" fill="#E62E84" points="201.2 140.8 221.3 140.8 241.4 140.8 261.6 140.8 281.7 140.8 301.8 140.8 321.9 140.8 342 140.8 342 120.7 321.9 120.7 301.8 120.7 281.7 120.7 261.6 120.7 241.4 120.7 221.3 120.7 201.2 120.7 181.1 120.7 161 120.7 161 140.8 181.1 140.8"></polygon>
                    <path d="M321.9,80.5 L301.8,80.5 L281.7,80.5 L261.6,80.5 L241.5,80.5 L221.4,80.5 L201.3,80.5 L181.2,80.5 L161,80.5 L140.9,80.5 L140.9,100.6 L120.8,100.6 L120.8,120.7 L100.7,120.7 L100.7,140.8 L80.6,140.8 L80.6,161 L80.6,181.1 L80.6,201.2 L80.6,221.3 L80.6,241.4 L80.6,261.5 L80.6,281.6 L80.6,301.7 L80.6,321.8 L80.6,342 L80.6,362.1 L100.7,362.1 L100.7,382.2 L120.8,382.2 L120.8,402.3 L140.9,402.3 L140.9,422.4 L161,422.4 L181.1,422.4 L201.2,422.4 L221.3,422.4 L241.4,422.4 L261.5,422.4 L281.6,422.4 L301.7,422.4 L321.8,422.4 L342,422.4 L362.1,422.4 L362.1,402.3 L382.2,402.3 L382.2,382.2 L402.3,382.2 L402.3,362.1 L422.4,362.1 L422.4,342 L422.4,321.9 L422.4,301.8 L422.4,281.7 L422.4,261.6 L422.4,241.5 L422.4,221.4 L422.4,201.3 L422.4,181.2 L422.4,161 L422.4,140.9 L402.3,140.9 L402.3,120.8 L382.2,120.8 L382.2,100.7 L362.1,100.7 L362.1,80.6 L342,80.6 L321.9,80.6 L321.9,80.5 Z M382.3,161 L382.3,181.1 L382.3,201.2 L382.3,221.3 L382.3,241.4 L382.3,261.5 L382.3,281.6 L382.3,301.7 L382.3,321.8 L382.3,342 L362.2,342 L362.2,362.1 L342,362.1 L342,382.2 L321.9,382.2 L301.8,382.2 L281.7,382.2 L261.6,382.2 L241.5,382.2 L221.4,382.2 L201.3,382.2 L181.2,382.2 L161,382.2 L161,362.1 L140.9,362.1 L140.9,342 L120.8,342 L120.8,321.9 L120.8,301.8 L120.8,281.7 L120.8,261.6 L120.8,241.5 L120.8,221.4 L120.8,201.3 L120.8,181.2 L120.8,161 L140.9,161 L140.9,140.9 L161,140.9 L161,120.8 L181.1,120.8 L201.2,120.8 L221.3,120.8 L241.4,120.8 L261.5,120.8 L281.6,120.8 L301.7,120.8 L321.8,120.8 L342,120.8 L342,140.9 L362.1,140.9 L362.1,161 L382.3,161 Z" id="Shape" fill="#FFFFFF"></path>
                    <polygon id="Shape" fill="#FC7C11" points="301.8 422.5 301.8 442.6 321.9 442.6 342 442.6 342 422.5 321.9 422.5"></polygon>
                    <polygon id="Shape" fill="#FF8722" points="301.8 362.2 301.8 342 281.7 342 261.6 342 241.4 342 221.3 342 221.3 362.2 241.4 362.2 261.6 362.2 281.7 362.2 281.7 382.3 301.8 382.3 321.9 382.3 321.9 362.2"></polygon>
                    <rect id="Rectangle-path" fill="#FC7C11" x="301.8" y="342" width="20.1" height="20.1"></rect>
                    <polygon id="Shape" fill="#FFFFFF" points="301.8 301.8 281.7 301.8 281.7 321.9 301.8 321.9 321.9 321.9 321.9 301.8 321.9 281.7 301.8 281.7"></polygon>
                    <polygon id="Shape" fill="#FC6C0C" points="301.8 261.6 281.7 261.6 261.6 261.6 261.6 281.7 281.7 281.7 301.8 281.7 321.9 281.7 321.9 261.6"></polygon>
                    <polygon id="Shape" fill="#F22367" points="342 140.8 321.9 140.8 301.8 140.8 281.7 140.8 261.6 140.8 241.4 140.8 221.3 140.8 201.2 140.8 181.1 140.8 161 140.8 140.8 140.8 140.8 161 161 161 181.1 161 201.2 161 221.3 161 241.4 161 261.6 161 281.7 161 301.8 161 321.9 161 342 161 342 181.1 362.2 181.1 382.3 181.1 382.3 161 362.2 161 362.2 140.8"></polygon>
                    <rect id="Rectangle-path" fill="#FD9719" x="281.7" y="482.9" width="20.1" height="20.1"></rect>
                    <rect id="Rectangle-path" fill="#FD720D" x="281.7" y="281.7" width="20.1" height="20.1"></rect>
                    <polygon id="Shape" fill="#FE5A05" points="281.7 241.4 261.6 241.4 241.4 241.4 221.3 241.4 201.2 241.4 181.1 241.4 181.1 261.6 201.2 261.6 221.3 261.6 241.4 261.6 261.6 261.6 281.7 261.6 301.8 261.6 321.9 261.6 321.9 241.4 301.8 241.4"></polygon>
                    <polygon id="Shape" fill="#FE4407" points="281.7 201.2 261.6 201.2 241.4 201.2 221.3 201.2 201.2 201.2 201.2 221.3 221.3 221.3 241.4 221.3 261.6 221.3 281.7 221.3 301.8 221.3 301.8 201.2"></polygon>
                    <polygon id="Shape" fill="#FFFFFF" points="301.8 201.2 301.8 221.3 321.9 221.3 321.9 201.2 321.9 181.1 301.8 181.1 281.7 181.1 281.7 201.2"></polygon>
                    <polygon id="Shape" fill="#F43159" points="301.8 181.1 321.9 181.1 321.9 161 301.8 161 281.7 161 281.7 181.1"></polygon>
                    <polygon id="Shape" fill="#F8A71A" points="261.6 482.9 241.4 482.9 241.4 503 261.6 503 281.7 503 281.7 482.9"></polygon>
                    <polygon id="Shape" fill="#FD9518" points="261.6 362.2 241.4 362.2 221.3 362.2 201.2 362.2 181.1 362.2 161 362.2 161 382.3 181.1 382.3 201.2 382.3 221.3 382.3 241.4 382.3 261.6 382.3 281.7 382.3 281.7 362.2"></polygon>
                    <polygon id="Shape" fill="#FC7C11" points="261.6 301.8 241.4 301.8 241.4 321.9 261.6 321.9 281.7 321.9 281.7 301.8"></polygon>
                    <polygon id="Shape" fill="#FD9719" points="241.4 462.8 241.4 482.9 261.6 482.9 281.7 482.9 281.7 462.8 281.7 442.6 261.6 442.6 261.6 462.8"></polygon>
                    <rect id="Rectangle-path" fill="#FC9417" x="241.4" y="422.5" width="20.1" height="20.1"></rect>
                    <polygon id="Shape" fill="#FFFFFF" points="241.4 321.9 221.3 321.9 221.3 342 241.4 342 261.6 342 281.7 342 281.7 321.9 261.6 321.9"></polygon>
                    <polygon id="Shape" fill="#FB7C11" points="241.4 301.8 261.6 301.8 281.7 301.8 281.7 281.7 261.6 281.7 241.4 281.7"></polygon>
                    <polygon id="Shape" fill="#FDA71C" points="241.4 462.8 261.6 462.8 261.6 442.6 241.4 442.6 241.4 422.5 221.3 422.5 201.2 422.5 181.1 422.5 181.1 442.6 201.2 442.6 201.2 462.8 201.2 482.9 201.2 503 221.3 503 241.4 503 241.4 482.9"></polygon>
                    <rect id="Rectangle-path" fill="#FC790F" x="221.3" y="301.8" width="20.1" height="20.1"></rect>
                    <polygon id="Shape" fill="#FC710A" points="221.3 281.7 201.2 281.7 201.2 301.8 221.3 301.8 241.4 301.8 241.4 281.7"></polygon>
                    <polygon id="Shape" fill="#FB3E28" points="241.4 201.2 261.6 201.2 281.7 201.2 281.7 181.1 261.6 181.1 241.4 181.1 221.3 181.1 221.3 201.2"></polygon>
                    <polygon id="Shape" fill="#FFFFFF" points="241.4 181.1 261.6 181.1 281.7 181.1 281.7 161 261.6 161 241.4 161 221.3 161 221.3 181.1"></polygon>
                    <polygon id="Shape" fill="#FFFFFF" points="201.2 301.8 201.2 281.7 181.1 281.7 181.1 301.8 181.1 321.9 201.2 321.9 221.3 321.9 221.3 301.8"></polygon>
                    <polygon id="Shape" fill="#FF650B" points="221.3 281.7 241.4 281.7 261.6 281.7 261.6 261.6 241.4 261.6 221.3 261.6 201.2 261.6 181.1 261.6 181.1 281.7 201.2 281.7"></polygon>
                    <polygon id="Shape" fill="#DF2B82" points="221.3 80.5 241.4 80.5 261.6 80.5 281.7 80.5 301.8 80.5 321.9 80.5 321.9 60.4 301.8 60.4 281.7 60.4 281.7 40.2 261.6 40.2 241.4 40.2 221.3 40.2 221.3 60.4 201.2 60.4 181.1 60.4 181.1 80.5 201.2 80.5"></polygon>
                    <polygon id="Shape" fill="#FFAE19" points="201.2 462.8 201.2 442.6 181.1 442.6 181.1 422.5 161 422.5 140.8 422.5 140.8 442.6 120.7 442.6 120.7 462.8 140.8 462.8 161 462.8 181.1 462.8 181.1 482.9 181.1 503 201.2 503 201.2 482.9"></polygon>
                    <polygon id="Shape" fill="#FC8916" points="201.2 362.2 221.3 362.2 221.3 342 201.2 342 181.1 342 161 342 161 362.2 181.1 362.2"></polygon>
                    <polygon id="Shape" fill="#FF4D03" points="201.2 241.4 221.3 241.4 241.4 241.4 261.6 241.4 281.7 241.4 301.8 241.4 321.9 241.4 321.9 221.3 301.8 221.3 281.7 221.3 261.6 221.3 241.4 221.3 221.3 221.3 201.2 221.3 181.1 221.3 181.1 241.4"></polygon>
                    <polygon id="Shape" fill="#FFFFFF" points="201.2 201.2 221.3 201.2 221.3 181.1 201.2 181.1 181.1 181.1 181.1 201.2 181.1 221.3 201.2 221.3"></polygon>
                    <polygon id="Shape" fill="#FBB321" points="181.1 462.8 161 462.8 140.8 462.8 120.7 462.8 100.6 462.8 100.6 482.9 120.7 482.9 120.7 503 140.8 503 161 503 181.1 503 181.1 482.9"></polygon>
                    <polygon id="Shape" fill="#FC790F" points="181.1 342 201.2 342 221.3 342 221.3 321.9 201.2 321.9 181.1 321.9 161 321.9 140.8 321.9 140.8 342 140.8 362.2 161 362.2 161 342"></polygon>
                    <polygon id="Shape" fill="#FFFFFF" points="181.1 241.4 181.1 221.3 161 221.3 161 241.4 161 261.6 161 281.7 181.1 281.7 181.1 261.6"></polygon>
                    <polygon id="Shape" fill="#FC710A" points="161 321.9 181.1 321.9 181.1 301.8 161 301.8 140.8 301.8 120.7 301.8 120.7 321.9 120.7 342 140.8 342 140.8 321.9"></polygon>
                    <polygon id="Shape" fill="#FF650B" points="161 301.8 181.1 301.8 181.1 281.7 161 281.7 161 261.6 140.8 261.6 120.7 261.6 120.7 281.7 120.7 301.8 140.8 301.8"></polygon>
                    <polygon id="Shape" fill="#FE5A05" points="161 261.6 161 241.4 140.8 241.4 120.7 241.4 120.7 261.6 140.8 261.6"></polygon>
                    <polygon id="Shape" fill="#FF4D03" points="161 241.4 161 221.3 140.8 221.3 120.7 221.3 120.7 241.4 140.8 241.4"></polygon>
                    <polygon id="Shape" fill="#FE4407" points="161 221.3 181.1 221.3 181.1 201.2 161 201.2 140.8 201.2 120.7 201.2 120.7 221.3 140.8 221.3"></polygon>
                    <polygon id="Shape" fill="#FB3E28" points="161 201.2 181.1 201.2 181.1 181.1 161 181.1 140.8 181.1 120.7 181.1 120.7 201.2 140.8 201.2"></polygon>
                    <polygon id="Shape" fill="#F43159" points="161 181.1 181.1 181.1 201.2 181.1 221.3 181.1 221.3 161 201.2 161 181.1 161 161 161 140.8 161 120.7 161 120.7 181.1 140.8 181.1"></polygon>
                    <polygon id="Shape" fill="#FDA71C" points="120.7 402.4 120.7 422.5 100.6 422.5 100.6 442.6 80.5 442.6 80.5 462.8 100.6 462.8 120.7 462.8 120.7 442.6 140.8 442.6 140.8 422.5 140.8 402.4"></polygon>
                    <polygon id="Shape" fill="#F8A71A" points="100.6 482.9 80.5 482.9 80.5 503 100.6 503 120.7 503 120.7 482.9"></polygon>
                    <rect id="Rectangle-path" fill="#FC9417" x="100.6" y="402.4" width="20.1" height="20.1"></rect>
                    <rect id="Rectangle-path" fill="#FAB421" x="80.5" y="462.8" width="20.1" height="20.1"></rect>
                    <polygon id="Shape" fill="#FC9417" points="100.6 422.5 80.5 422.5 60.4 422.5 40.2 422.5 20.1 422.5 20.1 442.6 40.2 442.6 60.4 442.6 80.5 442.6 100.6 442.6"></polygon>
                    <rect id="Rectangle-path" fill="#F3AC1E" x="60.4" y="482.9" width="20.1" height="20.1"></rect>
                    <rect id="Rectangle-path" fill="#FBAF1E" x="60.4" y="462.8" width="20.1" height="20.1"></rect>
                    <polygon id="Shape" fill="#FE8113" points="80.5 402.4 80.5 382.3 100.6 382.3 100.6 362.2 80.5 362.2 60.4 362.2 60.4 382.3 40.2 382.3 40.2 402.4 60.4 402.4"></polygon>
                    <rect id="Rectangle-path" fill="#FE5A05" x="60.4" y="241.4" width="20.1" height="20.1"></rect>
                    <rect id="Rectangle-path" fill="#FF4D03" x="60.4" y="221.3" width="20.1" height="20.1"></rect>
                    <rect id="Rectangle-path" fill="#FE4407" x="60.4" y="201.2" width="20.1" height="20.1"></rect>
                    <polygon id="Shape" fill="#CA2A8C" points="60.4 80.5 40.2 80.5 20.1 80.5 20.1 100.6 40.2 100.6 60.4 100.6 80.5 100.6 100.6 100.6 100.6 80.5 80.5 80.5"></polygon>
                    <polygon id="Shape" fill="#FBA01C" points="60.4 462.8 80.5 462.8 80.5 442.6 60.4 442.6 40.2 442.6 20.1 442.6 20.1 462.8 20.1 482.9 40.2 482.9 40.2 503 60.4 503 60.4 482.9"></polygon>
                    <polygon id="Shape" fill="#FD9518" points="60.4 422.5 80.5 422.5 100.6 422.5 100.6 402.4 120.7 402.4 120.7 382.3 100.6 382.3 80.5 382.3 80.5 402.4 60.4 402.4 40.2 402.4 40.2 422.5"></polygon>
                    <rect id="Rectangle-path" fill="#FC740E" x="40.2" y="321.9" width="20.1" height="20.1"></rect>
                    <polygon id="Shape" fill="#FE4407" points="60.4 221.3 40.2 221.3 40.2 241.4 20.1 241.4 20.1 261.6 40.2 261.6 60.4 261.6 60.4 241.4"></polygon>
                    <rect id="Rectangle-path" fill="#FE8113" x="20.1" y="402.4" width="20.1" height="20.1"></rect>
                    <rect id="Rectangle-path" fill="#FF4D03" x="20.1" y="261.6" width="20.1" height="20.1"></rect>
                    <polygon id="Shape" fill="#F43159" points="40.2 181.1 60.4 181.1 80.5 181.1 80.5 161 60.4 161 40.2 161 20.1 161 0 161 0 181.1 20.1 181.1"></polygon>
                    <polygon id="Shape" fill="#F22367" points="40.2 161 60.4 161 80.5 161 80.5 140.8 60.4 140.8 40.2 140.8 20.1 140.8 0 140.8 0 161 20.1 161"></polygon>
                    <polygon id="Shape" fill="#E62E84" points="40.2 140.8 60.4 140.8 80.5 140.8 100.6 140.8 100.6 120.7 80.5 120.7 60.4 120.7 40.2 120.7 20.1 120.7 0 120.7 0 140.8 20.1 140.8"></polygon>
                    <polygon id="Shape" fill="#DF2B82" points="40.2 120.7 60.4 120.7 80.5 120.7 100.6 120.7 120.7 120.7 120.7 100.6 140.8 100.6 140.8 80.5 120.7 80.5 100.6 80.5 100.6 100.6 80.5 100.6 60.4 100.6 40.2 100.6 20.1 100.6 0 100.6 0 120.7 20.1 120.7"></polygon>
                    <rect id="Rectangle-path" fill="#FD9518" x="0" y="442.6" width="20.1" height="20.1"></rect>
                    <rect id="Rectangle-path" fill="#FE8113" x="0" y="422.5" width="20.1" height="20.1"></rect>
                    <polygon id="Shape" fill="#FC790F" points="20.1 402.4 40.2 402.4 40.2 382.3 60.4 382.3 60.4 362.2 80.5 362.2 80.5 342 80.5 321.9 60.4 321.9 60.4 342 40.2 342 20.1 342 20.1 362.2 0 362.2 0 382.3 0 402.4 0 422.5 20.1 422.5"></polygon>
                    <polygon id="Shape" fill="#FF650B" points="20.1 342 40.2 342 40.2 321.9 60.4 321.9 80.5 321.9 80.5 301.8 80.5 281.7 60.4 281.7 60.4 301.8 40.2 301.8 20.1 301.8 20.1 321.9 0 321.9 0 342 0 362.2 20.1 362.2"></polygon>
                    <polygon id="Shape" fill="#FB540E" points="20.1 301.8 40.2 301.8 60.4 301.8 60.4 281.7 80.5 281.7 80.5 261.6 60.4 261.6 40.2 261.6 40.2 281.7 20.1 281.7 0 281.7 0 301.8 0 321.9 20.1 321.9"></polygon>
                    <rect id="Rectangle-path" fill="#FE4407" x="0" y="261.6" width="20.1" height="20.1"></rect>
                    <polygon id="Shape" fill="#FB3E28" points="20.1 241.4 40.2 241.4 40.2 221.3 60.4 221.3 60.4 201.2 80.5 201.2 80.5 181.1 60.4 181.1 40.2 181.1 20.1 181.1 0 181.1 0 201.2 20.1 201.2 20.1 221.3 0 221.3 0 241.4 0 261.6 20.1 261.6"></polygon>
                    <rect id="Rectangle-path" fill="#FE4407" x="0" y="201.2" width="20.1" height="20.1"></rect>
                    <rect id="Rectangle-path" fill="#AA2AA1" x="0" y="80.5" width="20.1" height="20.1"></rect>
                    <polygon id="Shape" fill="#7726C9" points="402.4 20.1 422.5 20.1 442.6 20.1 442.6 40.2 462.8 40.2 482.9 40.2 482.9 20.1 462.8 20.1 462.8 0 442.6 0 422.5 0 402.4 0 382.3 0 382.3 20.1"></polygon>
                    <polygon id="Shape" fill="#882AB2" points="342 20.1 362.2 20.1 382.3 20.1 382.3 0 362.2 0 342 0 321.9 0 321.9 20.1"></polygon>
                    <polygon id="Shape" fill="#AA2AA1" points="161 20.1 140.8 20.1 120.7 20.1 120.7 40.2 100.6 40.2 80.5 40.2 60.4 40.2 40.2 40.2 40.2 60.4 60.4 60.4 80.5 60.4 100.6 60.4 120.7 60.4 140.8 60.4 161 60.4 161 40.2 181.1 40.2 201.2 40.2 201.2 20.1 221.3 20.1 241.4 20.1 261.6 20.1 281.7 20.1 301.8 20.1 301.8 40.2 321.9 40.2 342 40.2 342 60.4 362.2 60.4 382.3 60.4 402.4 60.4 422.5 60.4 442.6 60.4 462.8 60.4 462.8 40.2 442.6 40.2 422.5 40.2 402.4 40.2 382.3 40.2 382.3 20.1 362.2 20.1 342 20.1 321.9 20.1 321.9 0 301.8 0 281.7 0 261.6 0 241.4 0 221.3 0 201.2 0 181.1 0 181.1 20.1"></polygon>
                    <polygon id="Shape" fill="#882AB2" points="140.8 20.1 161 20.1 181.1 20.1 181.1 0 161 0 140.8 0 120.7 0 120.7 20.1"></polygon>
                    <polygon id="Shape" fill="#882AB2" points="100.6 40.2 120.7 40.2 120.7 20.1 100.6 20.1 80.5 20.1 60.4 20.1 60.4 40.2 80.5 40.2"></polygon>
                    <polygon id="Shape" fill="#7726C9" points="60.4 40.2 60.4 20.1 80.5 20.1 100.6 20.1 120.7 20.1 120.7 0 100.6 0 80.5 0 60.4 0 40.2 0 40.2 20.1 20.1 20.1 20.1 40.2 40.2 40.2"></polygon>
                    <rect id="Rectangle-path" fill="#AA2AA1" x="20.1" y="60.4" width="20.1" height="20.1"></rect>
                    <polygon id="Shape" fill="#882AB2" points="20.1 60.4 40.2 60.4 40.2 40.2 20.1 40.2 0 40.2 0 60.4 0 80.5 20.1 80.5"></polygon>
                </g>
            </g>
        </g>
    </g>
</svg>