<?xml version="1.0" encoding="UTF-8"?>
<svg width="503px" height="503px" viewBox="0 0 503 503" version="1.1" xmlns="http://www.w3.org/2000/svg" xmlns:xlink="http://www.w3.org/1999/xlink">
    <!-- Generator: Sketch 48.2 (47327) - http://www.bohemiancoding.com/sketch -->
    <title>snap</title>
    <desc>Created with Sketch.</desc>
    <defs></defs>
    <g id="Page-1" stroke="none" stroke-width="1" fill="none" fill-rule="evenodd">
        <g id="snap" transform="translate(-726.000000, -7.000000)" fill-rule="nonzero">
            <g id="SNAPSHIT" transform="translate(726.000000, 7.000000)">
                <g id="Group">
                    <polygon id="Shape" fill="#FFFFFF" points="384.7 305.8 402.4 305.8 402.4 305.8 382.3 305.8 382.3 305.8"></polygon>
                    <polygon id="Shape" fill="#FFFFFF" points="304.6 84.5 321.9 84.5 321.9 84.4 301.8 84.4 301.8 84.5"></polygon>
                    <polygon id="Shape" fill="#FFFFFF" points="402.4 325.9 404.8 325.9 422.5 325.9 422.5 325.9"></polygon>
                    <polygon id="Shape" fill="#FFFFFF" points="100.6 325.9 100.6 325.9 80.5 325.9 80.5 325.9 84.1 325.9"></polygon>
                    <polygon id="Shape" fill="#FFFFFF" points="120.7 304.6 120.7 301.8 120.6 301.8 120.6 305.8 120.7 305.8"></polygon>
                    <polygon id="Shape" fill="#FFFFFF" points="140.8 284.6 140.8 281.7 140.8 281.7 140.8 285.7 140.8 285.7"></polygon>
                    <polygon id="Shape" fill="#FFFFFF" points="201.2 84.2 201.2 80.5 201 80.5 201 84.5 201.2 84.5"></polygon>
                    <polygon id="Shape" fill="#FFFFFF" points="362.2 285.7 362.2 285.7 362.2 281.7 362.2 281.7 362.2 284.6"></polygon>
                    <polygon id="Shape" fill="#FFFFFF" points="321.9 382.3 321.9 366.2 324.6 366.2 342 366.2 344.6 366.2 362.2 366.2 364.7 366.2 382.3 366.2 382.3 364.7 382.3 346 384.7 346 402.4 346 402.4 344.7 402.4 325.9 384.7 325.9 382.3 325.9 382.3 324.6 382.3 305.8 364.7 305.8 362.2 305.8 362.2 304.6 362.2 285.7 344.6 285.7 342 285.7 342 284.6 342 265.6 342 264.5 342 245.4 344.6 245.4 362.2 245.4 364.7 245.4 382.3 245.4 382.3 244.5 382.3 241.4 382.3 225.3 364.7 225.3 362.2 225.3 344.6 225.3 342 225.3 342 224.4 342 205.2 342 204.4 342 185.1 342 184.4 342 165 342 164.3 342 144.8 342 144.3 342 124.8 341.5 124.8 341.5 124.7 324.6 124.7 321.9 124.7 321.9 124.2 321.9 104.6 304.6 104.6 301.8 104.6 301.8 104.2 301.8 84.5 291.1 84.5 284.5 84.5 281.7 84.5 264.5 84.5 261.6 84.5 244.4 84.5 241.4 84.5 221.3 84.5 204.4 84.5 201.2 84.5 201.2 104.2 201.2 104.6 184.3 104.6 181.1 104.6 181.1 124.2 181.1 124.7 164.3 124.7 161 124.7 161 144.3 161 144.8 161 164.3 161 165 161 184.4 161 185.1 161 204.4 161 205.2 161 224.4 161 225.3 144.2 225.3 140.8 225.3 124.2 225.3 120.7 225.3 120.7 241.4 120.7 244.5 120.7 245.4 124.2 245.4 140.8 245.4 144.2 245.4 161 245.4 161 264.5 161 265.6 161 284.6 161 285.7 144.2 285.7 140.8 285.7 140.8 304.6 140.8 305.8 124.2 305.8 120.7 305.8 120.7 324.6 120.7 325.9 104.2 325.9 100.6 325.9 100.6 344.7 100.6 346 104.2 346 120.7 346 120.7 364.7 120.7 366.2 124.2 366.2 140.8 366.2 144.2 366.2 161 366.2 164.3 366.2 181.1 366.2 181.1 382.3 181.1 384.8 181.1 386.3 184.3 386.3 201.2 386.3 204.4 386.3 221.3 386.3 221.3 402.4 221.3 404.8 221.3 406.4 241.4 406.4 244.4 406.4 261.6 406.4 264.5 406.4 281.7 406.4 281.7 404.8 281.7 402.4 281.7 386.3 284.5 386.3 291.1 386.3 301.8 386.3 304.6 386.3 321.9 386.3 321.9 384.8"></polygon>
                    <polygon id="Shape" fill="#FFFFFF" points="324.6 104.6 342 104.6 342 104.5 321.9 104.5 321.9 104.6"></polygon>
                    <path d="M490,40.2 L484.9,40.2 L482.9,40.2 L482.9,40 L482.9,20 L470,20 L464.9,20 L462.8,20 L462.8,0 L450,0 L444.9,0 L442.7,0 L424.9,0 L422.6,0 L404.8,0 L402.4,0 L384.7,0 L382.3,0 L364.7,0 L362.2,0 L344.7,0 L342,0 L324.6,0 L321.9,0 L304.5,0 L301.7,0 L284.4,0 L281.6,0 L264.4,0 L261.5,0 L244.4,0 L241.4,0 L221.3,0 L204.3,0 L201.1,0 L184.2,0 L181,0 L164.2,0 L161,0 L144.3,0 L140.9,0 L124.3,0 L120.8,0 L104.2,0 L100.6,0 L84.1,0 L80.5,0 L64.1,0 L60.4,0 L44,0 L40.2,0 L40.2,20 L40.2,20.1 L24,20.1 L20.1,20.1 L20.1,40.1 L20.1,40.3 L0,40.3 L0,60.2 L0,60.4 L0,80.2 L0,80.5 L0,100.2 L0,100.6 L0,120.2 L0,120.7 L0,140.3 L0,140.9 L0,160.4 L0,161 L0,180.4 L0,181.1 L0,200.4 L0,201.2 L0,220.4 L0,221.3 L0,240.5 L0,241.5 L0,260.6 L0,261.6 L0,280.6 L0,281.7 L0,300.6 L0,301.8 L0,320.6 L0,321.9 L0,340.7 L0,342.1 L0,360.8 L0,362.2 L0,380.8 L0,382.3 L0,400.8 L0,402.4 L0,420.8 L0,422.5 L0,440.9 L0,442.7 L0,461 L0,462.8 L20.1,462.8 L20.1,481 L20.1,482.9 L24,482.9 L40.2,482.9 L40.2,501 L40.2,503 L60.3,503 L80.4,503 L100.5,503 L120.6,503 L140.7,503 L161,503 L181.1,503 L201.2,503 L221.3,503 L241.4,503 L261.5,503 L281.6,503 L291,503 L301.7,503 L321.8,503 L342,503 L362.1,503 L382.2,503 L402.3,503 L422.4,503 L442.5,503 L462.6,503 L462.6,501 L462.6,482.9 L464.7,482.9 L469.8,482.9 L482.7,482.9 L482.7,481 L482.7,462.8 L484.7,462.8 L489.8,462.8 L502.8,462.8 L502.8,461 L502.8,442.7 L502.8,440.9 L502.8,422.5 L502.8,420.8 L502.8,402.4 L502.8,400.8 L502.8,382.3 L502.8,380.8 L502.8,362.2 L502.8,360.8 L502.8,342 L502.8,340.6 L502.8,321.8 L502.8,320.5 L502.8,301.7 L502.8,300.5 L502.8,281.6 L502.8,280.5 L502.8,261.5 L502.8,260.5 L502.8,241.4 L502.8,240.4 L502.8,221.2 L502.8,220.3 L502.8,201.1 L502.8,200.3 L502.8,181 L502.8,180.3 L502.8,161 L502.8,160.4 L502.8,140.9 L502.8,140.3 L502.8,120.7 L502.8,120.2 L502.8,100.6 L502.8,100.2 L502.8,80.5 L502.8,80.2 L502.8,60.4 L502.8,60.2 L502.8,40.3 L490,40.3 L490,40.2 Z M422.5,325.9 L422.5,340.7 L422.5,342.1 L422.5,344.7 L422.5,346.1 L422.5,360.8 L422.5,362.2 L422.5,364.8 L422.5,366.2 L404.7,366.2 L402.3,366.2 L402.3,380.8 L402.3,382.3 L402.3,384.8 L402.3,386.3 L384.6,386.3 L382.2,386.3 L364.6,386.3 L362.1,386.3 L344.6,386.3 L342,386.3 L324.6,386.3 L321.9,386.3 L321.9,400.8 L321.9,402.4 L321.9,404.8 L321.9,406.4 L304.5,406.4 L301.7,406.4 L291,406.4 L284.4,406.4 L281.6,406.4 L281.6,420.8 L281.6,422.5 L281.6,424.8 L281.6,426.5 L264.4,426.5 L261.5,426.5 L244.4,426.5 L241.4,426.5 L221.3,426.5 L221.3,424.8 L221.3,422.5 L221.3,420.8 L221.3,406.4 L204.3,406.4 L201.1,406.4 L184.2,406.4 L181,406.4 L181,404.8 L181,402.4 L181,400.8 L181,386.3 L164.2,386.3 L161,386.3 L144.3,386.3 L140.9,386.3 L124.3,386.3 L120.8,386.3 L104.2,386.3 L100.6,386.3 L100.6,384.8 L100.6,382.3 L100.6,380.8 L100.6,366.2 L84.1,366.2 L80.5,366.2 L80.5,364.8 L80.5,362.2 L80.5,360.8 L80.5,346 L80.5,344.6 L80.5,342 L80.5,340.6 L80.5,325.8 L100.6,325.8 L100.6,324.6 L100.6,321.9 L100.6,320.6 L100.6,305.8 L104.2,305.8 L120.7,305.8 L120.7,301.8 L120.8,301.8 L120.8,300.6 L120.8,285.7 L124.3,285.7 L140.8,285.7 L140.8,281.7 L140.9,281.7 L140.9,280.6 L140.9,265.6 L124.3,265.6 L120.8,265.6 L120.8,264.6 L120.8,261.6 L120.8,260.6 L120.8,245.5 L104.2,245.5 L100.6,245.5 L100.6,244.5 L100.6,241.5 L100.6,240.5 L100.6,225.3 L100.6,224.4 L100.6,221.3 L100.6,220.4 L100.6,205.2 L104.2,205.2 L120.8,205.2 L124.3,205.2 L140.9,205.2 L140.9,204.4 L140.9,201.2 L140.9,200.4 L140.9,185.1 L140.9,184.4 L140.9,181.1 L140.9,180.4 L140.9,165 L140.9,164.4 L140.9,161 L140.9,160.4 L140.9,144.9 L140.9,144.3 L140.9,140.9 L140.9,140.3 L140.9,124.7 L144.3,124.7 L161,124.7 L161,124.2 L161,120.7 L161,120.2 L161,114.2 L161,104.5 L164.3,104.5 L181.1,104.5 L181.1,104.1 L181.1,100.5 L181.1,100.1 L181.1,97.1 L181.1,84.3 L184.3,84.3 L201,84.3 L201,80.3 L201.2,80.3 L201.2,80 L201.2,64.2 L204.4,64.2 L221.4,64.2 L241.5,64.2 L244.5,64.2 L261.6,64.2 L264.5,64.2 L281.7,64.2 L284.5,64.2 L291.1,64.2 L301.8,64.2 L301.8,80 L301.8,80.3 L301.8,84 L301.8,84.2 L321.9,84.2 L321.9,84.3 L321.9,100 L321.9,100.4 L321.9,104 L321.9,104.3 L342,104.3 L342,104.4 L342,120 L342,120.5 L342,124 L342,124.5 L344.6,124.5 L362.1,124.5 L362.1,140.1 L362.1,140.7 L362.1,144.1 L362.1,144.7 L362.1,160.2 L362.1,160.8 L362.1,164.2 L362.1,164.8 L362.1,180.2 L362.1,180.9 L362.1,184.2 L362.1,184.9 L362.1,200.2 L362.1,201 L362.1,204.2 L362.1,205 L364.6,205 L382.2,205 L384.6,205 L402.3,205 L402.3,220.2 L402.3,221.1 L402.3,224.2 L402.3,225.1 L402.3,240.3 L402.3,241.3 L402.3,244.3 L402.3,245.3 L384.6,245.3 L382.2,245.3 L382.2,260.4 L382.2,261.4 L382.2,264.4 L382.2,265.4 L364.6,265.4 L362.1,265.4 L362.1,280.4 L362.1,281.5 L362.1,285.5 L364.6,285.5 L382.2,285.5 L382.2,300.4 L382.2,301.6 L382.2,304.4 L382.2,305.6 L402.3,305.6 L402.3,320.4 L402.3,321.7 L402.3,324.4 L402.3,325.6 L422.5,325.9 Z" id="Shape" fill="#FFFE03"></path>
                    <rect id="Rectangle-path" fill="#FFFE03" x="341.5" y="124.7" width="1" height="1"></rect>
                    <polygon id="Shape" fill="#000000" points="402.4 325.9 402.4 344.7 402.4 346 384.7 346 382.3 346 382.3 364.7 382.3 366.2 364.7 366.2 362.2 366.2 344.6 366.2 342 366.2 324.6 366.2 321.9 366.2 321.9 382.3 321.9 384.8 321.9 386.3 324.6 386.3 342 386.3 344.6 386.3 362.2 386.3 364.7 386.3 382.3 386.3 384.7 386.3 402.4 386.3 402.4 384.8 402.4 382.3 402.4 380.8 402.4 366.2 404.8 366.2 422.5 366.2 422.5 364.7 422.5 362.2 422.5 360.7 422.5 346 422.5 344.7 422.5 342 422.5 340.7 422.5 325.9 404.8 325.9"></polygon>
                    <polygon id="Shape" fill="#000000" points="382.3 305.8 382.3 324.6 382.3 325.9 384.7 325.9 402.4 325.9 402.4 325.9 402.4 324.6 402.4 321.9 402.4 320.6 402.4 305.8 384.7 305.8"></polygon>
                    <polygon id="Shape" fill="#000000" points="362.2 304.6 362.2 305.8 364.7 305.8 382.3 305.8 382.3 305.8 382.3 304.6 382.3 301.8 382.3 300.6 382.3 285.7 364.7 285.7 362.2 285.7 362.2 285.7"></polygon>
                    <polygon id="Shape" fill="#000000" points="362.2 245.4 344.6 245.4 342 245.4 342 264.5 342 265.6 342 284.6 342 285.7 344.6 285.7 362.2 285.7 362.2 284.6 362.2 281.7 362.2 280.6 362.2 265.6 364.7 265.6 382.3 265.6 382.3 264.5 382.3 261.6 382.3 260.5 382.3 245.4 364.7 245.4"></polygon>
                    <polygon id="Shape" fill="#000000" points="342 144.3 342 144.8 342 164.3 342 165 342 184.4 342 185.1 342 204.4 342 205.2 342 224.4 342 225.3 344.6 225.3 362.2 225.3 364.7 225.3 382.3 225.3 382.3 241.4 382.3 244.5 382.3 245.4 384.7 245.4 402.4 245.4 402.4 244.5 402.4 241.4 402.4 240.5 402.4 225.3 402.4 224.4 402.4 221.3 402.4 220.4 402.4 205.2 384.7 205.2 382.3 205.2 364.7 205.2 362.2 205.2 362.2 204.4 362.2 201.2 362.2 200.4 362.2 185.1 362.2 184.4 362.2 181.1 362.2 180.4 362.2 165 362.2 164.3 362.2 161 362.2 160.3 362.2 144.8 362.2 144.3 362.2 140.8 362.2 140.3 362.2 124.7 344.6 124.7 342 124.7 342 124.8"></polygon>
                    <polygon id="Shape" fill="#000000" points="321.9 104.6 321.9 124.2 321.9 124.7 324.6 124.7 341.5 124.7 342 124.7 342 124.2 342 120.7 342 120.2 342 104.6 324.6 104.6"></polygon>
                    <polygon id="Shape" fill="#000000" points="301.8 386.3 291.1 386.3 284.5 386.3 281.7 386.3 281.7 402.4 281.7 404.8 281.7 406.4 284.5 406.4 291.1 406.4 301.8 406.4 304.6 406.4 321.9 406.4 321.9 404.8 321.9 402.4 321.9 400.8 321.9 386.3 304.6 386.3"></polygon>
                    <polygon id="Shape" fill="#000000" points="301.8 84.5 301.8 104.2 301.8 104.6 304.6 104.6 321.9 104.6 321.9 104.5 321.9 104.2 321.9 100.6 321.9 100.2 321.9 84.5 304.6 84.5"></polygon>
                    <polygon id="Shape" fill="#000000" points="201.2 84.5 204.4 84.5 221.3 84.5 241.4 84.5 244.4 84.5 261.6 84.5 264.5 84.5 281.7 84.5 284.5 84.5 291.1 84.5 301.8 84.5 301.8 84.4 301.8 84.2 301.8 80.5 301.8 80.2 301.8 64.4 291.1 64.4 284.5 64.4 281.7 64.4 264.5 64.4 261.6 64.4 244.4 64.4 241.4 64.4 221.3 64.4 204.4 64.4 201.2 64.4 201.2 80.2 201.2 80.5 201.2 84.2"></polygon>
                    <polygon id="Shape" fill="#000000" points="261.6 406.4 244.4 406.4 241.4 406.4 221.3 406.4 221.3 420.8 221.3 422.5 221.3 424.8 221.3 426.5 241.4 426.5 244.4 426.5 261.6 426.5 264.5 426.5 281.7 426.5 281.7 424.8 281.7 422.5 281.7 420.8 281.7 406.4 264.5 406.4"></polygon>
                    <polygon id="Shape" fill="#000000" points="221.3 402.4 221.3 386.3 204.4 386.3 201.2 386.3 184.3 386.3 181.1 386.3 181.1 400.8 181.1 402.4 181.1 404.8 181.1 406.4 184.3 406.4 201.2 406.4 204.4 406.4 221.3 406.4 221.3 404.8"></polygon>
                    <polygon id="Shape" fill="#000000" points="201.2 104.6 201.2 104.2 201.2 84.5 201 84.5 184.3 84.5 181.1 84.5 181.1 97.3 181.1 100.2 181.1 100.6 181.1 104.2 181.1 104.6 184.3 104.6"></polygon>
                    <polygon id="Shape" fill="#000000" points="181.1 382.3 181.1 366.2 164.3 366.2 161 366.2 144.2 366.2 140.8 366.2 124.2 366.2 120.7 366.2 120.7 364.7 120.7 346 104.2 346 100.6 346 100.6 344.7 100.6 325.9 84.1 325.9 80.5 325.9 80.5 340.7 80.5 342 80.5 344.7 80.5 346 80.5 360.7 80.5 362.2 80.5 364.7 80.5 366.2 84.1 366.2 100.6 366.2 100.6 380.8 100.6 382.3 100.6 384.8 100.6 386.3 104.2 386.3 120.7 386.3 124.2 386.3 140.8 386.3 144.2 386.3 161 386.3 164.3 386.3 181.1 386.3 181.1 384.8"></polygon>
                    <polygon id="Shape" fill="#000000" points="181.1 124.7 181.1 124.2 181.1 104.6 164.3 104.6 161 104.6 161 114.3 161 120.2 161 120.7 161 124.2 161 124.7 164.3 124.7"></polygon>
                    <polygon id="Shape" fill="#000000" points="140.8 285.7 144.2 285.7 161 285.7 161 284.6 161 265.6 161 264.5 161 245.4 144.2 245.4 140.8 245.4 124.2 245.4 120.7 245.4 120.7 260.5 120.7 261.6 120.7 264.5 120.7 265.6 124.2 265.6 140.8 265.6 140.8 280.6 140.8 281.7 140.8 284.6"></polygon>
                    <polygon id="Shape" fill="#000000" points="120.7 305.8 124.2 305.8 140.8 305.8 140.8 304.6 140.8 285.7 140.8 285.7 124.2 285.7 120.7 285.7 120.7 300.6 120.7 301.8 120.7 304.6"></polygon>
                    <polygon id="Shape" fill="#000000" points="104.2 325.9 120.7 325.9 120.7 324.6 120.7 305.8 120.6 305.8 104.2 305.8 100.6 305.8 100.6 320.6 100.6 321.9 100.6 324.6 100.6 325.9 100.6 325.9"></polygon>
                    <polygon id="Shape" fill="#000000" points="120.7 241.4 120.7 225.3 124.2 225.3 140.8 225.3 144.2 225.3 161 225.3 161 224.4 161 205.2 161 204.4 161 185.1 161 184.4 161 165 161 164.3 161 144.8 161 144.3 161 124.7 144.2 124.7 140.8 124.7 140.8 140.3 140.8 140.8 140.8 144.3 140.8 144.8 140.8 160.3 140.8 161 140.8 164.3 140.8 165 140.8 180.4 140.8 181.1 140.8 184.4 140.8 185.1 140.8 200.4 140.8 201.2 140.8 204.4 140.8 205.2 124.2 205.2 120.7 205.2 104.2 205.2 100.6 205.2 100.6 220.4 100.6 221.3 100.6 224.4 100.6 225.3 100.6 240.5 100.6 241.4 100.6 244.5 100.6 245.4 104.2 245.4 120.7 245.4 120.7 244.5"></polygon>
                </g>
            </g>
        </g>
    </g>
</svg>