<?xml version="1.0" encoding="UTF-8" standalone="no"?>
<svg
   xmlns:dc="http://purl.org/dc/elements/1.1/"
   xmlns:cc="http://creativecommons.org/ns#"
   xmlns:rdf="http://www.w3.org/1999/02/22-rdf-syntax-ns#"
   xmlns:svg="http://www.w3.org/2000/svg"
   xmlns="http://www.w3.org/2000/svg"
   viewBox="0 0 1044.12 437.95999"
   height="437.95999"
   width="1044.12"
   xml:space="preserve"
   id="svg2"
   version="1.1"><metadata
     id="metadata8"><rdf:RDF><cc:Work
         rdf:about=""><dc:format>image/svg+xml</dc:format><dc:type
           rdf:resource="http://purl.org/dc/dcmitype/StillImage" /></cc:Work></rdf:RDF></metadata><defs
     id="defs6" /><g
     transform="matrix(1.3333333,0,0,-1.3333333,0,437.96)"
     id="g10"><g
       transform="scale(0.1)"
       id="g12"><path
         id="path14"
         style="fill:#ffffff;fill-opacity:1;fill-rule:nonzero;stroke:none"
         d="m 789.945,1702.86 c 1.395,8.77 180.075,668.75 242.365,772.64 236.7,409.5 420.46,433.52 650.75,532.42 396.09,168.4 662.84,257.31 724.83,275.33 l -25.87,1.41 h -1177.23 81.89 -238.25 c -114.211,-0.18 -225.172,-6.37 -337.946,-26.49 0,0 -241.414,-40.85 -389.039,-154.49 l -0.679,-0.42 C 215.816,3029.46 112.219,2918.63 50.7617,2759.32 v 0.51 l -0.4844,-1.14 0.0821,-0.24 C 22.3828,2684.3 10.1328,2610.91 5.97266,2538.59 H 5.65625 c 0.23047,-0.21 -3.25781,-13.71 -3.57422,-42.32 V 2081.44 L 3.47266,684.852 357.641,685.25 c 0,0 137.64,25.441 188.812,185.789 39.891,140.071 86.141,254.391 137.547,439.071 l 105.945,392.75" /><path
         id="path16"
         style="fill:#ffffff;fill-opacity:1;fill-rule:nonzero;stroke:none"
         d="m 2401.38,2787.9 -1.4,160.9 c -77.32,-29.7 -121.95,-35.05 -207.03,-68.3 -361.93,-141.11 -800.5,-220.07 -937.11,-651.95 -13.67,-30.63 -33.01,-113.61 -56.27,-196.32 -41.21,-146.79 -94.8,-350.85 -149.64,-554.11 C 998.254,1286.47 998.254,1284.85 936.758,1050.99 875.797,818.84 834.531,709.051 759.23,680.539 l 1642.15,0.063 V 1034.67 2787.9" /><path
         id="path18"
         style="fill:#ffffff;fill-opacity:1;fill-rule:nonzero;stroke:none"
         d="M 0,407.539 V 0.628906 h 1441.04 c 114.17,0.191407 225.07,6.261724 337.83,26.441394 l 3.48,0.582 C 1884.49,46.8398 1953.97,80 2085.98,181.5 l 0.87,0.5 c 76.47,53.898 152.11,127.832 211.46,225.539 H 0" /><path
         id="path20"
         style="fill:#ffffff;fill-opacity:1;fill-rule:nonzero;stroke:none"
         d="m 3022.32,215.801 h 103.35 l -51.68,133.41 z M 3228.18,89.6797 h -53.69 l -30.48,78.8513 H 3003.98 L 2973.5,89.6797 h -51.9 l 122.13,309.2223 h 62.31 L 3228.18,89.6797" /><path
         id="path22"
         style="fill:#ffffff;fill-opacity:1;fill-rule:nonzero;stroke:none"
         d="M 3700.41,89.6797 H 3650.5 V 344.129 l -90.35,-224.188 h -52.56 l -90.33,221.758 V 89.6797 H 3367.3 V 398.902 h 76.66 l 89.91,-220.863 89.88,220.863 h 76.66 V 89.6797" /><path
         id="path24"
         style="fill:#ffffff;fill-opacity:1;fill-rule:nonzero;stroke:none"
         d="m 3863.63,263.289 c -10.02,0 -18.97,-1.797 -26.83,-5.41 -7.88,-3.609 -14.55,-8.457 -20.01,-14.59 -5.43,-6.098 -9.63,-13.269 -12.59,-21.519 -2.96,-8.25 -4.41,-17.008 -4.41,-26.29 0,-9.281 1.45,-18.039 4.41,-26.289 2.96,-8.242 7.16,-15.421 12.59,-21.519 5.46,-6.133 12.13,-10.992 20.01,-14.59 7.86,-3.613 16.81,-5.41 26.83,-5.41 9.57,0 18.26,1.726 26.07,5.18 7.8,3.457 14.51,8.218 20.09,14.257 5.59,6.039 9.95,13.172 13.02,21.422 3.11,8.239 4.64,17.239 4.64,26.949 0,9.719 -1.53,18.692 -4.64,26.95 -3.07,8.25 -7.43,15.379 -13.02,21.422 -5.58,6.027 -12.29,10.796 -20.09,14.257 -7.81,3.442 -16.5,5.18 -26.07,5.18 z M 3970.76,89.6797 h -46.18 v 25.4023 c -7.34,-9.422 -16.47,-16.9414 -27.38,-22.5312 -10.89,-5.6016 -23.92,-8.4024 -39.1,-8.4024 -14.86,0 -28.71,2.7735 -41.51,8.2813 -12.81,5.5312 -24.02,13.2303 -33.59,23.0903 -9.57,9.871 -17.08,21.609 -22.53,35.23 -5.46,13.629 -8.17,28.531 -8.17,44.73 0,16.2 2.71,31.102 8.17,44.739 5.45,13.613 12.96,25.363 22.53,35.222 9.57,9.86 20.78,17.551 33.59,23.09 12.8,5.508 26.65,8.27 41.51,8.27 15.18,0 28.21,-2.832 39.1,-8.5 10.91,-5.66 20.04,-13.219 27.38,-22.629 v 25.617 h 46.18 V 89.6797" /><path
         id="path26"
         style="fill:#ffffff;fill-opacity:1;fill-rule:nonzero;stroke:none"
         d="m 4176.18,248.262 c -3.26,1.918 -7.23,3.949 -11.93,6.078 -4.71,2.14 -9.93,4.101 -15.69,5.859 -5.72,1.762 -11.8,3.242 -18.2,4.422 -6.41,1.168 -12.94,1.758 -19.55,1.758 -12.68,0 -22.51,-2.32 -29.51,-6.949 -6.98,-4.649 -10.49,-10.719 -10.49,-18.219 0,-3.691 0.93,-6.781 2.76,-9.281 1.84,-2.5 4.31,-4.559 7.42,-6.188 3.08,-1.621 6.76,-2.91 11.03,-3.863 4.28,-0.969 8.83,-1.82 13.69,-2.547 l 21.87,-3.301 c 23.1,-3.39 41.17,-10.133 54.12,-20.222 12.96,-10.079 19.43,-24.188 19.43,-42.278 0,-10.179 -2.17,-19.492 -6.5,-27.949 -4.36,-8.473 -10.62,-15.762 -18.79,-21.871 -8.16,-6.1212 -18.25,-10.8712 -30.25,-14.2618 -12.01,-3.3672 -25.59,-5.0586 -40.76,-5.0586 -5.44,0 -11.78,0.3203 -18.98,0.9805 -7.24,0.668 -14.89,1.9883 -22.97,3.9805 -8.1,1.9882 -16.35,4.75 -24.75,8.2773 -8.4,3.5311 -16.42,8.1801 -24.08,13.9221 l 21.43,34.679 c 3.83,-2.949 7.99,-5.71 12.48,-8.289 4.48,-2.582 9.57,-4.859 15.24,-6.839 5.66,-2 11.94,-3.582 18.78,-4.75 6.85,-1.192 14.59,-1.762 23.31,-1.762 15.89,0 27.89,2.308 35.99,6.941 8.1,4.649 12.15,10.938 12.15,18.891 0,6.039 -2.94,11.008 -8.84,14.91 -5.88,3.898 -15.17,6.738 -27.82,8.5 l -22.08,2.867 c -23.58,3.231 -41.42,10.133 -53.58,20.672 -12.14,10.508 -18.22,24.32 -18.22,41.41 0,10.438 2.03,19.86 6.08,28.258 4.03,8.402 9.85,15.512 17.46,21.32 7.57,5.821 16.71,10.313 27.48,13.473 10.76,3.168 22.89,4.75 36.44,4.75 16.64,0 32.34,-1.953 47.04,-5.852 14.74,-3.91 27.63,-9.39 38.65,-16.46 l -19.86,-36.008" /><path
         id="path28"
         style="fill:#ffffff;fill-opacity:1;fill-rule:nonzero;stroke:none"
         d="m 4388.66,259.309 h -81.06 v -92.098 c 0,-7.07 0.88,-13.109 2.62,-18.121 1.78,-5.008 4.19,-9.102 7.21,-12.258 3,-3.172 6.53,-5.48 10.59,-6.953 4.04,-1.469 8.43,-2.207 13.13,-2.207 7.23,0 14.55,1.387 21.98,4.199 7.45,2.789 14.32,6.188 20.65,10.149 l 18.34,-36.879 c -8.53,-5.7308 -18.14,-10.6801 -28.82,-14.8012 -10.68,-4.1289 -22.72,-6.1914 -36.11,-6.1914 -24.02,0 -42.68,6.6602 -56.02,19.9926 -13.3,13.32 -19.97,34.058 -19.97,62.191 v 92.977 h -42.19 v 41.98 h 42.19 v 64.043 h 46.4 v -64.043 h 81.06 v -41.98" /><path
         id="path30"
         style="fill:#ffffff;fill-opacity:1;fill-rule:nonzero;stroke:none"
         d="m 4523.16,265.711 c -8.27,0 -15.57,-1.25 -21.97,-3.75 -6.41,-2.512 -11.94,-6.07 -16.56,-10.711 -4.65,-4.648 -8.43,-10.148 -11.39,-16.559 -2.94,-6.421 -5.01,-13.453 -6.18,-21.089 h 109.76 c -2.49,16.48 -8.37,29.296 -17.67,38.429 -9.27,9.117 -21.27,13.68 -35.99,13.68 z m 0.87,41.09 c 14.74,0 28.26,-2.68 40.56,-8.063 12.29,-5.379 22.8,-12.957 31.56,-22.746 8.76,-9.812 15.63,-21.5 20.56,-35.121 4.92,-13.621 7.39,-28.68 7.39,-45.172 0,-2.937 -0.08,-5.89 -0.22,-8.828 -0.15,-2.949 -0.36,-5.75 -0.67,-8.391 h -156.38 c 1.48,-9.578 4.21,-17.761 8.19,-24.519 3.96,-6.781 8.76,-12.34 14.34,-16.68 5.6,-4.351 11.84,-7.551 18.77,-9.609 6.92,-2.063 14.16,-3.082 21.66,-3.082 10.6,0 21.25,1.941 31.92,5.832 10.68,3.91 20.42,9.398 29.25,16.469 l 23,-32.911 c -12.97,-11.05 -26.71,-18.7691 -41.23,-23.1909 -14.51,-4.418 -29.77,-6.6407 -45.82,-6.6407 -15.91,0 -30.47,2.6602 -43.74,7.961 -13.25,5.3008 -24.66,12.8006 -34.21,22.5316 -9.58,9.718 -17.04,21.429 -22.32,35.109 -5.31,13.711 -7.97,28.93 -7.97,45.73 0,16.489 2.58,31.579 7.75,45.27 5.15,13.699 12.34,25.43 21.64,35.242 9.27,9.789 20.36,17.367 33.24,22.746 12.88,5.383 27.13,8.063 42.73,8.063" /><path
         id="path32"
         style="fill:#ffffff;fill-opacity:1;fill-rule:nonzero;stroke:none"
         d="m 4777.39,306.801 c 7.07,0 13.44,-0.481 19.1,-1.43 5.67,-0.961 11.16,-2.48 16.46,-4.531 l -11.03,-45.719 c -4.86,2.5 -10.53,4.418 -17.03,5.738 -6.47,1.332 -12.51,1.993 -18.09,1.993 -7.36,0 -14.14,-1.262 -20.34,-3.762 -6.17,-2.508 -11.47,-6.192 -15.89,-11.039 -4.43,-4.86 -7.89,-10.821 -10.38,-17.899 -2.5,-7.062 -3.75,-15.082 -3.75,-24.07 V 89.6797 h -46.19 V 301.289 H 4716 v -23.867 c 7.07,10.16 15.81,17.598 26.28,22.32 10.45,4.707 22.16,7.059 35.11,7.059" /><path
         id="path34"
         style="fill:#ffffff;fill-opacity:1;fill-rule:nonzero;stroke:none"
         d="m 4936.21,306.801 c 15.89,0 30.71,-2.832 44.4,-8.5 13.68,-5.66 25.24,-14.102 34.67,-25.289 l -29.6,-31.59 c -7.51,7.07 -15.32,12.488 -23.41,16.238 -8.08,3.762 -17.21,5.629 -27.38,5.629 -8.85,0 -17.08,-1.66 -24.74,-4.969 -7.65,-3.308 -14.27,-7.949 -19.89,-13.91 -5.58,-5.969 -9.96,-13.109 -13.13,-21.43 -3.18,-8.308 -4.76,-17.48 -4.76,-27.5 0,-10.019 1.58,-19.191 4.76,-27.488 3.17,-8.332 7.55,-15.472 13.13,-21.441 5.62,-5.969 12.24,-10.59 19.89,-13.899 7.66,-3.32 15.89,-4.98 24.74,-4.98 10.17,0 19.67,2.098 28.51,6.297 8.82,4.191 16.63,9.461 23.39,15.781 l 28.49,-31.801 c -9.7,-11.187 -21.34,-19.617 -34.9,-25.2771 -13.54,-5.6719 -28.28,-8.5235 -44.17,-8.5235 -16.79,0 -32.04,2.8516 -45.72,8.5235 -13.69,5.6601 -25.39,13.4571 -35.12,23.4101 -9.72,9.93 -17.23,21.68 -22.53,35.219 -5.31,13.558 -7.95,28.269 -7.95,44.179 0,15.911 2.64,30.629 7.95,44.18 5.3,13.539 12.81,25.281 22.53,35.219 9.73,9.953 21.43,17.762 35.12,23.422 13.68,5.668 28.93,8.5 45.72,8.5" /><path
         id="path36"
         style="fill:#ffffff;fill-opacity:1;fill-rule:nonzero;stroke:none"
         d="m 5147.58,263.289 c -10.02,0 -18.98,-1.797 -26.83,-5.41 -7.88,-3.609 -14.53,-8.457 -20,-14.59 -5.45,-6.098 -9.65,-13.269 -12.61,-21.519 -2.93,-8.25 -4.4,-17.008 -4.4,-26.29 0,-9.281 1.47,-18.039 4.4,-26.289 2.96,-8.242 7.16,-15.421 12.61,-21.519 5.47,-6.133 12.12,-10.992 20,-14.59 7.85,-3.613 16.81,-5.41 26.83,-5.41 9.58,0 18.26,1.726 26.06,5.18 7.81,3.457 14.51,8.218 20.11,14.257 5.59,6.039 9.95,13.172 13.01,21.422 3.1,8.239 4.66,17.239 4.66,26.949 0,9.719 -1.56,18.692 -4.66,26.95 -3.06,8.25 -7.42,15.379 -13.01,21.422 -5.6,6.027 -12.3,10.796 -20.11,14.257 -7.8,3.442 -16.48,5.18 -26.06,5.18 z M 5254.71,89.6797 h -46.17 v 25.4023 c -7.36,-9.422 -16.48,-16.9414 -27.4,-22.5312 -10.89,-5.6016 -23.91,-8.4024 -39.09,-8.4024 -14.86,0 -28.71,2.7735 -41.51,8.2813 -12.82,5.5312 -24.03,13.2303 -33.59,23.0903 -9.58,9.871 -17.08,21.609 -22.53,35.23 -5.44,13.629 -8.17,28.531 -8.17,44.73 0,16.2 2.73,31.102 8.17,44.739 5.45,13.613 12.95,25.363 22.53,35.222 9.56,9.86 20.77,17.551 33.59,23.09 12.8,5.508 26.65,8.27 41.51,8.27 15.18,0 28.2,-2.832 39.09,-8.5 10.92,-5.66 20.04,-13.219 27.4,-22.629 v 25.617 h 46.17 V 89.6797" /><path
         id="path38"
         style="fill:#ffffff;fill-opacity:1;fill-rule:nonzero;stroke:none"
         d="m 5423.23,306.801 c 7.08,0 13.46,-0.481 19.11,-1.43 5.68,-0.961 11.17,-2.48 16.47,-4.531 l -11.03,-45.719 c -4.88,2.5 -10.53,4.418 -17.03,5.738 -6.46,1.332 -12.52,1.993 -18.1,1.993 -7.36,0 -14.14,-1.262 -20.35,-3.762 -6.17,-2.508 -11.47,-6.192 -15.88,-11.039 -4.43,-4.86 -7.88,-10.821 -10.38,-17.899 -2.5,-7.062 -3.75,-15.082 -3.75,-24.07 V 89.6797 h -46.17 V 301.289 h 45.73 v -23.867 c 7.07,10.16 15.82,17.598 26.28,22.32 10.46,4.707 22.17,7.059 35.1,7.059" /><path
         id="path40"
         style="fill:#ffffff;fill-opacity:1;fill-rule:nonzero;stroke:none"
         d="m 5582.04,263.289 c -10.02,0 -18.97,-1.797 -26.82,-5.41 -7.89,-3.609 -14.55,-8.457 -20.01,-14.59 -5.43,-6.098 -9.64,-13.269 -12.58,-21.519 -2.96,-8.25 -4.42,-17.008 -4.42,-26.29 0,-9.281 1.46,-18.039 4.42,-26.289 2.94,-8.242 7.15,-15.421 12.58,-21.519 5.46,-6.133 12.12,-10.992 20.01,-14.59 7.85,-3.613 16.8,-5.41 26.82,-5.41 9.58,0 18.26,1.726 26.08,5.18 7.8,3.457 14.5,8.218 20.09,14.257 5.6,6.039 9.95,13.172 13.03,21.422 3.1,8.239 4.63,17.239 4.63,26.949 0,9.719 -1.53,18.692 -4.63,26.95 -3.08,8.25 -7.43,15.379 -13.03,21.422 -5.59,6.027 -12.29,10.796 -20.09,14.257 -7.82,3.442 -16.5,5.18 -26.08,5.18 z m -5.54,43.512 c 15.21,0 28.24,-2.832 39.13,-8.5 10.9,-5.66 20.01,-13.219 27.37,-22.629 V 407.75 h 46.18 V 89.6797 H 5643 v 25.4023 c -7.36,-9.422 -16.47,-16.9414 -27.37,-22.5312 -10.89,-5.6016 -23.92,-8.4024 -39.13,-8.4024 -14.85,0 -28.69,2.7735 -41.49,8.2813 -12.81,5.5312 -24.02,13.2303 -33.58,23.0903 -9.58,9.871 -17.08,21.609 -22.53,35.23 -5.46,13.629 -8.2,28.531 -8.2,44.73 0,16.2 2.74,31.102 8.2,44.739 5.45,13.613 12.95,25.363 22.53,35.222 9.56,9.86 20.77,17.551 33.58,23.09 12.8,5.508 26.64,8.27 41.49,8.27" /><path
         id="path42"
         style="fill:#ffffff;fill-opacity:1;fill-rule:nonzero;stroke:none"
         d="m 6009.66,404.66 c 13.72,0 26.95,-1.48 39.76,-4.418 12.81,-2.953 24.73,-7.222 35.8,-12.82 11.03,-5.59 21.04,-12.402 30.01,-20.43 8.99,-8.023 16.49,-17.043 22.54,-27.051 l -41.74,-27.839 c -9.43,13.839 -21.55,24.738 -36.33,32.699 -14.82,7.949 -31.48,11.918 -50.04,11.918 -15.75,0 -30.33,-2.727 -43.73,-8.168 -13.41,-5.449 -24.96,-13.11 -34.68,-22.981 -9.72,-9.859 -17.34,-21.718 -22.86,-35.55 -5.51,-13.848 -8.28,-29.09 -8.28,-45.719 0,-16.649 2.77,-31.891 8.28,-45.719 5.52,-13.852 13.14,-25.711 22.86,-35.562 9.72,-9.872 21.27,-17.528 34.68,-22.989 13.4,-5.441 27.98,-8.16 43.73,-8.16 18.42,0 34.96,3.891 49.59,11.699 14.66,7.809 26.84,18.711 36.56,32.692 l 40.65,-29.821 c -6.64,-9.711 -14.41,-18.41 -23.32,-26.062 -8.9,-7.66 -18.76,-14.207 -29.6,-19.66 -10.82,-5.4377 -22.45,-9.5979 -34.91,-12.4768 -12.43,-2.8711 -25.42,-4.3008 -38.97,-4.3008 -23.72,0 -45.51,4.0078 -65.37,12.0391 -19.89,8.0195 -36.96,19.1715 -51.24,33.4605 -14.29,14.278 -25.42,31.219 -33.38,50.801 -7.93,19.59 -11.91,40.93 -11.91,64.059 0,23.109 3.98,44.469 11.91,64.051 7.96,19.578 19.09,36.507 33.38,50.796 14.28,14.282 31.35,25.442 51.24,33.461 19.86,8.039 41.65,12.051 65.37,12.051" /><path
         id="path44"
         style="fill:#ffffff;fill-opacity:1;fill-rule:nonzero;stroke:none"
         d="m 6280.23,263.289 c -9.42,0 -18.18,-1.66 -26.29,-4.969 -8.08,-3.308 -15.08,-7.949 -20.96,-13.91 -5.9,-5.969 -10.54,-13.109 -13.91,-21.43 -3.4,-8.308 -5.09,-17.48 -5.09,-27.5 0,-10.019 1.69,-19.191 5.09,-27.488 3.37,-8.332 8.01,-15.472 13.91,-21.441 5.88,-5.969 12.88,-10.59 20.96,-13.899 8.11,-3.32 16.87,-4.98 26.29,-4.98 9.44,0 18.2,1.66 26.3,4.98 8.08,3.309 15.11,7.93 21.09,13.899 5.96,5.969 10.64,13.109 14,21.441 3.41,8.297 5.11,17.469 5.11,27.488 0,10.02 -1.7,19.192 -5.11,27.5 -3.36,8.321 -8.04,15.461 -14,21.43 -5.98,5.961 -13.01,10.602 -21.09,13.91 -8.1,3.309 -16.86,4.969 -26.3,4.969 z m 0,43.512 c 16.34,0 31.49,-2.832 45.39,-8.5 13.94,-5.66 25.97,-13.469 36.14,-23.422 10.14,-9.938 18.11,-21.68 23.84,-35.219 5.75,-13.551 8.62,-28.269 8.62,-44.18 0,-15.91 -2.87,-30.621 -8.62,-44.179 -5.73,-13.539 -13.7,-25.289 -23.84,-35.219 -10.17,-9.953 -22.2,-17.75 -36.14,-23.4101 -13.9,-5.6719 -29.05,-8.5235 -45.39,-8.5235 -16.33,0 -31.46,2.8516 -45.39,8.5235 -13.89,5.6601 -25.9,13.4571 -35.98,23.4101 -10.09,9.93 -18.03,21.68 -23.75,35.219 -5.75,13.558 -8.64,28.269 -8.64,44.179 0,15.911 2.89,30.629 8.64,44.18 5.72,13.539 13.66,25.281 23.75,35.219 10.08,9.953 22.09,17.762 35.98,23.422 13.93,5.668 29.06,8.5 45.39,8.5" /><path
         id="path46"
         style="fill:#ffffff;fill-opacity:1;fill-rule:nonzero;stroke:none"
         d="m 6701.67,306.801 c 12.51,0 24.04,-2.059 34.55,-6.18 10.53,-4.121 19.64,-9.902 27.3,-17.351 7.64,-7.418 13.58,-16.309 17.78,-26.61 4.18,-10.301 6.28,-21.648 6.28,-34.008 V 89.6797 H 6741.2 V 207.41 c 0,17.809 -4.31,31.512 -12.91,41.082 -8.62,9.567 -20.73,14.36 -36.36,14.36 -7.5,0 -14.55,-1.223 -21.19,-3.653 -6.63,-2.429 -12.4,-6 -17.34,-10.707 -4.93,-4.722 -8.87,-10.57 -11.8,-17.562 -2.96,-6.989 -4.44,-14.981 -4.44,-23.961 V 89.6797 h -46.38 V 207.41 c 0,17.809 -4.3,31.512 -12.91,41.082 -8.62,9.567 -20.73,14.36 -36.35,14.36 -7.51,0 -14.56,-1.223 -21.2,-3.653 -6.62,-2.429 -12.4,-6 -17.33,-10.707 -4.95,-4.722 -8.87,-10.57 -11.82,-17.562 -2.93,-6.989 -4.41,-14.981 -4.41,-23.961 V 89.6797 h -46.4 V 301.289 h 45.95 v -25.848 c 4.27,6.188 9.01,11.301 14.26,15.348 5.2,4.051 10.7,7.25 16.44,9.609 5.75,2.364 11.53,4.012 17.34,4.973 5.83,0.949 11.46,1.43 16.9,1.43 16.18,0 30.59,-3.352 43.19,-10.051 12.59,-6.691 22.55,-15.941 29.94,-27.719 4.54,7.5 9.92,13.739 16.1,18.668 6.17,4.942 12.71,8.801 19.56,11.59 6.84,2.801 13.83,4.75 20.99,5.863 7.12,1.11 14,1.649 20.64,1.649" /><path
         id="path48"
         style="fill:#ffffff;fill-opacity:1;fill-rule:nonzero;stroke:none"
         d="m 6953.69,263.289 c -9.57,0 -18.25,-1.738 -26.04,-5.18 -7.81,-3.461 -14.52,-8.23 -20.12,-14.257 -5.59,-6.043 -9.92,-13.172 -13.02,-21.422 -3.09,-8.258 -4.64,-17.231 -4.64,-26.95 0,-9.71 1.55,-18.71 4.64,-26.949 3.1,-8.25 7.43,-15.383 13.02,-21.422 5.6,-6.039 12.31,-10.8 20.12,-14.257 7.79,-3.454 16.47,-5.18 26.04,-5.18 9.87,0 18.79,1.797 26.74,5.41 7.97,3.598 14.63,8.457 20.11,14.59 5.44,6.098 9.65,13.277 12.59,21.519 2.93,8.25 4.41,17.008 4.41,26.289 0,9.282 -1.48,18.04 -4.41,26.29 -2.94,8.25 -7.15,15.421 -12.59,21.519 -5.48,6.133 -12.14,10.981 -20.11,14.59 -7.95,3.613 -16.87,5.41 -26.74,5.41 z m 5.54,43.512 c 14.73,0 28.53,-2.762 41.42,-8.27 12.86,-5.539 24.1,-13.23 33.68,-23.09 9.57,-9.859 17.08,-21.609 22.51,-35.222 5.45,-13.637 8.19,-28.539 8.19,-44.739 0,-16.199 -2.74,-31.101 -8.19,-44.73 -5.43,-13.621 -12.94,-25.359 -22.51,-35.23 -9.58,-9.86 -20.82,-17.5591 -33.68,-23.0903 -12.89,-5.5078 -26.69,-8.2813 -41.42,-8.2813 -15.18,0 -28.18,2.8008 -38.99,8.4024 -10.84,5.5898 -19.92,13.0392 -27.27,22.3202 V 1.33203 h -46.18 V 301.289 h 46.18 v -25.187 c 7.35,9.277 16.43,16.707 27.27,22.308 10.81,5.602 23.81,8.391 38.99,8.391" /><path
         id="path50"
         style="fill:#ffffff;fill-opacity:1;fill-rule:nonzero;stroke:none"
         d="m 7207.28,263.289 c -10.04,0 -18.99,-1.797 -26.84,-5.41 -7.89,-3.609 -14.55,-8.457 -20.01,-14.59 -5.45,-6.098 -9.65,-13.269 -12.61,-21.519 -2.93,-8.25 -4.39,-17.008 -4.39,-26.29 0,-9.281 1.46,-18.039 4.39,-26.289 2.96,-8.242 7.16,-15.421 12.61,-21.519 5.46,-6.133 12.12,-10.992 20.01,-14.59 7.85,-3.613 16.8,-5.41 26.84,-5.41 9.56,0 18.24,1.726 26.04,5.18 7.81,3.457 14.51,8.218 20.11,14.257 5.59,6.039 9.94,13.172 13.01,21.422 3.1,8.239 4.65,17.239 4.65,26.949 0,9.719 -1.55,18.692 -4.65,26.95 -3.07,8.25 -7.42,15.379 -13.01,21.422 -5.6,6.027 -12.3,10.796 -20.11,14.257 -7.8,3.442 -16.48,5.18 -26.04,5.18 z m 107.1,-173.6093 h -46.17 v 25.4023 c -7.35,-9.422 -16.48,-16.9414 -27.38,-22.5312 -10.9,-5.6016 -23.93,-8.4024 -39.1,-8.4024 -14.86,0 -28.71,2.7735 -41.52,8.2813 -12.81,5.5312 -24.01,13.2303 -33.57,23.0903 -9.59,9.871 -17.09,21.609 -22.52,35.23 -5.46,13.629 -8.19,28.531 -8.19,44.73 0,16.2 2.73,31.102 8.19,44.739 5.43,13.613 12.93,25.363 22.52,35.222 9.56,9.86 20.76,17.551 33.57,23.09 12.81,5.508 26.66,8.27 41.52,8.27 15.17,0 28.2,-2.832 39.1,-8.5 10.9,-5.66 20.03,-13.219 27.38,-22.629 v 25.617 h 46.17 V 89.6797" /><path
         id="path52"
         style="fill:#ffffff;fill-opacity:1;fill-rule:nonzero;stroke:none"
         d="m 7486.65,306.801 c 12.53,0 24.04,-2.059 34.59,-6.18 10.51,-4.121 19.6,-9.902 27.26,-17.351 7.67,-7.418 13.58,-16.309 17.8,-26.61 4.19,-10.301 6.29,-21.648 6.29,-34.008 V 89.6797 H 7526.2 V 207.41 c 0,17.809 -4.3,31.512 -12.92,41.082 -8.61,9.567 -20.73,14.36 -36.34,14.36 -7.52,0 -14.58,-1.223 -21.22,-3.653 -6.61,-2.429 -12.38,-6 -17.33,-10.707 -4.94,-4.722 -8.85,-10.57 -11.81,-17.562 -2.95,-6.989 -4.42,-14.981 -4.42,-23.961 V 89.6797 h -46.4 V 301.289 h 45.98 v -25.848 c 4.27,6.188 8.99,11.301 14.23,15.348 5.22,4.051 10.72,7.25 16.45,9.609 5.75,2.364 11.54,4.012 17.34,4.973 5.83,0.949 11.46,1.43 16.89,1.43" /><path
         id="path54"
         style="fill:#ffffff;fill-opacity:1;fill-rule:nonzero;stroke:none"
         d="m 7661.8,0 h -51.23 l 75.76,133.199 -93.88,168.09 h 51.92 l 68.02,-121.488 65.6,121.488 h 50.81 L 7661.8,0" /><path
         id="path56"
         style="fill:#ffffff;fill-opacity:1;fill-rule:nonzero;stroke:none"
         d="m 3509.52,1604.03 h 602.63 l -301.33,975.66 z M 4709.63,681.691 h -312.9 l -177.72,576.669 h -816.37 l -177.7,-576.669 h -302.6 l 712.08,2261.449 h 363.12 L 4709.63,681.691" /><path
         id="path58"
         style="fill:#ffffff;fill-opacity:1;fill-rule:nonzero;stroke:none"
         d="m 5219.53,2599.07 v -684.9 h 400.48 c 118.46,0 205.37,27.72 260.74,83.2 55.36,55.44 83.06,141.86 83.06,259.25 0,117.37 -27.7,203.78 -83.06,259.26 -55.37,55.44 -142.28,83.19 -260.74,83.19 z m 0,-1028.97 V 681.691 H 4928.52 V 2943.14 h 699.2 c 103.87,0 195.51,-15.9 274.94,-47.66 79.4,-31.77 146.13,-77.27 200.21,-136.48 54.11,-59.25 94.87,-131.41 122.33,-216.46 27.47,-85.08 41.21,-180.39 41.21,-285.92 0,-105.55 -13.74,-200.85 -41.21,-285.92 -27.46,-85.07 -68.22,-157.23 -122.33,-216.44 -54.08,-59.25 -120.81,-104.75 -200.21,-136.49 -79.43,-31.78 -171.07,-47.67 -274.94,-47.67 h -408.19" /><path
         id="path60"
         style="fill:#ffffff;fill-opacity:1;fill-rule:nonzero;stroke:none"
         d="M 7830.92,2597.45 H 7247.6 V 681.691 H 6956.58 V 2597.45 h -583.3 v 345.69 h 1457.64 v -345.69" /></g></g></svg>