<?xml version="1.0" encoding="UTF-8"?>
<svg width="246px" height="48px" viewBox="0 0 246 48" version="1.1" xmlns="http://www.w3.org/2000/svg" xmlns:xlink="http://www.w3.org/1999/xlink">
    <!-- Generator: Sketch 48.2 (47327) - http://www.bohemiancoding.com/sketch -->
    <title>bloomberg</title>
    <desc>Created with Sketch.</desc>
    <defs></defs>
    <g id="Page-1" stroke="none" stroke-width="1" fill="none" fill-rule="evenodd">
        <g id="bloomberg" fill="#FFFFFF" fill-rule="nonzero">
            <path d="M7.234,20.333 L13.434,20.333 C18.657,20.333 21.351,21.528 21.351,25.251 C21.351,29.937 16.742,30.494 13.413,30.494 L7.233,30.494 L7.233,20.333 L7.234,20.333 Z M0.457,36.142 L13.516,36.142 C20.379,36.142 27.8,33.493 27.8,25.753 C27.8,21.174 24.529,17.638 19.975,17.147 L19.975,17.045 C23.718,15.936 26.266,12.987 26.266,8.956 C26.266,2.462 20.633,3.55271368e-15 15.147,3.55271368e-15 L0.457,3.55271368e-15 L0.457,36.142 Z M7.234,5.648 L12.553,5.648 C17.42,5.648 19.817,7.131 19.817,10.191 C19.817,12.876 17.669,14.684 13.369,14.684 L7.234,14.684 L7.234,5.648 Z" id="Shape"></path>
            <rect id="Rectangle-path" x="30.951" y="0" width="6.777" height="36.142"></rect>
            <path d="M42.267,23.848 C42.267,31.447 48.214,36.522 55.64,36.522 C63.061,36.522 69.008,31.447 69.008,23.848 C69.008,16.241 63.061,11.144 55.64,11.144 C48.214,11.144 42.267,16.24 42.267,23.848 Z M48.417,23.848 C48.417,20.06 51.127,16.589 55.64,16.589 C60.138,16.589 62.859,20.06 62.859,23.848 C62.859,27.612 60.138,31.081 55.64,31.081 C51.127,31.081 48.417,27.611 48.417,23.848 Z" id="Shape"></path>
            <path d="M71.778,23.848 C71.778,31.447 77.724,36.522 85.14,36.522 C92.561,36.522 98.503,31.447 98.503,23.848 C98.503,16.241 92.561,11.144 85.14,11.144 C77.725,11.144 71.778,16.24 71.778,23.848 Z M77.928,23.848 C77.928,20.06 80.638,16.589 85.141,16.589 C89.65,16.589 92.36,20.06 92.36,23.848 C92.36,27.612 89.65,31.081 85.141,31.081 C80.638,31.081 77.928,27.611 77.928,23.848 Z" id="Shape"></path>
            <path d="M100.976,11.296 L107.753,11.296 L107.753,15.525 L107.855,15.525 C108.928,13.271 111.624,11.143 115.726,11.143 C119.51,11.143 122.129,12.613 123.411,15.626 C125.199,12.562 127.965,11.143 131.652,11.143 C138.202,11.143 140.506,15.728 140.506,21.517 L140.506,36.141 L133.729,36.141 L133.729,22.45 C133.729,19.426 133.122,16.589 129.484,16.589 C125.645,16.589 124.692,19.704 124.692,22.825 L124.692,36.141 L117.92,36.141 L117.92,21.741 C117.92,18.767 116.031,16.589 113.063,16.589 C109.021,16.589 107.754,19.502 107.754,22.734 L107.754,36.142 L100.977,36.142 L100.977,11.296 L100.976,11.296 Z" id="Shape"></path>
            <path d="M143.89,36.142 L150.672,36.142 L150.672,32.753 L150.774,32.753 C152.573,35.666 156.295,36.978 159.73,36.978 C167.308,36.978 171.862,30.991 171.862,23.848 C171.862,16.691 166.989,11.144 159.978,11.144 C155.374,11.144 152.106,13.272 150.83,14.832 L150.673,14.832 L150.673,0 L143.891,0 L143.891,36.142 L143.89,36.142 Z M165.712,23.848 C165.712,27.612 163.002,31.081 158.498,31.081 C153.99,31.081 151.28,27.617 151.28,23.848 C151.28,20.06 153.99,16.589 158.498,16.589 C163.002,16.589 165.712,20.06 165.712,23.848 Z" id="Shape"></path>
            <path d="M199.528,25.955 L199.528,24.294 C199.528,15.896 194.863,11.144 187.999,11.144 C180.578,11.144 174.637,16.241 174.637,23.848 C174.637,31.447 180.578,36.522 187.999,36.522 C191.895,36.522 195.537,35.155 198.404,31.69 L193.997,28.418 C192.462,30.282 190.461,31.69 187.392,31.69 C183.957,31.69 181.187,29.527 180.782,25.956 L199.528,25.956 L199.528,25.955 Z M180.781,21.427 C181.242,17.942 183.491,15.693 187.128,15.693 C190.968,15.693 193.328,17.902 193.374,21.427 L180.781,21.427 Z" id="Shape"></path>
            <path d="M202.629,11.757 L209.675,11.757 L209.675,15.592 L209.786,15.592 C211.108,12.816 213.828,11.144 217.05,11.144 C217.815,11.144 218.539,11.306 219.253,11.509 L219.253,17.349 C218.235,17.091 217.252,16.894 216.274,16.894 C210.495,16.894 209.674,21.675 209.674,22.988 L209.674,35.915 L202.628,35.915 L202.628,11.757 L202.629,11.757 Z" id="Shape"></path>
            <path d="M239.895,11.296 L239.895,14.918 L240.168,15.389 C238.37,12.461 235.153,11.144 231.719,11.144 C224.142,11.144 219.577,16.691 219.577,23.848 C219.577,30.687 224.445,36.218 231.82,36.218 C234.895,36.218 238,35.063 239.794,32.697 L239.895,32.697 L239.895,34.455 C239.895,39.247 238.056,42.57 232.115,42.57 C228.68,42.57 226.188,41.303 223.737,39.094 L220.039,44.023 C223.519,47.052 227.11,48 231.664,48 C241.238,48 245.544,42.469 245.544,33.761 L245.544,11.296 L239.895,11.296 Z M232.99,16.589 C237.458,16.589 240.269,19.502 240.269,23.681 C240.269,27.713 237.498,30.788 232.95,30.788 C228.806,30.788 225.726,27.611 225.726,23.782 C225.727,19.502 228.695,16.589 232.99,16.589 Z" id="Shape"></path>
        </g>
    </g>
</svg>