<?xml version="1.0" encoding="UTF-8"?>
<svg width="378px" height="42px" viewBox="0 0 378 42" version="1.1" xmlns="http://www.w3.org/2000/svg" xmlns:xlink="http://www.w3.org/1999/xlink">
    <!-- Generator: Sketch 48.2 (47327) - http://www.bohemiancoding.com/sketch -->
    <title>booz</title>
    <desc>Created with Sketch.</desc>
    <defs></defs>
    <g id="Page-1" stroke="none" stroke-width="1" fill="none" fill-rule="evenodd">
        <g id="booz" fill="#FFFFFF" fill-rule="nonzero">
            <path d="M3.234,30.398 L3.234,20.051 L9.41,20.051 C10.945,20.051 12.639,20.051 13.945,21.1 C15.216,22.137 15.925,23.778 15.925,25.454 C15.925,26.942 15.368,28.349 14.226,29.245 C13.037,30.206 11.378,30.399 9.878,30.399 L3.234,30.399 L3.234,30.398 Z M3.234,17.531 L3.234,8.373 L9.351,8.373 C10.705,8.373 11.935,8.373 13.113,9.053 C14.502,9.926 15.146,11.162 15.146,12.821 C15.146,14.175 14.537,15.675 13.435,16.495 C12.052,17.579 10.195,17.532 8.484,17.532 L3.234,17.532 L3.234,17.531 Z M9.961,33.059 C12.44,33.059 14.572,32.93 16.647,31.301 C18.458,29.895 19.254,27.862 19.254,25.559 C19.254,22.061 16.992,19.342 13.641,18.639 L13.641,18.575 C16.612,17.866 18.416,15.534 18.416,12.452 C18.416,10.22 17.402,8.327 15.562,7.091 C13.751,5.896 12.087,5.808 10.001,5.808 L0,5.808 L0,33.06 L9.961,33.06 L9.961,33.059 Z" id="Shape"></path>
            <path d="M25.652,22.805 C25.652,21.176 25.904,19.207 26.66,17.725 C27.539,15.95 29.297,14.819 31.248,14.819 C32.994,14.819 34.676,15.739 35.637,17.227 C36.686,18.873 36.914,20.883 36.914,22.805 C36.914,24.575 36.768,26.42 35.924,28.02 C34.963,29.883 33.322,30.95 31.248,30.95 C29.42,30.95 27.685,29.966 26.818,28.384 C25.934,26.783 25.652,24.662 25.652,22.805 Z M22.271,22.805 C22.271,28.125 24.96,33.451 30.966,33.451 C37.048,33.451 40.294,28.482 40.294,22.846 C40.294,17.532 37.364,12.364 31.476,12.364 C25.441,12.363 22.271,17.203 22.271,22.805 Z" id="Shape"></path>
            <path d="M46.688,22.805 C46.688,21.176 46.922,19.207 47.678,17.725 C48.557,15.95 50.315,14.819 52.272,14.819 C54.03,14.819 55.7,15.739 56.667,17.227 C57.698,18.873 57.95,20.883 57.95,22.805 C57.95,24.575 57.78,26.42 56.942,28.02 C55.987,29.883 54.346,30.95 52.272,30.95 C50.438,30.95 48.721,29.966 47.831,28.384 C46.963,26.783 46.688,24.662 46.688,22.805 Z M43.289,22.805 C43.289,28.125 45.984,33.451 52.002,33.451 C58.078,33.451 61.318,28.482 61.318,22.846 C61.318,17.532 58.4,12.364 52.505,12.364 C46.465,12.363 43.289,17.203 43.289,22.805 Z" id="Shape"></path>
            <polygon id="Shape" points="78.018 14.59 66.979 30.633 78.018 30.633 78.018 33.059 63.234 33.059 63.234 30.633 73.898 15.346 64.054 15.346 64.054 12.862 78.017 12.862 78.017 14.59"></polygon>
            <polygon id="Shape" points="98.068 42 95.543 42 95.543 0 98.068 0"></polygon>
            <path d="M128.25,22.523 L119.9,22.523 L124.107,9.457 L128.25,22.523 Z M126.158,5.807 L122.467,5.807 L113.69,33.059 L116.544,33.059 L118.958,25.108 L128.978,25.108 L131.726,33.059 L134.96,33.059 L126.158,5.807 Z" id="Shape"></path>
            <path d="M158.033,20.906 C158.144,17.742 160.471,14.742 163.81,14.742 C167.384,14.742 169.376,17.555 169.347,20.906 L158.033,20.906 Z M169.412,27.012 C168.557,29.403 166.588,30.908 163.98,30.908 C161.882,30.908 159.632,29.678 158.689,27.773 C157.951,26.273 157.863,24.779 157.863,23.214 L172.605,23.214 C172.757,17.612 170.056,12.362 163.81,12.362 C157.816,12.362 154.535,17.413 154.535,22.967 C154.535,28.621 157.658,33.449 163.752,33.449 C167.566,33.449 171.094,31.217 172.283,27.531 L169.412,27.012 Z" id="Shape"></path>
            <path d="M179.977,16.318 L180.059,16.318 C181.12,14.009 183.563,12.363 186.311,12.363 C188.713,12.363 190.723,13.412 191.977,15.504 C193.043,17.203 192.956,19.916 192.956,21.902 L192.956,33.058 L189.862,33.058 L189.862,20.59 C189.862,19.395 189.909,17.883 189.294,16.863 C188.638,15.709 187.167,15.011 185.866,15.011 C184.243,15.011 182.79,15.79 181.718,17.05 C180.411,18.638 180.142,20.46 180.142,22.488 L180.142,33.058 L177.048,33.058 L177.048,12.861 L179.978,12.861 L179.978,16.318 L179.977,16.318 Z" id="Shape"></path>
            <path d="M365.039,16.318 L365.115,16.318 C366.14,14.009 368.601,12.363 371.344,12.363 C373.752,12.363 375.78,13.412 377.039,15.504 C378.064,17.203 378,19.916 378,21.902 L378,33.058 L374.9,33.058 L374.9,20.59 C374.9,19.395 374.929,17.883 374.343,16.863 C373.675,15.709 372.234,15.011 370.904,15.011 C369.293,15.011 367.81,15.79 366.75,17.05 C365.467,18.638 365.18,20.46 365.18,22.488 L365.18,33.058 L362.092,33.058 L362.092,12.861 L365.039,12.861 L365.039,16.318 Z" id="Shape"></path>
            <polygon id="Shape" points="213.199 42 210.703 42 210.703 0 213.199 0"></polygon>
            <polygon id="Shape" points="248.203 33.059 248.203 19.957 235.664 19.957 235.664 33.059 232.453 33.059 232.453 5.807 235.664 5.807 235.664 17.356 248.203 17.356 248.203 5.807 251.408 5.807 251.408 33.059"></polygon>
            <path d="M269.438,24.205 C269.438,27.773 266.936,31.025 263.221,31.025 C260.66,31.025 258.891,29.994 258.891,27.486 C258.891,23.326 263.245,22.886 266.936,22.886 L269.438,22.886 L269.438,24.205 Z M266.895,20.555 C264.446,20.555 261.551,20.66 259.377,21.739 C257.174,22.723 255.715,24.915 255.715,27.335 C255.715,31.349 258.873,33.452 262.565,33.452 C265.688,33.452 268.067,32.181 269.438,29.274 L269.784,33.059 L272.813,33.059 C272.42,31.758 272.385,30.27 272.385,28.817 L272.385,20.965 C272.385,18.686 272.385,16.143 270.768,14.356 C269.274,12.61 266.877,12.364 264.686,12.364 C261.118,12.364 256.776,13.682 256.237,17.884 L259.102,18.353 C259.635,15.593 261.985,14.79 264.446,14.79 C267.956,14.79 269.438,16.144 269.438,19.677 L269.438,20.556 L266.895,20.556 L266.895,20.555 Z" id="Shape"></path>
            <path d="M280.553,12.861 L280.553,16.488 L280.612,16.488 C281.555,14.238 283.911,12.363 286.653,12.363 C289.471,12.363 291.757,14.443 292.284,16.863 C293.286,14.285 295.782,12.363 298.788,12.363 C300.827,12.363 302.796,13.523 303.845,15.281 C304.812,16.939 304.783,19.136 304.783,21.035 L304.783093,33.058 L301.701,33.058 L301.701,21.035 C301.701,19.676 301.777,18.234 301.138,17.004 C300.482,15.709 299.187,14.889 297.781,14.889 C296.263,14.889 294.81,15.856 293.908,17.168 C292.754,18.809 292.801,20.268 292.801,22.195 L292.801,33.058 L289.701,33.058 L289.701,20.268 C289.701,19.137 289.631,17.866 289.045,16.864 C288.348,15.669 287.053,14.889 285.682,14.889 C284.305,14.889 282.881,15.821 282.049,16.875 C281.018,18.199 280.819,19.834 280.819,21.492 L280.819,33.058 L277.755,33.058 L277.755,12.861 L280.553,12.861 Z" id="Shape"></path>
            <path d="M313.518,33.059 L310.471,33.059 L310.471,12.861 L313.518,12.861 L313.518,33.059 Z M313.67,9.316 L310.289,9.316 L310.289,5.806 L313.67,5.806 L313.67,9.316 Z" id="Shape"></path>
            <polygon id="Shape" points="319.863 33.059 319.863 5.807 322.857 5.807 322.857 33.059"></polygon>
            <polygon id="Shape" points="138.141 33.059 138.141 5.807 141.141 5.807 141.141 33.059"></polygon>
            <polygon id="Shape" points="147.363 33.059 147.363 5.807 150.363 5.807 150.363 33.059"></polygon>
            <path d="M338.449,33.211 L335.49,33.451 C331.101,33.451 329.771,30.879 329.771,26.847 L329.771,15.182 L326.226,15.182 L326.226,12.715 L329.771,12.715 L329.771,7.705 L332.871,7.383 L332.871,12.715 L337.336,12.715 L337.336,15.182 L332.871,15.182 L332.871,27.364 C332.871,29.719 333.551,30.95 336.094,30.95 L338.449,30.768 L338.449,33.211 Z" id="Shape"></path>
            <path d="M343.359,22.805 C343.359,21.176 343.605,19.207 344.355,17.725 C345.246,15.95 346.992,14.819 348.966,14.819 C350.706,14.819 352.4,15.739 353.343,17.227 C354.374,18.873 354.626,20.883 354.626,22.805 C354.626,24.575 354.45,26.42 353.63,28.02 C352.687,29.883 351.04,30.95 348.966,30.95 C347.12,30.95 345.415,29.966 344.53,28.384 C343.658,26.783 343.359,24.662 343.359,22.805 Z M340.002,22.805 C340.002,28.125 342.668,33.451 348.697,33.451 C354.767,33.451 358.025,28.482 358.025,22.846 C358.025,17.532 355.084,12.364 349.195,12.364 C343.143,12.363 340.002,17.203 340.002,22.805 Z" id="Shape"></path>
        </g>
    </g>
</svg>