<svg id="Layer_1" data-name="Layer 1" xmlns="http://www.w3.org/2000/svg" viewBox="0 0 274.43 60.82"><defs><style>.cls-1{fill:#fff;}</style></defs><title>carlyle master_logo(WHITE)</title><path class="cls-1" d="M20.94,111.61a4.89,4.89,0,0,1-.26,2.1,1.29,1.29,0,0,1-1.17.42l-1.34.08V115c1.45-.05,2.77-0.08,4.13-0.08s2.6,0,4.05.08v-0.84L25,114.13a1.29,1.29,0,0,1-1.17-.42,4.93,4.93,0,0,1-.25-2.1V99.79A27.68,27.68,0,0,1,23.71,97H28c0.84,0,1.06.25,1.12,0.92l0.11,2.21h0.87c0-1.51.05-3,.19-4.5-2,0-4,.08-6,0.08H20.24c-2,0-4-.08-6-0.08,0.14,1.46.19,3,.19,4.5h0.87l0.11-2.21c0.06-.67.28-0.92,1.12-0.92h4.33a28,28,0,0,1,.11,2.79v11.82h0Z" transform="translate(-6.46 -86.89)"/><path class="cls-1" d="M33.86,112.4c0,1.56-.33,1.87-2.51,1.87V115c1.17,0,2.35-.08,3.52-0.08s2.66,0.05,3.91.08v-0.78c-2,0-2.4-.14-2.4-1.87v-4.16c1.11,0,2.29-.06,3.6-0.06s2.49,0,3.61.06v4.16c0,1.73-.39,1.87-2.4,1.87V115c1.26,0,2.6-.08,3.91-0.08s2.35,0.05,3.52.08v-0.78c-2.18,0-2.51-.31-2.51-1.87v-8.55c0-1.65.39-1.7,2.63-1.7v-0.78c-1.15,0-2.63.08-3.72,0.08-1.29,0-2.37-.06-3.83-0.08v0.78c2.1,0,2.4.05,2.4,1.7v3.38c-1.12,0-2.29.05-3.61,0.05s-2.49,0-3.6-.05v-3.38c0-1.65.31-1.7,2.4-1.7v-0.78c-1.45,0-2.54.08-3.83,0.08-1.09,0-2.57-.06-3.72-0.08v0.78c2.24,0,2.63.05,2.63,1.7v8.55h0Z" transform="translate(-6.46 -86.89)"/><path class="cls-1" d="M53.76,111.95c0,2-.17,2.32-2.4,2.32V115C52.72,115,53.7,115,55,115s2.71,0.08,4.33.08c1.31,0,2.68,0,3.8-.14,0.11-1.09.19-2.37,0.22-3.8H62.59a12.74,12.74,0,0,1-.61,2.52,13,13,0,0,1-3.13.33c-1,0-1.7-.05-2.46-0.11-0.08-1.31-.11-3.16-0.11-5.39,0.45,0,.9-0.05,1.59-0.05,2.43,0,2.65.33,2.65,2.09h0.84c0-.78-0.06-1.73-0.06-2.6s0-1.62.06-2.37H60.52c0,1.57-.23,1.87-1.56,1.87s-2,0-2.68-.06c0-1.62,0-3.44.06-4.89a10.44,10.44,0,0,1,1.76-.17,22.2,22.2,0,0,1,3.77.28,11.75,11.75,0,0,1,.28,2.23h0.78a25,25,0,0,1,.33-3.35,24.83,24.83,0,0,0-3.38-.22c-1,0-2,.06-3,0.11s-2,.11-3,0.11-1.76-.06-2.63-0.08v0.76c2.1,0,2.6.11,2.6,2v7.88h0Z" transform="translate(-6.46 -86.89)"/><path class="cls-1" d="M91.27,112.62L91,112.34A10.63,10.63,0,0,1,85.35,114c-5.54,0-9.2-3.58-9.2-9.11,0-4.75,2.77-8.58,8-8.58a10.34,10.34,0,0,1,3.13.47c1.28,0.48,2.4,1,2.4,1.74v2h0.87a20.81,20.81,0,0,1,.53-4.25,20.72,20.72,0,0,0-6.46-1.14,12.6,12.6,0,0,0-8.08,2.68,9.34,9.34,0,0,0-3.41,7.52c0,6.35,4.53,10.17,11.23,10.17a13.72,13.72,0,0,0,6.1-1.51l0.78-1.4h0Z" transform="translate(-6.46 -86.89)"/><path class="cls-1" d="M98.69,101L94,111.25c-1.26,2.85-1.7,3-3,3V115c1.26,0,1.9-.08,2.74-0.08,1,0,2,.05,2.91.08v-0.78c-1.42,0-2.07-.22-2.07-1a6.3,6.3,0,0,1,1-2.55c1,0,1.9-.05,2.82-0.05s1.93,0,2.88.05a11,11,0,0,1,1.12,2.79c0,0.53-.42.76-2.07,0.76V115c1.23,0,2.26-.08,3.44-0.08s2.88,0.05,3.33.08v-0.78c-1.06,0-1.65-.11-2.52-2.18l-4.86-11H98.69Zm-0.14,3,2.35,5.48c-0.92,0-1.65.06-2.54,0.06s-1.54,0-2.26-.06l2.46-5.48h0Z" transform="translate(-6.46 -86.89)"/><path class="cls-1" d="M108.49,115c1.29,0,2.55-.08,3.8-0.08,2,0,3,.05,3.69.08v-0.78c-2.12,0-2.46-.06-2.46-1.37V102.56a4.64,4.64,0,0,1,1.79-.28c2,0,3,.81,3,2.63a2.87,2.87,0,0,1-3,2.91c-0.39,0-.7,0-1-0.06l-0.11.45,5.59,6.77h3.47v-0.7a1.72,1.72,0,0,1-1.65-.9l-4.28-5.23c1.34-.5,3.74-1.17,3.74-3.77,0-2.32-1.84-3-4.33-3-1.48,0-3.1.08-4.56,0.08s-2.49-.08-3.69-0.08v0.78c2.29,0,2.52.2,2.52,1.65v8.77c0,1.65-.5,1.71-2.52,1.71V115h0Z" transform="translate(-6.46 -86.89)"/><path class="cls-1" d="M128,112.06c0,1.85-.39,2-1.62,2.21V115c1,0,1.73-.08,2.91-0.08s2.12,0.08,4.81.08c1.23,0,2.52,0,3.44-.08a25.82,25.82,0,0,1,.48-3.69h-0.84l-0.56,2.27a14.93,14.93,0,0,1-4.08.39c-0.78,0-1.34,0-1.9-.06-0.08-.89-0.11-1.65-0.11-2.6v-7.4c0-1.71.62-1.73,2.41-1.73v-0.78c-1.54,0-2.91.08-3.86,0.08-1.28,0-2.29-.06-3.58-0.08v0.78c2.07,0,2.52,0,2.52,1.31v8.61h0Z" transform="translate(-6.46 -86.89)"/><path class="cls-1" d="M140.94,115c1.22,0,2.22-.08,3.66-0.08,1,0,2.46.05,3.69,0.08v-0.78c-1.68,0-2.41-.06-2.41-2v-2.88a49.12,49.12,0,0,1,5-7.6v-0.39H149c-1,1.93-3,5.51-3.63,6.6l-2.51-4.64a4.35,4.35,0,0,0-2.08-2.21,28.4,28.4,0,0,1-2.87.48v0.78c1,0,1.32.17,2.48,1.81a57.75,57.75,0,0,1,3,5v3.66c0,0.92-.39,1.34-2.44,1.34V115h0Z" transform="translate(-6.46 -86.89)"/><path class="cls-1" d="M155.48,112.06c0,1.85-.39,2-1.62,2.21V115c1,0,1.73-.08,2.91-0.08s2.12,0.08,4.81.08c1.23,0,2.51,0,3.44-.08a25.41,25.41,0,0,1,.48-3.69h-0.84l-0.56,2.27a14.88,14.88,0,0,1-4.08.39c-0.79,0-1.35,0-1.91-.06-0.08-.89-0.11-1.65-0.11-2.6v-7.4c0-1.71.62-1.73,2.41-1.73v-0.78c-1.54,0-2.91.08-3.86,0.08-1.29,0-2.29-.06-3.58-0.08v0.78c2.07,0,2.51,0,2.51,1.31v8.61h0Z" transform="translate(-6.46 -86.89)"/><path class="cls-1" d="M168.92,111.95c0,2-.17,2.32-2.41,2.32V115c1.37,0,2.35-.08,3.61-0.08s2.71,0.08,4.33.08c1.31,0,2.68,0,3.8-.14,0.11-1.09.19-2.37,0.22-3.8h-0.72a13,13,0,0,1-.62,2.52A13,13,0,0,1,174,114c-0.95,0-1.71-.05-2.46-0.11-0.08-1.31-.11-3.16-0.11-5.39,0.45,0,.9-0.05,1.59-0.05,2.43,0,2.66.33,2.66,2.09h0.84c0-.78-0.05-1.73-0.05-2.6s0-1.62.05-2.37h-0.84c0,1.57-.22,1.87-1.57,1.87s-2,0-2.69-.06c0-1.62,0-3.44.05-4.89a10.51,10.51,0,0,1,1.77-.17,22.27,22.27,0,0,1,3.77.28,11.73,11.73,0,0,1,.28,2.23h0.78a25.28,25.28,0,0,1,.34-3.35,24.83,24.83,0,0,0-3.38-.22c-1,0-2,.06-3,0.11s-2,.11-3,0.11-1.76-.06-2.62-0.08v0.76c2.09,0,2.6.11,2.6,2v7.88h0Z" transform="translate(-6.46 -86.89)"/><path class="cls-1" d="M203.81,112.23a2.59,2.59,0,0,1-.14,1.14c-0.16.5-1.76,1-3.92,1-5.75,0-9-4-9-9.56,0-5,2.77-8.46,8.08-8.46a12.11,12.11,0,0,1,3.92.5c1.31,0.48,2.32.93,2.32,2.24v1.48h0.86a17.66,17.66,0,0,1,.56-4.25,22,22,0,0,0-6.93-1.14c-6.74,0-11.79,4-11.79,10.11,0,7,5,10.26,11.26,10.26a31.31,31.31,0,0,0,7.35-1.43V109.4c0-.81,0-0.92.31-1l0.81-.28-0.11-.7c-1.15,0-2.29.06-3.44,0.06s-2.27,0-3.41-.06v0.84l2.32,0.19a0.84,0.84,0,0,1,1,1v2.82h0Z" transform="translate(-6.46 -86.89)"/><path class="cls-1" d="M210.19,115c1.28,0,2.54-.08,3.8-0.08,2,0,3,.05,3.69.08v-0.78c-2.12,0-2.46-.06-2.46-1.37V102.56a4.65,4.65,0,0,1,1.79-.28c2,0,3,.81,3,2.63a2.87,2.87,0,0,1-3,2.91c-0.4,0-.7,0-1-0.06l-0.11.45,5.59,6.77h3.47v-0.7a1.73,1.73,0,0,1-1.65-.9L219,108.14c1.34-.5,3.74-1.17,3.74-3.77,0-2.32-1.84-3-4.33-3-1.48,0-3.1.08-4.56,0.08s-2.48-.08-3.69-0.08v0.78c2.29,0,2.51.2,2.51,1.65v8.77c0,1.65-.51,1.71-2.51,1.71V115h0Z" transform="translate(-6.46 -86.89)"/><path class="cls-1" d="M234,101c-4.06,0-7.63,2.51-7.63,7.32a7.09,7.09,0,0,0,7.21,7,7.54,7.54,0,0,0,7.6-7.63c0-3.44-2.38-6.68-7.19-6.68h0Zm-0.53.95c3.47,0,4.92,2.91,4.92,6.37,0,2.68-.84,5.87-4.13,5.87-3.92,0-5.09-3.63-5.09-6.71,0-3.52,1.89-5.54,4.3-5.54h0Z" transform="translate(-6.46 -86.89)"/><path class="cls-1" d="M247.35,103.25c0-.81.33-1.11,2.12-1.17v-0.73c-1.62,0-2.52.08-3.41,0.08-1.18,0-2.38-.06-3.58-0.08v0.78c1.62,0,2.35.14,2.35,1.4v6.54c0,3.38,1.06,5.28,5.7,5.28s5.51-2.66,5.51-5.53v-6c0-1.48.36-1.68,2.38-1.68v-0.78c-0.73,0-1.65.08-2.88,0.08-1,0-2-.06-3-0.08v0.78c2.18,0,2.38.25,2.38,1.79v6c0,2.85-1.37,3.94-3.8,3.94-2.88,0-3.77-1.48-3.77-3.89v-6.77h0Z" transform="translate(-6.46 -86.89)"/><path class="cls-1" d="M262.91,112.56c0,1.29-.5,1.71-2.51,1.71V115c1.29,0,2.54-.08,3.8-0.08,2,0,3,.05,3.69.08v-0.78c-2.12-.11-2.46-0.42-2.46-1.71V102.5a5.56,5.56,0,0,1,1.74-.34,2.78,2.78,0,0,1,3,2.74c0,1.74-.84,2.91-2.79,2.91a1.79,1.79,0,0,1-.9-0.22l0.17,0.84a3.34,3.34,0,0,0,1.23.23c3.35,0,4.91-2.21,4.91-4.09s-0.95-3.35-4.72-3.35c-0.73,0-1.46.06-2.15,0.11s-1.37.11-2.1,0.11c-1.15,0-2.65-.06-3.44-0.08v0.78c2.29,0,2.51.2,2.51,1.65v8.77h0Z" transform="translate(-6.46 -86.89)"/><rect class="cls-1" width="274.43" height="1.01"/><rect class="cls-1" y="37.93" width="274.43" height="1.01"/><path class="cls-1" d="M21.61,147.33a15.12,15.12,0,0,1-2.76.31,4.74,4.74,0,0,1-2.46-.58,3.07,3.07,0,0,1-1.14-1.23,3.7,3.7,0,0,1-.42-1.75,4,4,0,0,1,.65-2.23,3.71,3.71,0,0,1,1.77-1.44,5.6,5.6,0,0,1,2.08-.36q0.36,0,1,.07a2.58,2.58,0,0,1,1,.21,0.14,0.14,0,0,1,.07.1l0,0.59a0.1,0.1,0,0,1,0,.07l-0.09.07,0,0L21,141.1a4.74,4.74,0,0,0-2-.42,3.12,3.12,0,0,0-2.31.87,3.16,3.16,0,0,0-.87,2.33,3,3,0,0,0,.88,2.28,3.32,3.32,0,0,0,2.39.85,6.89,6.89,0,0,0,1.56-.18v-2.94h0.91v3.44Z" transform="translate(-6.46 -86.89)"/><path class="cls-1" d="M28.7,147.51H24.1V140.2H25v6.65H28.7v0.67Z" transform="translate(-6.46 -86.89)"/><path class="cls-1" d="M37.28,143.76a4.1,4.1,0,0,1-.5,2,3.54,3.54,0,0,1-1.35,1.41,4.09,4.09,0,0,1-2.11.55,3.8,3.8,0,0,1-3.8-3.8A3.88,3.88,0,0,1,30,142a3.73,3.73,0,0,1,1.26-1.4,4.21,4.21,0,0,1,2.31-.65,3.56,3.56,0,0,1,2.65,1.07A3.69,3.69,0,0,1,37.28,143.76Zm-1,.21a3.57,3.57,0,0,0-1-2.55,2.52,2.52,0,0,0-1.92-.75,2.64,2.64,0,0,0-2,.85,3.07,3.07,0,0,0-.8,2.18,3.43,3.43,0,0,0,.87,2.37,2.71,2.71,0,0,0,2.1,1,2.51,2.51,0,0,0,1.94-.88A3.16,3.16,0,0,0,36.25,144Z" transform="translate(-6.46 -86.89)"/><path class="cls-1" d="M44.77,145.29a2.08,2.08,0,0,1-1.23,1.92,6.41,6.41,0,0,1-2.4.31H39.58V140.2l1.13,0h0.92a3.07,3.07,0,0,1,2,.47,1.54,1.54,0,0,1,.54,1.23A1.58,1.58,0,0,1,43,143.41a2.56,2.56,0,0,1,1,.36A1.72,1.72,0,0,1,44.77,145.29ZM43.16,142a1.16,1.16,0,0,0-.5-1,2.11,2.11,0,0,0-1.11-.22q-0.45,0-1.07,0v2.53h1a2,2,0,0,0,1.29-.31A1.26,1.26,0,0,0,43.16,142Zm0.63,3.38a1.3,1.3,0,0,0-.77-1.27,3.94,3.94,0,0,0-1.58-.23h-1v3h1a2.8,2.8,0,0,0,1.79-.44A1.37,1.37,0,0,0,43.79,145.38Z" transform="translate(-6.46 -86.89)"/><path class="cls-1" d="M52.85,147.51h-1L51,145.15H47.82l-1,2.37H45.92l3.39-7.32H50Zm-2.06-2.93-1.29-3.43-1.44,3.43h2.73Z" transform="translate(-6.46 -86.89)"/><path class="cls-1" d="M59.26,147.51H54.67V140.2h0.9v6.65h3.69v0.67Z" transform="translate(-6.46 -86.89)"/><path class="cls-1" d="M71.73,147.51h-1l-0.86-2.37H66.69l-1,2.37H64.79l3.39-7.32H68.9Zm-2.06-2.93-1.29-3.43-1.44,3.43h2.73Z" transform="translate(-6.46 -86.89)"/><path class="cls-1" d="M78.14,147.51H73.55V140.2h0.9v6.65h3.69v0.67Z" transform="translate(-6.46 -86.89)"/><path class="cls-1" d="M84.64,140.82h-3.1v6.69h-0.9v-6.69H77.56V140.2h7.08v0.62Z" transform="translate(-6.46 -86.89)"/><path class="cls-1" d="M91,147.51H86.26V140.2H91v0.62H87.16v2.48h3.38v0.65H87.16v2.9H91v0.67Z" transform="translate(-6.46 -86.89)"/><path class="cls-1" d="M99,147.13l-0.12.36a0.18,0.18,0,0,1-.2.08,2.52,2.52,0,0,1-.93-0.14A2.08,2.08,0,0,1,97,146.9a15.59,15.59,0,0,1-1.73-2.55,8.54,8.54,0,0,1-.93,0H93.88v3.12H93v-7.34h2a4,4,0,0,1,2,.36,1.8,1.8,0,0,1,.78,1.62,2.12,2.12,0,0,1-1.56,2,14.59,14.59,0,0,0,1.56,2.27A2,2,0,0,0,99,147.13Zm-2.19-4.89a1.27,1.27,0,0,0-.69-1.3,3,3,0,0,0-1.17-.17l-1,0v3l0.81,0Q96.77,143.83,96.77,142.24Z" transform="translate(-6.46 -86.89)"/><path class="cls-1" d="M106.92,140.2v7.28l-0.4.14-5.27-6.09,0.17,6h-0.81V140.2h0.68l5,5.81-0.16-5.81h0.8Z" transform="translate(-6.46 -86.89)"/><path class="cls-1" d="M115.62,147.51h-1l-0.86-2.37h-3.18l-1,2.37h-0.92l3.39-7.32h0.72Zm-2.06-2.93-1.29-3.43-1.44,3.43h2.73Z" transform="translate(-6.46 -86.89)"/><path class="cls-1" d="M122.54,140.82h-3.1v6.69h-0.9v-6.69h-3.08V140.2h7.08v0.62Z" transform="translate(-6.46 -86.89)"/><path class="cls-1" d="M125.05,147.51h-0.9V140.2h0.9v7.32Z" transform="translate(-6.46 -86.89)"/><path class="cls-1" d="M133.57,140.2l-3.38,7.32h-0.53l-2.86-7.32h1l2.28,6.09,2.58-6.09h0.9Z" transform="translate(-6.46 -86.89)"/><path class="cls-1" d="M140,147.51h-4.74V140.2h4.72v0.62h-3.82v2.48h3.38v0.65h-3.38v2.9H140v0.67Z" transform="translate(-6.46 -86.89)"/><path class="cls-1" d="M152.93,147.51h-1l-0.86-2.37h-3.18l-1,2.37H146l3.39-7.32h0.71Zm-2.06-2.93-1.29-3.43-1.44,3.43h2.73Z" transform="translate(-6.46 -86.89)"/><path class="cls-1" d="M159.22,145.5a1.87,1.87,0,0,1-.76,1.55,3.14,3.14,0,0,1-2,.59,8.54,8.54,0,0,1-1-.08,3.13,3.13,0,0,1-1-.22,0.17,0.17,0,0,1-.08-0.12l-0.1-.65v-0.06a0.05,0.05,0,0,1,0-.06l0.09,0h0.06l0.08,0a3.29,3.29,0,0,0,.93.38,4.26,4.26,0,0,0,1.1.16,2,2,0,0,0,1.25-.36,1.12,1.12,0,0,0,.47-0.93,1.1,1.1,0,0,0-.31-0.8,4,4,0,0,0-1.26-.72,6.87,6.87,0,0,1-1.59-.84,1.58,1.58,0,0,1-.54-1.26,1.76,1.76,0,0,1,.72-1.47,3,3,0,0,1,1.92-.55,3.68,3.68,0,0,1,1.43.21,0.18,0.18,0,0,1,.12.14l0.1,0.66v0a0,0,0,0,1,0,0l-0.13.06h0a0.19,0.19,0,0,1-.12-0.07,2.6,2.6,0,0,0-1.56-.44,1.75,1.75,0,0,0-1.12.33,1.08,1.08,0,0,0-.42.89,1,1,0,0,0,.39.82,6.75,6.75,0,0,0,1.29.66,5.22,5.22,0,0,1,1.55.9A1.67,1.67,0,0,1,159.22,145.5Z" transform="translate(-6.46 -86.89)"/><path class="cls-1" d="M165.71,145.5A1.87,1.87,0,0,1,165,147a3.14,3.14,0,0,1-2,.59,8.54,8.54,0,0,1-1-.08,3.13,3.13,0,0,1-1-.22,0.17,0.17,0,0,1-.08-0.12l-0.1-.65v-0.06a0.05,0.05,0,0,1,0-.06l0.09,0H161l0.08,0a3.29,3.29,0,0,0,.93.38,4.26,4.26,0,0,0,1.1.16,2,2,0,0,0,1.25-.36,1.12,1.12,0,0,0,.47-0.93,1.1,1.1,0,0,0-.31-0.8,4,4,0,0,0-1.26-.72,6.87,6.87,0,0,1-1.59-.84,1.58,1.58,0,0,1-.54-1.26,1.76,1.76,0,0,1,.72-1.47,3,3,0,0,1,1.92-.55,3.68,3.68,0,0,1,1.43.21,0.18,0.18,0,0,1,.12.14l0.1,0.66v0a0,0,0,0,1,0,0l-0.13.06h0a0.19,0.19,0,0,1-.12-0.07,2.6,2.6,0,0,0-1.56-.44,1.75,1.75,0,0,0-1.12.33,1.08,1.08,0,0,0-.42.89,1,1,0,0,0,.39.82,6.75,6.75,0,0,0,1.29.66,5.22,5.22,0,0,1,1.55.9A1.67,1.67,0,0,1,165.71,145.5Z" transform="translate(-6.46 -86.89)"/><path class="cls-1" d="M172.61,147.51h-4.74V140.2h4.72v0.62h-3.82v2.48h3.38v0.65h-3.38v2.9h3.84v0.67Z" transform="translate(-6.46 -86.89)"/><path class="cls-1" d="M180.87,140.82h-3.1v6.69h-0.9v-6.69h-3.08V140.2h7.08v0.62Z" transform="translate(-6.46 -86.89)"/><path class="cls-1" d="M195.42,147.51h-0.9l-0.09-6.16-3.07,6.07-0.31.06-2.92-6.07-0.09,6.1h-0.83l0.4-7.32h0.9l2.85,5.9,3-5.9h0.86Z" transform="translate(-6.46 -86.89)"/><path class="cls-1" d="M204.12,147.51h-1l-0.86-2.37h-3.18l-1,2.37h-0.92l3.39-7.32h0.71Zm-2.06-2.93-1.29-3.43-1.44,3.43h2.73Z" transform="translate(-6.46 -86.89)"/><path class="cls-1" d="M212.16,140.2v7.28l-0.4.14-5.27-6.09,0.17,6h-0.81V140.2h0.68l5,5.81-0.16-5.81h0.8Z" transform="translate(-6.46 -86.89)"/><path class="cls-1" d="M220.86,147.51h-1L219,145.15h-3.18l-1,2.37h-0.92l3.39-7.32H218Zm-2.06-2.93-1.29-3.43-1.44,3.43h2.73Z" transform="translate(-6.46 -86.89)"/><path class="cls-1" d="M228.71,147.33a15.13,15.13,0,0,1-2.76.31,4.75,4.75,0,0,1-2.46-.58,3.07,3.07,0,0,1-1.14-1.23,3.71,3.71,0,0,1-.42-1.75,4,4,0,0,1,.65-2.23,3.71,3.71,0,0,1,1.76-1.44,5.6,5.6,0,0,1,2.08-.36q0.36,0,1,.07a2.57,2.57,0,0,1,1,.21,0.14,0.14,0,0,1,.07.1l0,0.59a0.1,0.1,0,0,1,0,.07l-0.09.07,0,0-0.22-.09a4.74,4.74,0,0,0-2-.42,3.12,3.12,0,0,0-2.31.87,3.16,3.16,0,0,0-.87,2.33,3,3,0,0,0,.88,2.28,3.32,3.32,0,0,0,2.39.85,6.88,6.88,0,0,0,1.56-.18v-2.94h0.91v3.44Z" transform="translate(-6.46 -86.89)"/><path class="cls-1" d="M236,147.51h-4.74V140.2h4.72v0.62h-3.82v2.48h3.38v0.65h-3.38v2.9H236v0.67Z" transform="translate(-6.46 -86.89)"/><path class="cls-1" d="M246,147.51h-0.9l-0.09-6.16L242,147.42l-0.31.06-2.92-6.07-0.09,6.1h-0.83l0.4-7.32h0.9l2.85,5.9,3-5.9h0.86Z" transform="translate(-6.46 -86.89)"/><path class="cls-1" d="M253.48,147.51h-4.74V140.2h4.72v0.62h-3.82v2.48H253v0.65h-3.38v2.9h3.84v0.67Z" transform="translate(-6.46 -86.89)"/><path class="cls-1" d="M261.68,140.2v7.28l-0.4.14L256,141.53l0.17,6h-0.81V140.2h0.68l5,5.81-0.16-5.81h0.8Z" transform="translate(-6.46 -86.89)"/><path class="cls-1" d="M270.32,140.82h-3.1v6.69h-0.9v-6.69h-3.08V140.2h7.08v0.62Z" transform="translate(-6.46 -86.89)"/></svg>