<?xml version="1.0" encoding="UTF-8"?>
<svg width="160px" height="40px" viewBox="0 0 160 40" version="1.1" xmlns="http://www.w3.org/2000/svg" xmlns:xlink="http://www.w3.org/1999/xlink">
    <!-- Generator: Sketch 48.2 (47327) - http://www.bohemiancoding.com/sketch -->
    <title>cipher</title>
    <desc>Created with Sketch.</desc>
    <defs></defs>
    <g id="Page-1" stroke="none" stroke-width="1" fill="none" fill-rule="evenodd">
        <g id="cipher" fill="#FFFFFF">
            <polygon id="Shape" points="124.738 0 119.092 20.551 84.781 29.932"></polygon>
            <polygon id="Shape" points="34.781 0 40.428 20.551 74.737 29.932"></polygon>
            <g id="Group" transform="translate(0.000000, 33.000000)" fill-rule="nonzero">
                <path d="M5.294,2.065 L1.432,2.065 L1.432,5.84 L5.294,5.84 L5.294,4.556 L6.739,4.856 L6.739,5.569 C6.739,6.118 6.632,6.494 6.42,6.696 C6.208,6.898 5.8,7 5.198,7 L1.527,7 C0.934,7 0.531,6.899 0.319,6.7 C0.106,6.5 0,6.124 0,5.569 L0,2.38 C0,1.831 0.105,1.456 0.315,1.256 C0.525,1.056 0.929,0.955 1.527,0.955 L5.198,0.955 C5.804,0.955 6.213,1.056 6.423,1.256 C6.633,1.456 6.739,1.831 6.739,2.38 L6.739,2.966 L5.294,3.182 L5.294,2.065 Z" id="Shape"></path>
                <polygon id="Shape" points="8.538 7 8.538 0.955 9.964 0.955 9.964 7"></polygon>
                <path d="M12.026,7 L12.026,0.955 L17.319,0.955 C17.808,0.955 18.16,1.048 18.375,1.23 C18.59,1.415 18.697,1.714 18.697,2.127 L18.697,3.468 C18.697,3.882 18.588,4.181 18.371,4.365 C18.154,4.548 17.803,4.64 17.319,4.64 L13.438,4.64 L13.438,7 L12.026,7 Z M16.709,1.995 L13.438,1.995 L13.438,3.6 L16.709,3.6 C16.957,3.6 17.128,3.564 17.222,3.489 C17.314,3.414 17.361,3.289 17.361,3.112 L17.361,2.483 C17.361,2.307 17.314,2.181 17.222,2.107 C17.128,2.033 16.957,1.995 16.709,1.995 Z" id="Shape"></path>
                <polygon id="Shape" points="20.198 7 20.198 0.955 21.643 0.955 21.643 3.252 26.115 3.252 26.115 0.955 27.548 0.955 27.548 7 26.115 7 26.115 4.453 21.643 4.453 21.643 7"></polygon>
                <polygon id="Shape" points="29.617 7 29.617 0.955 35.921 0.955 35.921 2.024 31.063 2.024 31.063 3.342 33.893 3.342 33.893 4.382 31.063 4.382 31.063 5.869 35.996 5.869 35.996 7"></polygon>
                <path d="M37.511,7 L37.511,0.955 L42.804,0.955 C43.288,0.955 43.639,1.048 43.856,1.23 C44.073,1.415 44.182,1.714 44.182,2.127 L44.182,3.552 C44.182,3.96 44.073,4.257 43.856,4.438 C43.639,4.62 43.289,4.709 42.804,4.709 L41.996,4.709 L44.793,7 L42.735,7 L40.272,4.71 L38.921,4.71 L38.921,7 L37.511,7 Z M42.193,1.995 L38.922,1.995 L38.922,3.671 L42.193,3.671 C42.442,3.671 42.613,3.634 42.705,3.56 C42.798,3.485 42.845,3.36 42.845,3.182 L42.845,2.484 C42.845,2.308 42.798,2.182 42.705,2.108 C42.613,2.033 42.442,1.995 42.193,1.995 Z" id="Shape"></path>
                <polygon id="Shape" points="54.313 2.038 54.313 7 52.881 7 52.881 2.038 50.045 2.038 50.045 0.955 57.156 0.955 57.156 2.038"></polygon>
                <polygon id="Shape" points="58.454 7 58.454 0.955 64.758 0.955 64.758 2.024 59.9 2.024 59.9 3.342 62.729 3.342 62.729 4.382 59.9 4.382 59.9 5.869 64.833 5.869 64.833 7"></polygon>
                <path d="M71.497,2.065 L67.635,2.065 L67.635,5.84 L71.497,5.84 L71.497,4.556 L72.942,4.856 L72.942,5.569 C72.942,6.118 72.835,6.494 72.623,6.696 C72.411,6.898 72.003,7 71.401,7 L67.73,7 C67.137,7 66.734,6.899 66.522,6.7 C66.309,6.5 66.203,6.124 66.203,5.569 L66.203,2.38 C66.203,1.831 66.308,1.456 66.518,1.256 C66.728,1.056 67.132,0.955 67.73,0.955 L71.401,0.955 C72.007,0.955 72.416,1.056 72.627,1.256 C72.837,1.456 72.942,1.831 72.942,2.38 L72.942,2.966 L71.497,3.182 L71.497,2.065 Z" id="Shape"></path>
                <polygon id="Shape" points="74.741 7 74.741 0.955 76.187 0.955 76.187 3.252 80.659 3.252 80.659 0.955 82.091 0.955 82.091 7 80.659 7 80.659 4.453 76.187 4.453 76.187 7"></polygon>
                <path d="M94.416,2.038 L90.371,2.038 L90.371,3.314 L94.199,3.314 C94.8,3.314 95.205,3.413 95.413,3.611 C95.622,3.808 95.726,4.184 95.726,4.738 L95.726,5.569 C95.726,6.124 95.62,6.5 95.407,6.7 C95.195,6.899 94.792,7 94.2,7 L90.386,7 C89.78,7 89.369,6.899 89.154,6.7 C88.94,6.5 88.832,6.124 88.832,5.569 L88.832,5.401 L90.108,5.157 L90.108,5.87 L94.431,5.87 L94.431,4.487 L90.623,4.487 C90.021,4.487 89.614,4.385 89.401,4.183 C89.189,3.982 89.083,3.605 89.083,3.056 L89.083,2.38 C89.083,1.835 89.189,1.462 89.401,1.26 C89.614,1.057 90.021,0.955 90.623,0.955 L94.111,0.955 C94.704,0.955 95.109,1.053 95.33,1.246 C95.549,1.438 95.658,1.778 95.658,2.267 L95.658,2.413 L94.417,2.686 L94.417,2.038 L94.416,2.038 Z" id="Shape"></path>
                <path d="M97.504,2.38 C97.504,1.831 97.608,1.456 97.817,1.256 C98.024,1.056 98.428,0.955 99.031,0.955 L103.577,0.955 C104.183,0.955 104.591,1.056 104.796,1.256 C105.002,1.456 105.105,1.831 105.105,2.38 L105.105,5.569 C105.105,6.124 105,6.5 104.79,6.7 C104.58,6.899 104.176,7 103.578,7 L99.032,7 C98.429,7 98.025,6.899 97.818,6.7 C97.609,6.5 97.505,6.124 97.505,5.569 L97.505,2.38 L97.504,2.38 Z M98.936,5.841 L103.672,5.841 L103.672,2.066 L98.936,2.066 L98.936,5.841 Z" id="Shape"></path>
                <polygon id="Shape" points="107.024 7 107.024 0.955 108.47 0.955 108.47 5.87 113.076 5.87 113.076 7"></polygon>
                <path d="M115.82,0.955 L115.82,5.87 L119.912,5.87 L119.912,0.955 L121.358,0.955 L121.358,5.569 C121.358,6.118 121.25,6.494 121.036,6.696 C120.82,6.898 120.412,7 119.811,7 L115.922,7 C115.324,7 114.922,6.899 114.71,6.7 C114.5,6.5 114.395,6.124 114.395,5.569 L114.395,0.955 L115.82,0.955 Z" id="Shape"></path>
                <polygon id="Shape" points="126.915 2.038 126.915 7 125.483 7 125.483 2.038 122.647 2.038 122.647 0.955 129.758 0.955 129.758 2.038"></polygon>
                <polygon id="Shape" points="131.056 7 131.056 0.955 132.482 0.955 132.482 7"></polygon>
                <path d="M134.402,2.38 C134.402,1.831 134.506,1.456 134.714,1.256 C134.922,1.056 135.327,0.955 135.929,0.955 L140.476,0.955 C141.081,0.955 141.488,1.056 141.694,1.256 C141.9,1.456 142.003,1.831 142.003,2.38 L142.003,5.569 C142.003,6.124 141.899,6.5 141.688,6.7 C141.478,6.899 141.074,7 140.477,7 L135.93,7 C135.328,7 134.923,6.899 134.715,6.7 C134.507,6.5 134.403,6.124 134.403,5.569 L134.403,2.38 L134.402,2.38 Z M135.834,5.841 L140.57,5.841 L140.57,2.066 L135.834,2.066 L135.834,5.841 Z" id="Shape"></path>
                <polygon id="Shape" points="143.925 7 143.925 0.955 144.908 0.955 149.896 4.97 149.896 0.955 151.192 0.955 151.192 7 150.201 7 145.226 2.925 145.226 7"></polygon>
                <path d="M158.69,2.038 L154.646,2.038 L154.646,3.314 L158.472,3.314 C159.075,3.314 159.48,3.413 159.688,3.611 C159.895,3.808 160,4.184 160,4.738 L160,5.569 C160,6.124 159.894,6.5 159.682,6.7 C159.469,6.899 159.067,7 158.473,7 L154.66,7 C154.055,7 153.643,6.899 153.429,6.7 C153.214,6.5 153.107,6.124 153.107,5.569 L153.107,5.401 L154.382,5.157 L154.382,5.87 L158.705,5.87 L158.705,4.487 L154.897,4.487 C154.296,4.487 153.888,4.385 153.676,4.183 C153.463,3.982 153.358,3.605 153.358,3.056 L153.358,2.38 C153.358,1.835 153.463,1.462 153.676,1.26 C153.888,1.057 154.296,0.955 154.897,0.955 L158.386,0.955 C158.978,0.955 159.384,1.053 159.603,1.246 C159.824,1.438 159.933,1.778 159.933,2.267 L159.933,2.413 L158.691,2.686 L158.691,2.038 L158.69,2.038 Z" id="Shape"></path>
            </g>
        </g>
    </g>
</svg>