<?xml version="1.0" encoding="UTF-8"?>
<svg width="1186px" height="340px" viewBox="0 0 1186 340" version="1.1" xmlns="http://www.w3.org/2000/svg" xmlns:xlink="http://www.w3.org/1999/xlink">
    <!-- Generator: Sketch 48.2 (47327) - http://www.bohemiancoding.com/sketch -->
    <title>credible</title>
    <desc>Created with Sketch.</desc>
    <defs></defs>
    <g id="Page-1" stroke="none" stroke-width="1" fill="none" fill-rule="evenodd">
        <g id="credible" fill="#FFFFFF" fill-rule="nonzero">
            <g id="Group">
                <g id="Shape" transform="translate(3.000000, 3.000000)">
                    <path d="M135.095,251.482 C57.387,251.482 0.131,193.249 0.131,126.456 C0.131,61.963 59.615,0.44 134.72,0.44 C172.645,0.44 203.871,14.584 228.783,39.259 L211.686,51.108 C192.717,29.724 165.587,15.575 134.353,15.575 C70.77,15.575 29.504,73.819 29.504,125.466 C29.504,178.11 69.288,235.034 134.353,235.034 C177.844,235.034 199.411,219.574 226.182,190.947 L239.194,200.492 C216.149,230.429 176.733,251.482 135.095,251.482 Z"></path>
                    <path d="M339.959,120.541 C339.959,149.823 323.98,171.862 288.651,172.845 L288.651,91.911 C288.651,84.999 288.651,77.755 289.024,70.844 C325.091,72.821 339.959,89.275 339.959,120.541 Z M378.633,247.546 C361.525,224.833 344.429,202.129 328.439,178.775 C352.966,166.598 366.726,141.582 366.726,117.246 C366.726,77.428 331.407,55.368 289.024,55.368 L263.368,55.368 C264.479,72.821 265.219,90.594 265.219,108.034 L265.219,152.783 C265.219,184.356 264.851,215.951 263.74,247.546 C268.575,246.875 273.409,246.551 278.241,246.551 C282.708,246.551 287.166,246.875 291.632,247.546 C290.884,227.462 289.775,207.071 289.393,186.996 C294.976,186.996 300.547,186.321 306.13,185.021 C321.742,204.773 335.874,225.488 347.025,247.545 C357.432,246.551 368.222,246.875 378.633,247.546 Z"></path>
                    <path d="M496.494,247.546 C465.997,246.875 435.521,247.216 405.029,247.546 C405.398,225.488 405.771,203.444 405.771,181.394 L405.771,161.001 C405.771,125.803 405.029,90.594 404.288,55.368 C435.143,55.714 465.638,55.714 496.495,55.057 C497.612,57.364 506.163,74.47 506.163,76.436 C506.163,78.085 503.929,78.416 502.445,78.416 C500.58,78.416 498.729,78.085 496.864,77.427 C484.597,73.819 456.72,70.521 444.071,70.521 C439.244,70.521 434.764,70.843 429.931,71.174 C428.831,92.893 429.204,114.614 429.204,136.32 L459.314,136.32 C468.611,136.32 478.274,135.328 487.578,134.682 L487.578,151.783 C478.647,151.46 469.728,151.13 460.791,151.13 L429.204,151.13 C429.204,178.109 428.831,204.774 429.931,231.745 C434.764,232.075 439.604,232.396 444.444,232.396 C457.093,232.396 484.597,229.112 496.864,225.488 C498.729,224.833 500.58,224.504 502.445,224.504 C503.928,224.504 506.163,224.833 506.163,226.48 C506.162,228.461 497.611,245.234 496.494,247.546 Z"></path>
                    <path d="M663.808,149.158 C663.808,195.882 637.041,231.745 580.52,231.745 C576.051,231.745 571.974,231.084 567.508,230.429 C564.907,204.774 565.277,178.776 565.277,152.783 C565.277,125.466 565.277,97.825 567.142,70.521 C622.54,70.844 663.808,97.173 663.808,149.158 Z M690.574,148.828 C690.574,89.275 631.829,55.368 569.381,55.368 L539.618,55.368 C541.845,96.839 542.231,137.973 542.231,179.424 C542.231,201.476 541.844,223.183 540.735,245.235 C550.406,246.551 560.45,247.875 570.49,247.875 C638.893,247.874 690.574,212.006 690.574,148.828 Z"></path>
                    <path d="M749.328,151.13 C749.328,183.374 749.693,215.636 750.81,247.546 C745.985,247.216 741.511,246.875 736.681,246.875 C732.212,246.875 727.764,247.216 723.303,247.546 C724.423,216.936 724.782,186.012 724.782,155.406 C724.782,122.176 724.424,88.614 722.179,55.368 C727.009,56.046 732.212,56.367 737.046,56.367 C741.886,56.367 746.719,56.046 751.559,55.368 C749.328,87.298 749.328,119.219 749.328,151.13 Z"></path>
                    <path d="M874.988,105.067 C874.988,123.157 856.777,142.58 835.57,142.58 L818.85,142.58 L819.226,70.19 C823.675,69.538 828.521,69.538 832.977,69.538 C836.324,69.538 840.04,69.538 843.39,69.859 C862.351,71.837 874.988,88.945 874.988,105.067 Z M921.46,195.224 C921.46,164.629 899.156,150.799 867.936,145.864 C886.522,135.668 898.781,121.192 898.781,101.453 C898.781,67.24 867.56,55.058 833.346,55.058 C820.348,55.058 806.937,55.714 793.944,55.714 C796.179,91.581 796.91,127.119 796.91,162.984 C796.91,191.269 796.553,219.236 795.8,247.546 C812.535,247.546 828.891,248.186 845.626,248.186 C884.279,248.186 921.46,234.381 921.46,195.224 Z M899.156,196.545 C899.156,225.488 866.813,233.06 840.041,233.06 C833.346,233.06 826.661,232.728 820.348,231.746 C819.966,207.393 819.227,183.375 819.227,159.024 L819.227,157.375 L834.842,157.375 C864.205,157.374 899.156,164.292 899.156,196.545 Z"></path>
                    <path d="M1043.796,247.546 C1013.307,246.875 982.442,247.216 951.959,247.546 C952.332,231.416 952.332,215.29 952.332,199.169 L952.332,172.845 C952.332,133.693 952.332,94.534 949.728,55.714 C954.199,56.046 959.021,56.367 963.862,56.367 C969.068,56.367 973.891,56.046 979.098,55.714 C977.596,97.501 976.87,139.605 976.87,181.394 C976.87,198.183 977.241,215.29 977.977,231.746 C982.822,232.076 987.647,232.397 992.478,232.397 C1005.118,232.397 1032.638,229.113 1044.915,225.489 C1046.768,224.834 1048.251,224.505 1050.117,224.505 C1051.613,224.505 1053.46,224.834 1053.46,226.481 C1053.461,228.461 1044.916,245.234 1043.796,247.546 Z"></path>
                    <path d="M1170.202,247.546 C1139.723,246.875 1109.234,247.216 1078.757,247.546 C1079.117,225.488 1079.496,203.444 1079.496,181.394 L1079.496,161.001 C1079.496,125.803 1078.757,90.594 1078.007,55.368 C1108.863,55.714 1139.343,55.714 1170.202,55.057 C1171.319,57.364 1179.883,74.47 1179.883,76.436 C1179.883,78.085 1177.651,78.416 1176.16,78.416 C1174.299,78.416 1172.441,78.085 1170.584,77.427 C1158.318,73.819 1130.431,70.521 1117.786,70.521 C1112.95,70.521 1108.494,70.843 1103.657,71.174 C1102.537,92.893 1102.918,114.614 1102.918,136.32 L1133.035,136.32 C1142.328,136.32 1151.98,135.328 1161.29,134.682 L1161.29,151.783 C1152.38,151.46 1143.442,151.13 1134.519,151.13 L1102.918,151.13 C1102.918,178.109 1102.537,204.774 1103.657,231.745 C1108.494,232.075 1113.332,232.396 1118.159,232.396 C1130.798,232.396 1158.318,229.112 1170.584,225.488 C1172.441,224.833 1174.299,224.504 1176.16,224.504 C1177.65,224.504 1179.883,224.833 1179.883,226.48 C1179.883,228.461 1171.319,245.234 1170.202,247.546 Z"></path>
                </g>
                <g id="Shape">
                    <path d="M0.18,129.456 C0.18,200.024 62.041,257.426 138.096,257.426 C178.973,257.426 219.776,237.447 244.535,205.283 L246.374,202.893 L228.818,190.026 L227.031,191.929 C200.279,220.561 179.052,235.088 137.353,235.088 C74.41,235.088 35.442,179.734 35.442,128.465 C35.442,76.832 76.394,21.52 137.353,21.52 C166.05,21.52 192.732,33.79 212.492,56.062 L214.216,58.014 L236.384,42.672 L233.857,40.175 C207.278,13.836 174.938,0.497 137.72,0.497 C64.457,0.498 0.18,60.747 0.18,129.456 Z M6.068,129.456 C6.068,63.892 67.596,6.385 137.719,6.385 C172.126,6.385 202.132,18.422 227.057,41.952 C223.545,44.389 217.57,48.528 215.047,50.272 C194.347,27.967 166.898,15.637 137.353,15.637 C72.868,15.637 29.562,73.976 29.562,128.465 C29.562,182.569 70.781,240.979 137.353,240.979 C180.23,240.979 202.441,226.394 229.501,197.819 C231.74,199.463 235.22,202.021 237.882,203.973 C214.051,233.326 176.18,251.544 138.094,251.544 C65.297,251.545 6.068,196.771 6.068,129.456 Z"></path>
                    <path d="M289.085,73.689 L288.712,94.911 L288.712,178.875 L291.73,178.795 C325.661,177.838 345.897,157.18 345.897,123.541 C345.897,89.645 328.842,72.911 292.18,70.905 L289.137,70.738 L289.085,73.689 Z M294.589,94.911 C294.589,94.911 294.825,81.637 294.912,77.127 C325.954,79.686 340.021,94.023 340.021,123.541 C340.021,152.978 323.439,170.619 294.589,172.589 C294.589,166.608 294.589,94.911 294.589,94.911 Z"></path>
                    <path d="M266.368,55.431 L263.238,55.431 L263.437,58.575 C264.683,78.063 265.281,95.228 265.281,111.035 L265.281,155.784 C265.281,191.152 264.795,222.128 263.806,250.434 L263.687,253.92 L267.14,253.453 C271.816,252.807 276.564,252.49 281.241,252.49 C285.538,252.49 289.901,252.807 294.192,253.453 L297.715,253.965 L296.747,230.566 C296.747,230.566 295.61,197.643 295.431,192.76 C299.584,192.583 303.73,192.082 307.862,191.229 C324.525,212.41 337.49,232.292 347.407,251.875 L348.306,253.665 L350.309,253.474 C361.292,252.424 372.721,252.93 381.44,253.474 L387.829,253.88 L383.98,248.765 C367.809,227.282 351.149,205.091 335.701,182.666 C358.216,170.098 372.67,146.041 372.67,120.246 C372.67,81.482 340.265,55.431 292.024,55.431 L266.368,55.431 Z M292.024,61.334 C329.237,61.334 366.787,79.552 366.787,120.246 C366.787,144.964 352.391,168.078 330.126,179.129 L327.092,180.644 L329.009,183.437 C343.855,205.114 359.851,226.472 375.514,247.262 C368.268,246.919 360.011,246.867 351.735,247.513 C341.542,227.701 328.391,207.619 311.439,186.201 L310.272,184.724 L308.452,185.157 C303.124,186.413 297.726,187.05 292.394,187.05 L289.352,187.05 L290.868,230.822 C290.868,230.822 291.366,242.797 291.549,247.358 C288.114,246.982 284.666,246.613 281.243,246.613 C277.439,246.613 273.602,246.982 269.784,247.379 C270.712,219.871 271.172,189.901 271.172,155.783 L271.172,111.034 C271.172,95.961 270.613,79.634 269.49,61.334 C274.292,61.334 292.024,61.334 292.024,61.334 Z"></path>
                    <path d="M499.428,55.113 C471.48,55.711 442.206,55.813 407.313,55.43 L404.274,55.413 L404.341,58.447 C405.084,93.044 405.839,128.831 405.839,164 L405.839,184.393 L405.054,253.497 L408.053,253.482 C438.02,253.158 468.997,252.821 499.428,253.482 L501.307,253.524 L503.121,249.845 C511.466,233.133 512.103,230.859 512.103,229.478 C512.103,227.103 510.351,224.57 505.443,224.57 C503.26,224.57 501.049,224.944 498.878,225.71 C487.176,229.161 459.925,232.453 447.441,232.453 C447.441,232.453 439.341,232.092 435.816,231.925 C435.242,216.676 435.075,201.33 435.075,186.2 C435.075,180.879 435.102,175.577 435.112,170.331 C435.112,170.331 435.127,161.018 435.133,157.072 C439.968,157.072 463.789,157.072 463.789,157.072 L493.475,157.81 L493.514,154.782 L493.514,134.5 L483.663,135.257 C476.592,135.811 469.29,136.388 462.312,136.388 C462.312,136.388 439.916,136.388 435.127,136.388 C435.127,132.854 435.112,126.268 435.112,126.268 C435.103,122.006 435.075,117.714 435.075,113.398 C435.075,101.322 435.242,89.085 435.796,76.983 C438.294,76.87 447.069,76.466 447.069,76.466 C459.718,76.466 487.176,79.757 499.045,83.255 C501.05,83.973 503.26,84.368 505.443,84.368 C510.35,84.368 512.103,81.813 512.103,79.435 C512.103,78.068 511.424,75.629 502.836,58.176 L501.321,55.083 L499.428,55.113 Z M497.671,61.034 C502.911,71.694 505.004,76.385 505.803,78.429 C505.636,78.435 505.649,78.48 505.444,78.48 C503.925,78.48 502.382,78.201 500.847,77.664 C488.416,73.984 460.078,70.585 447.07,70.585 L433.747,71.158 L430.145,71.415 L430.007,74.035 C429.111,91.488 429.168,109.176 429.23,126.294 L429.272,142.259 L432.203,142.27 L462.313,142.27 C469.507,142.27 476.93,141.683 484.123,141.123 C484.123,141.123 485.881,140.996 487.63,140.86 C487.63,144.157 487.63,148.601 487.63,151.778 C482.827,151.663 463.79,151.19 463.79,151.19 L429.266,151.19 L429.231,170.315 C429.173,191.415 429.112,213.231 430.008,234.872 L430.106,237.568 L447.444,238.339 C460.412,238.339 488.087,235.039 500.7,231.309 C502.383,230.735 503.927,230.452 505.445,230.452 C505.678,230.452 505.651,230.494 505.83,230.497 C504.96,232.677 502.361,238.194 497.857,247.214 C497.857,247.214 497.732,247.484 497.681,247.58 C468.754,246.985 439.471,247.265 411.019,247.58 C411.064,242.087 411.724,184.396 411.724,184.396 L411.724,164.003 C411.724,129.789 411.007,95.053 410.294,61.361 C443.125,61.687 471.061,61.571 497.671,61.034 Z"></path>
                    <path d="M567.205,73.324 C565.34,100.728 565.34,128.717 565.34,155.783 L565.331,164.441 C565.289,187.211 565.252,210.761 567.584,233.722 L567.806,236.007 L571.033,236.468 C575.219,237.094 579.158,237.688 583.521,237.688 C636.715,237.688 669.754,204.917 669.754,152.158 C669.754,102.199 631.585,70.95 570.159,70.584 L567.387,70.559 L567.205,73.324 Z M571.205,172.958 C571.205,170.104 571.23,155.783 571.23,155.783 C571.23,129.75 571.262,102.881 572.923,76.562 C629.896,77.809 663.854,105.877 663.854,152.158 C663.854,202.021 633.833,231.804 583.52,231.804 C580.072,231.804 576.736,231.344 573.3,230.844 C571.5,211.733 571.205,192.148 571.205,172.958 Z"></path>
                    <path d="M542.618,55.431 L539.518,55.431 L539.696,58.544 C541.964,100.991 542.279,143.163 542.279,182.424 C542.279,207.213 541.804,228.074 540.81,248.089 L540.658,250.79 L543.326,251.146 C552.052,252.328 562.887,253.819 573.491,253.819 C648.217,253.819 696.514,213.779 696.514,151.828 C696.514,88.548 634.061,55.431 572.382,55.431 L542.618,55.431 Z M572.381,61.334 C631.145,61.334 690.621,92.419 690.621,151.828 C690.621,210.211 644.639,247.929 573.491,247.929 C564.293,247.929 554.839,246.753 546.79,245.673 C547.735,226.376 548.18,206.201 548.18,182.424 C548.18,144.046 547.837,102.861 545.705,61.334 C550.646,61.334 572.381,61.334 572.381,61.334 Z"></path>
                    <path d="M754.155,55.468 C749.471,56.105 744.741,56.428 740.047,56.428 C735.198,56.428 730.19,56.098 725.575,55.468 L721.999,54.976 L722.241,58.575 C724.531,92.547 724.837,126.638 724.837,158.407 C724.837,192.928 724.357,223.028 723.354,250.434 L723.232,253.631 L739.682,252.822 L752.65,253.403 L756.869,253.702 L756.75,250.433 C755.753,221.86 755.261,190.358 755.261,154.129 C755.261,122.799 755.261,90.413 757.493,58.602 L757.734,54.976 L754.155,55.468 Z M751.437,61.54 C749.43,92.481 749.383,123.792 749.383,154.13 C749.383,189.107 749.839,219.614 750.772,247.429 C747.64,247.291 739.682,246.932 739.682,246.932 C739.682,246.932 733.105,247.262 729.339,247.446 C730.261,220.819 730.728,191.701 730.728,158.407 C730.728,127.616 730.393,94.655 728.307,61.653 C732.169,62.049 736.131,62.32 740.047,62.32 C743.829,62.319 747.64,61.936 751.437,61.54 Z"></path>
                    <path d="M821.791,70.276 L819.287,70.655 L818.892,148.517 L838.57,148.517 C862.435,148.517 880.94,126.774 880.94,108.067 C880.94,91.445 867.846,72.135 846.69,69.93 C846.668,69.93 835.977,69.585 835.977,69.585 C831.521,69.586 826.472,69.586 821.791,70.276 Z M835.978,75.476 L846.105,75.798 C863.966,77.656 875.05,93.992 875.05,108.068 C875.05,123.728 858.784,142.642 838.571,142.642 C838.571,142.642 828.831,142.642 824.804,142.642 C824.836,137.389 825.123,80.669 825.151,75.887 C828.69,75.565 832.359,75.476 835.978,75.476 Z"></path>
                    <path d="M816.568,55.444 L793.866,55.813 L794.004,58.895 C796.024,91.435 796.971,125.457 796.971,165.983 C796.971,194.331 796.598,221.965 795.86,250.456 L795.782,253.438 L848.626,254.136 C897.955,254.136 927.413,233.24 927.413,198.223 C927.413,171.449 910.926,154.524 878.795,147.512 C895.973,136.228 904.721,121.778 904.721,104.451 C904.721,73.101 879.807,55.112 836.347,55.112 L816.568,55.444 Z M816.709,61.334 L836.346,60.996 C855.151,60.996 898.842,65.229 898.842,104.452 C898.842,121.536 888.97,135.602 869.512,146.283 L861.956,150.434 L870.472,151.776 C904.827,157.192 921.522,172.396 921.522,198.223 C921.522,243.373 870.54,248.245 848.626,248.245 C848.626,248.245 806.448,247.697 801.801,247.634 C802.496,220.14 802.86,193.374 802.86,165.983 C802.86,126.592 801.94,93.363 800.04,61.608 C804.444,61.533 816.709,61.334 816.709,61.334 Z"></path>
                    <path d="M822.227,157.449 L819.275,157.449 L819.275,162.023 L819.946,210.327 L820.435,237.259 L822.885,237.655 C828.698,238.555 835.299,239.005 843.041,239.005 C861.709,239.005 905.102,235.15 905.102,199.545 C905.102,172.002 881.849,157.449 837.842,157.449 L822.227,157.449 Z M837.842,163.324 C865.844,163.324 899.202,169.613 899.202,199.545 C899.202,229.853 859.933,233.12 843.041,233.12 C836.625,233.12 831.17,232.738 826.239,232.099 C826.147,227.945 825.82,210.227 825.82,210.227 C825.82,210.227 825.218,165.785 825.177,163.324 C829.072,163.324 837.842,163.324 837.842,163.324 Z"></path>
                    <path d="M981.921,55.776 L980.944,55.84 L966.862,56.427 L949.642,55.621 L949.797,58.919 C952.373,97.63 952.373,137.388 952.373,175.844 L952.373,202.168 L951.993,253.473 L954.984,253.483 C985.064,253.153 1016.153,252.807 1046.727,253.483 L1048.608,253.525 L1050.419,249.832 C1058.763,233.135 1059.398,230.86 1059.398,229.479 C1059.398,228.663 1059.097,224.571 1053.118,224.571 C1051.048,224.571 1049.23,224.908 1046.928,225.711 C1035.223,229.162 1007.958,232.454 995.48,232.454 C995.48,232.454 987.348,232.093 983.836,231.926 C983.181,216.383 982.816,200.448 982.816,184.394 C982.816,142.648 983.562,100.405 985.038,58.817 L985.16,55.565 L981.921,55.776 Z M958.278,202.169 L958.278,175.845 C958.278,138.38 958.239,99.687 955.84,61.806 C959.762,61.997 966.862,62.32 966.862,62.32 C966.862,62.32 975.861,61.936 979.066,61.806 C977.671,102.434 976.917,143.65 976.917,184.394 C976.917,201.435 977.296,218.417 978.039,234.877 L978.164,237.566 L995.479,238.337 C1008.462,238.337 1036.132,235.037 1048.738,231.307 C1050.569,230.668 1051.723,230.45 1053.118,230.45 L1053.125,230.45 C1052.298,232.579 1049.694,238.117 1045.156,247.212 C1045.156,247.212 1045.043,247.469 1044.964,247.578 C1015.925,246.983 986.508,247.263 957.925,247.578 C957.965,242.244 958.278,202.169 958.278,202.169 Z"></path>
                    <path d="M1173.145,55.113 C1145.197,55.711 1115.923,55.813 1081.033,55.43 L1077.99,55.413 L1078.068,58.447 C1078.797,93.044 1079.551,128.831 1079.551,164 L1079.551,184.393 L1078.805,250.492 L1078.75,253.517 L1081.771,253.483 C1111.721,253.159 1142.704,252.822 1173.145,253.483 L1175.02,253.525 L1176.836,249.846 C1185.172,233.134 1185.82,230.86 1185.82,229.479 C1185.82,227.104 1184.07,224.571 1179.16,224.571 C1176.977,224.571 1174.771,224.945 1172.599,225.711 C1160.885,229.162 1133.632,232.454 1121.159,232.454 C1121.159,232.454 1113.051,232.093 1109.526,231.926 C1108.951,216.652 1108.796,201.271 1108.796,186.131 C1108.796,180.816 1108.817,175.533 1108.829,170.304 C1108.829,170.304 1108.844,161.013 1108.856,157.074 C1113.686,157.074 1137.518,157.074 1137.518,157.074 L1167.192,157.812 L1167.224,154.784 L1167.224,134.502 L1157.365,135.259 C1150.317,135.813 1143.01,136.39 1136.035,136.39 C1136.035,136.39 1113.64,136.39 1108.856,136.39 C1108.843,132.859 1108.829,126.3 1108.829,126.3 C1108.816,122.046 1108.796,117.762 1108.796,113.449 C1108.796,101.362 1108.951,89.095 1109.512,76.984 C1112.023,76.871 1120.786,76.467 1120.786,76.467 C1133.431,76.467 1160.886,79.758 1172.749,83.256 C1174.771,83.974 1176.978,84.369 1179.16,84.369 C1184.07,84.369 1185.82,81.814 1185.82,79.436 C1185.82,78.069 1185.146,75.63 1176.561,58.177 L1175.038,55.084 L1173.145,55.113 Z M1171.395,61.034 C1176.631,71.694 1178.723,76.385 1179.516,78.429 C1179.35,78.435 1179.375,78.48 1179.161,78.48 C1177.641,78.48 1176.097,78.201 1174.567,77.664 C1162.13,73.984 1133.798,70.585 1120.787,70.585 L1107.478,71.158 L1103.862,71.415 L1103.707,74.035 C1102.817,91.488 1102.878,109.206 1102.939,126.327 L1102.967,142.259 L1105.918,142.27 L1136.035,142.27 C1143.23,142.27 1150.65,141.683 1157.839,141.123 C1157.839,141.123 1159.589,140.996 1161.338,140.86 C1161.338,144.157 1161.338,148.601 1161.338,151.778 C1156.555,151.663 1137.519,151.19 1137.519,151.19 L1102.967,151.19 L1102.939,170.284 C1102.877,191.388 1102.817,213.218 1103.707,234.872 L1103.829,237.568 L1121.16,238.339 C1134.126,238.339 1161.807,235.039 1174.42,231.309 C1176.097,230.735 1177.627,230.452 1179.161,230.452 C1179.39,230.452 1179.37,230.494 1179.537,230.497 C1178.667,232.677 1176.069,238.194 1171.56,247.214 C1171.56,247.214 1171.438,247.484 1171.395,247.58 C1142.471,246.985 1113.185,247.265 1084.728,247.58 C1084.79,242.923 1085.431,184.396 1085.431,184.396 L1085.431,164.003 C1085.431,129.789 1084.721,95.053 1083.999,61.361 C1116.833,61.687 1144.774,61.571 1171.395,61.034 Z"></path>
                </g>
            </g>
            <g id="Group" transform="translate(168.000000, 288.000000)">
                <path d="M1.409,13.992 C1.312,11.164 1.163,8.329 0.966,5.478 C1.711,5.566 2.522,5.641 3.4,5.708 C4.276,5.772 5.262,5.805 6.358,5.805 C8.241,5.805 10.215,5.752 12.276,5.641 C14.334,5.533 16.308,5.478 18.193,5.478 C20.164,5.478 21.962,5.675 23.583,6.069 C25.204,6.464 26.607,7.067 27.792,7.878 C28.975,8.689 29.885,9.741 30.521,11.035 C31.157,12.326 31.475,13.873 31.475,15.668 C31.475,17.466 31.1,19.013 30.353,20.304 C29.605,21.598 28.691,22.67 27.613,23.528 C26.534,24.382 25.369,25.049 24.117,25.531 C22.862,26.015 21.729,26.343 20.718,26.519 L20.718,26.651 C21.723,26.693 22.904,26.924 24.26,27.341 C25.616,27.755 26.907,28.403 28.13,29.28 C29.356,30.156 30.393,31.283 31.247,32.663 C32.1,34.047 32.526,35.723 32.526,37.694 C32.526,40.06 32.099,42.079 31.247,43.742 C30.393,45.409 29.257,46.766 27.834,47.819 C26.412,48.873 24.784,49.607 22.946,50.022 C21.108,50.439 19.207,50.648 17.238,50.648 C15.487,50.648 13.859,50.626 12.35,50.581 C10.841,50.535 9.255,50.517 7.594,50.517 C6.413,50.517 5.198,50.517 3.952,50.517 C2.705,50.517 1.711,50.559 0.966,50.649 C1.164,47.929 1.313,45.159 1.409,42.331 C1.509,39.503 1.558,36.273 1.558,32.633 L1.558,23.692 C1.558,20.054 1.509,16.82 1.409,13.992 Z M21.381,13.928 C21.14,12.985 20.734,12.175 20.164,11.494 C19.596,10.813 18.872,10.268 17.995,9.85 C17.117,9.433 16.022,9.224 14.708,9.224 C13.743,9.224 13.076,9.237 12.703,9.256 C12.33,9.278 11.923,9.333 11.486,9.423 C11.398,11.044 11.332,12.688 11.289,14.354 C11.246,16.021 11.223,17.423 11.223,18.56 C11.223,19.745 11.233,20.874 11.255,21.947 C11.277,23.022 11.289,24.131 11.289,25.266 L14.247,25.266 C15.168,25.266 16.077,25.093 16.976,24.743 C17.875,24.39 18.674,23.877 19.376,23.196 C20.077,22.518 20.646,21.652 21.085,20.598 C21.522,19.548 21.743,18.323 21.743,16.916 C21.744,15.867 21.622,14.868 21.381,13.928 Z M20.132,31.283 C18.752,29.771 16.745,29.016 14.116,29.016 C13.503,29.016 12.976,29.026 12.538,29.048 C12.1,29.07 11.683,29.08 11.289,29.08 C11.289,30.001 11.278,30.955 11.255,31.94 C11.232,32.925 11.223,34.1 11.223,35.459 C11.223,36.512 11.233,37.584 11.255,38.679 C11.277,39.777 11.289,40.849 11.289,41.903 C11.289,42.956 11.3,43.919 11.323,44.796 C11.344,45.672 11.355,46.398 11.355,46.966 C11.968,47.011 12.538,47.043 13.065,47.066 C13.59,47.088 14.225,47.098 14.97,47.098 C15.934,47.098 16.854,46.899 17.732,46.504 C18.608,46.111 19.376,45.53 20.032,44.764 C20.69,43.996 21.217,43.066 21.612,41.967 C22.007,40.872 22.203,39.602 22.203,38.156 C22.203,35.087 21.512,32.795 20.132,31.283 Z" id="Shape"></path>
                <path d="M50.784,39.864 C51.134,41.399 51.67,42.724 52.394,43.842 C53.118,44.959 54.038,45.836 55.156,46.472 C56.273,47.108 57.577,47.425 59.066,47.425 C62.09,47.425 64.787,46.44 67.153,44.468 L67.943,45.059 L66.497,48.742 C65.401,49.573 64.086,50.244 62.553,50.745 C61.017,51.249 59.002,51.503 56.503,51.503 C54.354,51.503 52.317,51.208 50.389,50.613 C48.459,50.023 46.761,49.047 45.294,47.689 C43.824,46.331 42.663,44.61 41.808,42.526 C40.954,40.446 40.527,37.958 40.527,35.065 C40.527,32.218 40.909,29.74 41.676,27.636 C42.443,25.531 43.506,23.778 44.865,22.374 C46.223,20.975 47.833,19.922 49.698,19.219 C51.56,18.519 53.586,18.169 55.779,18.169 C60.119,18.169 63.439,19.44 65.74,21.98 C68.042,24.523 69.191,28.119 69.191,32.763 L69.191,34.144 C69.191,34.539 69.169,34.802 69.127,34.934 L50.256,34.934 C50.258,36.687 50.431,38.33 50.784,39.864 Z M59.167,24.086 C58.445,22.111 57.228,21.126 55.517,21.126 C54.554,21.126 53.742,21.456 53.085,22.111 C52.429,22.769 51.902,23.613 51.507,24.644 C51.112,25.674 50.817,26.836 50.619,28.126 C50.421,29.42 50.3,30.704 50.258,31.973 L60.383,31.973 C60.293,28.686 59.889,26.057 59.167,24.086 Z" id="Shape"></path>
                <path d="M77.655,11.985 C77.567,8.393 77.435,4.756 77.26,1.073 C77.83,1.16 78.554,1.237 79.43,1.302 C80.306,1.368 81.227,1.401 82.191,1.401 C83.154,1.401 84.075,1.369 84.952,1.302 C85.828,1.237 86.553,1.159 87.122,1.073 C86.947,4.756 86.815,8.393 86.727,11.985 C86.641,15.581 86.595,19.526 86.595,23.822 L86.727,23.954 C87.867,22.111 89.26,20.688 90.904,19.681 C92.548,18.674 94.421,18.169 96.525,18.169 C99.813,18.169 102.342,19.122 104.118,21.026 C105.893,22.932 106.783,26.014 106.783,30.265 C106.783,32.499 106.738,34.474 106.651,36.181 C106.561,37.893 106.52,39.601 106.52,41.312 C106.52,42.714 106.552,44.237 106.618,45.88 C106.684,47.524 106.761,49.112 106.847,50.648 C106.277,50.558 105.554,50.516 104.677,50.516 C103.8,50.516 102.879,50.516 101.916,50.516 C100.953,50.516 100.031,50.516 99.155,50.516 C98.279,50.516 97.555,50.558 96.985,50.648 C97.291,48.368 97.489,45.681 97.577,42.592 C97.665,39.501 97.708,35.963 97.708,31.973 C97.708,29.212 97.236,27.186 96.294,25.892 C95.352,24.599 94.026,23.954 92.316,23.954 C90.345,23.954 88.897,24.808 87.977,26.518 C87.057,28.226 86.595,30.592 86.595,33.617 L86.595,36.25 C86.595,36.862 86.607,37.749 86.629,38.911 C86.65,40.073 86.683,41.345 86.727,42.724 C86.772,44.105 86.827,45.507 86.893,46.933 C86.958,48.355 87.036,49.594 87.122,50.648 C86.552,50.558 85.828,50.516 84.952,50.516 C84.076,50.516 83.154,50.516 82.191,50.516 C81.228,50.516 80.306,50.516 79.43,50.516 C78.554,50.516 77.829,50.558 77.26,50.648 C77.435,47.097 77.567,43.524 77.655,39.928 C77.741,36.335 77.786,32.39 77.786,28.095 L77.786,23.822 C77.787,19.526 77.742,15.581 77.655,11.985 Z" id="Shape"></path>
                <path d="M122.653,19.351 C124.778,18.561 126.894,18.169 128.998,18.169 C130.751,18.169 132.361,18.364 133.83,18.76 C135.299,19.155 136.568,19.778 137.644,20.635 C138.716,21.489 139.551,22.596 140.142,23.954 C140.734,25.311 141.031,26.955 141.031,28.885 C141.031,31.691 140.997,34.288 140.931,36.677 C140.865,39.066 140.831,41.445 140.831,43.81 C140.831,44.86 140.908,45.682 141.062,46.276 C141.214,46.867 141.444,47.316 141.752,47.625 C142.057,47.93 142.465,48.129 142.969,48.216 C143.473,48.302 144.054,48.347 144.711,48.347 L144.711,49.924 C143.44,50.45 142.366,50.845 141.489,51.109 C140.613,51.372 139.669,51.504 138.662,51.504 C137.039,51.504 135.724,51.109 134.717,50.319 C133.707,49.533 132.943,48.393 132.417,46.9 C131.407,48.302 130.235,49.423 128.898,50.254 C127.561,51.086 125.883,51.503 123.869,51.503 C122.202,51.503 120.779,51.281 119.595,50.845 C118.412,50.408 117.436,49.783 116.67,48.97 C115.903,48.161 115.344,47.24 114.993,46.209 C114.641,45.182 114.468,44.139 114.468,43.089 C114.468,41.641 114.697,40.392 115.158,39.339 C115.617,38.286 116.275,37.391 117.129,36.643 C117.984,35.898 119.004,35.275 120.187,34.771 C121.37,34.267 122.707,33.84 124.198,33.487 C126.038,33.05 127.495,32.665 128.571,32.338 C129.643,32.011 130.445,31.68 130.969,31.353 C131.495,31.022 131.836,30.663 131.99,30.268 C132.141,29.872 132.218,29.391 132.218,28.82 C132.218,27.244 131.659,25.895 130.542,24.778 C129.425,23.661 127.881,23.102 125.906,23.102 C125.161,23.102 124.394,23.199 123.606,23.398 C122.818,23.593 122.06,23.87 121.338,24.219 C120.616,24.57 119.958,24.954 119.365,25.368 C118.773,25.786 118.323,26.235 118.018,26.717 L117.556,26.717 L116.702,22.772 C118.544,21.279 120.526,20.14 122.653,19.351 Z M132.318,36.346 C132.34,35.361 132.35,34.497 132.35,33.749 C131.43,34.275 130.454,34.702 129.425,35.033 C128.395,35.36 127.452,35.777 126.597,36.281 C125.743,36.786 125.041,37.475 124.494,38.352 C123.945,39.228 123.672,40.499 123.672,42.165 C123.672,43.786 124.011,45.025 124.692,45.88 C125.371,46.734 126.279,47.16 127.419,47.16 C128.867,47.16 130.039,46.615 130.938,45.516 C131.837,44.421 132.286,42.8 132.286,40.653 C132.286,38.77 132.295,37.335 132.318,36.346 Z" id="Shape"></path>
                <path d="M169.282,30.528 C170.575,26.715 171.856,22.878 173.128,19.022 C173.609,19.109 174.072,19.186 174.508,19.253 C174.946,19.317 175.384,19.35 175.824,19.35 C176.261,19.35 176.7,19.318 177.138,19.253 C177.576,19.186 178.058,19.108 178.584,19.022 C177.883,20.73 177.027,22.714 176.019,24.971 C175.011,27.231 173.948,29.706 172.831,32.403 C171.714,35.096 170.574,37.989 169.412,41.081 C168.25,44.17 167.165,47.36 166.157,50.648 C165.544,50.558 164.953,50.516 164.382,50.516 C163.814,50.516 163.222,50.516 162.609,50.516 C161.994,50.516 161.403,50.516 160.834,50.516 C160.265,50.516 159.672,50.558 159.059,50.648 C158.181,48.147 157.206,45.385 156.133,42.362 C155.059,39.338 153.997,36.368 152.945,33.453 C151.892,30.538 150.906,27.809 149.985,25.266 C149.066,22.727 148.298,20.643 147.685,19.022 C148.605,19.109 149.494,19.186 150.348,19.253 C151.202,19.317 152.046,19.35 152.878,19.35 C153.711,19.35 154.533,19.318 155.344,19.253 C156.156,19.186 156.978,19.108 157.809,19.022 C158.994,22.877 160.188,26.714 161.393,30.528 C162.599,34.342 163.836,38.178 165.109,42.034 L165.239,42.034 C166.642,38.179 167.988,34.343 169.282,30.528 Z" id="Shape"></path>
                <path d="M187.343,2.913 C188.351,1.905 189.578,1.401 191.026,1.401 C192.47,1.401 193.697,1.905 194.707,2.913 C195.715,3.923 196.221,5.149 196.221,6.596 C196.221,8.043 195.715,9.27 194.707,10.278 C193.697,11.287 192.471,11.791 191.026,11.791 C189.578,11.791 188.352,11.287 187.343,10.278 C186.334,9.27 185.831,8.044 185.831,6.596 C185.832,5.149 186.334,3.923 187.343,2.913 Z M186.521,26.089 C186.454,23.745 186.313,21.389 186.094,19.023 C186.707,19.11 187.429,19.187 188.262,19.254 C189.095,19.318 190.015,19.351 191.025,19.351 C193.083,19.351 194.727,19.242 195.956,19.023 C195.734,21.389 195.593,23.746 195.527,26.089 C195.461,28.436 195.429,30.946 195.429,33.617 L195.429,36.25 C195.429,38.924 195.461,41.444 195.527,43.81 C195.593,46.176 195.734,48.456 195.956,50.649 C195.384,50.559 194.672,50.517 193.818,50.517 C192.964,50.517 192.033,50.517 191.025,50.517 C190.015,50.517 189.095,50.517 188.262,50.517 C187.429,50.517 186.707,50.559 186.094,50.649 C186.312,48.456 186.453,46.176 186.521,43.81 C186.585,41.445 186.619,38.924 186.619,36.25 L186.619,33.617 C186.62,30.946 186.586,28.436 186.521,26.089 Z" id="Shape"></path>
                <path d="M205.826,28.031 C206.723,25.838 207.919,24.009 209.409,22.541 C210.899,21.071 212.619,19.977 214.571,19.254 C216.52,18.528 218.527,18.169 220.588,18.169 C225.715,18.169 229.683,19.613 232.487,22.506 C235.291,25.399 236.695,29.321 236.695,34.276 C236.695,36.95 236.301,39.361 235.513,41.508 C234.723,43.656 233.616,45.486 232.192,46.998 C230.767,48.51 229.068,49.64 227.096,50.385 C225.125,51.13 222.954,51.502 220.589,51.502 C218.614,51.502 216.675,51.238 214.769,50.712 C212.862,50.186 211.141,49.3 209.608,48.051 C208.074,46.802 206.836,45.168 205.894,43.152 C204.952,41.136 204.48,38.661 204.48,35.723 C204.48,32.785 204.927,30.221 205.826,28.031 Z M225.518,24.313 C224.552,22.188 222.953,21.125 220.718,21.125 C218.7,21.125 217.111,22.31 215.951,24.675 C214.789,27.041 214.208,30.746 214.208,35.786 C214.208,37.629 214.317,39.337 214.537,40.916 C214.757,42.493 215.117,43.863 215.622,45.025 C216.124,46.187 216.782,47.096 217.595,47.754 C218.404,48.408 219.425,48.739 220.651,48.739 C224.86,48.739 226.963,43.59 226.963,33.288 C226.962,29.434 226.481,26.441 225.518,24.313 Z" id="Shape"></path>
                <path d="M254.111,27.174 C255.251,24.15 256.631,21.925 258.254,20.503 C259.875,19.077 261.805,18.364 264.039,18.364 C264.257,18.364 264.443,18.378 264.598,18.396 C264.752,18.418 264.916,18.431 265.092,18.431 C264.961,19.086 264.861,19.789 264.795,20.535 C264.729,21.279 264.697,22.156 264.697,23.164 L264.697,25.267 C264.697,25.621 264.697,25.993 264.697,26.388 C264.697,26.78 264.718,27.155 264.761,27.505 L264.17,28.031 C263.732,27.767 263.239,27.55 262.69,27.373 C262.141,27.196 261.519,27.109 260.817,27.109 C258.844,27.109 257.287,27.755 256.149,29.048 C255.008,30.342 254.44,31.863 254.44,33.616 L254.44,36.249 C254.44,38.923 254.472,41.443 254.54,43.809 C254.604,46.175 254.746,48.455 254.967,50.648 C254.397,50.558 253.69,50.516 252.842,50.516 C251.993,50.516 251.067,50.516 250.067,50.516 C249.067,50.516 248.152,50.516 247.324,50.516 C246.499,50.516 245.78,50.558 245.17,50.648 C245.363,48.455 245.488,46.175 245.545,43.809 C245.603,41.444 245.632,38.923 245.632,36.249 L245.632,33.616 C245.632,30.945 245.603,28.434 245.545,26.088 C245.487,23.744 245.362,21.388 245.17,19.022 C245.912,19.109 246.66,19.186 247.422,19.253 C248.183,19.317 248.934,19.35 249.674,19.35 C250.412,19.35 251.163,19.318 251.924,19.253 C252.687,19.186 253.436,19.108 254.178,19.022 L253.981,27.042 L254.111,27.174 Z" id="Shape"></path>
                <path d="M278.535,19.351 C280.66,18.561 282.776,18.169 284.881,18.169 C286.633,18.169 288.244,18.364 289.713,18.76 C291.182,19.155 292.451,19.778 293.527,20.635 C294.599,21.489 295.434,22.596 296.025,23.954 C296.617,25.311 296.914,26.955 296.914,28.885 C296.914,31.691 296.88,34.288 296.814,36.677 C296.748,39.066 296.714,41.445 296.714,43.81 C296.714,44.86 296.791,45.682 296.945,46.276 C297.097,46.867 297.327,47.316 297.635,47.625 C297.94,47.93 298.348,48.129 298.852,48.216 C299.356,48.302 299.937,48.347 300.594,48.347 L300.594,49.924 C299.323,50.45 298.249,50.845 297.372,51.109 C296.496,51.372 295.552,51.504 294.545,51.504 C292.922,51.504 291.607,51.109 290.6,50.319 C289.59,49.533 288.826,48.393 288.3,46.9 C287.29,48.302 286.118,49.423 284.781,50.254 C283.444,51.086 281.766,51.503 279.752,51.503 C278.085,51.503 276.662,51.281 275.478,50.845 C274.295,50.408 273.319,49.783 272.553,48.97 C271.786,48.161 271.227,47.24 270.876,46.209 C270.524,45.182 270.351,44.139 270.351,43.089 C270.351,41.641 270.58,40.392 271.041,39.339 C271.5,38.286 272.158,37.391 273.012,36.643 C273.868,35.898 274.887,35.275 276.07,34.771 C277.253,34.267 278.59,33.84 280.081,33.487 C281.921,33.05 283.378,32.665 284.454,32.338 C285.526,32.011 286.328,31.68 286.852,31.353 C287.379,31.022 287.719,30.663 287.873,30.268 C288.024,29.872 288.101,29.391 288.101,28.82 C288.101,27.244 287.542,25.895 286.425,24.778 C285.308,23.661 283.764,23.102 281.789,23.102 C281.044,23.102 280.277,23.199 279.489,23.398 C278.701,23.593 277.943,23.87 277.221,24.219 C276.499,24.57 275.841,24.954 275.248,25.368 C274.656,25.786 274.206,26.235 273.901,26.717 L273.439,26.717 L272.585,22.772 C274.426,21.279 276.409,20.14 278.535,19.351 Z M288.2,36.346 C288.222,35.361 288.232,34.497 288.232,33.749 C287.312,34.275 286.336,34.702 285.307,35.033 C284.276,35.36 283.334,35.777 282.479,36.281 C281.625,36.786 280.923,37.475 280.376,38.352 C279.827,39.228 279.554,40.499 279.554,42.165 C279.554,43.786 279.893,45.025 280.573,45.88 C281.252,46.734 282.161,47.16 283.301,47.16 C284.749,47.16 285.921,46.615 286.82,45.516 C287.719,44.421 288.168,42.8 288.168,40.653 C288.168,38.77 288.178,37.335 288.2,36.346 Z" id="Shape"></path>
                <path d="M308.563,11.985 C308.473,8.393 308.341,4.756 308.168,1.073 C308.736,1.16 309.46,1.237 310.338,1.302 C311.214,1.368 312.134,1.401 313.099,1.401 C314.062,1.401 314.984,1.369 315.86,1.302 C316.736,1.237 317.459,1.159 318.03,1.073 C317.854,4.756 317.722,8.393 317.635,11.985 C317.547,15.581 317.504,19.526 317.504,23.822 L317.504,28.095 C317.504,32.39 317.547,36.335 317.635,39.928 C317.722,43.524 317.854,47.097 318.03,50.648 C317.459,50.558 316.736,50.516 315.86,50.516 C314.984,50.516 314.063,50.516 313.099,50.516 C312.134,50.516 311.215,50.516 310.338,50.516 C309.46,50.516 308.736,50.558 308.168,50.648 C308.341,47.097 308.473,43.524 308.563,39.928 C308.65,36.335 308.695,32.39 308.695,28.095 L308.695,23.822 C308.695,19.526 308.65,15.581 308.563,11.985 Z" id="Shape"></path>
                <path d="M377.665,28.722 C375.998,28.655 374.334,28.622 372.668,28.622 C371.002,28.622 369.335,28.644 367.671,28.685 C366.005,28.73 364.34,28.797 362.674,28.884 L362.674,32.631 C362.674,36.272 362.717,39.501 362.806,42.329 C362.893,45.157 363.024,47.928 363.201,50.647 C362.454,50.557 361.644,50.515 360.767,50.515 C359.89,50.515 358.903,50.515 357.809,50.515 C356.713,50.515 355.727,50.515 354.851,50.515 C353.973,50.515 353.162,50.557 352.417,50.647 C352.592,47.927 352.724,45.157 352.812,42.329 C352.898,39.501 352.943,36.271 352.943,32.631 L352.943,23.69 C352.943,20.053 352.898,16.82 352.812,13.992 C352.724,11.164 352.592,8.329 352.417,5.478 C353.162,5.566 353.972,5.641 354.851,5.708 C355.727,5.772 356.713,5.805 357.809,5.805 C358.904,5.805 359.891,5.773 360.767,5.708 C361.643,5.641 362.454,5.565 363.201,5.478 C362.979,8.329 362.838,11.144 362.774,13.927 C362.707,16.71 362.674,19.921 362.674,23.558 C363.814,23.603 365.183,23.635 366.783,23.658 C368.382,23.68 370.366,23.69 372.734,23.69 C375.102,23.69 377.027,23.68 378.521,23.658 C380.01,23.636 381.391,23.603 382.662,23.558 C382.662,19.921 382.617,16.71 382.531,13.927 C382.443,11.144 382.311,8.328 382.136,5.478 C382.881,5.566 383.692,5.641 384.57,5.708 C385.446,5.772 386.432,5.805 387.528,5.805 C388.623,5.805 389.61,5.773 390.486,5.708 C391.362,5.641 392.173,5.565 392.92,5.478 C392.743,8.329 392.612,11.164 392.525,13.992 C392.437,16.82 392.394,20.054 392.394,23.69 L392.394,32.631 C392.394,36.272 392.437,39.501 392.525,42.329 C392.612,45.157 392.743,47.928 392.92,50.647 C392.173,50.557 391.363,50.515 390.486,50.515 C389.609,50.515 388.623,50.515 387.528,50.515 C386.432,50.515 385.446,50.515 384.57,50.515 C383.692,50.515 382.881,50.557 382.136,50.647 C382.311,47.927 382.443,45.157 382.531,42.329 C382.617,39.501 382.662,36.271 382.662,32.631 L382.662,28.884 C380.996,28.84 379.33,28.785 377.665,28.722 Z" id="Shape"></path>
                <path d="M412.938,39.864 C413.29,41.399 413.826,42.724 414.55,43.842 C415.274,44.96 416.194,45.836 417.311,46.472 C418.43,47.108 419.733,47.425 421.223,47.425 C424.249,47.425 426.944,46.44 429.309,44.468 L430.099,45.059 L428.653,48.742 C427.556,49.573 426.242,50.244 424.708,50.745 C423.173,51.249 421.157,51.503 418.66,51.503 C416.512,51.503 414.473,51.208 412.546,50.613 C410.617,50.023 408.919,49.047 407.45,47.689 C405.981,46.331 404.821,44.61 403.965,42.526 C403.111,40.446 402.684,37.958 402.684,35.065 C402.684,32.218 403.066,29.74 403.833,27.636 C404.6,25.531 405.663,23.778 407.022,22.374 C408.38,20.975 409.992,19.922 411.855,19.219 C413.717,18.519 415.745,18.169 417.936,18.169 C422.276,18.169 425.596,19.44 427.898,21.98 C430.198,24.523 431.349,28.119 431.349,32.763 L431.349,34.144 C431.349,34.539 431.327,34.802 431.283,34.934 L412.414,34.934 C412.414,36.687 412.589,38.33 412.938,39.864 Z M421.323,24.086 C420.599,22.111 419.384,21.126 417.674,21.126 C416.71,21.126 415.899,21.456 415.241,22.111 C414.583,22.769 414.058,23.613 413.663,24.644 C413.268,25.674 412.973,26.836 412.775,28.126 C412.578,29.42 412.457,30.704 412.414,31.973 L422.539,31.973 C422.451,28.686 422.045,26.057 421.323,24.086 Z" id="Shape"></path>
                <path d="M445.668,19.351 C447.794,18.561 449.907,18.169 452.012,18.169 C453.765,18.169 455.376,18.364 456.845,18.76 C458.313,19.155 459.584,19.778 460.657,20.635 C461.731,21.489 462.564,22.596 463.157,23.954 C463.749,25.311 464.044,26.955 464.044,28.885 C464.044,31.691 464.011,34.288 463.945,36.677 C463.879,39.066 463.846,41.445 463.846,43.81 C463.846,44.86 463.922,45.682 464.075,46.276 C464.229,46.867 464.459,47.316 464.765,47.625 C465.072,47.93 465.478,48.129 465.982,48.216 C466.486,48.302 467.067,48.347 467.725,48.347 L467.725,49.924 C466.453,50.45 465.38,50.845 464.503,51.109 C463.625,51.372 462.683,51.504 461.675,51.504 C460.054,51.504 458.739,51.109 457.731,50.319 C456.722,49.533 455.956,48.393 455.429,46.9 C454.421,48.302 453.248,49.423 451.912,50.254 C450.573,51.086 448.897,51.503 446.882,51.503 C445.215,51.503 443.792,51.281 442.609,50.845 C441.426,50.408 440.45,49.783 439.683,48.97 C438.915,48.161 438.357,47.24 438.007,46.209 C437.655,45.182 437.48,44.139 437.48,43.089 C437.48,41.641 437.71,40.392 438.17,39.339 C438.631,38.286 439.287,37.391 440.143,36.643 C440.997,35.898 442.017,35.275 443.202,34.771 C444.385,34.267 445.721,33.84 447.212,33.487 C449.053,33.05 450.51,32.665 451.584,32.338 C452.658,32.011 453.457,31.68 453.983,31.353 C454.51,31.022 454.848,30.663 455.003,30.268 C455.155,29.872 455.232,29.391 455.232,28.82 C455.232,27.244 454.673,25.895 453.556,24.778 C452.437,23.661 450.893,23.102 448.92,23.102 C448.174,23.102 447.408,23.199 446.618,23.398 C445.83,23.593 445.074,23.87 444.35,24.219 C443.627,24.57 442.969,24.954 442.378,25.368 C441.786,25.786 441.336,26.235 441.029,26.717 L440.569,26.717 L439.715,22.772 C441.559,21.279 443.541,20.14 445.668,19.351 Z M455.333,36.346 C455.354,35.361 455.365,34.497 455.365,33.749 C454.445,34.275 453.469,34.702 452.438,35.033 C451.41,35.36 450.467,35.777 449.612,36.281 C448.758,36.786 448.056,37.475 447.508,38.352 C446.961,39.228 446.686,40.499 446.686,42.165 C446.686,43.786 447.027,45.025 447.706,45.88 C448.385,46.734 449.295,47.16 450.435,47.16 C451.88,47.16 453.054,46.615 453.954,45.516 C454.85,44.421 455.301,42.8 455.301,40.653 C455.3,38.77 455.311,37.335 455.333,36.346 Z" id="Shape"></path>
                <path d="M475.694,11.985 C475.606,8.393 475.474,4.756 475.299,1.073 C475.869,1.16 476.593,1.237 477.469,1.302 C478.346,1.368 479.266,1.401 480.231,1.401 C481.195,1.401 482.115,1.369 482.993,1.302 C483.87,1.237 484.593,1.159 485.162,1.073 C484.987,4.756 484.855,8.393 484.768,11.985 C484.68,15.581 484.637,19.526 484.637,23.822 L484.637,28.095 C484.637,32.39 484.68,36.335 484.768,39.928 C484.855,43.524 484.987,47.097 485.162,50.648 C484.593,50.558 483.87,50.516 482.993,50.516 C482.115,50.516 481.195,50.516 480.231,50.516 C479.266,50.516 478.346,50.516 477.469,50.516 C476.593,50.516 475.869,50.558 475.299,50.648 C475.474,47.097 475.606,43.524 475.694,39.928 C475.783,36.335 475.826,32.39 475.826,28.095 L475.826,23.822 C475.826,19.526 475.783,15.581 475.694,11.985 Z" id="Shape"></path>
                <path d="M511.712,21.126 C511.712,21.697 511.777,22.243 511.909,22.77 L506.124,22.638 C506.036,23.646 505.959,24.808 505.895,26.124 C505.83,27.437 505.785,28.775 505.763,30.134 C505.741,31.492 505.718,32.808 505.698,34.079 C505.676,35.35 505.664,36.423 505.664,37.3 C505.664,39.579 505.719,41.422 505.83,42.824 C505.937,44.227 506.125,45.3 506.389,46.044 C506.652,46.789 507.023,47.293 507.506,47.557 C507.987,47.82 508.601,47.952 509.347,47.952 C510.179,47.952 510.793,47.897 511.188,47.788 C511.584,47.68 511.976,47.516 512.372,47.294 L512.372,49.991 C511.495,50.386 510.399,50.735 509.085,51.044 C507.77,51.349 506.477,51.503 505.205,51.503 C499.638,51.503 496.856,48.174 496.856,41.509 C496.856,40.238 496.877,38.803 496.92,37.204 C496.963,35.601 497.019,33.958 497.085,32.272 C497.15,30.584 497.205,28.918 497.249,27.274 C497.292,25.63 497.314,24.109 497.314,22.706 L492.711,22.77 C492.843,22.244 492.909,21.698 492.909,21.126 C492.909,20.599 492.843,20.009 492.711,19.351 L497.314,19.549 C497.314,18.192 497.292,16.917 497.249,15.736 C497.205,14.551 497.14,13.13 497.051,11.463 C498.586,10.851 500.098,10.201 501.589,9.522 C503.078,8.844 504.568,8.131 506.06,7.386 L506.718,7.846 C506.628,8.548 506.552,9.37 506.487,10.311 C506.422,11.255 506.355,12.241 506.29,13.271 C506.224,14.302 506.181,15.351 506.158,16.427 C506.136,17.502 506.126,18.52 506.126,19.483 L511.911,19.352 C511.777,20.009 511.712,20.599 511.712,21.126 Z" id="Shape"></path>
                <path d="M519.773,11.985 C519.684,8.393 519.552,4.756 519.377,1.073 C519.945,1.16 520.669,1.237 521.548,1.302 C522.422,1.368 523.344,1.401 524.309,1.401 C525.272,1.401 526.193,1.369 527.07,1.302 C527.946,1.237 528.671,1.159 529.24,1.073 C529.063,4.756 528.933,8.393 528.845,11.985 C528.756,15.581 528.713,19.526 528.713,23.822 L528.845,23.954 C529.985,22.111 531.376,20.688 533.02,19.681 C534.664,18.674 536.537,18.169 538.641,18.169 C541.929,18.169 544.46,19.122 546.236,21.026 C548.011,22.932 548.899,26.014 548.899,30.265 C548.899,32.499 548.854,34.474 548.767,36.181 C548.678,37.893 548.635,39.601 548.635,41.312 C548.635,42.714 548.669,44.237 548.735,45.88 C548.799,47.524 548.877,49.112 548.964,50.648 C548.394,50.558 547.67,50.516 546.794,50.516 C545.917,50.516 544.996,50.516 544.033,50.516 C543.068,50.516 542.146,50.516 541.271,50.516 C540.393,50.516 539.669,50.558 539.101,50.648 C539.408,48.368 539.604,45.681 539.694,42.592 C539.78,39.501 539.824,35.963 539.824,31.973 C539.824,29.212 539.353,27.186 538.411,25.892 C537.468,24.599 536.143,23.954 534.433,23.954 C532.46,23.954 531.014,24.808 530.093,26.518 C529.173,28.226 528.712,30.592 528.712,33.617 L528.712,36.25 C528.712,36.862 528.724,37.749 528.746,38.911 C528.767,40.073 528.8,41.345 528.844,42.724 C528.887,44.105 528.944,45.507 529.009,46.933 C529.073,48.355 529.151,49.594 529.238,50.648 C528.669,50.558 527.944,50.516 527.068,50.516 C526.191,50.516 525.27,50.516 524.307,50.516 C523.342,50.516 522.42,50.516 521.546,50.516 C520.667,50.516 519.943,50.558 519.375,50.648 C519.55,47.097 519.682,43.524 519.771,39.928 C519.857,36.335 519.902,32.39 519.902,28.095 L519.902,23.822 C519.904,19.526 519.859,15.581 519.773,11.985 Z" id="Shape"></path>
                <path d="M594.594,8.698 C592.577,8.698 590.934,9.292 589.662,10.473 C588.391,11.658 587.757,13.038 587.757,14.618 C587.757,16.239 588.25,17.565 589.236,18.596 C590.223,19.626 591.461,20.558 592.951,21.389 C594.44,22.224 596.043,23.023 597.752,23.79 C599.462,24.558 601.061,25.498 602.552,26.615 C604.041,27.732 605.279,29.094 606.266,30.692 C607.252,32.294 607.745,34.342 607.745,36.839 C607.745,39.032 607.329,41.035 606.496,42.856 C605.663,44.677 604.48,46.23 602.946,47.524 C601.411,48.818 599.581,49.803 597.456,50.484 C595.329,51.162 592.952,51.502 590.322,51.502 C587.957,51.502 585.841,51.248 583.977,50.744 C582.114,50.243 580.701,49.617 579.738,48.873 C580.175,47.338 580.547,45.935 580.855,44.664 C581.162,43.393 581.423,42.012 581.643,40.522 L582.893,40.522 C583.067,41.485 583.396,42.394 583.879,43.251 C584.36,44.105 584.974,44.859 585.72,45.518 C586.465,46.176 587.364,46.693 588.415,47.066 C589.468,47.438 590.65,47.625 591.966,47.625 C594.595,47.625 596.535,46.967 597.784,45.65 C599.033,44.338 599.657,42.757 599.657,40.918 C599.657,39.252 599.176,37.895 598.211,36.841 C597.246,35.788 596.043,34.858 594.595,34.048 C593.149,33.236 591.571,32.446 589.862,31.679 C588.152,30.915 586.574,29.981 585.128,28.886 C583.682,27.791 582.477,26.443 581.512,24.841 C580.547,23.242 580.066,21.195 580.066,18.694 C580.066,16.418 580.47,14.401 581.283,12.645 C582.094,10.892 583.179,9.425 584.539,8.241 C585.896,7.057 587.463,6.161 589.238,5.546 C591.013,4.933 592.888,4.626 594.86,4.626 C597.227,4.626 599.298,4.912 601.073,5.48 C602.848,6.049 604.37,6.837 605.643,7.846 C605.248,8.854 604.908,9.829 604.623,10.774 C604.338,11.714 603.977,12.909 603.538,14.356 L602.553,14.356 C601.146,10.586 598.496,8.698 594.594,8.698 Z" id="Shape"></path>
                <path d="M616.521,28.031 C617.419,25.838 618.614,24.009 620.105,22.541 C621.595,21.071 623.316,19.977 625.266,19.254 C627.216,18.528 629.221,18.169 631.282,18.169 C636.411,18.169 640.378,19.613 643.183,22.506 C645.987,25.399 647.39,29.321 647.39,34.276 C647.39,36.95 646.995,39.361 646.207,41.508 C645.417,43.656 644.31,45.486 642.886,46.998 C641.462,48.51 639.764,49.64 637.791,50.385 C635.818,51.13 633.647,51.502 631.281,51.502 C629.308,51.502 627.37,51.238 625.463,50.712 C623.556,50.186 621.835,49.3 620.303,48.051 C618.767,46.802 617.529,45.168 616.586,43.152 C615.644,41.136 615.174,38.661 615.174,35.723 C615.174,32.785 615.621,30.221 616.521,28.031 Z M636.213,24.313 C635.248,22.188 633.648,21.125 631.413,21.125 C629.395,21.125 627.807,22.31 626.645,24.675 C625.483,27.041 624.904,30.746 624.904,35.786 C624.904,37.629 625.013,39.337 625.233,40.916 C625.452,42.493 625.812,43.863 626.316,45.025 C626.821,46.187 627.479,47.096 628.29,47.754 C629.101,48.408 630.119,48.739 631.348,48.739 C635.555,48.739 637.66,43.59 637.66,33.288 C637.659,29.434 637.176,26.441 636.213,24.313 Z" id="Shape"></path>
                <path d="M671.9,20.271 C671.857,20.535 671.835,20.82 671.835,21.125 C671.835,21.388 671.857,21.664 671.9,21.946 C671.944,22.232 671.989,22.505 672.032,22.768 L665.852,22.636 L665.852,28.094 C665.852,32.389 665.895,36.334 665.984,39.927 C666.07,43.523 666.202,47.096 666.379,50.647 C665.809,50.557 665.085,50.515 664.209,50.515 C663.332,50.515 662.411,50.515 661.448,50.515 C660.483,50.515 659.561,50.515 658.685,50.515 C657.808,50.515 657.084,50.557 656.516,50.647 C656.691,47.096 656.823,43.523 656.912,39.927 C656.998,36.334 657.042,32.389 657.042,28.094 L657.042,22.703 L652.439,22.767 C652.571,22.241 652.636,21.695 652.636,21.123 C652.636,20.596 652.571,20.006 652.439,19.348 L657.042,19.546 C657.48,16.872 658.029,14.397 658.686,12.114 C659.344,9.838 660.209,7.864 661.283,6.197 C662.357,4.533 663.706,3.229 665.327,2.287 C666.948,1.344 668.943,0.872 671.311,0.872 C672.055,0.872 672.975,0.982 674.072,1.202 C673.94,1.902 673.863,2.855 673.843,4.062 C673.821,5.266 673.809,6.44 673.809,7.578 L673.809,9.748 L673.021,10.012 C672.143,9.531 671.135,9.09 669.997,8.696 C668.856,8.302 667.762,8.105 666.71,8.105 C665.438,8.105 664.463,8.314 663.783,8.731 C663.103,9.149 662.764,9.88 662.764,10.933 C662.764,11.942 663.059,13.235 663.652,14.812 C664.244,16.391 664.978,17.945 665.854,19.479 L672.034,19.348 C671.989,19.703 671.944,20.009 671.9,20.271 Z" id="Shape"></path>
                <path d="M696.792,21.126 C696.792,21.697 696.858,22.243 696.99,22.77 L691.205,22.638 C691.116,23.646 691.039,24.808 690.975,26.124 C690.91,27.437 690.865,28.775 690.844,30.134 C690.822,31.492 690.799,32.808 690.778,34.079 C690.756,35.35 690.745,36.423 690.745,37.3 C690.745,39.579 690.8,41.422 690.91,42.824 C691.017,44.227 691.206,45.3 691.469,46.044 C691.733,46.789 692.103,47.293 692.586,47.557 C693.067,47.82 693.681,47.952 694.427,47.952 C695.259,47.952 695.874,47.897 696.269,47.788 C696.664,47.68 697.057,47.516 697.452,47.294 L697.452,49.991 C696.576,50.386 695.479,50.735 694.165,51.044 C692.851,51.349 691.557,51.503 690.285,51.503 C684.719,51.503 681.936,48.174 681.936,41.509 C681.936,40.238 681.957,38.803 682,37.204 C682.043,35.601 682.1,33.958 682.165,32.272 C682.231,30.584 682.286,28.918 682.329,27.274 C682.372,25.63 682.394,24.109 682.394,22.706 L677.792,22.77 C677.924,22.244 677.989,21.698 677.989,21.126 C677.989,20.599 677.924,20.009 677.792,19.351 L682.394,19.549 C682.394,18.192 682.372,16.917 682.329,15.736 C682.286,14.551 682.22,13.13 682.132,11.463 C683.666,10.851 685.179,10.201 686.669,9.522 C688.159,8.844 689.648,8.131 691.14,7.386 L691.798,7.846 C691.708,8.548 691.633,9.37 691.567,10.311 C691.502,11.255 691.436,12.241 691.37,13.271 C691.305,14.302 691.262,15.351 691.238,16.427 C691.217,17.502 691.207,18.52 691.207,19.483 L696.992,19.352 C696.858,20.009 696.792,20.599 696.792,21.126 Z" id="Shape"></path>
                <path d="M746.979,19.022 C747.942,19.241 748.795,19.35 749.542,19.35 C749.98,19.35 750.407,19.318 750.824,19.253 C751.24,19.186 751.732,19.108 752.303,19.022 C751.996,19.59 751.58,20.535 751.054,21.847 C750.53,23.163 749.947,24.72 749.313,26.518 C748.677,28.316 747.999,30.275 747.274,32.403 C746.55,34.528 745.837,36.667 745.137,38.811 C744.436,40.958 743.745,43.065 743.067,45.123 C742.386,47.184 741.785,49.026 741.258,50.648 C740.643,50.558 740.041,50.516 739.45,50.516 C738.857,50.516 738.254,50.516 737.64,50.516 C737.026,50.516 736.413,50.516 735.799,50.516 C735.186,50.516 734.572,50.558 733.959,50.648 C733.433,48.981 732.884,47.197 732.315,45.29 C731.744,43.383 731.174,41.498 730.606,39.633 C730.034,37.772 729.487,35.951 728.961,34.176 C728.435,32.404 727.951,30.747 727.516,29.213 L727.384,29.213 C726.242,32.895 725.113,36.513 723.996,40.061 C722.879,43.612 721.815,47.143 720.808,50.649 C720.193,50.559 719.569,50.517 718.933,50.517 C718.297,50.517 717.673,50.517 717.06,50.517 C716.445,50.517 715.811,50.517 715.153,50.517 C714.495,50.517 713.839,50.559 713.18,50.649 C712.697,49.027 712.138,47.153 711.504,45.027 C710.868,42.902 710.199,40.742 709.497,38.548 C708.796,36.359 708.095,34.189 707.394,32.041 C706.693,29.893 706.046,27.932 705.454,26.156 C704.863,24.381 704.349,22.859 703.91,21.588 C703.471,20.317 703.163,19.459 702.988,19.023 C703.953,19.11 704.841,19.187 705.651,19.254 C706.462,19.318 707.284,19.351 708.117,19.351 C708.907,19.351 709.706,19.319 710.516,19.254 C711.327,19.187 712.128,19.109 712.916,19.023 C713.969,22.837 715.063,26.748 716.203,30.76 C717.343,34.77 718.417,38.44 719.425,41.772 L719.557,41.772 C720.828,37.917 721.991,34.125 723.041,30.398 C724.094,26.673 725.145,22.878 726.197,19.023 C726.81,19.11 727.423,19.187 728.038,19.254 C728.651,19.318 729.265,19.351 729.879,19.351 C730.492,19.351 731.106,19.319 731.721,19.254 C732.334,19.187 732.947,19.109 733.562,19.023 C734.614,22.878 735.687,26.673 736.784,30.398 C737.879,34.125 739.02,37.917 740.203,41.772 L740.335,41.772 C742.747,34.144 744.961,26.561 746.979,19.022 Z" id="Shape"></path>
                <path d="M764.959,19.351 C767.085,18.561 769.199,18.169 771.303,18.169 C773.056,18.169 774.668,18.364 776.137,18.76 C777.604,19.155 778.875,19.778 779.949,20.635 C781.023,21.489 781.856,22.596 782.449,23.954 C783.041,25.311 783.337,26.955 783.337,28.885 C783.337,31.691 783.303,34.288 783.237,36.677 C783.171,39.066 783.139,41.445 783.139,43.81 C783.139,44.86 783.214,45.682 783.368,46.276 C783.522,46.867 783.752,47.316 784.058,47.625 C784.365,47.93 784.771,48.129 785.275,48.216 C785.779,48.302 786.36,48.347 787.018,48.347 L787.018,49.924 C785.746,50.45 784.673,50.845 783.796,51.109 C782.918,51.372 781.976,51.504 780.968,51.504 C779.347,51.504 778.032,51.109 777.025,50.319 C776.015,49.533 775.25,48.393 774.723,46.9 C773.714,48.302 772.541,49.423 771.205,50.254 C769.866,51.086 768.19,51.503 766.175,51.503 C764.509,51.503 763.085,51.281 761.902,50.845 C760.719,50.408 759.743,49.783 758.976,48.97 C758.208,48.161 757.65,47.24 757.3,46.209 C756.948,45.182 756.774,44.139 756.774,43.089 C756.774,41.641 757.003,40.392 757.463,39.339 C757.924,38.286 758.58,37.391 759.436,36.643 C760.29,35.898 761.31,35.275 762.495,34.771 C763.678,34.267 765.014,33.84 766.505,33.487 C768.346,33.05 769.804,32.665 770.877,32.338 C771.951,32.011 772.75,31.68 773.276,31.353 C773.803,31.022 774.141,30.663 774.296,30.268 C774.448,29.872 774.525,29.391 774.525,28.82 C774.525,27.244 773.966,25.895 772.849,24.778 C771.731,23.661 770.186,23.102 768.213,23.102 C767.467,23.102 766.701,23.199 765.911,23.398 C765.123,23.593 764.367,23.87 763.643,24.219 C762.92,24.57 762.262,24.954 761.671,25.368 C761.079,25.786 760.63,26.235 760.323,26.717 L759.862,26.717 L759.008,22.772 C760.851,21.279 762.833,20.14 764.959,19.351 Z M774.624,36.346 C774.645,35.361 774.656,34.497 774.656,33.749 C773.736,34.275 772.76,34.702 771.73,35.033 C770.701,35.36 769.758,35.777 768.903,36.281 C768.049,36.786 767.347,37.475 766.799,38.352 C766.252,39.228 765.978,40.499 765.978,42.165 C765.978,43.786 766.318,45.025 766.997,45.88 C767.677,46.734 768.587,47.16 769.726,47.16 C771.172,47.16 772.345,46.615 773.245,45.516 C774.141,44.421 774.592,42.8 774.592,40.653 C774.591,38.77 774.602,37.335 774.624,36.346 Z" id="Shape"></path>
                <path d="M803.408,27.174 C804.548,24.15 805.929,21.925 807.552,20.503 C809.173,19.077 811.101,18.364 813.336,18.364 C813.555,18.364 813.741,18.378 813.895,18.396 C814.049,18.418 814.213,18.431 814.388,18.431 C814.258,19.086 814.159,19.789 814.093,20.535 C814.027,21.279 813.994,22.156 813.994,23.164 L813.994,25.267 C813.994,25.621 813.994,25.993 813.994,26.388 C813.994,26.78 814.015,27.155 814.06,27.505 L813.467,28.031 C813.029,27.767 812.536,27.55 811.988,27.373 C811.44,27.196 810.816,27.109 810.115,27.109 C808.142,27.109 806.587,27.755 805.447,29.048 C804.307,30.341 803.737,31.863 803.737,33.616 L803.737,36.249 C803.737,38.923 803.769,41.443 803.835,43.809 C803.901,46.175 804.044,48.455 804.264,50.648 C803.695,50.558 802.987,50.516 802.137,50.516 C801.289,50.516 800.364,50.516 799.364,50.516 C798.362,50.516 797.449,50.516 796.623,50.516 C795.794,50.516 795.077,50.558 794.469,50.648 C794.659,48.455 794.784,46.175 794.843,43.809 C794.899,41.444 794.928,38.923 794.928,36.249 L794.928,33.616 C794.928,30.945 794.899,28.434 794.843,26.088 C794.784,23.744 794.659,21.388 794.469,19.022 C795.207,19.109 795.958,19.186 796.719,19.253 C797.48,19.317 798.232,19.35 798.971,19.35 C799.711,19.35 800.461,19.318 801.224,19.253 C801.985,19.186 802.736,19.108 803.476,19.022 L803.278,27.042 L803.408,27.174 Z" id="Shape"></path>
                <path d="M830.976,39.864 C831.328,41.399 831.864,42.724 832.587,43.842 C833.312,44.959 834.232,45.836 835.349,46.472 C836.467,47.108 837.771,47.425 839.26,47.425 C842.286,47.425 844.981,46.44 847.347,44.468 L848.137,45.059 L846.691,48.742 C845.594,49.573 844.28,50.244 842.746,50.745 C841.211,51.249 839.195,51.503 836.697,51.503 C834.55,51.503 832.51,51.208 830.583,50.613 C828.654,50.023 826.956,49.047 825.487,47.689 C824.018,46.331 822.857,44.61 822.002,42.526 C821.148,40.446 820.722,37.958 820.722,35.065 C820.722,32.218 821.104,29.74 821.87,27.636 C822.638,25.531 823.7,23.778 825.059,22.374 C826.417,20.975 828.029,19.922 829.893,19.219 C831.754,18.519 833.782,18.169 835.973,18.169 C840.314,18.169 843.633,19.44 845.935,21.98 C848.235,24.523 849.386,28.119 849.386,32.763 L849.386,34.144 C849.386,34.539 849.364,34.802 849.32,34.934 L830.452,34.934 C830.451,36.687 830.626,38.33 830.976,39.864 Z M839.359,24.086 C838.635,22.111 837.421,21.126 835.711,21.126 C834.746,21.126 833.936,21.456 833.277,22.111 C832.619,22.769 832.094,23.613 831.699,24.644 C831.304,25.674 831.01,26.836 830.812,28.126 C830.614,29.42 830.494,30.704 830.451,31.973 L840.576,31.973 C840.488,28.686 840.082,26.057 839.359,24.086 Z" id="Shape"></path>
            </g>
        </g>
    </g>
</svg>