<?xml version="1.0" encoding="UTF-8"?>
<svg width="882px" height="252px" viewBox="0 0 882 252" version="1.1" xmlns="http://www.w3.org/2000/svg" xmlns:xlink="http://www.w3.org/1999/xlink">
    <!-- Generator: Sketch 48.2 (47327) - http://www.bohemiancoding.com/sketch -->
    <title>drew</title>
    <desc>Created with Sketch.</desc>
    <defs>
        <path d="M0.155999996,113.253331 L0.0759999981,3.04933326 C0.0853333312,-3.47066658 12.0626664,2.67599993 12.765333,3.27333325 L68.7759983,50.9879987 C76.9426647,57.9479986 82.1959979,61.8266651 82.1733313,72.7666648 L81.9693313,128.566663 L82.1733313,135.870663 C82.1959979,146.810663 77.2359981,151.787996 69.0693316,158.747996 L16.5946663,196.457328 C14.6946663,196.594662 -0.479999988,189.878662 0.0159999996,183.866662 L0.155999996,113.253331 Z" id="path-1"></path>
        <polygon id="path-3" points="152.41733 0.0973333309 0.126666663 0.0973333309 0.126666663 189.370662 152.41733 189.370662"></polygon>
    </defs>
    <g id="Page-1" stroke="none" stroke-width="1" fill="none" fill-rule="evenodd">
        <g id="drew" transform="translate(0.000000, -1.000000)">
            <g id="g10" transform="translate(442.166664, 126.833341) scale(-1, 1) rotate(-180.000000) translate(-442.166664, -126.833341) translate(0.666664, 0.333341)">
                <g id="g12" transform="translate(0.200000, 0.400000)">
                    <path d="M685.889316,154.586663 L685.809316,44.3826656 C685.81865,37.8626657 697.795983,44.0093322 698.498649,44.6066656 L754.509314,92.321331 C762.675981,99.2813309 767.929314,103.159997 767.906647,114.099997 L767.702647,169.899996 L767.906647,177.203996 C767.929314,188.143995 762.969314,193.121329 754.802648,200.081328 L702.327982,237.790661 C700.427982,237.927994 685.253316,231.211994 685.749316,225.199994 L685.889316,154.586663" id="path20" fill="#FFFFFF"></path>
                    <g id="g22" transform="translate(685.733316, 41.333332)">
                        <g id="g24-Clipped">
                            <mask id="mask-2" fill="white">
                                <use xlink:href="#path-1"></use>
                            </mask>
                            <g id="path26"></g>
                            <g id="g24" mask="url(#mask-2)">
                                <g transform="translate(-42.266666, -0.400000)" id="g30-Clipped">
                                    <g>
                                        <mask id="mask-4" fill="white">
                                            <use xlink:href="#path-3"></use>
                                        </mask>
                                        <g id="path32"></g>
                                        <g id="g30" mask="url(#mask-4)" fill="#FFFFFF" fill-rule="nonzero">
                                            <g transform="translate(42.133332, 0.400000)" id="path42">
                                                <polyline points="2.6666666 0 2.6666666 0.13333333 1.99999995 0.13333333 1.99999995 0.26666666 1.73333329 0.26666666 1.73333329 0.39999999 1.46666663 0.39999999 1.46666663 0.53333332 1.19999997 0.53333332 1.19999997 0.66666665 1.06666664 0.66666665 1.06666664 0.79999998 0.93333331 0.79999998 0.93333331 0.93333331 0.79999998 0.93333331 0.79999998 1.06666664 0.66666665 1.06666664 0.66666665 1.19999997 0.53333332 1.19999997 0.53333332 1.46666663 0.39999999 1.46666663 0.39999999 1.73333329 0.26666666 1.73333329 0.26666666 2.39999994 0.13333333 2.39999994 0.13333333 81.0666646 0.26666666 81.0666646 0.26666666 124.93333 0.13333333 124.93333 0.13333333 183.999995 0 183.999995 0 184.266662 0.13333333 184.266662 0.13333333 185.199995 0.26666666 185.199995 0.26666666 185.466662 0.39999999 185.466662 0.39999999 185.866662 0.53333332 185.866662 0.53333332 186.266662 0.66666665 186.266662 0.66666665 186.399995 0.79999998 186.399995 0.79999998 186.666662 0.93333331 186.666662 0.93333331 186.933329 1.06666664 186.933329 1.06666664 187.066662 1.19999997 187.066662 1.19999997 187.333329 1.3333333 187.333329 1.3333333 187.466662 1.46666663 187.466662 1.46666663 187.599995 1.59999996 187.599995 1.59999996 187.866662 1.73333329 187.866662 1.73333329 187.999995 1.86666662 187.999995 1.86666662 188.133329 1.99999995 188.133329 1.99999995 188.266662 2.13333328 188.266662 2.13333328 188.399995 2.26666661 188.399995 2.26666661 188.533329 2.39999994 188.533329 2.39999994 188.666662 2.53333327 188.666662 2.53333327 188.799995 2.6666666 188.799995 2.6666666 188.933329 2.79999993 188.933329 2.79999993 189.066662 27.1999993 189.066662 27.1999993 188.933329 27.466666 188.933329 27.466666 188.799995 27.5999993 188.799995 27.5999993 188.666662 27.866666 188.666662 27.866666 188.533329 27.9999993 188.533329 27.9999993 188.399995 28.1333326 188.399995 28.1333326 188.266662 28.3999993 188.266662 28.3999993 188.133329 28.5333326 188.133329 28.5333326 187.999995 28.7999993 187.999995 28.7999993 187.866662 28.9333326 187.866662 28.9333326 187.733329 29.0666659 187.733329 29.0666659 187.599995 29.3333326 187.599995 29.3333326 187.466662 29.4666659 187.466662 29.4666659 187.333329 29.7333326 187.333329 29.7333326 187.199995 29.8666659 187.199995 29.8666659 187.066662 29.9999992 187.066662 29.9999992 186.933329 30.2666659 186.933329 30.2666659 186.799995 30.3999992 186.799995 30.3999992 186.666662 30.6666659 186.666662 30.6666659 186.533329 30.7999992 186.533329 30.7999992 186.399995 30.9333326 186.399995 30.9333326 186.266662 31.1999992 186.266662 31.1999992 186.133329 31.3333325 186.133329 31.3333325 185.999995 31.4666659 185.999995 31.4666659 185.866662 31.7333325 185.866662 31.7333325 185.733329 31.8666659 185.733329 31.8666659 185.599995 32.1333325 185.599995 32.1333325 185.466662 32.2666659 185.466662 32.2666659 185.333329 32.3999992 185.333329 32.3999992 185.199995 32.6666658 185.199995 32.6666658 185.066662 32.7999992 185.066662 32.7999992 184.933329 33.0666658 184.933329 33.0666658 184.799995 33.1999992 184.799995 33.1999992 184.666662 33.3333325 184.666662 33.3333325 184.533329 33.5999992 184.533329 33.5999992 184.399995 33.7333325 184.399995 33.7333325 184.266662 33.9999991 184.266662 33.9999991 184.133329 34.1333325 184.133329 34.1333325 183.999995 34.2666658 183.999995 34.2666658 183.866662 34.5333325 183.866662 34.5333325 183.733329 34.6666658 183.733329 34.6666658 183.599995 34.9333325 183.599995 34.9333325 183.466662 35.0666658 183.466662 35.0666658 183.333329 35.1999991 183.333329 35.1999991 183.199995 35.4666658 183.199995 35.4666658 183.066662 35.5999991 183.066662 35.5999991 182.933329 35.7333324 182.933329 35.7333324 182.799995 35.9999991 182.799995 35.9999991 182.666662 36.1333324 182.666662 36.1333324 182.533329 36.3999991 182.533329 36.3999991 182.399995 36.5333324 182.399995 36.5333324 182.266662 36.6666657 182.266662 36.6666657 182.133329 36.9333324 182.133329 36.9333324 181.999995 37.0666657 181.999995 37.0666657 181.866662 37.3333324 181.866662 37.3333324 181.733329 37.4666657 181.733329 37.4666657 181.599995 37.5999991 181.599995 37.5999991 181.466662 37.8666657 181.466662 37.8666657 181.333329 37.999999 181.333329 37.999999 181.199995 38.2666657 181.199995 38.2666657 181.066662 38.399999 181.066662 38.399999 180.933329 38.5333324 180.933329 38.5333324 180.799995 38.799999 180.799995 38.799999 180.666662 38.9333324 180.666662 38.9333324 180.533329 39.199999 180.533329 39.199999 180.399995 39.3333323 180.399995 39.3333323 180.266662 39.4666657 180.266662 39.4666657 180.133329 39.7333323 180.133329 39.7333323 179.999995 39.8666657 179.999995 39.8666657 179.866662 40.1333323 179.866662 40.1333323 179.733329 40.2666657 179.733329 40.2666657 179.599996 40.399999 179.599996 40.399999 179.466662 40.6666656 179.466662 40.6666656 179.333329 40.799999 179.333329 40.799999 179.199996 40.9333323 179.199996 40.9333323 179.066662 41.199999 179.066662 41.199999 178.933329 41.3333323 178.933329 41.3333323 178.799996 41.599999 178.799996 41.599999 178.666662 41.7333323 178.666662 41.7333323 178.533329 41.8666656 178.533329 41.8666656 178.399996 42.1333323 178.399996 42.1333323 178.266662 42.2666656 178.266662 42.2666656 178.133329 42.5333323 178.133329 42.5333323 177.999996 42.6666656 177.999996 42.6666656 177.866662 42.7999989 177.866662 42.7999989 177.733329 43.0666656 177.733329 43.0666656 177.599996 43.1999989 177.599996 43.1999989 177.466662 43.4666656 177.466662 43.4666656 177.333329 43.5999989 177.333329 43.5999989 177.199996 43.7333322 177.199996 43.7333322 177.066662 43.9999989 177.066662 43.9999989 176.933329 44.1333322 176.933329 44.1333322 176.799996 44.3999989 176.799996 44.3999989 176.666662 44.5333322 176.666662 44.5333322 176.533329 44.6666655 176.533329 44.6666655 176.399996 44.9333322 176.399996 44.9333322 176.266662 45.0666655 176.266662 45.0666655 176.133329 45.1999989 176.133329 45.1999989 175.999996 45.4666655 175.999996 45.4666655 175.866662 45.5999989 175.866662 45.5999989 175.733329 45.8666655 175.733329 45.8666655 175.599996 45.9999988 175.599996 45.9999988 175.466662 46.1333322 175.466662 46.1333322 175.333329 46.3999988 175.333329 46.3999988 175.199996 46.5333322 175.199996 46.5333322 175.066662 46.7999988 175.066662 46.7999988 174.933329 46.9333322 174.933329 46.9333322 174.799996 47.0666655 174.799996 47.0666655 174.666662 47.3333321 174.666662 47.3333321 174.533329 47.4666655 174.533329 47.4666655 174.399996 47.7333321 174.399996 47.7333321 174.266662 47.8666655 174.266662 47.8666655 174.133329 47.9999988 174.133329 47.9999988 173.999996 48.2666655 173.999996 48.2666655 173.866662 48.3999988 173.866662 48.3999988 173.733329 48.6666654 173.733329 48.6666654 173.599996 48.7999988 173.599996 48.7999988 173.466662 48.9333321 173.466662 48.9333321 173.333329 49.1999988 173.333329 49.1999988 173.199996 49.3333321 173.199996 49.3333321 173.066662 49.4666654 173.066662 49.4666654 172.933329 49.7333321 172.933329 49.7333321 172.799996 49.8666654 172.799996 49.8666654 172.666662 50.1333321 172.666662 50.1333321 172.533329 50.2666654 172.533329 50.2666654 172.399996 50.3999987 172.399996 50.3999987 172.266662 50.6666654 172.266662 50.6666654 172.133329 50.7999987 172.133329 50.7999987 171.999996 51.0666654 171.999996 51.0666654 171.866662 51.1999987 171.866662 51.1999987 171.733329 51.333332 171.733329 51.333332 171.599996 51.5999987 171.599996 51.5999987 171.466662 51.733332 171.466662 51.733332 171.333329 51.9999987 171.333329 51.9999987 171.199996 52.133332 171.199996 52.133332 171.066662 52.2666654 171.066662 52.2666654 170.933329 52.533332 170.933329 52.533332 170.799996 52.6666653 170.799996 52.6666653 170.666662 52.933332 170.666662 52.933332 170.533329 53.0666653 170.533329 53.0666653 170.399996 53.1999987 170.399996 53.1999987 170.266662 53.4666653 170.266662 53.4666653 170.133329 53.5999987 170.133329 53.5999987 169.999996 53.733332 169.999996 53.733332 169.866662 53.9999986 169.866662 53.9999986 169.733329 54.133332 169.733329 54.133332 169.599996 54.3999986 169.599996 54.3999986 169.466662 54.533332 169.466662 54.533332 169.333329 54.6666653 169.333329 54.6666653 169.199996 54.933332 169.199996 54.933332 169.066662 55.0666653 169.066662 55.0666653 168.933329 55.3333319 168.933329 55.3333319 168.799996 55.4666653 168.799996 55.4666653 168.666662 55.5999986 168.666662 55.5999986 168.533329 55.8666653 168.533329 55.8666653 168.399996 55.9999986 168.399996 55.9999986 168.266662 56.2666653 168.266662 56.2666653 168.133329 56.3999986 168.133329 56.3999986 167.999996 56.5333319 167.999996 56.5333319 167.866662 56.7999986 167.866662 56.7999986 167.733329 56.9333319 167.733329 56.9333319 167.599996 57.1999986 167.599996 57.1999986 167.466662 57.3333319 167.466662 57.3333319 167.333329 57.4666652 167.333329 57.4666652 167.199996 57.7333319 167.199996 57.7333319 167.066662 57.8666652 167.066662 57.8666652 166.933329 57.9999985 166.933329 57.9999985 166.799996 58.2666652 166.799996 58.2666652 166.666662 58.3999985 166.666662 58.3999985 166.533329 58.6666652 166.533329 58.6666652 166.399996 58.7999985 166.399996 58.7999985 166.266663 58.9333319 166.266663 58.9333319 166.133329 59.1999985 166.133329 59.1999985 165.999996 59.3333318 165.999996 59.3333318 165.866663 59.5999985 165.866663 59.5999985 165.733329 59.7333318 165.733329 59.7333318 165.599996 59.8666652 165.599996 59.8666652 165.466663 60.1333318 165.466663 60.1333318 165.333329 60.2666652 165.333329 60.2666652 165.199996 60.5333318 165.199996 60.5333318 165.066663 60.6666651 165.066663 60.6666651 164.933329 60.7999985 164.933329 60.7999985 164.799996 61.0666651 164.799996 61.0666651 164.666663 61.1999985 164.666663 61.1999985 164.533329 61.4666651 164.533329 61.4666651 164.399996 61.5999985 164.399996 61.5999985 164.266663 61.7333318 164.266663 61.7333318 164.133329 61.9999984 164.133329 61.9999984 163.999996 62.1333318 163.999996 62.1333318 163.866663 62.2666651 163.866663 62.2666651 163.733329 62.5333318 163.733329 62.5333318 163.599996 62.6666651 163.599996 62.6666651 163.466663 62.9333318 163.466663 62.9333318 163.333329 63.0666651 163.333329 63.0666651 163.199996 63.1999984 163.199996 63.1999984 163.066663 63.4666651 163.066663 63.4666651 162.933329 63.5999984 162.933329 63.5999984 162.799996 63.8666651 162.799996 63.8666651 162.666663 63.9999984 162.666663 63.9999984 162.533329 64.1333317 162.533329 64.1333317 162.399996 64.3999984 162.399996 64.3999984 162.266663 64.5333317 162.266663 64.5333317 162.133329 64.7999984 162.133329 64.7999984 161.999996 64.9333317 161.999996 64.9333317 161.866663 65.066665 161.866663 65.066665 161.733329 65.3333317 161.733329 65.3333317 161.599996 65.466665 161.599996 65.466665 161.466663 65.7333317 161.466663 65.7333317 161.333329 65.866665 161.333329 65.866665 161.199996 65.9999983 161.199996 65.9999983 161.066663 66.266665 161.066663 66.266665 160.933329 66.3999983 160.933329 66.3999983 160.799996 66.5333317 160.799996 66.5333317 160.666663 66.7999983 160.666663 66.7999983 160.533329 66.9333317 160.533329 66.9333317 160.399996 67.1999983 160.399996 67.1999983 160.266663 67.3333316 160.266663 67.3333316 160.133329 67.466665 160.133329 67.466665 159.999996 67.7333316 159.999996 67.7333316 159.866663 67.866665 159.866663 67.866665 159.733329 68.1333316 159.733329 68.1333316 159.599996 68.266665 159.599996 68.266665 159.466663 68.3999983 159.466663 68.3999983 159.333329 68.6666649 159.333329 68.6666649 159.199996 68.7999983 159.199996 68.7999983 159.066663 69.0666649 159.066663 69.0666649 158.933329 69.1999983 158.933329 69.1999983 158.799996 69.3333316 158.799996 69.3333316 158.666663 69.4666649 158.666663 69.4666649 158.533329 69.7333316 158.533329 69.7333316 158.399996 69.8666649 158.399996 69.8666649 158.266663 69.9999982 158.266663 69.9999982 158.133329 70.1333316 158.133329 70.1333316 157.999996 70.2666649 157.999996 70.2666649 157.866663 70.3999982 157.866663 70.3999982 157.733329 70.5333316 157.733329 70.5333316 157.599996 70.7999982 157.599996 70.7999982 157.466663 70.9333316 157.466663 70.9333316 157.333329 71.0666649 157.333329 71.0666649 157.199996 71.1999982 157.199996 71.1999982 157.066663 71.3333315 157.066663 71.3333315 156.933329 71.4666649 156.933329 71.4666649 156.799996 71.5999982 156.799996 71.5999982 156.666663 71.8666649 156.666663 71.8666649 156.533329 71.9999982 156.533329 71.9999982 156.399996 72.1333315 156.399996 72.1333315 156.266663 72.2666649 156.266663 72.2666649 156.133329 72.3999982 156.133329 72.3999982 155.999996 72.5333315 155.999996 72.5333315 155.866663 72.6666648 155.866663 72.6666648 155.733329 72.7999982 155.733329 72.7999982 155.599996 72.9333315 155.599996 72.9333315 155.466663 73.0666648 155.466663 73.0666648 155.333329 73.1999982 155.333329 73.1999982 155.199996 73.3333315 155.199996 73.3333315 155.066663 73.5999982 155.066663 73.5999982 154.933329 73.7333315 154.933329 73.7333315 154.799996 73.8666648 154.799996 73.8666648 154.666663 73.9999981 154.666663 73.9999981 154.533329 74.1333315 154.533329 74.1333315 154.399996 74.2666648 154.399996 74.2666648 154.266663 74.3999981 154.266663 74.3999981 154.133329 74.5333315 154.133329 74.5333315 153.999996 74.6666648 153.999996 74.6666648 153.866663 74.7999981 153.866663 74.7999981 153.733329 74.9333315 153.733329 74.9333315 153.599996 75.0666648 153.599996 75.0666648 153.466663 75.1999981 153.466663 75.1999981 153.333329 75.3333314 153.333329 75.3333314 153.199996 75.4666648 153.199996 75.4666648 153.066663 75.5999981 153.066663 75.5999981 152.799996 75.7333314 152.799996 75.7333314 152.666663 75.8666648 152.666663 75.8666648 152.53333 75.9999981 152.53333 75.9999981 152.399996 76.1333314 152.399996 76.1333314 152.266663 76.2666648 152.266663 76.2666648 152.13333 76.3999981 152.13333 76.3999981 151.999996 76.5333314 151.999996 76.5333314 151.866663 76.6666647 151.866663 76.6666647 151.73333 76.7999981 151.73333 76.7999981 151.599996 76.9333314 151.599996 76.9333314 151.466663 77.0666647 151.466663 77.0666647 151.199996 77.1999981 151.199996 77.1999981 151.066663 77.3333314 151.066663 77.3333314 150.93333 77.4666647 150.93333 77.4666647 150.666663 77.5999981 150.666663 77.5999981 150.53333 77.7333314 150.53333 77.7333314 150.399996 77.8666647 150.399996 77.8666647 150.13333 77.999998 150.13333 77.999998 149.999996 78.1333314 149.999996 78.1333314 149.866663 78.2666647 149.866663 78.2666647 149.599996 78.399998 149.599996 78.399998 149.466663 78.5333314 149.466663 78.5333314 149.199996 78.6666647 149.199996 78.6666647 149.066663 78.799998 149.066663 78.799998 148.93333 78.9333314 148.93333 78.9333314 148.666663 79.0666647 148.666663 79.0666647 148.399996 79.199998 148.399996 79.199998 148.13333 79.3333313 148.13333 79.3333313 147.999996 79.4666647 147.999996 79.4666647 147.73333 79.599998 147.73333 79.599998 147.466663 79.7333313 147.466663 79.7333313 147.199996 79.8666647 147.199996 79.8666647 146.93333 79.999998 146.93333 79.999998 146.799996 80.1333313 146.799996 80.1333313 146.53333 80.2666647 146.53333 80.2666647 146.266663 80.399998 146.266663 80.399998 145.999996 80.5333313 145.999996 80.5333313 145.599996 80.6666646 145.599996 80.6666646 145.199996 80.799998 145.199996 80.799998 144.799996 80.9333313 144.799996 80.9333313 144.53333 81.0666646 144.53333 81.0666646 144.13333 81.199998 144.13333 81.199998 143.73333 81.3333313 143.73333 81.3333313 143.33333 81.4666646 143.33333 81.4666646 142.93333 81.599998 142.93333 81.599998 142.266663 81.7333313 142.266663 81.7333313 141.599996 81.8666646 141.599996 81.8666646 140.93333 81.9999979 140.93333 81.9999979 140.266663 82.1333313 140.266663 82.1333313 139.199997 82.2666646 139.199997 82.2666646 137.466663 82.3999979 137.466663 82.3999979 134.399997 82.2666646 134.399997 82.2666646 129.599997 82.1333313 129.599997 82.1333313 120.266664 82.2666646 120.266664 82.2666646 83.7333312 82.3999979 83.7333312 82.3999979 71.1999982 82.2666646 71.1999982 82.2666646 69.5999983 82.1333313 69.5999983 82.1333313 68.5333316 81.9999979 68.5333316 81.9999979 67.7333316 81.8666646 67.7333316 81.8666646 67.066665 81.7333313 67.066665 81.7333313 66.5333317 81.599998 66.5333317 81.599998 65.9999983 81.4666646 65.9999983 81.4666646 65.5999984 81.3333313 65.5999984 81.3333313 65.1999984 81.199998 65.1999984 81.199998 64.7999984 81.0666646 64.7999984 81.0666646 64.3999984 80.9333313 64.3999984 80.9333313 64.1333317 80.799998 64.1333317 80.799998 63.7333317 80.6666646 63.7333317 80.6666646 63.4666651 80.5333313 63.4666651 80.5333313 63.1999984 80.399998 63.1999984 80.399998 62.9333318 80.2666647 62.9333318 80.2666647 62.6666651 80.1333313 62.6666651 80.1333313 62.3999984 79.999998 62.3999984 79.999998 62.1333318 79.8666647 62.1333318 79.8666647 61.9999984 79.7333313 61.9999984 79.7333313 61.7333318 79.599998 61.7333318 79.599998 61.4666651 79.4666647 61.4666651 79.4666647 61.3333318 79.3333313 61.3333318 79.3333313 61.0666651 79.199998 61.0666651 79.199998 60.9333318 79.0666647 60.9333318 79.0666647 60.6666651 78.9333314 60.6666651 78.9333314 60.5333318 78.799998 60.5333318 78.799998 60.2666652 78.6666647 60.2666652 78.6666647 60.1333318 78.5333314 60.1333318 78.5333314 59.9999985 78.399998 59.9999985 78.399998 59.7333318 78.2666647 59.7333318 78.2666647 59.5999985 78.1333314 59.5999985 78.1333314 59.4666652 77.999998 59.4666652 77.999998 59.3333318 77.8666647 59.3333318 77.8666647 59.0666652 77.7333314 59.0666652 77.7333314 58.9333319 77.5999981 58.9333319 77.5999981 58.7999985 77.4666647 58.7999985 77.4666647 58.6666652 77.3333314 58.6666652 77.3333314 58.5333319 77.1999981 58.5333319 77.1999981 58.3999985 77.0666647 58.3999985 77.0666647 58.2666652 76.9333314 58.2666652 76.9333314 57.9999985 76.7999981 57.9999985 76.7999981 57.8666652 76.6666647 57.8666652 76.6666647 57.7333319 76.5333314 57.7333319 76.5333314 57.5999986 76.3999981 57.5999986 76.3999981 57.4666652 76.2666648 57.4666652 76.2666648 57.3333319 76.1333314 57.3333319 76.1333314 57.1999986 75.9999981 57.1999986 75.9999981 57.0666652 75.8666648 57.0666652 75.8666648 56.9333319 75.7333314 56.9333319 75.7333314 56.7999986 75.5999981 56.7999986 75.5999981 56.6666652 75.4666648 56.6666652 75.4666648 56.5333319 75.3333314 56.5333319 75.3333314 56.3999986 75.1999981 56.3999986 75.1999981 56.2666653 75.0666648 56.2666653 75.0666648 56.1333319 74.9333315 56.1333319 74.9333315 55.9999986 74.7999981 55.9999986 74.7999981 55.8666653 74.5333315 55.8666653 74.5333315 55.7333319 74.3999981 55.7333319 74.3999981 55.5999986 74.2666648 55.5999986 74.2666648 55.4666653 74.1333315 55.4666653 74.1333315 55.3333319 73.9999981 55.3333319 73.9999981 55.1999986 73.8666648 55.1999986 73.8666648 55.0666653 73.7333315 55.0666653 73.7333315 54.933332 73.5999982 54.933332 73.5999982 54.7999986 73.4666648 54.7999986 73.4666648 54.6666653 73.3333315 54.6666653 73.3333315 54.533332 73.0666648 54.533332 73.0666648 54.3999986 72.9333315 54.3999986 72.9333315 54.2666653 72.7999982 54.2666653 72.7999982 54.133332 72.6666648 54.133332 72.6666648 53.9999986 72.5333315 53.9999986 72.5333315 53.8666653 72.3999982 53.8666653 72.3999982 53.733332 72.1333315 53.733332 72.1333315 53.5999987 71.9999982 53.5999987 71.9999982 53.4666653 71.8666649 53.4666653 71.8666649 53.333332 71.7333315 53.333332 71.7333315 53.1999987 71.5999982 53.1999987 71.5999982 53.0666653 71.4666649 53.0666653 71.4666649 52.933332 71.1999982 52.933332 71.1999982 52.7999987 71.0666649 52.7999987 71.0666649 52.6666653 70.9333316 52.6666653 70.9333316 52.533332 70.7999982 52.533332 70.7999982 52.3999987 70.6666649 52.3999987 70.6666649 52.2666654 70.5333316 52.2666654 70.5333316 52.133332 70.2666649 52.133332 70.2666649 51.9999987 70.1333316 51.9999987 70.1333316 51.8666654 69.9999982 51.8666654 69.9999982 51.733332 69.8666649 51.733332 69.8666649 51.5999987 69.7333316 51.5999987 69.7333316 51.4666654 69.5999983 51.4666654 69.5999983 51.333332 69.3333316 51.333332 69.3333316 51.1999987 69.1999983 51.1999987 69.1999983 51.0666654 69.0666649 51.0666654 69.0666649 50.9333321 68.9333316 50.9333321 68.9333316 50.7999987 68.7999983 50.7999987 68.7999983 50.6666654 68.5333316 50.6666654 68.5333316 50.5333321 68.3999983 50.5333321 68.3999983 50.3999987 68.266665 50.3999987 68.266665 50.2666654 68.1333316 50.2666654 68.1333316 50.1333321 67.9999983 50.1333321 67.9999983 49.9999987 67.866665 49.9999987 67.866665 49.8666654 67.5999983 49.8666654 67.5999983 49.7333321 67.466665 49.7333321 67.466665 49.5999988 67.3333316 49.5999988 67.3333316 49.4666654 67.1999983 49.4666654 67.1999983 49.3333321 67.066665 49.3333321 67.066665 49.1999988 66.9333317 49.1999988 66.9333317 49.0666654 66.666665 49.0666654 66.666665 48.9333321 66.5333317 48.9333321 66.5333317 48.7999988 66.3999983 48.7999988 66.3999983 48.6666654 66.266665 48.6666654 66.266665 48.5333321 66.1333317 48.5333321 66.1333317 48.3999988 65.9999983 48.3999988 65.9999983 48.2666655 65.7333317 48.2666655 65.7333317 48.1333321 65.5999984 48.1333321 65.5999984 47.9999988 65.466665 47.9999988 65.466665 47.8666655 65.3333317 47.8666655 65.3333317 47.7333321 65.1999984 47.7333321 65.1999984 47.5999988 64.9333317 47.5999988 64.9333317 47.4666655 64.7999984 47.4666655 64.7999984 47.3333321 64.666665 47.3333321 64.666665 47.1999988 64.5333317 47.1999988 64.5333317 47.0666655 64.3999984 47.0666655 64.3999984 46.9333322 64.2666651 46.9333322 64.2666651 46.7999988 63.9999984 46.7999988 63.9999984 46.6666655 63.8666651 46.6666655 63.8666651 46.5333322 63.7333317 46.5333322 63.7333317 46.3999988 63.5999984 46.3999988 63.5999984 46.2666655 63.4666651 46.2666655 63.4666651 46.1333322 63.3333317 46.1333322 63.3333317 45.9999988 63.0666651 45.9999988 63.0666651 45.8666655 62.9333318 45.8666655 62.9333318 45.7333322 62.7999984 45.7333322 62.7999984 45.5999989 62.6666651 45.5999989 62.6666651 45.4666655 62.5333318 45.4666655 62.5333318 45.3333322 62.3999984 45.3333322 62.3999984 45.1999989 62.1333318 45.1999989 62.1333318 45.0666655 61.9999984 45.0666655 61.9999984 44.9333322 61.8666651 44.9333322 61.8666651 44.7999989 61.7333318 44.7999989 61.7333318 44.6666655 61.5999985 44.6666655 61.5999985 44.5333322 61.3333318 44.5333322 61.3333318 44.3999989 61.1999985 44.3999989 61.1999985 44.2666656 61.0666651 44.2666656 61.0666651 44.1333322 60.9333318 44.1333322 60.9333318 43.9999989 60.7999985 43.9999989 60.7999985 43.8666656 60.6666651 43.8666656 60.6666651 43.7333322 60.3999985 43.7333322 60.3999985 43.5999989 60.2666652 43.5999989 60.2666652 43.4666656 60.1333318 43.4666656 60.1333318 43.3333322 59.9999985 43.3333322 59.9999985 43.1999989 59.8666652 43.1999989 59.8666652 43.0666656 59.7333318 43.0666656 59.7333318 42.9333323 59.4666652 42.9333323 59.4666652 42.7999989 59.3333318 42.7999989 59.3333318 42.6666656 59.1999985 42.6666656 59.1999985 42.5333323 59.0666652 42.5333323 59.0666652 42.3999989 58.9333319 42.3999989 58.9333319 42.2666656 58.7999985 42.2666656 58.7999985 42.1333323 58.5333319 42.1333323 58.5333319 41.9999989 58.3999985 41.9999989 58.3999985 41.8666656 58.2666652 41.8666656 58.2666652 41.7333323 58.1333319 41.7333323 58.1333319 41.599999 57.9999985 41.599999 57.9999985 41.4666656 57.7333319 41.4666656 57.7333319 41.3333323 57.5999986 41.3333323 57.5999986 41.199999 57.4666652 41.199999 57.4666652 41.0666656 57.3333319 41.0666656 57.3333319 40.9333323 57.1999986 40.9333323 57.1999986 40.799999 57.0666652 40.799999 57.0666652 40.6666656 56.7999986 40.6666656 56.7999986 40.5333323 56.6666652 40.5333323 56.6666652 40.399999 56.5333319 40.399999 56.5333319 40.2666657 56.3999986 40.2666657 56.3999986 40.1333323 56.2666653 40.1333323 56.2666653 39.999999 56.1333319 39.999999 56.1333319 39.8666657 55.8666653 39.8666657 55.8666653 39.7333323 55.7333319 39.7333323 55.7333319 39.599999 55.5999986 39.599999 55.5999986 39.4666657 55.4666653 39.4666657 55.4666653 39.3333323 55.3333319 39.3333323 55.3333319 39.199999 55.1999986 39.199999 55.1999986 39.0666657 54.933332 39.0666657 54.933332 38.9333324 54.7999986 38.9333324 54.7999986 38.799999 54.6666653 38.799999 54.6666653 38.6666657 54.533332 38.6666657 54.533332 38.5333324 54.3999986 38.5333324 54.3999986 38.399999 54.133332 38.399999 54.133332 38.2666657 53.9999986 38.2666657 53.9999986 38.1333324 53.8666653 38.1333324 53.8666653 37.999999 53.733332 37.999999 53.733332 37.8666657 53.5999987 37.8666657 53.5999987 37.7333324 53.4666653 37.7333324 53.4666653 37.5999991 53.1999987 37.5999991 53.1999987 37.4666657 53.0666653 37.4666657 53.0666653 37.3333324 52.933332 37.3333324 52.933332 37.1999991 52.7999987 37.1999991 52.7999987 37.0666657 52.6666653 37.0666657 52.6666653 36.9333324 52.533332 36.9333324 52.533332 36.7999991 52.2666654 36.7999991 52.2666654 36.6666657 52.133332 36.6666657 52.133332 36.5333324 51.9999987 36.5333324 51.9999987 36.3999991 51.8666654 36.3999991 51.8666654 36.2666658 51.733332 36.2666658 51.733332 36.1333324 51.5999987 36.1333324 51.5999987 35.9999991 51.333332 35.9999991 51.333332 35.8666658 51.1999987 35.8666658 51.1999987 35.7333324 51.0666654 35.7333324 51.0666654 35.5999991 50.9333321 35.5999991 50.9333321 35.4666658 50.7999987 35.4666658 50.7999987 35.3333324 50.5333321 35.3333324 50.5333321 35.1999991 50.3999987 35.1999991 50.3999987 35.0666658 50.2666654 35.0666658 50.2666654 34.9333325 50.1333321 34.9333325 50.1333321 34.7999991 49.9999987 34.7999991 49.9999987 34.6666658 49.8666654 34.6666658 49.8666654 34.5333325 49.5999988 34.5333325 49.5999988 34.3999991 49.4666654 34.3999991 49.4666654 34.2666658 49.3333321 34.2666658 49.3333321 34.1333325 49.1999988 34.1333325 49.1999988 33.9999991 49.0666654 33.9999991 49.0666654 33.8666658 48.9333321 33.8666658 48.9333321 33.7333325 48.6666654 33.7333325 48.6666654 33.5999992 48.5333321 33.5999992 48.5333321 33.4666658 48.3999988 33.4666658 48.3999988 33.3333325 48.2666655 33.3333325 48.2666655 33.1999992 48.1333321 33.1999992 48.1333321 33.0666658 47.9999988 33.0666658 47.9999988 32.9333325 47.7333321 32.9333325 47.7333321 32.7999992 47.5999988 32.7999992 47.5999988 32.6666658 47.4666655 32.6666658 47.4666655 32.5333325 47.3333321 32.5333325 47.3333321 32.3999992 47.1999988 32.3999992 47.1999988 32.2666659 46.9333322 32.2666659 46.9333322 32.1333325 46.7999988 32.1333325 46.7999988 31.9999992 46.6666655 31.9999992 46.6666655 31.8666659 46.5333322 31.8666659 46.5333322 31.7333325 46.3999988 31.7333325 46.3999988 31.5999992 46.2666655 31.5999992 46.2666655 31.4666659 45.9999988 31.4666659 45.9999988 31.3333325 45.8666655 31.3333325 45.8666655 31.1999992 45.7333322 31.1999992 45.7333322 31.0666659 45.5999989 31.0666659 45.5999989 30.9333326 45.4666655 30.9333326 45.4666655 30.7999992 45.3333322 30.7999992 45.3333322 30.6666659 45.0666655 30.6666659 45.0666655 30.5333326 44.9333322 30.5333326 44.9333322 30.3999992 44.7999989 30.3999992 44.7999989 30.2666659 44.6666655 30.2666659 44.6666655 30.1333326 44.5333322 30.1333326 44.5333322 29.9999992 44.3999989 29.9999992 44.3999989 29.8666659 44.1333322 29.8666659 44.1333322 29.7333326 43.9999989 29.7333326 43.9999989 29.5999993 43.8666656 29.5999993 43.8666656 29.4666659 43.7333322 29.4666659 43.7333322 29.3333326 43.5999989 29.3333326 43.5999989 29.1999993 43.3333322 29.1999993 43.3333322 29.0666659 43.1999989 29.0666659 43.1999989 28.9333326 43.0666656 28.9333326 43.0666656 28.7999993 42.9333323 28.7999993 42.9333323 28.6666659 42.7999989 28.6666659 42.7999989 28.5333326 42.6666656 28.5333326 42.6666656 28.3999993 42.3999989 28.3999993 42.3999989 28.266666 42.2666656 28.266666 42.2666656 28.1333326 42.1333323 28.1333326 42.1333323 27.9999993 41.9999989 27.9999993 41.9999989 27.866666 41.8666656 27.866666 41.8666656 27.7333326 41.7333323 27.7333326 41.7333323 27.5999993 41.4666656 27.5999993 41.4666656 27.466666 41.3333323 27.466666 41.3333323 27.3333326 41.199999 27.3333326 41.199999 27.1999993 41.0666656 27.1999993 41.0666656 27.066666 40.9333323 27.066666 40.9333323 26.9333327 40.799999 26.9333327 40.799999 26.7999993 40.5333323 26.7999993 40.5333323 26.666666 40.399999 26.666666 40.399999 26.5333327 40.2666657 26.5333327 40.2666657 26.3999993 40.1333323 26.3999993 40.1333323 26.266666 39.999999 26.266666 39.999999 26.1333327 39.7333323 26.1333327 39.7333323 25.9999993 39.599999 25.9999993 39.599999 25.866666 39.4666657 25.866666 39.4666657 25.7333327 39.3333323 25.7333327 39.3333323 25.5999994 39.199999 25.5999994 39.199999 25.466666 39.0666657 25.466666 39.0666657 25.3333327 38.799999 25.3333327 38.799999 25.1999994 38.6666657 25.1999994 38.6666657 25.066666 38.5333324 25.066666 38.5333324 24.9333327 38.399999 24.9333327 38.399999 24.7999994 38.2666657 24.7999994 38.2666657 24.666666 38.1333324 24.666666 38.1333324 24.5333327 37.8666657 24.5333327 37.8666657 24.3999994 37.7333324 24.3999994 37.7333324 24.2666661 37.5999991 24.2666661 37.5999991 24.1333327 37.4666657 24.1333327 37.4666657 23.9999994 37.3333324 23.9999994 37.3333324 23.8666661 37.1999991 23.8666661 37.1999991 23.7333327 36.9333324 23.7333327 36.9333324 23.5999994 36.7999991 23.5999994 36.7999991 23.4666661 36.6666657 23.4666661 36.6666657 23.3333327 36.5333324 23.3333327 36.5333324 23.1999994 36.3999991 23.1999994 36.3999991 23.0666661 36.1333324 23.0666661 36.1333324 22.9333328 35.9999991 22.9333328 35.9999991 22.7999994 35.8666658 22.7999994 35.8666658 22.6666661 35.7333324 22.6666661 35.7333324 22.5333328 35.5999991 22.5333328 35.5999991 22.3999994 35.4666658 22.3999994 35.4666658 22.2666661 35.1999991 22.2666661 35.1999991 22.1333328 35.0666658 22.1333328 35.0666658 21.9999994 34.9333325 21.9999994 34.9333325 21.8666661 34.7999991 21.8666661 34.7999991 21.7333328 34.6666658 21.7333328 34.6666658 21.5999995 34.5333325 21.5999995 34.5333325 21.4666661 34.2666658 21.4666661 34.2666658 21.3333328 34.1333325 21.3333328 34.1333325 21.1999995 33.9999991 21.1999995 33.9999991 21.0666661 33.8666658 21.0666661 33.8666658 20.9333328 33.7333325 20.9333328 33.7333325 20.7999995 33.5999992 20.7999995 33.5999992 20.6666661 33.3333325 20.6666661 33.3333325 20.5333328 33.1999992 20.5333328 33.1999992 20.3999995 33.0666658 20.3999995 33.0666658 20.2666662 32.9333325 20.2666662 32.9333325 20.1333328 32.7999992 20.1333328 32.7999992 19.9999995 32.5333325 19.9999995 32.5333325 19.8666662 32.3999992 19.8666662 32.3999992 19.7333328 32.2666659 19.7333328 32.2666659 19.5999995 32.1333325 19.5999995 32.1333325 19.4666662 31.9999992 19.4666662 31.9999992 19.3333328 31.8666659 19.3333328 31.8666659 19.1999995 31.5999992 19.1999995 31.5999992 19.0666662 31.4666659 19.0666662 31.4666659 18.9333329 31.3333325 18.9333329 31.3333325 18.7999995 31.1999992 18.7999995 31.1999992 18.6666662 31.0666659 18.6666662 31.0666659 18.5333329 30.9333326 18.5333329 30.9333326 18.3999995 30.6666659 18.3999995 30.6666659 18.2666662 30.5333326 18.2666662 30.5333326 18.1333329 30.3999992 18.1333329 30.3999992 17.9999995 30.2666659 17.9999995 30.2666659 17.8666662 30.1333326 17.8666662 30.1333326 17.7333329 29.9999992 17.7333329 29.9999992 17.5999996 29.7333326 17.5999996 29.7333326 17.4666662 29.5999993 17.4666662 29.5999993 17.3333329 29.4666659 17.3333329 29.4666659 17.1999996 29.3333326 17.1999996 29.3333326 17.0666662 29.1999993 17.0666662 29.1999993 16.9333329 28.9333326 16.9333329 28.9333326 16.7999996 28.7999993 16.7999996 28.7999993 16.6666662 28.6666659 16.6666662 28.6666659 16.5333329 28.5333326 16.5333329 28.5333326 16.3999996 28.3999993 16.3999996 28.3999993 16.2666663 28.266666 16.2666663 28.266666 16.1333329 27.9999993 16.1333329 27.9999993 15.9999996 27.866666 15.9999996 27.866666 15.8666663 27.7333326 15.8666663 27.7333326 15.7333329 27.5999993 15.7333329 27.5999993 15.5999996 27.466666 15.5999996 27.466666 15.4666663 27.3333326 15.4666663 27.3333326 15.3333329 27.066666 15.3333329 27.066666 15.1999996 26.9333327 15.1999996 26.9333327 15.0666663 26.7999993 15.0666663 26.7999993 14.933333 26.666666 14.933333 26.666666 14.7999996 26.5333327 14.7999996 26.5333327 14.6666663 26.3999993 14.6666663 26.3999993 14.533333 26.1333327 14.533333 26.1333327 14.3999996 25.9999993 14.3999996 25.9999993 14.2666663 25.866666 14.2666663 25.866666 14.133333 25.7333327 14.133333 25.7333327 13.9999996 25.5999994 13.9999996 25.5999994 13.8666663 25.3333327 13.8666663 25.3333327 13.733333 25.1999994 13.733333 25.1999994 13.5999997 25.066666 13.5999997 25.066666 13.4666663 24.9333327 13.4666663 24.9333327 13.333333 24.7999994 13.333333 24.7999994 13.1999997 24.666666 13.1999997 24.666666 13.0666663 24.3999994 13.0666663 24.3999994 12.933333 24.2666661 12.933333 24.2666661 12.7999997 24.1333327 12.7999997 24.1333327 12.6666663 23.9999994 12.6666663 23.9999994 12.533333 23.8666661 12.533333 23.8666661 12.3999997 23.7333327 12.3999997 23.7333327 12.2666664 23.4666661 12.2666664 23.4666661 12.133333 23.3333327 12.133333 23.3333327 11.9999997 23.1999994 11.9999997 23.1999994 11.8666664 23.0666661 11.8666664 23.0666661 11.733333 22.9333328 11.733333 22.9333328 11.5999997 22.7999994 11.5999997 22.7999994 11.4666664 22.5333328 11.4666664 22.5333328 11.333333 22.3999994 11.333333 22.3999994 11.1999997 22.2666661 11.1999997 22.2666661 11.0666664 22.1333328 11.0666664 22.1333328 10.9333331 21.9999994 10.9333331 21.9999994 10.7999997 21.7333328 10.7999997 21.7333328 10.6666664 21.5999995 10.6666664 21.5999995 10.5333331 21.4666661 10.5333331 21.4666661 10.3999997 21.3333328 10.3999997 21.3333328 10.2666664 21.1999995 10.2666664 21.1999995 10.1333331 21.0666661 10.1333331 21.0666661 9.99999975 20.7999995 9.99999975 20.7999995 9.86666642 20.6666661 9.86666642 20.6666661 9.73333309 20.5333328 9.73333309 20.5333328 9.59999976 20.3999995 9.59999976 20.3999995 9.46666643 20.2666662 9.46666643 20.2666662 9.3333331 20.1333328 9.3333331 20.1333328 9.19999977 19.8666662 9.19999977 19.8666662 9.06666644 19.7333328 9.06666644 19.7333328 8.93333311 19.5999995 8.93333311 19.5999995 8.79999978 19.4666662 8.79999978 19.4666662 8.66666645 19.3333328 8.66666645 19.3333328 8.53333312 19.1999995 8.53333312 19.1999995 8.39999979 18.9333329 8.39999979 18.9333329 8.26666646 18.7999995 8.26666646 18.7999995 8.13333313 18.6666662 8.13333313 18.6666662 7.9999998 18.5333329 7.9999998 18.5333329 7.86666647 18.3999995 7.86666647 18.3999995 7.73333314 18.1333329 7.73333314 18.1333329 7.59999981 17.9999995 7.59999981 17.9999995 7.46666648 17.8666662 7.46666648 17.8666662 7.33333315 17.7333329 7.33333315 17.7333329 7.19999982 17.5999996 7.19999982 17.5999996 7.06666649 17.4666662 7.06666649 17.4666662 6.93333316 17.1999996 6.93333316 17.1999996 6.79999983 17.0666662 6.79999983 17.0666662 6.6666665 16.9333329 6.6666665 16.9333329 6.53333317 16.7999996 6.53333317 16.7999996 6.39999984 16.6666662 6.39999984 16.6666662 6.26666651 16.5333329 6.26666651 16.5333329 6.13333318 16.2666663 6.13333318 16.2666663 5.99999985 16.1333329 5.99999985 16.1333329 5.86666652 15.9999996 5.86666652 15.9999996 5.73333319 15.8666663 5.73333319 15.8666663 5.59999986 15.7333329 5.59999986 15.7333329 5.46666653 15.5999996 5.46666653 15.5999996 5.3333332 15.3333329 5.3333332 15.3333329 5.19999987 15.1999996 5.19999987 15.1999996 5.06666654 15.0666663 5.06666654 15.0666663 4.93333321 14.933333 4.93333321 14.933333 4.79999988 14.7999996 4.79999988 14.7999996 4.66666655 14.533333 4.66666655 14.533333 4.53333322 14.3999996 4.53333322 14.3999996 4.39999989 14.2666663 4.39999989 14.2666663 4.26666656 14.133333 4.26666656 14.133333 4.13333323 13.9999996 4.13333323 13.9999996 3.9999999 13.8666663 3.9999999 13.8666663 3.86666657 13.5999997 3.86666657 13.5999997 3.73333324 13.4666663 3.73333324 13.4666663 3.59999991 13.333333 3.59999991 13.333333 3.46666658 13.1999997 3.46666658 13.1999997 3.33333325 13.0666663 3.33333325 13.0666663 3.19999992 12.933333 3.19999992 12.933333 3.06666659 12.6666663 3.06666659 12.6666663 2.93333326 12.3999997 2.93333326 12.3999997 2.79999993 12.133333 2.79999993 12.133333 2.6666666 11.8666664 2.6666666 11.8666664 2.53333327 11.5999997 2.53333327 11.5999997 2.39999994 11.333333 2.39999994 11.333333 2.26666661 11.0666664 2.26666661 11.0666664 2.13333328 10.7999997 2.13333328 10.7999997 1.99999995 10.5333331 1.99999995 10.5333331 1.86666662 10.2666664 1.86666662 10.2666664 1.73333329 9.86666642 1.73333329 9.86666642 1.59999996 9.59999976 1.59999996 9.59999976 1.46666663 9.19999977 1.46666663 9.19999977 1.3333333 8.93333311 1.3333333 8.93333311 1.19999997 8.53333312 1.19999997 8.53333312 1.06666664 8.26666646 1.06666664 8.26666646 0.93333331 7.86666647 0.93333331 7.86666647 0.79999998 7.46666648 0.79999998 7.46666648 0.66666665 6.93333316 0.66666665 6.93333316 0.53333332 6.53333317 0.53333332 6.53333317 0.39999999 5.99999985 0.39999999 5.99999985 0.26666666 5.3333332 0.26666666 5.3333332 0.13333333 4.39999989 0.13333333 4.39999989 0"></polyline>
                                            </g>
                                        </g>
                                    </g>
                                </g>
                            </g>
                        </g>
                    </g>
                    <path d="M694.927983,21.2746661 L744.561315,65.1093317 L871.881312,173.866662 C876.846645,178.090662 880.081311,165.413329 880.085311,164.491996 L881.025311,90.9813311 C881.031978,80.2493313 880.463978,73.2453315 872.125312,66.162665 L803.090647,7.69333314 C788.717314,-4.52666655 716.769315,-0.41199999 693.933316,12.1306664 C688.546649,15.5933329 689.423983,16.4106663 694.927983,21.2746661" id="path44" fill="#FFFFFF"></path>
                    <path d="M688.858649,230.655994 L744.561315,181.459995 L871.881312,72.7013315 C876.846645,68.4773316 880.014645,81.427998 880.017311,82.3493313 L881.025311,155.587996 C881.031978,166.319996 880.463978,173.323996 872.125312,180.406662 L803.090647,238.875994 C787.357314,252.253327 702.634649,246.057327 688.858649,230.655994" id="path46" fill="#FFFFFF"></path>
                    <path d="M812.378646,123.25733 L871.881312,173.817329 C872.431978,174.282662 875.341311,177.031996 875.765311,176.727996 C876.306645,176.341329 877.909311,173.821329 879.070645,171.173329 C879.757311,169.605329 880.146645,167.883996 880.339978,166.705329 C880.727978,164.589329 880.903978,162.331996 880.974645,159.873329 L881.003978,123.259997 L880.974645,86.6466645 C880.903978,84.1853312 880.727978,81.927998 880.339978,79.8133313 C880.243978,78.8933314 879.571978,76.3973314 878.677311,74.3973315 C877.781311,72.3973315 876.682645,71.0146649 876.002645,70.1319982 C875.883978,69.9773316 875.811978,69.9133316 875.742645,69.7999983 C875.709311,69.7453316 875.618645,69.5639983 875.575978,69.5999983 L875.211978,69.8906649 L874.674645,70.3173316 L812.378646,123.25733" id="path48" fill="#FFFFFF"></path>
                    <path d="M630.630651,134.234663 L611.942651,102.443997 C610.350651,99.7226642 609.042651,97.4493309 608.039985,95.6413309 C607.019985,93.8346643 606.250652,92.401331 605.694652,91.3466644 C605.158652,90.3093311 604.782652,89.5546644 604.550652,89.1266644 C604.335985,88.6786644 604.227985,88.4626645 604.209318,88.4813311 L604.102652,88.4813311 C604.083985,88.4626645 603.975985,88.6786644 603.761318,89.1266644 C603.547985,89.5546644 603.153318,90.3093311 602.617318,91.3466644 C602.061318,92.401331 601.291985,93.8346643 600.289318,95.6413309 C599.269318,97.4493309 597.961318,99.7226642 596.370652,102.443997 L577.682652,134.234663 L569.410652,134.234663 L569.410652,59.0533319 L578.110652,59.0533319 L578.110652,92.885331 C578.110652,95.2306643 578.091986,97.6279976 578.055986,100.099997 C578.021319,102.569331 577.985319,104.950664 577.930652,107.242664 C577.877319,109.531997 577.822652,111.590664 577.789319,113.415997 C577.735986,115.24133 577.699986,116.69333 577.682652,117.767997 C577.663986,118.84133 577.663986,119.394664 577.682652,119.41333 L577.789319,119.41333 C577.822652,119.394664 578.055986,119.02133 578.486652,118.266664 C578.897319,117.53333 579.435986,116.58533 580.097319,115.42133 C580.761319,114.25733 581.458652,113.023997 582.191985,111.715997 C582.942652,110.409331 583.661319,109.175997 584.339985,108.029331 L601.846652,77.5253314 L606.465318,77.5253314 L623.971984,108.029331 C624.651984,109.175997 625.369318,110.409331 626.119984,111.715997 C626.853318,113.023997 627.550651,114.25733 628.214651,115.42133 C628.875984,116.58533 629.414651,117.53333 629.842651,118.266664 C630.255984,119.02133 630.489318,119.394664 630.523984,119.41333 L630.630651,119.41333 C630.647984,119.394664 630.647984,118.84133 630.630651,117.767997 C630.611984,116.69333 630.575984,115.24133 630.523984,113.415997 C630.489318,111.590664 630.434651,109.531997 630.381318,107.242664 C630.345318,104.950664 630.291984,102.569331 630.255984,100.099997 C630.219984,97.6279976 630.202651,95.2306643 630.202651,92.885331 L630.202651,59.0533319 L638.901317,59.0533319 L638.901317,134.234663 L630.630651,134.234663" id="path50" fill="#FFFFFF" fill-rule="nonzero"></path>
                    <path d="M548.554653,59.0533319 L558.005319,59.0533319 L525.354654,134.234663 L517.299987,134.234663 L484.649321,59.0533319 L494.101321,59.0533319 L502.477321,78.707998 L540.175986,78.707998 L548.554653,59.0533319 Z M505.807987,86.5479978 L517.72932,114.47333 C518.139987,115.45733 518.55332,116.47733 518.947987,117.53333 C519.358654,118.590664 519.734654,119.574664 520.07332,120.486664 C520.414654,121.399997 520.682654,122.15333 520.898654,122.72533 C521.111987,123.29733 521.23732,123.583997 521.27332,123.602664 L521.379987,123.602664 C521.415987,123.583997 521.542654,123.29733 521.75732,122.72533 C521.97332,122.15333 522.25732,121.399997 522.598654,120.486664 C522.939987,119.574664 523.295987,118.590664 523.707987,117.53333 C524.118654,116.47733 524.51332,115.45733 524.926654,114.47333 L536.847987,86.5479978 L505.807987,86.5479978 Z" id="path52" fill="#FFFFFF" fill-rule="nonzero"></path>
                    <polyline id="path54" fill="#FFFFFF" fill-rule="nonzero" points="465.102655 134.234663 465.102655 102.122664 420.422656 102.122664 420.422656 134.234663 411.61599 134.234663 411.61599 59.0533319 420.422656 59.0533319 420.422656 93.8519977 465.102655 93.8519977 465.102655 59.0533319 473.801321 59.0533319 473.801321 134.234663 465.102655 134.234663 465.102655 134.234663"></polyline>
                    <path d="M382.781324,134.234663 L382.781324,94.7106643 C382.781324,92.009331 382.79999,89.4119978 382.834657,86.9239978 C382.870657,84.4346646 382.889324,82.2173313 382.925324,80.2666647 C382.961324,78.3146647 382.997324,76.7559981 383.014657,75.6279981 C383.033324,74.4826648 383.033324,73.8933315 382.997324,73.8746648 L382.889324,73.8746648 C382.853324,73.8933315 382.51199,74.3413315 381.886657,75.2186648 C381.258657,76.0946648 380.39999,77.2773314 379.343991,78.743998 C378.286657,80.2306647 377.089324,81.875998 375.763991,83.7013312 C374.438657,85.5279979 373.043991,87.4066645 371.610657,89.3426644 L338.209325,134.234663 L329.938658,134.234663 L329.938658,59.0533319 L338.745325,59.0533319 L338.745325,98.4693309 C338.745325,101.494664 338.727992,104.305331 338.691992,106.883997 C338.674658,109.478664 338.638658,111.734664 338.602658,113.667997 C338.566658,115.60133 338.530658,117.123997 338.511992,118.19733 C338.494658,119.26933 338.511992,119.82533 338.530658,119.843997 L338.638658,119.843997 C338.691992,119.807997 339.211992,119.110664 340.178658,117.730664 C341.145325,116.351997 342.467991,114.47333 344.151991,112.110664 C345.834658,109.747997 347.749325,107.062664 349.915991,104.055997 L383.317324,59.0533319 L391.58799,59.0533319 L391.58799,134.234663 L382.781324,134.234663" id="path56" fill="#FFFFFF" fill-rule="nonzero"></path>
                    <path d="M316.889325,59.0533319 L298.629326,88.9119978 C303.659992,90.5573311 307.507992,93.2079977 310.213326,96.8959976 C312.914659,100.563997 314.275992,105.111997 314.311992,110.498664 C314.294659,115.34933 313.166659,119.558664 310.927992,123.102664 C308.691992,126.64533 305.487992,129.383997 301.298659,131.298663 C297.109326,133.231997 292.061326,134.21733 286.171993,134.234663 L261.523993,134.234663 L261.523993,59.0533319 L270.33066,59.0533319 L270.33066,87.0866645 L286.171993,87.0866645 C286.815993,87.0866645 287.479993,87.0866645 288.141326,87.1039978 C288.802659,87.1039978 289.449326,87.1399978 290.038659,87.1933312 L307.007992,59.0533319 L316.889325,59.0533319 Z M270.33066,94.9266643 L270.33066,125.966664 L287.030659,125.966664 C290.879993,125.947997 294.155993,125.319997 296.875993,124.086664 C299.595993,122.83333 301.673326,121.06133 303.106659,118.751997 C304.554659,116.459997 305.271992,113.703997 305.290659,110.498664 C305.290659,107.473331 304.609326,104.789331 303.231992,102.443997 C301.851992,100.117331 299.811993,98.2919975 297.109326,96.9666642 C294.406659,95.6239976 291.041326,94.9439976 287.030659,94.9266643 L270.33066,94.9266643 Z" id="path58" fill="#FFFFFF" fill-rule="nonzero"></path>
                    <path d="M241.333327,59.0533319 L250.783994,59.0533319 L218.133328,134.234663 L210.078661,134.234663 L177.427996,59.0533319 L186.879995,59.0533319 L195.255995,78.707998 L232.954661,78.707998 L241.333327,59.0533319 Z M198.586662,86.5479978 L210.509328,114.47333 C210.918661,115.45733 211.331995,116.47733 211.726661,117.53333 C212.137328,118.590664 212.513328,119.574664 212.851995,120.486664 C213.193328,121.399997 213.462661,122.15333 213.677328,122.72533 C213.890661,123.29733 214.015995,123.583997 214.051995,123.602664 L214.159995,123.602664 C214.195995,123.583997 214.321328,123.29733 214.537328,122.72533 C214.751995,122.15333 215.035995,121.399997 215.377328,120.486664 C215.718661,119.574664 216.074661,118.590664 216.487995,117.53333 C216.897328,116.47733 217.293328,115.45733 217.705328,114.47333 L229.626661,86.5479978 L198.586662,86.5479978 Z" id="path60" fill="#FFFFFF" fill-rule="nonzero"></path>
                    <polyline id="path62" fill="#FFFFFF" fill-rule="nonzero" points="181.385329 125.966664 181.385329 134.234663 124.83333 134.234663 124.83333 59.0533319 133.639997 59.0533319 133.639997 92.5626644 173.221329 92.5626644 173.221329 100.510664 133.639997 100.510664 133.639997 125.966664 181.385329 125.966664 181.385329 125.966664"></polyline>
                    <polyline id="path64" fill="#FFFFFF" fill-rule="nonzero" points="598.510652 176.177329 598.510652 243.087994 589.703985 243.087994 589.703985 167.906662 638.787984 167.906662 638.787984 176.177329 598.510652 176.177329 598.510652 176.177329"></polyline>
                    <path d="M571.739986,167.906662 L538.766653,212.370661 L569.483986,243.087994 L558.635986,243.087994 L533.18132,217.634661 C531.71332,216.165328 530.24532,214.679995 528.778653,213.193328 C527.327987,211.709328 525.986654,210.329328 524.767987,209.078661 C523.550654,207.806661 522.547987,206.805328 521.814654,206.035995 C521.063987,205.263995 520.66932,204.870662 520.614654,204.853328 L520.507987,204.853328 C520.471987,204.853328 520.471987,206.374662 520.52532,209.417328 C520.578654,212.459995 520.59732,216.990661 520.614654,223.005328 L520.614654,243.087994 L511.807987,243.087994 L511.807987,167.906662 L520.614654,167.906662 L520.614654,194.221328 L532.859987,206.463995 L561.321319,167.906662 L571.739986,167.906662" id="path66" fill="#FFFFFF" fill-rule="nonzero"></path>
                    <path d="M499.169321,224.830661 C496.894654,228.858661 494.031988,232.347994 490.575988,235.301327 C487.121321,238.254661 483.237321,240.529327 478.905321,242.138661 C474.571988,243.751994 469.937322,244.574661 465.014655,244.591994 C460.681322,244.574661 456.566655,243.949327 452.661322,242.695994 C448.777322,241.459994 445.198656,239.669327 441.958656,237.359994 C438.717322,235.050661 435.907989,232.275994 433.527989,229.055994 C431.146656,225.833328 429.321323,222.233328 428.013323,218.259995 C426.707989,214.303995 426.043989,210.045328 426.026656,205.497328 C426.043989,200.950662 426.707989,196.690662 428.013323,192.734662 C429.321323,188.759995 431.146656,185.163995 433.527989,181.941329 C435.907989,178.717329 438.717322,175.961329 441.958656,173.634662 C445.198656,171.326662 448.777322,169.534662 452.661322,168.301329 C456.566655,167.047996 460.681322,166.419996 465.014655,166.403996 C470.277322,166.419996 475.182655,167.334662 479.727988,169.123996 C484.293321,170.913329 488.321321,173.437329 491.829321,176.713329 C495.338654,179.989329 498.130654,183.855995 500.243987,188.311995 L491.542654,190.675995 C489.878654,187.506662 487.693321,184.769329 485.026655,182.441329 C482.342655,180.114662 479.299988,178.307996 475.897321,177.035996 C472.497322,175.765329 468.862655,175.121329 465.014655,175.102662 C460.770655,175.121329 456.833322,175.854662 453.218655,177.305329 C449.602655,178.753329 446.415989,180.811995 443.711989,183.497329 C440.991989,186.183995 438.878656,189.367995 437.358656,193.093329 C435.835989,196.815995 435.066656,200.950662 435.047989,205.497328 C435.066656,210.062661 435.817322,214.195995 437.322656,217.921328 C438.806656,221.643994 440.883989,224.866661 443.587989,227.550661 C446.273322,230.253328 449.441322,232.329328 453.074655,233.798661 C456.725322,235.247994 460.698655,235.983994 465.014655,236.001327 C468.539988,235.983994 471.905322,235.445327 475.093321,234.353327 C478.279988,233.278661 481.161321,231.739994 483.755988,229.735994 C486.353321,227.730661 488.517321,225.349328 490.254654,222.574661 L499.169321,224.830661" id="path68" fill="#FFFFFF" fill-rule="nonzero"></path>
                    <polyline id="path70" fill="#FFFFFF" fill-rule="nonzero" points="374.994657 176.177329 374.994657 203.778662 408.182656 203.778662 408.182656 211.619995 374.994657 211.619995 374.994657 234.818661 416.345323 234.818661 416.345323 243.087994 366.187991 243.087994 366.187991 167.906662 416.989323 167.906662 416.989323 176.177329 374.994657 176.177329 374.994657 176.177329"></polyline>
                    <polyline id="path72" fill="#FFFFFF" fill-rule="nonzero" points="333.290658 159.958663 333.290658 251.14266 329.938658 251.14266 329.938658 159.958663 333.290658 159.958663 333.290658 159.958663"></polyline>
                    <path d="M293.205326,243.087994 L276.235993,192.285329 C275.555993,190.121329 274.981326,188.225329 274.517326,186.575995 C274.05066,184.947995 273.69466,183.658662 273.44266,182.745329 C273.191993,181.814662 273.047993,181.349329 273.013327,181.330662 L272.907993,181.330662 C272.871993,181.349329 272.745327,181.814662 272.53066,182.745329 C272.297327,183.658662 271.95866,184.947995 271.491993,186.575995 C271.043993,188.225329 270.435993,190.121329 269.685327,192.285329 L256.365327,232.993328 L248.633327,232.993328 L235.314661,192.285329 C234.563994,190.121329 233.973327,188.225329 233.506661,186.575995 C233.042661,184.947995 232.701328,183.658662 232.469328,182.745329 C232.253328,181.814662 232.130661,181.349329 232.094661,181.330662 L231.986661,181.330662 C231.950661,181.349329 231.806661,181.814662 231.555994,182.745329 C231.305328,183.658662 230.947994,184.947995 230.481328,186.575995 C230.017328,188.225329 229.443994,190.121329 228.763994,192.285329 L211.793328,243.087994 L202.663995,243.087994 L228.119994,167.906662 L235.851994,167.906662 L248.31066,207.430661 C249.40266,210.922661 250.243994,213.767995 250.835994,215.934661 C251.407994,218.099995 251.80266,219.674661 252.035994,220.677328 C252.249327,221.662661 252.37466,222.161328 252.391994,222.143994 L252.499994,222.143994 C252.517327,222.161328 252.661327,221.679994 252.89466,220.695994 C253.125327,219.710661 253.555994,218.134661 254.145327,215.970661 C254.737327,213.803995 255.597327,210.957328 256.689327,207.430661 L269.14666,167.906662 L276.881326,167.906662 L302.334659,243.087994 L293.205326,243.087994" id="path74" fill="#FFFFFF" fill-rule="nonzero"></path>
                    <polyline id="path76" fill="#FFFFFF" fill-rule="nonzero" points="149.82933 176.177329 149.82933 203.778662 183.018662 203.778662 183.018662 211.619995 149.82933 211.619995 149.82933 234.818661 191.181329 234.818661 191.181329 243.087994 141.022663 243.087994 141.022663 167.906662 191.825329 167.906662 191.825329 176.177329 149.82933 176.177329 149.82933 176.177329"></polyline>
                    <path d="M130.130663,167.906662 L111.870664,197.765328 C116.90133,199.410662 120.74933,202.061328 123.454664,205.747995 C126.155997,209.417328 127.51733,213.965328 127.55333,219.351995 C127.535997,224.202661 126.40533,228.414661 124.16933,231.955994 C121.935997,235.495994 118.72933,238.237327 114.539997,240.151994 C110.350664,242.085327 105.302664,243.069327 99.4133308,243.087994 L75.9439981,243.087994 L75.9439981,167.906662 L84.7506645,167.906662 L84.7506645,195.938662 L99.4133308,195.938662 C100.057331,195.938662 100.721331,195.938662 101.382664,195.957328 C102.043997,195.957328 102.689331,195.993328 103.279997,196.046662 L120.24933,167.906662 L130.130663,167.906662 Z M84.7506645,203.778662 L84.7506645,234.818661 L100.271997,234.818661 C104.119997,234.801327 107.397331,234.173327 110.117331,232.939994 C112.837331,231.686661 114.91333,229.914661 116.346664,227.605328 C117.795997,225.313328 118.51333,222.555994 118.531997,219.351995 C118.531997,216.326661 117.84933,213.642661 116.47333,211.295995 C115.09333,208.970661 113.053331,207.145328 110.350664,205.819995 C107.647997,204.477328 104.281331,203.797328 100.271997,203.778662 L84.7506645,203.778662 Z" id="path78" fill="#FFFFFF" fill-rule="nonzero"></path>
                    <path d="M0.117199997,243.087994 L0.117199997,167.906662 L26.7479993,167.906662 C30.9733326,167.906662 35.0013325,168.495996 38.8133324,169.642662 C42.6253323,170.787996 46.1173322,172.434662 49.3039988,174.582662 C52.4906654,176.731996 55.2466653,179.343996 57.5906652,182.386662 C59.9359985,185.430662 61.7439985,188.850662 63.0333318,192.662662 C64.3226651,196.474662 64.966665,200.610662 64.9839984,205.069328 C64.966665,209.597328 64.3053317,213.803995 62.9973318,217.687995 C61.7079985,221.571994 59.8653318,225.081328 57.4853319,228.194661 C55.1039986,231.309328 52.3119987,233.978661 49.0706654,236.195994 C45.8306655,238.415994 42.2866656,240.115994 38.4026657,241.298661 C34.5186658,242.479994 30.4173326,243.087994 26.1039993,243.087994 L0.117199997,243.087994 Z M8.92346644,176.177329 L8.92346644,234.818661 L26.1039993,234.818661 C30.2226659,234.818661 34.0706658,234.115994 37.6493324,232.742661 C41.2466656,231.361328 44.4173322,229.375994 47.1559988,226.799994 C49.8946654,224.202661 52.0426654,221.071994 53.5986653,217.418661 C55.1399986,213.767995 55.9453319,209.650661 55.9626653,205.069328 C55.9453319,200.574662 55.157332,196.546662 53.5986653,192.985329 C52.0599987,189.422662 49.9479988,186.397329 47.2453322,183.891995 C44.5439989,181.402662 41.4306656,179.475996 37.9359991,178.163996 C34.4333325,176.847996 30.7013326,176.177329 26.7479993,176.177329 L8.92346644,176.177329 Z" id="path80" fill="#FFFFFF" fill-rule="nonzero"></path>
                    <path d="M266.209327,16.2079996 C265.251993,18.4773329 263.79866,21.9893328 263.76266,22.0239994 L263.691993,22.0239994 C263.655993,21.9893328 262.20266,18.4773329 261.281327,16.2439996 L258.55066,9.71999976 L268.939993,9.71999976 L266.209327,16.2079996 Z M257.45066,7.09599982 L254.685327,0.499999988 L251.599994,0.499999988 L262.16666,25.3213327 L265.32266,25.3213327 L275.89066,0.499999988 L272.805327,0.499999988 L270.039993,7.09599982 L257.45066,7.09599982 Z" id="path82" fill="#FFFFFF" fill-rule="nonzero"></path>
                    <polyline id="path84" fill="#FFFFFF" fill-rule="nonzero" points="288.411993 22.6253328 288.411993 0.499999988 285.503993 0.499999988 285.503993 22.6253328 276.993326 22.6253328 276.993326 25.3213327 296.957326 25.3213327 296.957326 22.6253328 288.411993 22.6253328"></polyline>
                    <polyline id="path86" fill="#FFFFFF" fill-rule="nonzero" points="313.841325 22.6253328 313.841325 0.499999988 310.933326 0.499999988 310.933326 22.6253328 302.422659 22.6253328 302.422659 25.3213327 322.386659 25.3213327 322.386659 22.6253328 313.841325 22.6253328"></polyline>
                    <path d="M339.339992,2.80533326 C344.907991,2.80533326 349.305325,6.63333317 349.305325,12.945333 C349.305325,19.2573329 344.907991,23.0879994 339.339992,23.0879994 C333.738658,23.0879994 329.377325,19.2226662 329.377325,12.945333 C329.377325,6.63333317 333.738658,2.80533326 339.339992,2.80533326 Z M339.339992,25.8173327 C346.574658,25.8173327 352.211991,20.6399995 352.211991,12.945333 C352.211991,5.21599987 346.574658,0.0386666657 339.339992,0.0386666657 C332.071992,0.0386666657 326.469325,5.21599987 326.469325,12.945333 C326.469325,20.6399995 332.071992,25.8173327 339.339992,25.8173327 Z" id="path88" fill="#FFFFFF" fill-rule="nonzero"></path>
                    <path d="M367.003991,12.6266664 C370.621324,12.6266664 373.031991,13.9039997 373.031991,17.4839996 C373.031991,20.9946661 370.691991,22.6613328 366.826657,22.6613328 L362.003991,22.6613328 L362.003991,12.6266664 L367.003991,12.6266664 Z M367.323991,10.2519997 C366.791991,10.2159997 365.585324,10.2159997 365.054658,10.2159997 L362.003991,10.2159997 L362.003991,0.499999988 L359.131991,0.499999988 L359.131991,25.3213327 L366.719991,25.3213327 C372.535991,25.3213327 375.975991,22.4493328 375.975991,17.5906662 C375.975991,13.761333 373.811991,11.5279997 370.302657,10.7826664 L376.435991,0.499999988 L372.961324,0.499999988 L367.323991,10.2519997 Z" id="path90" fill="#FFFFFF" fill-rule="nonzero"></path>
                    <path d="M386.19199,20.6759995 L386.121324,20.6759995 C386.121324,20.6399995 386.19199,17.8039996 386.19199,14.7186663 L386.19199,0.499999988 L383.31999,0.499999988 L383.31999,25.3213327 L386.22799,25.3213327 L400.766657,5.32266653 L400.837323,5.32266653 C400.837323,5.3573332 400.766657,8.26533313 400.766657,11.1386664 L400.766657,25.3213327 L403.674657,25.3213327 L403.674657,0.499999988 L400.730657,0.499999988 L386.19199,20.6759995" id="path92" fill="#FFFFFF" fill-rule="nonzero"></path>
                    <polyline id="path94" fill="#FFFFFF" fill-rule="nonzero" points="411.941323 25.3213327 428.642656 25.3213327 428.642656 22.6253328 414.813323 22.6253328 414.813323 14.825333 425.593323 14.825333 425.593323 12.1306664 414.813323 12.1306664 414.813323 3.19466659 428.713323 3.19466659 428.713323 0.499999988 411.941323 0.499999988 411.941323 25.3213327"></polyline>
                    <path d="M446.411989,0.499999988 L443.503989,0.499999988 L443.503989,11.2786664 L433.929322,25.3213327 L437.263989,25.3213327 L442.830656,17.1666662 C444.107989,15.321333 444.993322,13.9746663 445.029322,13.9386663 L445.099989,13.9386663 C445.134656,13.9746663 445.950656,15.2866663 447.227989,17.0946662 L452.865322,25.3213327 L456.021322,25.3213327 L446.411989,11.2786664 L446.411989,0.499999988" id="path96" fill="#FFFFFF" fill-rule="nonzero"></path>
                    <path d="M462.975988,7.76799981 C463.259988,4.22266656 466.203988,2.6266666 469.997322,2.6266666 C473.614655,2.6266666 475.811988,4.08133323 475.811988,7.05999982 C475.811988,11.1386664 471.698655,11.3506664 468.614655,12.025333 C465.245322,12.8039997 460.919988,14.0106663 460.919988,19.0453329 C460.919988,23.3719994 464.110655,25.8173327 469.323988,25.8173327 C473.933321,25.8173327 477.337321,23.9026661 478.401321,19.6479995 L475.635988,18.9026662 C474.961321,21.6333328 472.939988,23.2293328 469.287988,23.2293328 C465.670655,23.2293328 463.862655,21.6693328 463.862655,19.1519995 C463.862655,15.8533329 466.982655,15.145333 470.529322,14.4346663 C474.217321,13.7266663 478.755988,12.5559997 478.755988,7.09599982 C478.755988,2.41466661 475.493321,0.0386666657 469.961322,0.0386666657 C465.777322,0.0386666657 460.990655,1.42266663 460.210655,7.02399982 L462.975988,7.76799981" id="path98" fill="#FFFFFF" fill-rule="nonzero"></path>
                    <path d="M509.966654,16.2079996 C509.007987,18.4773329 507.554654,21.9893328 507.518654,22.0239994 L507.447987,22.0239994 C507.413321,21.9893328 505.958654,18.4773329 505.037321,16.2439996 L502.305321,9.71999976 L512.695987,9.71999976 L509.966654,16.2079996 Z M501.206654,7.09599982 L498.441321,0.499999988 L495.357321,0.499999988 L505.923987,25.3213327 L509.079987,25.3213327 L519.646654,0.499999988 L516.56132,0.499999988 L513.794654,7.09599982 L501.206654,7.09599982 Z" id="path100" fill="#FFFFFF" fill-rule="nonzero"></path>
                    <polyline id="path102" fill="#FFFFFF" fill-rule="nonzero" points="532.167987 22.6253328 532.167987 0.499999988 529.259987 0.499999988 529.259987 22.6253328 520.750654 22.6253328 520.750654 25.3213327 540.71332 25.3213327 540.71332 22.6253328 532.167987 22.6253328"></polyline>
                    <polyline id="path104" fill="#FFFFFF" fill-rule="nonzero" points="559.299986 25.3213327 562.173319 25.3213327 562.173319 3.19466659 575.258652 3.19466659 575.258652 0.499999988 559.299986 0.499999988 559.299986 25.3213327"></polyline>
                    <path d="M594.942652,16.2079996 C593.983985,18.4773329 592.530652,21.9893328 592.494652,22.0239994 L592.425319,22.0239994 C592.389319,21.9893328 590.934652,18.4773329 590.013319,16.2439996 L587.282652,9.71999976 L597.671985,9.71999976 L594.942652,16.2079996 Z M586.182652,7.09599982 L583.417319,0.499999988 L580.333319,0.499999988 L590.899985,25.3213327 L594.055985,25.3213327 L604.622652,0.499999988 L601.537318,0.499999988 L598.770652,7.09599982 L586.182652,7.09599982 Z" id="path106" fill="#FFFFFF" fill-rule="nonzero"></path>
                    <path d="M624.449318,11.705333 C623.314651,15.321333 622.463984,18.4426662 622.427984,18.4773329 L622.357318,18.4773329 C622.321318,18.4426662 621.505318,15.321333 620.335984,11.4559997 L616.931985,0.499999988 L613.810651,0.499999988 L605.797318,25.3213327 L608.989318,25.3213327 L612.675985,13.513333 C613.951985,9.43599976 615.477318,4.61199988 615.513318,4.54266655 L615.583985,4.54266655 C615.618651,4.61199988 617.037318,9.39999976 617.923985,12.3786664 L620.866651,21.9893328 L624.235984,21.9893328 L627.143984,12.3426664 C628.030651,9.39999976 629.447984,4.61199988 629.483984,4.54266655 L629.555984,4.54266655 C629.590651,4.61199988 631.078651,9.43599976 632.285318,13.2999997 L636.150651,25.3213327 L639.022651,25.3213327 L631.045318,0.499999987 L627.994651,0.499999987 L624.449318,11.705333" id="path108" fill="#FFFFFF" fill-rule="nonzero"></path>
                </g>
            </g>
        </g>
    </g>
</svg>