<?xml version="1.0" encoding="UTF-8"?>
<svg width="489px" height="130px" viewBox="0 0 489 130" version="1.1" xmlns="http://www.w3.org/2000/svg" xmlns:xlink="http://www.w3.org/1999/xlink">
    <!-- Generator: Sketch 48.2 (47327) - http://www.bohemiancoding.com/sketch -->
    <title>finra</title>
    <desc>Created with Sketch.</desc>
    <defs>
        <path d="M89.683,53.745 C89.698,53.784 89.713,53.815 89.725,53.852 L89.725,50.827 L87.798,48.665 L89.683,53.745 Z M86.729,45.798 L89.726,49.15 L89.726,42.762 L84.526,39.877 L86.729,45.798 Z M84.686,43.521 L83.023,39.043 L78.377,36.472 L84.686,43.521 Z M83.932,38.268 L89.725,41.483 L89.725,33.977 L81.455,31.622 L83.932,38.268 Z M76.11,33.931 L82.426,37.43 L80.126,31.242 L71.506,28.797 L76.11,33.931 Z M71.156,31.188 L73.129,32.278 L69.497,28.226 L65.409,27.059 C67.439,28.42 69.364,29.798 71.156,31.188 Z M80.978,30.324 L89.725,32.811 L89.725,24.912 L78.436,23.497 L80.978,30.324 Z M70.114,27.238 L79.643,29.947 L77.187,23.34 L65.293,21.849 L70.114,27.238 Z M59.379,23.29 C60.331,23.849 61.267,24.412 62.18,24.983 L68.101,26.665 L63.607,21.637 L54.371,20.482 C56.101,21.411 57.775,22.345 59.379,23.29 Z M40.721,13.903 C41.66,14.31 42.582,14.716 43.489,15.132 C46.283,16.391 48.972,17.689 51.546,19.003 L62.468,20.368 L56.68,13.904 L40.721,13.904 L40.721,13.903 Z M58.178,13.903 L64.155,20.582 L76.75,22.16 L73.676,13.903 L58.178,13.903 Z M74.876,13.903 L77.996,22.314 L89.725,23.783 L89.725,13.904 L74.876,13.904 L74.876,13.903 Z M0.844,0 C8.667,2.21 16.063,4.543 22.883,6.933 C28.235,8.816 33.337,10.778 38.108,12.783 L55.676,12.783 L44.243,0 L0.844,0 Z M45.734,0 L57.182,12.783 L73.259,12.783 L68.515,0 L45.734,0 Z M69.702,0 L74.456,12.783 L89.725,12.783 L89.725,0 L69.702,0 Z" id="path-1"></path>
        <path d="M0.855,69.953 L0.855,81.753 C1.238,81.353 4.775,77.679 10.145,72.106 L6.328,61.837 L0.855,69.953 Z M0.855,57.986 L0.855,67.953 L5.846,60.544 L2.83,52.439 L0.855,57.986 Z M7.093,60.691 L11.007,71.212 C13.821,68.296 17.091,64.892 20.649,61.207 L12.717,52.35 L7.093,60.691 Z M0.855,54.659 L2.233,50.808 L0.855,47.105 L0.855,54.659 Z M3.42,50.805 L6.614,59.401 L11.945,51.485 L5.678,44.476 L3.42,50.805 Z M13.364,51.389 L21.424,60.398 C25.102,56.585 29.056,52.478 33.103,48.266 L20.266,41.149 L13.364,51.389 Z M0.855,43.898 L2.81,49.171 L4.832,43.529 L0.855,39.081 L0.855,43.898 Z M6.102,43.277 L12.592,50.527 L19.283,40.603 L9.082,34.947 L6.102,43.277 Z M0.855,37.409 L5.255,42.327 L8.092,34.394 L0.855,30.385 L0.855,37.409 Z M20.894,40.217 L33.909,47.436 C38.099,43.08 42.388,38.63 46.57,34.291 L28.376,29.121 L20.894,40.217 Z M9.464,33.885 L19.906,39.671 L27.239,28.8 L12.745,24.678 L9.464,33.885 Z M0.855,29.109 L8.471,33.332 L11.676,24.371 L0.856,21.295 L0.856,29.109 L0.855,29.109 Z M29.032,28.146 L47.449,33.379 C52.138,28.514 56.67,23.809 60.764,19.56 L36.832,16.556 L29.032,28.146 Z M13.126,23.625 L27.898,27.822 L35.588,16.401 L16.556,14.017 L13.126,23.625 Z M0.855,20.129 L12.049,23.313 L15.423,13.875 L0.855,12.055 L0.855,20.129 Z M0.855,0.903 L0.855,10.924 L15.801,12.801 L20.057,0.903 L0.855,0.903 Z M21.245,0.903 L16.945,12.943 L36.292,15.364 L46.044,0.903 L21.245,0.903 Z M47.391,0.903 L37.542,15.525 L61.727,18.555 C71.276,8.645 78.212,1.448 78.739,0.903 L47.391,0.903 Z" id="path-3"></path>
    </defs>
    <g id="Page-1" stroke="none" stroke-width="1" fill="none" fill-rule="evenodd">
        <g id="finra">
            <rect id="Rectangle-path" fill="#FFFFFF" fill-rule="nonzero" x="43.669" y="52.73" width="8.958" height="50.895"></rect>
            <path d="M162.029,94.938 C158.648,94.938 156.817,92.776 156.817,90.098 C156.817,87.635 158.365,85.66 162.044,84.647 L181.226,79.381 L181.226,94.939 L162.029,94.939 L162.029,94.938 Z M190.323,65.809 C190.323,59.317 186.206,52.73 176.174,52.73 L157.274,52.73 C154.202,52.73 153.134,53.997 152.853,56.613 C152.738,57.686 152.339,61.416 152.339,61.416 L174.651,61.416 C179.378,61.416 181.226,63.64 181.226,67.215 L181.226,70.175 L162.36,75.304 C152.279,78.074 147.417,82.457 147.417,90.119 C147.417,98.406 153.88,103.626 161.463,103.626 L190.324,103.626 L190.324,65.809 L190.323,65.809 Z" id="Shape" fill="#FFFFFF" fill-rule="nonzero"></path>
            <path d="M124.541,67.215 C124.541,63.637 126.388,61.416 131.114,61.416 L146.225,61.416 C146.225,61.416 145.826,57.687 145.712,56.612 C145.427,53.996 144.36,52.73 141.291,52.73 L129.59,52.73 C119.561,52.73 115.444,59.317 115.444,65.809 L115.444,103.628 L124.542,103.628 L124.542,67.215 L124.541,67.215 Z" id="Shape" fill="#FFFFFF" fill-rule="nonzero"></path>
            <path d="M89.449,61.416 C94.174,61.416 96.021,63.64 96.021,67.215 L96.021,103.626 L105.122,103.626 L105.122,65.809 C105.122,59.317 101.002,52.732 90.971,52.732 L63.247,52.732 L63.247,103.627 L72.209,103.627 L72.209,61.417 L89.449,61.417 L89.449,61.416 Z" id="Shape" fill="#FFFFFF" fill-rule="nonzero"></path>
            <path d="M31.403,76.863 C31.124,74.248 30.053,72.979 26.984,72.979 L9.1,72.979 L9.1,67.215 C9.1,63.64 10.944,61.415 15.67,61.415 L37.189,61.415 C37.189,61.415 36.79,57.686 36.675,56.614 C36.392,53.997 35.323,52.731 32.255,52.731 L14.151,52.731 C4.117,52.731 0,59.317 0,65.809 L0,103.626 L9.1,103.626 L9.1,81.667 L31.917,81.667 C31.917,81.667 31.52,77.935 31.403,76.863" id="Shape" fill="#FFFFFF" fill-rule="nonzero"></path>
            <g id="Clipped" transform="translate(123.000000, 0.000000)">
                <mask id="mask-2" fill="white">
                    <use xlink:href="#path-1"></use>
                </mask>
                <g id="SVGID_1_"></g>
                <rect id="Rectangle-path" fill="#FFFFFF" fill-rule="nonzero" mask="url(#mask-2)" x="0.844" y="0" width="88.881" height="53.853"></rect>
            </g>
            <g id="Clipped" transform="translate(213.000000, 13.000000)">
                <mask id="mask-4" fill="white">
                    <use xlink:href="#path-3"></use>
                </mask>
                <g id="SVGID_4_"></g>
                <rect id="Rectangle-path" fill="#FFFFFF" fill-rule="nonzero" mask="url(#mask-4)" x="0.855" y="0.903" width="77.883" height="80.85"></rect>
            </g>
            <polygon id="Shape" fill="#FFFFFF" fill-rule="nonzero" points="215.379 116.034 215.379 119.611 219.284 119.611 219.284 120.82 215.379 120.82 215.379 125.82 213.875 125.82 213.875 114.793 219.498 114.793 219.498 116.034"></polygon>
            <path d="M221.995,116.086 C221.455,116.086 221.013,115.676 221.013,115.135 C221.013,114.597 221.456,114.171 221.995,114.171 C222.532,114.171 222.975,114.597 222.975,115.135 C222.975,115.658 222.532,116.086 221.995,116.086 Z M221.26,117.702 L222.729,117.702 L222.729,125.822 L221.26,125.822 L221.26,117.702 Z" id="Shape" fill="#FFFFFF" fill-rule="nonzero"></path>
            <path d="M230.668,125.822 L230.668,120.592 C230.668,119.432 230.358,118.764 229.278,118.764 C227.94,118.764 226.975,120.136 226.975,121.932 L226.975,125.822 L225.506,125.822 L225.506,117.701 L226.926,117.701 C226.926,118.193 226.893,118.929 226.794,119.414 L226.829,119.414 C227.3,118.304 228.299,117.551 229.686,117.551 C231.548,117.551 232.138,118.712 232.138,120.149 L232.138,125.822 L230.668,125.822 Z" id="Shape" fill="#FFFFFF" fill-rule="nonzero"></path>
            <path d="M239.065,125.822 C239.065,125.25 239.065,124.66 239.143,124.205 L239.113,124.205 C238.719,125.197 237.691,125.968 236.351,125.968 C235.013,125.968 234.097,125.081 234.097,123.779 C234.097,122.029 235.878,120.985 238.984,120.985 L238.984,120.446 C238.984,119.319 238.541,118.696 237.201,118.696 C236.433,118.696 235.503,118.942 234.848,119.301 L234.539,118.112 C235.321,117.784 236.4,117.535 237.43,117.535 C239.782,117.535 240.451,118.632 240.451,120.217 L240.451,123.482 C240.451,124.253 240.466,125.117 240.484,125.822 L239.065,125.822 Z M238.983,122.011 C236.3,122.011 235.534,122.747 235.534,123.564 C235.534,124.287 236.023,124.806 236.776,124.806 C238.1,124.806 238.983,123.5 238.983,122.228 L238.983,122.011 Z" id="Shape" fill="#FFFFFF" fill-rule="nonzero"></path>
            <path d="M248.404,125.822 L248.404,120.592 C248.404,119.432 248.095,118.764 247.017,118.764 C245.678,118.764 244.715,120.136 244.715,121.932 L244.715,125.822 L243.244,125.822 L243.244,117.701 L244.666,117.701 C244.666,118.193 244.633,118.929 244.534,119.414 L244.568,119.414 C245.044,118.304 246.039,117.551 247.425,117.551 C249.287,117.551 249.875,118.712 249.875,120.149 L249.875,125.822 L248.404,125.822 Z" id="Shape" fill="#FFFFFF" fill-rule="nonzero"></path>
            <path d="M255.642,125.95 C253.695,125.95 252.077,125.017 252.077,122.029 C252.077,119.413 253.422,117.568 256.035,117.568 C256.771,117.568 257.473,117.702 258.027,117.914 L257.752,119.168 C257.243,118.956 256.571,118.794 255.902,118.794 C254.431,118.794 253.63,120.053 253.63,121.835 C253.63,123.418 254.139,124.676 255.935,124.676 C256.621,124.676 257.274,124.542 257.834,124.285 L258.061,125.506 C257.373,125.787 256.476,125.95 255.642,125.95" id="Shape" fill="#FFFFFF" fill-rule="nonzero"></path>
            <path d="M260.747,116.086 C260.21,116.086 259.768,115.676 259.768,115.135 C259.768,114.597 260.211,114.171 260.747,114.171 C261.289,114.171 261.727,114.597 261.727,115.135 C261.728,115.658 261.29,116.086 260.747,116.086 Z M260.011,117.702 L261.482,117.702 L261.482,125.822 L260.011,125.822 L260.011,117.702 Z" id="Shape" fill="#FFFFFF" fill-rule="nonzero"></path>
            <path d="M268.368,125.822 C268.368,125.25 268.368,124.66 268.45,124.205 L268.419,124.205 C268.027,125.197 267.001,125.968 265.657,125.968 C264.321,125.968 263.405,125.081 263.405,123.779 C263.405,122.029 265.184,120.985 268.287,120.985 L268.287,120.446 C268.287,119.319 267.846,118.696 266.506,118.696 C265.738,118.696 264.809,118.942 264.154,119.301 L263.844,118.112 C264.632,117.784 265.706,117.535 266.739,117.535 C269.09,117.535 269.758,118.632 269.758,120.217 L269.758,123.482 C269.758,124.253 269.774,125.117 269.791,125.822 L268.368,125.822 Z M268.287,122.011 C265.606,122.011 264.841,122.747 264.841,123.564 C264.841,124.287 265.331,124.806 266.086,124.806 C267.404,124.806 268.288,123.5 268.288,122.228 L268.288,122.011 L268.287,122.011 Z" id="Shape" fill="#FFFFFF" fill-rule="nonzero"></path>
            <rect id="Rectangle-path" fill="#FFFFFF" fill-rule="nonzero" x="272.659" y="113.896" width="1.467" height="11.924"></rect>
            <rect id="Rectangle-path" fill="#FFFFFF" fill-rule="nonzero" x="280.469" y="114.795" width="1.502" height="11.027"></rect>
            <path d="M290.016,125.822 L290.016,120.592 C290.016,119.432 289.706,118.764 288.626,118.764 C287.29,118.764 286.327,120.136 286.327,121.932 L286.327,125.822 L284.855,125.822 L284.855,117.701 L286.275,117.701 C286.275,118.193 286.245,118.929 286.146,119.414 L286.177,119.414 C286.652,118.304 287.651,117.551 289.036,117.551 C290.897,117.551 291.486,118.712 291.486,120.149 L291.486,125.822 L290.016,125.822 Z" id="Shape" fill="#FFFFFF" fill-rule="nonzero"></path>
            <path d="M299.311,125.822 C299.311,125.365 299.344,124.643 299.443,124.171 L299.407,124.153 C298.951,125.25 297.953,125.967 296.681,125.967 C294.685,125.967 293.692,124.515 293.692,122.146 C293.692,119.303 295.326,117.588 297.889,117.588 C298.327,117.588 298.77,117.616 299.261,117.668 L299.261,113.897 L300.732,113.897 L300.732,125.823 L299.311,125.823 L299.311,125.822 Z M299.262,118.928 C298.771,118.793 298.283,118.747 297.826,118.747 C296.274,118.747 295.245,119.676 295.245,122.01 C295.245,123.76 295.818,124.758 297.037,124.758 C298.508,124.758 299.261,123.043 299.261,121.619 L299.261,118.928 L299.262,118.928 Z" id="Shape" fill="#FFFFFF" fill-rule="nonzero"></path>
            <path d="M308.431,125.822 C308.431,125.332 308.479,124.596 308.561,124.106 L308.526,124.106 C308.053,125.215 307.06,125.966 305.671,125.966 C303.807,125.966 303.233,124.806 303.233,123.371 L303.233,117.7 L304.69,117.7 L304.69,122.926 C304.69,124.088 305.017,124.758 306.08,124.758 C307.417,124.758 308.397,123.382 308.397,121.59 L308.397,117.701 L309.852,117.701 L309.852,125.822 L308.431,125.822 Z" id="Shape" fill="#FFFFFF" fill-rule="nonzero"></path>
            <path d="M313.823,125.967 C313.204,125.967 312.532,125.899 312.026,125.757 L312.159,124.448 C312.681,124.66 313.35,124.771 313.957,124.771 C315.001,124.771 315.722,124.299 315.722,123.532 C315.722,121.7 311.946,122.844 311.946,119.99 C311.946,118.601 313.025,117.553 315.18,117.553 C315.674,117.553 316.259,117.616 316.748,117.72 L316.639,118.929 C316.16,118.764 315.593,118.682 315.051,118.682 C313.973,118.682 313.468,119.138 313.468,119.846 C313.468,121.638 317.257,120.609 317.257,123.371 C317.255,124.854 315.948,125.967 313.823,125.967" id="Shape" fill="#FFFFFF" fill-rule="nonzero"></path>
            <path d="M321.96,125.95 C320.291,125.95 319.783,125.261 319.783,123.517 L319.783,118.839 L318.118,118.839 L318.118,117.701 L319.783,117.701 L319.783,115.071 L321.253,114.661 L321.253,117.702 L323.525,117.702 L323.525,118.84 L321.253,118.84 L321.253,122.991 C321.253,124.334 321.501,124.691 322.417,124.691 C322.791,124.691 323.152,124.642 323.442,124.561 L323.589,125.77 C323.117,125.886 322.481,125.95 321.96,125.95" id="Shape" fill="#FFFFFF" fill-rule="nonzero"></path>
            <path d="M329.356,119.005 C327.641,118.694 326.825,119.957 326.825,122.553 L326.825,125.822 L325.358,125.822 L325.358,117.702 L326.777,117.702 C326.777,118.211 326.727,118.956 326.596,119.628 L326.632,119.628 C326.97,118.501 327.804,117.391 329.421,117.551 L329.356,119.005 Z" id="Shape" fill="#FFFFFF" fill-rule="nonzero"></path>
            <path d="M334.496,126.505 C333.517,129.118 332.487,129.984 330.673,129.984 C330.38,129.984 329.989,129.938 329.726,129.885 L329.889,128.577 C330.151,128.666 330.56,128.711 330.871,128.711 C331.703,128.711 332.423,128.301 333.011,126.703 L333.335,125.822 L330.263,117.702 L331.932,117.702 L333.467,121.916 C333.728,122.65 333.905,123.288 334.085,123.924 L334.122,123.924 C334.267,123.351 334.612,122.325 334.919,121.424 L336.228,117.701 L337.829,117.701 L334.496,126.505 Z" id="Shape" fill="#FFFFFF" fill-rule="nonzero"></path>
            <path d="M348.218,125.822 L344.606,120.871 L344.413,120.871 L344.413,125.822 L342.906,125.822 L342.906,114.796 C343.66,114.744 344.459,114.725 345.668,114.725 C347.84,114.725 349.407,115.496 349.407,117.603 C349.407,119.483 347.922,120.576 346.176,120.708 C346.484,121.099 346.84,121.505 347.121,121.881 L350.128,125.821 L348.218,125.821 L348.218,125.822 Z M345.406,115.951 C345.031,115.951 344.705,115.969 344.413,115.988 L344.413,119.741 C344.576,119.759 344.903,119.774 345.341,119.774 C346.925,119.774 347.841,118.975 347.841,117.801 C347.841,116.475 347.011,115.951 345.406,115.951 Z" id="Shape" fill="#FFFFFF" fill-rule="nonzero"></path>
            <path d="M357.66,121.718 L352.346,121.718 C352.283,123.842 353.181,124.771 354.914,124.771 C355.697,124.771 356.515,124.608 357.232,124.285 L357.443,125.461 C356.627,125.787 355.645,125.967 354.635,125.967 C352.166,125.967 350.829,124.658 350.829,121.801 C350.829,119.366 352.156,117.551 354.454,117.551 C356.744,117.551 357.706,119.104 357.706,120.967 C357.706,121.163 357.688,121.392 357.66,121.718 M354.39,118.631 C353.328,118.631 352.563,119.429 352.399,120.673 L356.204,120.673 C356.235,119.429 355.535,118.631 354.39,118.631" id="Shape" fill="#FFFFFF" fill-rule="nonzero"></path>
            <path d="M362.799,130 C360.707,130 359.384,129.137 359.384,127.567 C359.384,126.621 360.008,125.821 360.738,125.411 C360.247,125.2 359.939,124.743 359.939,124.203 C359.939,123.628 360.3,123.092 360.837,122.831 C360.101,122.387 359.646,121.652 359.646,120.591 C359.646,118.958 360.869,117.55 363.089,117.55 C363.532,117.55 363.825,117.601 364.234,117.7 L366.996,117.7 L366.996,118.858 L365.658,118.858 C366.062,119.185 366.311,119.726 366.311,120.362 C366.311,122.028 365.181,123.3 362.881,123.3 C362.553,123.3 362.308,123.272 362.011,123.19 C361.671,123.352 361.49,123.615 361.49,123.877 C361.49,124.334 361.897,124.463 362.88,124.514 L364.366,124.562 C366.111,124.625 367.093,125.442 367.093,126.913 C367.094,128.628 365.343,130 362.799,130 M363.941,125.786 L362.372,125.722 C362.225,125.722 362.026,125.722 361.897,125.705 C361.26,126.143 360.855,126.685 360.855,127.305 C360.855,128.273 361.77,128.841 363.042,128.841 C364.694,128.841 365.605,128.092 365.605,127.095 C365.606,126.313 365.086,125.822 363.941,125.786 M363.025,118.648 C361.798,118.648 361.099,119.429 361.099,120.458 C361.099,121.59 361.77,122.244 362.979,122.244 C364.134,122.244 364.853,121.591 364.853,120.458 C364.853,119.348 364.204,118.648 363.025,118.648" id="Shape" fill="#FFFFFF" fill-rule="nonzero"></path>
            <path d="M373.875,125.822 C373.875,125.332 373.926,124.596 374.002,124.106 L373.974,124.106 C373.5,125.215 372.504,125.966 371.113,125.966 C369.252,125.966 368.678,124.806 368.678,123.371 L368.678,117.7 L370.135,117.7 L370.135,122.926 C370.135,124.088 370.46,124.758 371.521,124.758 C372.864,124.758 373.839,123.382 373.839,121.59 L373.839,117.701 L375.297,117.701 L375.297,125.822 L373.875,125.822 Z" id="Shape" fill="#FFFFFF" fill-rule="nonzero"></path>
            <rect id="Rectangle-path" fill="#FFFFFF" fill-rule="nonzero" x="378.073" y="113.896" width="1.471" height="11.924"></rect>
            <path d="M386.542,125.822 C386.542,125.25 386.542,124.66 386.622,124.205 L386.588,124.205 C386.195,125.197 385.17,125.968 383.826,125.968 C382.489,125.968 381.573,125.081 381.573,123.779 C381.573,122.029 383.353,120.985 386.46,120.985 L386.46,120.446 C386.46,119.319 386.016,118.696 384.678,118.696 C383.908,118.696 382.982,118.942 382.327,119.301 L382.012,118.112 C382.799,117.784 383.88,117.535 384.908,117.535 C387.258,117.535 387.926,118.632 387.926,120.217 L387.926,123.482 C387.926,124.253 387.941,125.117 387.96,125.822 L386.542,125.822 Z M386.459,122.011 C383.778,122.011 383.009,122.747 383.009,123.564 C383.009,124.287 383.499,124.806 384.252,124.806 C385.576,124.806 386.459,123.5 386.459,122.228 L386.459,122.011 Z" id="Shape" fill="#FFFFFF" fill-rule="nonzero"></path>
            <path d="M393.038,125.95 C391.374,125.95 390.867,125.261 390.867,123.517 L390.867,118.839 L389.204,118.839 L389.204,117.701 L390.867,117.701 L390.867,115.071 L392.339,114.661 L392.339,117.702 L394.609,117.702 L394.609,118.84 L392.339,118.84 L392.339,122.991 C392.339,124.334 392.582,124.691 393.499,124.691 C393.872,124.691 394.234,124.642 394.527,124.561 L394.672,125.77 C394.199,125.886 393.564,125.95 393.038,125.95" id="Shape" fill="#FFFFFF" fill-rule="nonzero"></path>
            <path d="M399.219,125.969 C397.012,125.969 395.575,124.692 395.575,121.836 C395.575,119.448 397.075,117.551 399.527,117.551 C401.605,117.551 403.186,118.696 403.186,121.62 C403.187,124.07 401.616,125.969 399.219,125.969 M399.399,118.776 C398.218,118.776 397.111,119.674 397.111,121.687 C397.111,123.645 397.911,124.725 399.399,124.725 C400.605,124.725 401.651,123.778 401.651,121.702 C401.651,119.855 400.9,118.776 399.399,118.776" id="Shape" fill="#FFFFFF" fill-rule="nonzero"></path>
            <path d="M409.228,119.005 C407.514,118.694 406.697,119.957 406.697,122.553 L406.697,125.822 L405.229,125.822 L405.229,117.702 L406.65,117.702 C406.65,118.211 406.601,118.956 406.467,119.628 L406.502,119.628 C406.841,118.501 407.675,117.391 409.295,117.551 L409.228,119.005 Z" id="Shape" fill="#FFFFFF" fill-rule="nonzero"></path>
            <path d="M414.48,126.505 C413.501,129.118 412.467,129.984 410.658,129.984 C410.365,129.984 409.969,129.938 409.711,129.885 L409.873,128.577 C410.138,128.666 410.541,128.711 410.855,128.711 C411.686,128.711 412.407,128.301 412.991,126.703 L413.32,125.822 L410.248,117.702 L411.917,117.702 L413.452,121.916 C413.712,122.65 413.892,123.288 414.073,123.924 L414.105,123.924 C414.254,123.351 414.592,122.325 414.907,121.424 L416.208,117.701 L417.814,117.701 L414.48,126.505 Z" id="Shape" fill="#FFFFFF" fill-rule="nonzero"></path>
            <path d="M429.715,125.822 L428.804,123.242 L424.116,123.242 L423.2,125.822 L421.665,125.822 L425.683,114.796 L427.351,114.796 L431.403,125.822 L429.715,125.822 Z M426.942,117.977 C426.744,117.44 426.597,116.95 426.465,116.476 L426.435,116.476 C426.3,116.95 426.156,117.44 425.974,117.964 L424.508,122.047 L428.411,122.047 L426.942,117.977 Z" id="Shape" fill="#FFFFFF" fill-rule="nonzero"></path>
            <path d="M437.982,125.822 C437.982,125.332 438.028,124.596 438.117,124.106 L438.081,124.106 C437.607,125.215 436.609,125.966 435.223,125.966 C433.359,125.966 432.788,124.806 432.788,123.371 L432.788,117.7 L434.24,117.7 L434.24,122.926 C434.24,124.088 434.567,124.758 435.631,124.758 C436.972,124.758 437.947,123.382 437.947,121.59 L437.947,117.701 L439.404,117.701 L439.404,125.822 L437.982,125.822 Z" id="Shape" fill="#FFFFFF" fill-rule="nonzero"></path>
            <path d="M444.789,125.95 C443.121,125.95 442.614,125.261 442.614,123.517 L442.614,118.839 L440.95,118.839 L440.95,117.701 L442.614,117.701 L442.614,115.071 L444.084,114.661 L444.084,117.702 L446.356,117.702 L446.356,118.84 L444.084,118.84 L444.084,122.991 C444.084,124.334 444.33,124.691 445.246,124.691 C445.621,124.691 445.981,124.642 446.275,124.561 L446.424,125.77 C445.947,125.886 445.31,125.95 444.789,125.95" id="Shape" fill="#FFFFFF" fill-rule="nonzero"></path>
            <path d="M453.291,125.822 L453.291,120.592 C453.291,119.432 452.981,118.764 451.902,118.764 C450.566,118.764 449.601,120.136 449.601,121.932 L449.601,125.822 L448.13,125.822 L448.13,113.896 L449.601,113.896 L449.601,117.749 C449.601,118.274 449.569,118.941 449.452,119.366 L449.486,119.383 C449.957,118.274 450.958,117.551 452.311,117.551 C454.173,117.551 454.762,118.712 454.762,120.149 L454.762,125.822 L453.291,125.822 Z" id="Shape" fill="#FFFFFF" fill-rule="nonzero"></path>
            <path d="M460.412,125.969 C458.209,125.969 456.771,124.692 456.771,121.836 C456.771,119.448 458.271,117.551 460.722,117.551 C462.797,117.551 464.383,118.696 464.383,121.62 C464.383,124.07 462.811,125.969 460.412,125.969 M460.595,118.776 C459.413,118.776 458.304,119.674 458.304,121.687 C458.304,123.645 459.105,124.725 460.595,124.725 C461.8,124.725 462.847,123.778 462.847,121.702 C462.847,119.855 462.095,118.776 460.595,118.776" id="Shape" fill="#FFFFFF" fill-rule="nonzero"></path>
            <path d="M470.423,119.005 C468.709,118.694 467.892,119.957 467.892,122.553 L467.892,125.822 L466.424,125.822 L466.424,117.702 L467.843,117.702 C467.843,118.211 467.796,118.956 467.661,119.628 L467.697,119.628 C468.036,118.501 468.87,117.391 470.49,117.551 L470.423,119.005 Z" id="Shape" fill="#FFFFFF" fill-rule="nonzero"></path>
            <path d="M472.845,116.086 C472.307,116.086 471.866,115.676 471.866,115.135 C471.866,114.597 472.306,114.171 472.845,114.171 C473.384,114.171 473.824,114.597 473.824,115.135 C473.824,115.658 473.384,116.086 472.845,116.086 Z M472.11,117.702 L473.581,117.702 L473.581,125.822 L472.11,125.822 L472.11,117.702 Z" id="Shape" fill="#FFFFFF" fill-rule="nonzero"></path>
            <path d="M478.857,125.95 C477.194,125.95 476.686,125.261 476.686,123.517 L476.686,118.839 L475.017,118.839 L475.017,117.701 L476.686,117.701 L476.686,115.071 L478.158,114.661 L478.158,117.702 L480.428,117.702 L480.428,118.84 L478.158,118.84 L478.158,122.991 C478.158,124.334 478.396,124.691 479.318,124.691 C479.691,124.691 480.047,124.642 480.346,124.561 L480.493,125.77 C480.019,125.886 479.384,125.95 478.857,125.95" id="Shape" fill="#FFFFFF" fill-rule="nonzero"></path>
            <path d="M485.628,126.505 C484.645,129.118 483.619,129.984 481.802,129.984 C481.512,129.984 481.115,129.938 480.857,129.885 L481.02,128.577 C481.278,128.666 481.689,128.711 481.998,128.711 C482.832,128.711 483.549,128.301 484.139,126.703 L484.465,125.822 L481.396,117.702 L483.062,117.702 L484.596,121.916 C484.857,122.65 485.039,123.288 485.218,123.924 L485.248,123.924 C485.399,123.351 485.738,122.325 486.052,121.424 L487.356,117.701 L488.96,117.701 L485.628,126.505 Z" id="Shape" fill="#FFFFFF" fill-rule="nonzero"></path>
        </g>
    </g>
</svg>