<?xml version="1.0" encoding="UTF-8"?>
<svg width="203px" height="55px" viewBox="0 0 203 55" version="1.1" xmlns="http://www.w3.org/2000/svg" xmlns:xlink="http://www.w3.org/1999/xlink">
    <!-- Generator: Sketch 48.2 (47327) - http://www.bohemiancoding.com/sketch -->
    <title>ischool</title>
    <desc>Created with Sketch.</desc>
    <defs></defs>
    <g id="Page-1" stroke="none" stroke-width="1" fill="none" fill-rule="evenodd">
        <g id="ischool" fill="#FFFFFF" fill-rule="nonzero">
            <path d="M9.6,3.1 C9,1.6 7.7,0.6 5.9,0.6 C3.2,0.6 1.6,2.5 1.6,5.2 C1.6,8.1 3.7,10.2 6.1,10.2 C7.4,10.2 8.9,9.8 10,7.8 L10.3,7.8 C10.1,8.5 9.7,9.5 9.3,10.1 C8.3,10 7.6,10.5 5.7,10.5 C2.5,10.5 0.1,8.4 0.1,5.4 C0.1,2.3 2.5,0.1 5.8,0.1 C7.8,0.1 8.7,0.7 9.2,0.7 C9.4,0.7 9.5,0.7 9.5,0.6 L9.7,0.6 L9.8,2.9 L9.6,2.9 L9.6,3.1 Z" id="Shape"></path>
            <path d="M17.5,10.6 C14.4,10.6 11.8,8.6 11.8,5.6 C11.8,2.4 14.2,0.2 17.6,0.2 C20.6,0.2 23.2,2.3 23.2,5.1 C23.1,8.4 20.6,10.6 17.5,10.6 Z M17.1,0.6 C14.3,0.6 13.2,3.2 13.2,5.1 C13.2,8.1 15.2,10.2 17.8,10.2 C20.4,10.2 21.6,7.9 21.6,5.7 C21.6,2.7 19.8,0.6 17.1,0.6 Z" id="Shape"></path>
            <path d="M31.4,10.4 L24.3,10.4 L24.3,10.1 L24.8,10.1 C25.5,10.1 25.8,9.9 25.8,9.1 L25.8,2 C25.8,1.2 25.5,0.8 24.5,0.8 L24.3,0.8 L24.3,0.5 L29,0.5 L29,0.8 L28.4,0.8 C27.4,0.8 27.1,0.9 27.1,1.9 L27.1,9.2 C27.1,9.6 27.3,9.8 27.7,9.8 L30,9.8 C30.9,9.8 31.2,9.4 32.2,8.1 L32.5,8.1 L31.4,10.4 Z" id="Shape"></path>
            <path d="M40.2,10.4 L33.1,10.4 L33.1,10.1 L33.6,10.1 C34.3,10.1 34.6,9.9 34.6,9.1 L34.6,2 C34.6,1.2 34.3,0.8 33.3,0.8 L33.1,0.8 L33.1,0.5 L37.8,0.5 L37.8,0.8 L37.2,0.8 C36.2,0.8 35.9,0.9 35.9,1.9 L35.9,9.2 C35.9,9.6 36.1,9.8 36.5,9.8 L38.8,9.8 C39.7,9.8 40,9.4 41,8.1 L41.3,8.1 L40.2,10.4 Z" id="Shape"></path>
            <path d="M48.9,6.8 L48.6,6.8 C48.5,5.7 48.2,5.5 47.5,5.5 L44.8,5.5 L44.8,8.9 C44.8,9.6 45.1,9.8 45.7,9.8 L48.2,9.8 C49.3,9.8 49.6,9.4 50,8 L50.3,8 L50,10.4 L41.6,10.4 L41.6,10.1 L42,10.1 C43.3,10.1 43.5,9.8 43.5,8.8 L43.5,2.1 C43.5,1.2 43.3,0.8 42.2,0.8 L41.9,0.8 L41.9,0.5 L49.5,0.5 L49.6,2.7 L49.3,2.7 C49.1,1.3 48.7,1.1 48.1,1.1 L44.7,1.1 L44.7,5 L47.5,5 C48.1,5 48.3,4.7 48.4,3.8 L48.7,3.8 L48.7,6.8 L48.9,6.8 Z" id="Shape"></path>
            <path d="M61.2,9.6 C59.6,10.4 57.6,10.6 56.9,10.6 C53.4,10.6 51.8,7.9 51.8,5.6 C51.8,3.2 53.5,0.2 57.4,0.2 C59.1,0.2 60.2,0.7 60.6,0.7 C60.7,0.7 60.9,0.7 61,0.6 L61.2,0.6 L61.2,3.2 L60.9,3.2 C60.5,1.2 59.1,0.6 57.6,0.6 C54.8,0.6 53.4,2.9 53.4,5.5 C53.4,8.8 55.7,10.2 57.5,10.2 C58.2,10.2 59,10 59.9,9.6 L59.9,7.6 C59.9,6.7 59.6,6.4 58.6,6.4 L58,6.4 L58,6.1 L62.3,6.1 L62.3,6.4 C61.5,6.4 61.2,6.7 61.2,7.4 L61.2,9.6 Z" id="Shape"></path>
            <path d="M70.1,6.8 L69.8,6.8 C69.7,5.7 69.4,5.5 68.7,5.5 L66,5.5 L66,8.9 C66,9.6 66.3,9.8 66.9,9.8 L69.4,9.8 C70.5,9.8 70.8,9.4 71.2,8 L71.5,8 L71.2,10.4 L62.8,10.4 L62.8,10.1 L63.2,10.1 C64.5,10.1 64.7,9.8 64.7,8.8 L64.7,2.1 C64.7,1.2 64.5,0.8 63.4,0.8 L63,0.8 L63,0.5 L70.6,0.5 L70.7,2.7 L70.4,2.7 C70.2,1.3 69.8,1.1 69.2,1.1 L66,1.1 L66,5 L68.8,5 C69.4,5 69.6,4.7 69.7,3.8 L70,3.8 L70,6.8 L70.1,6.8 Z" id="Shape"></path>
            <path d="M83.2,10.6 C80.1,10.6 77.5,8.6 77.5,5.6 C77.5,2.4 79.9,0.2 83.3,0.2 C86.3,0.2 88.9,2.3 88.9,5.1 C88.8,8.4 86.3,10.6 83.2,10.6 Z M82.8,0.6 C80,0.6 78.9,3.2 78.9,5.1 C78.9,8.1 80.9,10.2 83.5,10.2 C86.1,10.2 87.3,7.9 87.3,5.7 C87.3,2.7 85.5,0.6 82.8,0.6 Z" id="Shape"></path>
            <path d="M97.2,6.6 L96.9,6.6 C96.9,5.7 96.5,5.4 95.8,5.4 L92.9,5.4 L92.9,8.9 C92.9,9.8 93.1,10.1 94.3,10.1 L94.3,10.4 L90.4,10.4 L90.4,10.1 C91.4,10 91.6,9.8 91.6,8.5 L91.6,2.3 C91.6,1.3 91.5,0.8 90.4,0.8 L90.4,0.5 L97.5,0.5 L97.5,2.4 L97.2,2.4 C97.2,1.5 96.9,1.1 95.9,1.1 L92.9,1.1 L92.9,4.8 L96,4.8 C96.6,4.8 96.9,4.5 96.9,3.8 L97.2,3.8 L97.2,6.6 Z" id="Shape"></path>
            <path d="M7.1,35.3 L0.5,35.3 L0.5,34.8 C2.2,34.7 2.5,34.3 2.5,32.5 L2.5,20.9 C2.5,19.4 2,19 0.5,18.9 L0.5,18.4 L7.1,18.4 L7.1,18.9 C5.4,18.9 4.8,19.3 4.8,21.1 L4.8,32.6 C4.8,34.2 5.2,34.8 7.1,34.8 L7.1,35.3 Z" id="Shape"></path>
            <path d="M26.9,35.5 L12.8,20.8 L12.8,32.5 C12.8,34.5 13.2,34.9 15.5,34.9 L15.5,35.4 L9.2,35.4 L9.2,34.9 L9.3,34.9 C11,34.9 11.5,34.3 11.5,33.1 L11.5,19.6 C10.9,19.2 10.2,18.9 9.2,18.9 L9.2,18.4 L13.5,18.4 L26.3,31.8 L26.3,20.9 C26.3,19.2 25.8,18.9 23.6,18.9 L23.6,18.4 L30,18.4 L30,18.9 C28,18.9 27.5,19.3 27.5,20.3 L27.5,35.5 L26.9,35.5 Z" id="Shape"></path>
            <path d="M43.4,28.8 L43,28.8 C42.9,27.2 42.4,26.7 41.1,26.7 L36.1,26.7 L36.1,32.7 C36.1,34.2 36.4,34.8 38.5,34.8 L38.5,35.3 L31.9,35.3 L31.9,34.8 C33.6,34.7 33.9,34.3 33.9,32.1 L33.9,21.5 C33.9,19.8 33.8,19 31.9,18.9 L31.9,18.4 L44.1,18.4 L44.1,21.6 L43.6,21.6 C43.6,20 43,19.4 41.3,19.4 L36,19.4 L36,25.8 L41.4,25.8 C42.4,25.8 42.9,25.2 43,24.1 L43.5,24.1 L43.5,28.8 L43.4,28.8 Z" id="Shape"></path>
            <path d="M56.3,35.8 C51,35.8 46.5,32.4 46.5,27.3 C46.5,21.9 50.7,18 56.5,18 C61.6,18 66.1,21.5 66.1,26.4 C66,31.9 61.6,35.8 56.3,35.8 Z M55.7,18.7 C50.9,18.7 49,23.2 49,26.4 C49,31.5 52.5,35.1 56.8,35.1 C61.2,35.1 63.4,31.2 63.4,27.3 C63.4,22.2 60.2,18.7 55.7,18.7 Z" id="Shape"></path>
            <path d="M72.8,32.8 C72.8,34.4 73.5,34.8 75,34.8 L75.6,34.8 L75.6,35.3 L67.9,35.3 L67.9,34.8 L68.4,34.8 C70,34.8 70.6,34.4 70.6,32.5 L70.6,21.1 C70.6,19.4 70.1,18.9 68.6,18.9 L68,18.9 L68,18.4 C68.7,18.4 70.3,18.3 71.4,18.2 C72.5,18.1 73.1,18.1 74.8,18.1 C79.8,18.1 82.1,20.2 82.1,22.9 C82.1,24.9 80.7,26.7 78.5,27.3 C79.5,28.1 80.3,28.9 81.6,30.1 L83.8,32.3 C85.4,33.9 87.1,34.9 89.2,35.1 L89.2,35.6 C84.4,35.8 83.2,34.8 80.8,32.4 L79,30.6 C77.8,29.4 76.8,28.6 76.2,28.2 C75.5,28.2 75.1,28.3 74.3,28.3 C73.7,28.3 73.3,28.3 72.9,28.2 L72.9,32.8 L72.8,32.8 Z M72.8,27.7 C73.5,27.8 73.9,27.8 74.5,27.8 C77.5,27.8 79.5,26.5 79.5,23.3 C79.5,20.8 78.4,18.8 74.2,18.8 C73.7,18.8 73.3,18.8 72.8,18.9 L72.8,27.7 Z" id="Shape"></path>
            <path d="M100.9,35.3 L94,20.8 L93.9,20.8 L93.2,33.1 C93.1,34.5 94.2,34.8 95.4,34.8 L95.4,35.3 L89.7,35.3 L89.7,34.8 C91.7,34.8 91.9,34.4 92.1,31.9 L92.8,21.3 C92.9,19.5 92.9,19 91.2,18.9 L91.2,18.4 L95.3,18.4 L101.9,32.1 L108.4,18.4 L112.4,18.4 L112.4,18.9 C111.1,19 110.5,19 110.6,20 L111.5,32.3 C111.7,34.8 111.9,34.8 113.9,34.8 L113.9,35.3 L106.9,35.3 L106.9,34.8 C108.2,34.8 109.4,34.4 109.3,33 L108.5,20.8 L108.4,20.8 L101.6,35.3 L100.9,35.3 Z" id="Shape"></path>
            <path d="M120.1,27.8 L118.5,32.1 C118.3,32.6 118,33.4 118,33.8 C118,34.5 118.7,34.8 120.2,34.8 L120.6,34.8 L120.6,35.3 L114.3,35.3 L114.3,34.8 C116.1,34.8 116.4,34.5 117.2,32.1 L122.2,18.6 L122,18 L124.4,18 L130.1,33.1 C130.6,34.5 131.2,34.8 132.6,34.8 L132.6,35.3 L125.1,35.3 L125.1,34.8 L125.8,34.8 C127.4,34.8 127.9,34.6 127.9,33.9 C127.9,33.5 127.7,33.1 127.6,32.8 L125.8,27.8 L120.1,27.8 Z M122.9,20.3 L120.6,26.6 L125.3,26.6 L122.9,20.3 Z" id="Shape"></path>
            <path d="M141,32.8 C141,34.3 141.5,34.8 143.2,34.8 L144.2,34.8 L144.2,35.3 L135.6,35.3 L135.6,34.8 L136.6,34.8 C138.3,34.8 138.8,34.3 138.8,32.8 L138.8,19.4 L134,19.4 C132.9,19.4 132.4,20 132,22.4 L131.5,22.4 L132,18 L132.5,18 C132.5,18.2 132.6,18.3 132.8,18.3 C133,18.4 133.2,18.4 133.3,18.4 L146.4,18.4 C146.8,18.4 147.2,18.3 147.2,18 L147.7,18 L148.1,22.4 L147.6,22.4 C147.2,20 146.7,19.4 145.6,19.4 L141,19.4 L141,32.8 Z" id="Shape"></path>
            <path d="M157,35.3 L150.4,35.3 L150.4,34.8 C152.1,34.7 152.4,34.3 152.4,32.5 L152.4,20.9 C152.4,19.4 151.9,19 150.4,18.9 L150.4,18.4 L157,18.4 L157,18.9 C155.3,18.9 154.7,19.3 154.7,21.1 L154.7,32.6 C154.7,34.2 155.1,34.8 157,34.8 L157,35.3 Z" id="Shape"></path>
            <path d="M169.5,35.8 C164.2,35.8 159.7,32.4 159.7,27.3 C159.7,21.9 163.9,18 169.7,18 C174.8,18 179.3,21.5 179.3,26.4 C179.2,31.9 174.7,35.8 169.5,35.8 Z M168.9,18.7 C164.1,18.7 162.2,23.2 162.2,26.4 C162.2,31.5 165.7,35.1 170,35.1 C174.4,35.1 176.6,31.2 176.6,27.3 C176.6,22.2 173.4,18.7 168.9,18.7 Z" id="Shape"></path>
            <path d="M199.1,35.5 L185,20.8 L185,32.5 C185,34.5 185.4,34.9 187.8,34.9 L187.8,35.4 L181.5,35.4 L181.5,34.9 L181.6,34.9 C183.3,34.9 183.8,34.3 183.8,33.1 L183.8,19.6 C183.2,19.2 182.5,18.9 181.5,18.9 L181.5,18.4 L185.8,18.4 L198.6,31.8 L198.6,20.9 C198.6,19.2 198.1,18.9 195.9,18.9 L195.9,18.4 L202.3,18.4 L202.3,18.9 C200.3,18.9 199.8,19.3 199.8,20.3 L199.8,35.5 L199.1,35.5 Z" id="Shape"></path>
            <path d="M0.3,52 C0.6,53.4 1.7,54.2 3,54.2 C4.1,54.2 5.2,53.6 5.2,52.3 C5.2,50 0.1,49.3 0.1,46.5 C0.1,45.2 1.3,44.2 2.9,44.2 C4.2,44.2 4.5,44.6 5.1,44.6 C5.2,44.6 5.3,44.6 5.4,44.4 L5.7,44.4 L6,46.4 L5.6,46.4 C5.2,45.3 4.1,44.5 3,44.5 C2,44.5 1.2,45.1 1.2,46 C1.2,48.3 6.3,48.9 6.3,51.8 C6.3,53.4 4.9,54.5 3.1,54.5 C2.2,54.5 1.1,54.1 0.9,54.1 C0.8,54.1 0.6,54.2 0.6,54.3 L0.3,54.3 L0,52 L0.3,52 Z" id="Shape"></path>
            <path d="M14.1,53 C14.1,53.9 14.4,54.2 15.4,54.2 L16,54.2 L16,54.5 L11,54.5 L11,54.2 L11.6,54.2 C12.6,54.2 12.9,53.9 12.9,53 L12.9,45.1 L10,45.1 C9.4,45.1 9.1,45.5 8.8,46.9 L8.5,46.9 L8.8,44.3 L9.1,44.3 C9.1,44.4 9.2,44.5 9.3,44.5 C9.4,44.5 9.5,44.5 9.6,44.5 L17.2,44.5 C17.4,44.5 17.7,44.5 17.7,44.3 L18,44.3 L18.3,46.9 L18,46.9 C17.8,45.5 17.5,45.1 16.8,45.1 L14,45.1 L14,53 L14.1,53 Z" id="Shape"></path>
            <path d="M32.3,44.5 L32.3,44.8 C31.2,44.8 30.9,45.2 30.9,46.3 L30.9,50.6 C30.9,52.6 29.6,54.7 26.2,54.7 C23.2,54.7 21.6,53 21.6,50.7 L21.6,46 C21.6,45 21.3,44.8 20.2,44.8 L20.2,44.5 L24.3,44.5 L24.3,44.8 L24.2,44.8 C23.3,44.8 22.9,45 22.9,46 L22.9,50.4 C22.9,52.5 24.2,53.8 26.5,53.8 C28.3,53.8 30.1,53.1 30.1,50.3 L30.1,46.6 C30.1,45.1 29.9,44.8 28.5,44.7 L28.5,44.4 L32.3,44.4 L32.3,44.5 Z" id="Shape"></path>
            <path d="M35.2,46.1 C35.2,45.1 34.9,44.8 34,44.8 L33.7,44.8 L33.7,44.5 C34.3,44.5 35.1,44.4 35.9,44.4 C36.8,44.4 37.7,44.4 38.6,44.4 C42.8,44.4 44.7,46.5 44.7,49.2 C44.7,51.6 42.8,54.5 38.8,54.5 L33.7,54.5 L33.7,54.2 L34,54.2 C34.9,54.2 35.3,54 35.3,53 L35.3,46.1 L35.2,46.1 Z M36.5,53.2 C36.5,53.9 36.5,54.1 37.8,54.1 C39.9,54.1 40.8,53.8 41.8,52.8 C42.4,52.2 43.1,51 43.1,49.4 C43.1,48.2 42.8,46.9 41.8,46 C41.1,45.3 39.9,44.7 37.7,44.7 C37,44.7 36.6,44.7 36.4,44.8 L36.4,53.2 L36.5,53.2 Z" id="Shape"></path>
            <path d="M51.1,54.4 L47.2,54.4 L47.2,54.1 C48.2,54.1 48.4,53.8 48.4,52.7 L48.4,46 C48.4,45.1 48.1,44.9 47.2,44.9 L47.2,44.6 L51.1,44.6 L51.1,44.9 C50.1,44.9 49.7,45.1 49.7,46.2 L49.7,52.9 C49.7,53.8 50,54.2 51.1,54.2 L51.1,54.4 Z" id="Shape"></path>
            <path d="M60.2,50.8 L59.9,50.8 C59.8,49.7 59.5,49.5 58.8,49.5 L56.1,49.5 L56.1,53 C56.1,53.7 56.4,53.9 57,53.9 L59.5,53.9 C60.6,53.9 60.9,53.5 61.3,52.1 L61.6,52.1 L61.3,54.5 L52.9,54.5 L52.9,54.2 L53.3,54.2 C54.6,54.2 54.8,53.9 54.8,52.9 L54.8,46.2 C54.8,45.3 54.6,44.9 53.5,44.9 L53.1,44.9 L53.1,44.6 L60.7,44.6 L60.8,46.8 L60.5,46.8 C60.3,45.4 59.9,45.2 59.3,45.2 L55.9,45.2 L55.9,49 L59,49 C59.6,49 59.8,48.7 59.9,47.8 L60.2,47.8 L60.2,50.8 Z" id="Shape"></path>
            <path d="M64.3,52 C64.6,53.4 65.7,54.2 67,54.2 C68.1,54.2 69.2,53.6 69.2,52.3 C69.2,50 64.1,49.3 64.1,46.5 C64.1,45.2 65.3,44.2 66.9,44.2 C68.2,44.2 68.5,44.6 69.1,44.6 C69.2,44.6 69.3,44.6 69.4,44.4 L69.7,44.4 L70,46.4 L69.7,46.4 C69.3,45.3 68.2,44.5 67.1,44.5 C66,44.5 65.3,45.1 65.3,46 C65.3,48.3 70.4,48.9 70.4,51.8 C70.4,53.4 69,54.5 67.2,54.5 C66.3,54.5 65.2,54.1 65,54.1 C64.9,54.1 64.7,54.2 64.7,54.3 L64.4,54.3 L64,52 L64.3,52 Z" id="Shape"></path>
        </g>
    </g>
</svg>