<?xml version="1.0" encoding="UTF-8"?>
<svg width="198px" height="42px" viewBox="0 0 198 42" version="1.1" xmlns="http://www.w3.org/2000/svg" xmlns:xlink="http://www.w3.org/1999/xlink">
    <!-- Generator: Sketch 48.2 (47327) - http://www.bohemiancoding.com/sketch -->
    <title>microsoft</title>
    <desc>Created with Sketch.</desc>
    <defs></defs>
    <g id="Page-1" stroke="none" stroke-width="1" fill="none" fill-rule="evenodd">
        <g id="microsoft" fill-rule="nonzero">
            <path d="M0.7,0 L20.7,0 C20.7,6.7 20.7,13.3 20.7,20 C14,20 7.4,20 0.7,20 L0.7,0 Z" id="Shape" fill="#F25022"></path>
            <path d="M22.7,0 L42.7,0 C42.7,6.7 42.7,13.3 42.7,20 C36,20 29.4,20 22.7,20 C22.7,13.3 22.7,6.7 22.7,0 Z" id="Shape" fill="#80BA01"></path>
            <path d="M88.3,7.9 C89.2,7.8 90.1,8.1 90.7,8.7 C91.4,9.4 91.5,10.6 91,11.5 C90.4,12.5 89.2,12.9 88.1,12.7 C87,12.5 86,11.5 86.1,10.3 C86.1,9.1 87.1,8 88.3,7.9 Z" id="Shape" fill="#FFFFFF"></path>
            <path d="M55.2,8.4 C57.3,8.4 59.4,8.4 61.5,8.4 C63.5,13.4 65.4,18.3 67.4,23.3 C67.9,24.5 68.4,25.8 68.9,27 C71.4,20.8 74,14.6 76.5,8.4 C78.5,8.4 80.5,8.4 82.5,8.4 C82.5,16.8 82.5,25.2 82.5,33.6 C81,33.6 79.6,33.6 78.1,33.6 C78.1,27.4 78.1,21.2 78.1,15 C78.1,14.7 78.1,14.4 78.1,14.2 C78,14.3 77.9,14.5 77.9,14.6 C75.4,20.9 72.9,27.3 70.4,33.6 C69.4,33.6 68.3,33.6 67.3,33.6 C64.7,27.3 62.2,20.9 59.6,14.5 C59.5,14.4 59.5,14.2 59.4,14.1 C59.3,16.8 59.4,19.5 59.4,22.2 C59.4,26 59.4,29.7 59.4,33.5 C58,33.5 56.7,33.5 55.3,33.5 C55.2,25.2 55.2,16.8 55.2,8.4 Z" id="Shape" fill="#FFFFFF"></path>
            <path d="M100.2,15.5 C102.3,14.9 104.5,14.9 106.6,15.5 C107,15.6 107.4,15.8 107.8,16 C107.8,17.4 107.8,18.8 107.8,20.1 C106.4,19 104.6,18.4 102.9,18.6 C101.5,18.7 100.2,19.5 99.3,20.6 C98.2,22 98,23.9 98.2,25.6 C98.3,26.9 98.9,28.3 99.9,29.2 C101,30.2 102.5,30.5 103.9,30.4 C105.3,30.2 106.6,29.6 107.8,28.8 C107.8,30.1 107.8,31.4 107.8,32.7 C106,33.8 103.9,34 101.9,33.9 C99.8,33.8 97.8,33 96.3,31.6 C94.7,30 93.8,27.8 93.7,25.6 C93.6,23.3 94.1,20.8 95.4,18.9 C96.5,17.2 98.3,16.1 100.2,15.5 Z" id="Shape" fill="#FFFFFF"></path>
            <path d="M147.4,15.2 C149.4,14.8 151.5,15.1 153.4,15.8 C153.4,17.1 153.4,18.4 153.4,19.8 C152.1,18.9 150.5,18.4 148.9,18.5 C148.1,18.5 147.2,18.9 146.8,19.6 C146.5,20.4 146.7,21.4 147.4,21.8 C148.6,22.6 150.1,23 151.4,23.7 C152.4,24.3 153.4,25 153.9,26.1 C154.9,28.1 154.4,30.7 152.8,32.2 C151.2,33.7 148.9,34.1 146.8,34 C145.3,33.9 143.8,33.6 142.4,33 C142.4,31.6 142.4,30.2 142.4,28.8 C143.6,29.6 144.9,30.2 146.3,30.5 C147.3,30.7 148.4,30.7 149.3,30.2 C150.2,29.8 150.3,28.5 149.8,27.7 C149.3,27.1 148.6,26.8 147.9,26.5 C146.6,25.9 145.3,25.4 144.2,24.6 C143.4,24 142.8,23.1 142.6,22.1 C142.3,20.7 142.4,19 143.2,17.8 C144.1,16.4 145.7,15.5 147.4,15.2 Z" id="Shape" fill="#FFFFFF"></path>
            <path d="M117.5,15.8 C118.7,15.1 120.2,15 121.5,15.5 C121.5,16.9 121.5,18.4 121.5,19.8 C120.6,19.2 119.6,19 118.6,19.1 C117.4,19.2 116.4,20.2 115.9,21.3 C115.4,22.4 115.3,23.7 115.3,25 C115.3,27.9 115.3,30.8 115.3,33.6 C113.9,33.6 112.5,33.6 111,33.6 C111,27.6 111,21.6 111,15.5 C112.4,15.5 113.8,15.5 115.3,15.5 C115.3,16.5 115.3,17.6 115.3,18.6 C115.7,17.5 116.4,16.4 117.5,15.8 Z" id="Shape" fill="#FFFFFF"></path>
            <path d="M86.5,15.5 C87.9,15.5 89.4,15.5 90.8,15.5 C90.8,21.5 90.8,27.5 90.8,33.5 C89.4,33.5 87.9,33.5 86.5,33.5 C86.5,27.6 86.5,21.6 86.5,15.5 Z" id="Shape" fill="#FFFFFF"></path>
            <path d="M139.4,19.8 C138.6,18.1 137.3,16.7 135.6,16 C133.7,15.1 131.5,15 129.4,15.3 C127.2,15.6 125.1,16.6 123.7,18.3 C122.4,19.8 121.8,21.8 121.7,23.8 C121.5,26.1 121.9,28.6 123.3,30.5 C124.5,32.2 126.3,33.3 128.3,33.8 C130,34.2 131.7,34.2 133.4,33.8 C135.3,33.4 137.2,32.3 138.4,30.7 C139.6,29.2 140.2,27.3 140.3,25.4 C140.4,23.5 140.2,21.5 139.4,19.8 Z M135.3,28 C134.9,28.9 134.1,29.7 133.2,30.1 C132.1,30.5 130.8,30.6 129.7,30.3 C128.5,30 127.5,29.1 127,28.1 C126.3,26.7 126.2,25.1 126.3,23.6 C126.4,22.2 126.9,20.8 128,19.8 C128.8,19.1 129.8,18.7 130.8,18.7 C132.1,18.6 133.5,19 134.4,19.9 C135.4,20.9 135.8,22.3 135.9,23.7 C136,25.1 135.9,26.7 135.3,28 Z" id="Shape" fill="#FFFFFF"></path>
            <path d="M174.1,20.3 C173.4,18.5 172.1,17 170.4,16.1 C168.4,15.1 166.1,15 164,15.2 C162.3,15.4 160.6,16.1 159.2,17.2 C157.6,18.6 156.6,20.6 156.3,22.7 C156,24.8 156.1,27 157,29 C157.8,30.9 159.4,32.5 161.4,33.3 C163.3,34.1 165.5,34.1 167.5,33.8 C169.6,33.5 171.5,32.4 172.8,30.7 C174.2,29 174.8,26.7 174.8,24.5 C174.8,23.1 174.6,21.6 174.1,20.3 Z M170.2,26.4 C170,27.4 169.7,28.3 169.1,29 C168.5,29.8 167.5,30.2 166.6,30.4 C165.6,30.6 164.5,30.5 163.5,30.1 C162.5,29.7 161.6,28.8 161.2,27.7 C160.7,26.5 160.6,25.1 160.7,23.8 C160.8,22.5 161.2,21.2 162,20.2 C162.8,19.3 164,18.8 165.2,18.7 C166.4,18.6 167.7,18.9 168.7,19.7 C169.6,20.4 170,21.5 170.3,22.6 C170.4,23.8 170.4,25.1 170.2,26.4 Z" id="Shape" fill="#FFFFFF"></path>
            <path d="M197.3,19 L197.3,15.5 C195.9,15.5 194.4,15.5 193,15.5 C193,13.7 193,11.9 193,10.1 C191.6,10.5 190.2,11 188.7,11.4 C188.7,12.8 188.7,14.1 188.7,15.5 C186.6,15.5 184.5,15.5 182.4,15.5 C182.4,14.4 182.3,13.3 182.5,12.3 C182.6,11.5 183.1,10.6 183.9,10.3 C184.9,9.9 186.1,10.2 187.1,10.6 C187.1,9.4 187.1,8.1 187.1,6.9 C185,6.3 182.6,6.4 180.8,7.6 C179.6,8.4 178.8,9.6 178.4,10.9 C177.9,12.4 178.2,14 178.1,15.5 C177.1,15.5 176.1,15.5 175.1,15.5 C175.1,16.7 175.1,17.8 175.1,19 C176.1,19 177.1,19 178.1,19 C178.1,23.9 178.1,28.7 178.1,33.6 C179.5,33.6 181,33.6 182.4,33.6 C182.4,28.7 182.4,23.9 182.4,19 C184.5,19 186.6,19 188.7,19 C188.7,22.1 188.7,25.2 188.7,28.3 C188.7,29.7 189,31.3 189.9,32.4 C190.7,33.4 192,33.9 193.3,34 C194.6,34.1 196,33.9 197.3,33.4 L197.3,29.9 C196.4,30.5 195,30.8 194,30.2 C193.4,29.9 193.1,29.1 193.1,28.5 C193,27.4 193.1,26.3 193,25.1 C193,23.1 193,21.1 193,19 C194.5,19 195.9,19 197.3,19 Z" id="Shape" fill="#FFFFFF"></path>
            <path d="M0.7,22 C7.4,22 14,22 20.7,22 C20.7,28.7 20.7,35.3 20.7,42 L0.7,42 L0.7,22 Z" id="Shape" fill="#02A4EF"></path>
            <path d="M22.7,22 C29.4,22 36,22 42.7,22 C42.7,28.7 42.7,35.3 42.7,42 L22.7,42 C22.7,35.3 22.7,28.7 22.7,22 Z" id="Shape" fill="#FFB902"></path>
        </g>
    </g>
</svg>