<?xml version="1.0" encoding="UTF-8" standalone="no"?>
<svg
   xmlns:dc="http://purl.org/dc/elements/1.1/"
   xmlns:cc="http://creativecommons.org/ns#"
   xmlns:rdf="http://www.w3.org/1999/02/22-rdf-syntax-ns#"
   xmlns:svg="http://www.w3.org/2000/svg"
   xmlns="http://www.w3.org/2000/svg"
   xmlns:sodipodi="http://sodipodi.sourceforge.net/DTD/sodipodi-0.dtd"
   xmlns:inkscape="http://www.inkscape.org/namespaces/inkscape"
   viewBox="0 0 494.47144 157.86795"
   height="157.86795"
   width="494.47144"
   xml:space="preserve"
   version="1.1"
   id="svg2"
   sodipodi:docname="Pepsi_logo_new.svg"
   inkscape:version="0.92.2 (5c3e80d, 2017-08-06)"><sodipodi:namedview
     pagecolor="#ffffff"
     bordercolor="#666666"
     borderopacity="1"
     objecttolerance="10"
     gridtolerance="10"
     guidetolerance="10"
     inkscape:pageopacity="0"
     inkscape:pageshadow="2"
     inkscape:window-width="1366"
     inkscape:window-height="705"
     id="namedview18"
     showgrid="false"
     fit-margin-top="0"
     fit-margin-left="0"
     fit-margin-right="0"
     fit-margin-bottom="0"
     inkscape:zoom="0.69490313"
     inkscape:cx="182.11614"
     inkscape:cy="133.46519"
     inkscape:window-x="-8"
     inkscape:window-y="-8"
     inkscape:window-maximized="1"
     inkscape:current-layer="svg2" /><metadata
     id="metadata8"><rdf:RDF><cc:Work
         rdf:about=""><dc:format>image/svg+xml</dc:format><dc:type
           rdf:resource="http://purl.org/dc/dcmitype/StillImage" /><dc:title /></cc:Work></rdf:RDF></metadata><defs
     id="defs6" /><g
     id="g1017"
     transform="matrix(1.4351494,0,0,1.4351494,-73.537369,-151.06329)"><g
       id="g1003"><path
         id="path16"
         style="fill:#2151a1;fill-opacity:1;fill-rule:nonzero;stroke:none;stroke-width:0.125"
         d="m 271.685,156.535 c -1.20625,0.39125 -2.855,0.7225 -4.9025,0.97875 -0.97625,0.1275 -2.06125,0.19125 -3.3325,0.19125 -2.13375,0 -4.44625,-0.17 -6.685,-0.345 l -0.0775,-0.003 c -2.07375,-0.15625 -4.03625,-0.30375 -5.91875,-0.30375 -1.345,0 -2.5775,0.08 -3.76,0.23125 -3.5175,0.43625 -6.29125,1.54125 -6.29125,1.54125 l 0.03,-0.28625 c 0.68125,-7.05375 6.60875,-13.07625 13.78125,-14.02875 0.66125,-0.0775 1.3425,-0.12125 2.02375,-0.12125 6.7575,0 13.31125,5.1225 15.25875,11.9275 l 0.0488,0.17625 z m 8.25625,2.995 -0.002,-0.0962 c -0.0312,-0.45375 -0.1175,-1.1875 -0.2125,-1.97625 -0.185,-1.43125 -0.4975,-2.84 -0.93,-4.19875 C 275.535,142.97 266.80375,136.33 256.5525,136.33 c -1.0225,0 -2.08,0.065 -3.1225,0.2075 -13.14625,1.69125 -22.075,13.60625 -20.33625,27.12375 1.58125,12.2375 11.4275,20.62125 23.41,20.62125 1.01125,0 2.06375,-0.07 3.1275,-0.1975 6.38625,-0.81125 11.9975,-3.48625 16.20125,-8.6875 0.23625,-0.29625 0.35375,-0.675 0.31,-1.01375 -0.0387,-0.30125 -0.215,-0.5875 -0.5325,-0.8175 -0.705,-0.5075 -3.2225,-1.72875 -4.5925,-2.38125 -0.4025,-0.20125 -0.7275,-0.3575 -0.9075,-0.4475 -0.415,-0.21375 -0.7125,-0.31 -0.98375,-0.31 -0.3325,0 -0.6475,0.17 -0.955,0.54375 -2.71,3.15 -6.14,4.805 -9.64375,5.265 -0.695,0.085 -1.36875,0.13 -2.02375,0.13 -6.38625,0 -12.83125,-4.27625 -14.7025,-10.145 l -0.0463,-0.15375 0.1375,-0.0662 c 0.33125,-0.165 3.32,-1.55625 7.74875,-1.55625 0.54875,0 1.10875,0.0225 1.655,0.0713 1.27,0.1 2.54625,0.265 3.89125,0.435 2.48375,0.32875 5.05875,0.66875 8.065,0.66875 1.8525,0 3.67375,-0.13375 5.53125,-0.3925 7.31,-1.40875 10.21,-3.45875 10.2325,-3.4775 1.0325,-0.6675 0.99375,-1.22125 0.925,-2.22"
         inkscape:connector-curvature="0" /><path
         id="path18"
         style="fill:#2151a1;fill-opacity:1;fill-rule:nonzero;stroke:none;stroke-width:0.125"
         d="m 394.45375,139.02375 c 0,-0.61375 -0.50375,-1.1075 -1.11125,-1.1075 h -6.05 c -0.6025,0 -1.10125,0.49375 -1.10125,1.1075 v 43.0175 c 0,0.6075 0.49875,1.11 1.10125,1.11 h 6.05 c 0.6075,0 1.11125,-0.5025 1.11125,-1.11 v -43.0175"
         inkscape:connector-curvature="0" /><path
         id="path20"
         style="fill:#2151a1;fill-opacity:1;fill-rule:nonzero;stroke:none;stroke-width:0.125"
         d="m 390.3225,122.57375 c -3.0075,0 -5.46125,2.455 -5.46125,5.4675 0,3.005 2.45375,5.455 5.46125,5.455 3.015,0 5.46125,-2.45 5.46125,-5.455 0,-3.0125 -2.44625,-5.4675 -5.46125,-5.4675"
         inkscape:connector-curvature="0" /><path
         id="path22"
         style="fill:#2151a1;fill-opacity:1;fill-rule:nonzero;stroke:none;stroke-width:0.125"
         d="m 310.235,144.5 c 8.57375,0 15.2925,7.05625 15.2925,16.07 0,9.0675 -6.375,15.89875 -14.83125,15.89875 -4.27,0 -8.2275,-1.53125 -11.12375,-4.305 -2.9875,-2.8525 -4.62625,-6.88 -4.62625,-11.32375 0,-9.01 6.8575,-16.34 15.28875,-16.34 m -0.26875,39.7975 c 0.3825,0.0162 0.77875,0.0312 1.16375,0.0312 6.21625,0 11.9925,-2.4 16.285,-6.725 4.3525,-4.40875 6.7425,-10.455 6.7425,-17.03375 0,-13.59125 -10.46375,-24.24 -23.825,-24.24 -10.8725,0 -20.05125,7.16 -22.8575,17.81 -0.4775,1.80875 -0.97125,6.42 -0.97125,11.01875 v 33.75237 c 0,0.61526 0.49375,1.11626 1.10875,1.11626 h 6.00125 c 0.62,0 1.1225,-0.50738 1.1225,-1.125 l -0.005,-21.26238 0.315,0.30625 c 2.9475,2.86375 8.41375,6.04625 14.92,6.35125"
         inkscape:connector-curvature="0" /><path
         id="path24"
         style="fill:#2151a1;fill-opacity:1;fill-rule:nonzero;stroke:none;stroke-width:0.125"
         d="m 202.4175,144.5 c 8.56625,0 15.2875,7.05625 15.2875,16.07 0,9.0675 -6.3725,15.89875 -14.83625,15.89875 -4.28,0 -8.22,-1.53125 -11.11375,-4.305 -2.9925,-2.8525 -4.63875,-6.88 -4.63875,-11.32375 0,-9.01 6.86375,-16.34 15.30125,-16.34 m -0.26625,39.7975 c 0.3825,0.0162 0.77625,0.0312 1.155,0.0312 6.2225,0 12.00125,-2.4 16.28625,-6.725 4.35375,-4.40875 6.75125,-10.455 6.75125,-17.03375 0,-13.59125 -10.4725,-24.24 -23.83625,-24.24 -10.86875,0 -20.05625,7.16 -22.85625,17.81 -0.48625,1.80875 -0.9725,6.42 -0.9725,11.01875 v 33.75237 c 0,0.61526 0.49875,1.11626 1.09875,1.11626 h 6.01875 c 0.6175,0 1.12,-0.50738 1.12,-1.125 l -0.01,-21.26238 0.30375,0.30625 c 2.94875,2.86375 8.415,6.04625 14.94125,6.35125"
         inkscape:connector-curvature="0" /><path
         id="path26"
         style="fill:#2151a1;fill-opacity:1;fill-rule:nonzero;stroke:none;stroke-width:0.125"
         d="m 339.93875,176.7625 c 5.225,4.78125 10.9325,7.5125 18.3425,7.5125 h 0.235 c 12.79,-0.0825 18.505,-7.07375 18.505,-13.96125 0,-9.5275 -8.98875,-12.13125 -11.7425,-12.70875 -0.88375,-0.1725 -1.8025,-0.345 -2.745,-0.5325 -2.22625,-0.42875 -4.5375,-0.87125 -6.6375,-1.45125 -1.4725,-0.405 -6.2725,-2.00375 -6.2725,-5.5925 0,-3.95125 4.385,-6.08125 8.50375,-6.08125 3.46,0 6.345,0.5825 10.03625,3.465 0.28875,0.2275 0.69375,0.4875 1.1875,0.4875 0.365,0 0.715,-0.12625 1.09125,-0.395 1.0225,-0.75375 2.8925,-2.33125 4.1275,-3.56625 0.29125,-0.295 0.4275,-0.6175 0.41,-0.955 -0.0288,-0.52375 -0.4175,-0.9525 -0.6175,-1.1175 C 369.42625,137.95 364.675,136.3475 357.97625,136.33 h -0.0487 c -9.5825,0 -16.81625,6.16 -16.81625,14.32625 0,6.47125 5.32,11.0675 14.9625,12.96125 l 6.03875,1.1575 c 3.96875,0.72875 6.2,2.83625 6.1225,5.7875 -0.0713,2.87625 -3.59875,5.855 -9.395,5.855 -4.73125,0 -8.89875,-1.8475 -12.39,-5.01625 l -0.0512,-0.05 c -0.24625,-0.22375 -0.54125,-0.49625 -0.9375,-0.49625 -0.2775,0 -0.57125,0.12875 -0.88875,0.37625 -0.36375,0.295 -4.39625,3.48375 -4.82625,3.935 -0.1975,0.21125 -0.29,0.435 -0.28625,0.67 0.01,0.3725 0.25625,0.72125 0.47875,0.92625"
         inkscape:connector-curvature="0" /></g><g
       id="g994"><path
         id="path30"
         style="fill:#ffffff;fill-opacity:1;fill-rule:nonzero;stroke:none;stroke-width:0.125"
         d="m 145.13125,199.15238 c -21.474,21.47899 -56.304625,21.47649 -77.77775,0 -21.484375,-21.48238 -21.484375,-56.30988 0,-77.78488 21.478,-21.4775 56.30375,-21.4775 77.774,0.002 21.48375,21.4725 21.48375,56.3 0.004,77.78238"
         inkscape:connector-curvature="0" /><path
         id="path32"
         style="fill:#2151a1;fill-opacity:1;fill-rule:nonzero;stroke:none;stroke-width:0.125"
         d="m 149.0575,132.505 c 1.03,3.3375 1.595,6.88 1.595,10.5525 0,11.85 -5.82625,22.27 -14.6875,28.79875 -15.40838,11.34875 -37.866875,11.36375 -68.876125,21.135 9.358875,11.186 23.422875,18.30612 39.151375,18.30612 28.1885,0 51.0385,-22.84987 51.0385,-51.03737 0,-10.2325 -3.02875,-19.75875 -8.22125,-27.755"
         inkscape:connector-curvature="0" /><path
         id="path34"
         style="fill:#eb1933;fill-opacity:1;fill-rule:nonzero;stroke:none;stroke-width:0.125"
         d="m 136.84875,119.42375 c -8.52875,-6.41 -19.12412,-10.2025 -30.607,-10.2025 -28.1875,0 -51.036625,22.855 -51.036625,51.03875 0,11.345 3.701125,21.82375 9.960875,30.29625 34.32625,-9.995 61.43025,-36.92125 71.68275,-71.1325"
         inkscape:connector-curvature="0" /></g></g></svg>