<?xml version="1.0" encoding="UTF-8"?>
<svg width="117px" height="54px" viewBox="0 0 117 54" version="1.1" xmlns="http://www.w3.org/2000/svg" xmlns:xlink="http://www.w3.org/1999/xlink">
    <!-- Generator: Sketch 48.2 (47327) - http://www.bohemiancoding.com/sketch -->
    <title>startupshell</title>
    <desc>Created with Sketch.</desc>
    <defs></defs>
    <g id="Page-1" stroke="none" stroke-width="1" fill="none" fill-rule="evenodd">
        <g id="startupshell" fill-rule="nonzero">
            <g id="Group">
                <polygon id="Shape" fill="#250E0B" points="10.4 28.4 23.1 10.7 31.3 27"></polygon>
                <polygon id="Shape" fill="#66130C" points="31.7 32 10.4 28.4 31.3 27"></polygon>
                <polyline id="Shape" fill="#33120E" points="42.3 38.5 31.7 32 31.3 27"></polyline>
                <polygon id="Shape" fill="#8D181B" points="42.3 38.5 28.4 53.2 31.7 32"></polygon>
                <polygon id="Shape" fill="#700F12" points="47.4 46.6 28.4 53.2 42.3 38.5"></polygon>
                <polygon id="Shape" fill="#3C160B" points="47.4 46.6 42.3 38.5 57.4 39.1"></polygon>
                <polygon id="Shape" fill="#871719" points="58 54 47.4 46.6 57.4 39.1"></polygon>
                <polygon id="Shape" fill="#49140F" points="78.5 54 58 54 57.4 39.1"></polygon>
                <polygon id="Shape" fill="#250D0B" points="78.5 54 57.4 39.1 68.2 33.1"></polygon>
                <polygon id="Shape" fill="#7F1917" points="78.5 54 68.2 33.1 77.1 27"></polygon>
                <polygon id="Shape" fill="#9E1C20" points="102.8 20.5 93.1 17.6 117 17.6"></polygon>
                <polygon id="Shape" fill="#991E1F" points="4 28 10.4 28.4 5.7 22.5"></polygon>
                <polygon id="Shape" fill="#25130A" points="68.2 33.1 69.1 17.6 77.1 27"></polygon>
                <polygon id="Shape" fill="#250D0B" points="10.4 28.4 4 28 8.6 33.7"></polygon>
                <polygon id="Shape" fill="#53120C" points="58.8 26 69.1 17.6 68.2 33.1"></polygon>
                <polygon id="Shape" fill="#831618" points="57.4 39.1 58.8 26 68.2 33.1"></polygon>
                <polygon id="Shape" fill="#5D140B" points="42.3 38.5 58.8 26 57.4 39.1"></polygon>
                <polygon id="Shape" fill="#991E1F" points="31.3 27 58.8 26 42.3 38.5"></polygon>
                <polygon id="Shape" fill="#991E1F" points="23.1 10.7 35.4 12.6 31.3 27"></polygon>
                <polygon id="Shape" fill="#30170D" points="35.4 12.6 34.7 24 31.3 27"></polygon>
                <polygon id="Shape" fill="#4A170D" points="53 8.2 58.8 26 31.3 27"></polygon>
                <polygon id="Shape" fill="#741112" points="53 8.2 59.4 7.8 58.8 26"></polygon>
                <polygon id="Shape" fill="#9E1C20" points="59.4 7.8 69.1 17.6 58.8 26"></polygon>
                <polygon id="Shape" fill="#6B0D0E" points="59.4 7.8 67.9 0.8 69.1 17.6"></polygon>
                <polygon id="Shape" fill="#280F0D" points="67.9 0.8 79.8 2.6 69.1 17.6"></polygon>
                <polygon id="Shape" fill="#53120C" points="79.8 2.6 82.8 12 69.1 17.6"></polygon>
                <polygon id="Shape" fill="#961B1E" points="82.8 12 77.1 27 69.1 17.6"></polygon>
                <polygon id="Shape" fill="#AC1E23" points="82.8 12 91.6 29.1 77.1 27"></polygon>
                <polygon id="Shape" fill="#54130B" points="93.1 17.6 91.6 29.1 82.8 12"></polygon>
                <polygon id="Shape" fill="#280F0D" points="102.8 20.5 91.6 29.1 93.1 17.6"></polygon>
                <polygon id="Shape" fill="#3B140E" points="77.1 27 91.6 29.1 78.5 54"></polygon>
                <polygon id="Shape" fill="#210D0C" points="91.6 29.1 102 35.5 78.5 54"></polygon>
                <polygon id="Shape" fill="#6B160F" points="102.8 20.5 102 35.5 91.6 29.1"></polygon>
                <polygon id="Shape" fill="#B01F24" points="102.8 20.5 117 17.6 102 35.5"></polygon>
                <polygon id="Shape" fill="#210D0B" points="53 8.2 34.7 24 35.4 12.6"></polygon>
                <polygon id="Shape" fill="#A22021" points="53 8.2 35.4 12.6 41.9 0"></polygon>
                <polygon id="Shape" fill="#33120E" points="26.8 34.1 30 42.6 31.7 32"></polygon>
                <polyline id="Shape" fill="#73191B" points="19.8 37.2 5.4 43.8 10.4 28.4 19.8 37.2"></polyline>
                <polygon id="Shape" fill="#421211" points="19.8 37.2 10.4 28.4 31.7 32"></polygon>
                <polygon id="Shape" fill="#73191B" points="23.1 10.7 10.4 28.4 0 15.1"></polygon>
            </g>
            <g id="Group" transform="translate(8.000000, 18.000000)" fill="#FFFFFF">
                <path d="M3.8,5.8 C2.3,5.8 1.6,6.3 1.6,7.4 C1.6,7.9 1.8,8.2 2.1,8.4 C2.4,8.6 3.2,8.8 4.3,9 C5.5,9.2 6.3,9.5 6.7,9.8 C7.2,10.1 7.4,10.8 7.4,11.8 C7.4,12.8 7.1,13.5 6.5,13.9 C5.9,14.3 5,14.6 3.8,14.6 C3.1,14.6 2.2,14.5 1.1,14.3 L0.6,14.2 L0.7,13.2 C2.1,13.4 3.2,13.5 4,13.5 C4.8,13.5 5.3,13.4 5.8,13.1 C6.2,12.8 6.4,12.4 6.4,11.8 C6.4,11.2 6.2,10.8 5.9,10.5 C5.6,10.3 4.8,10.1 3.7,9.9 C2.6,9.7 1.8,9.5 1.3,9.1 C0.8,8.8 0.6,8.2 0.6,7.2 C0.6,6.3 0.9,5.6 1.6,5.2 C2.2,4.8 3,4.6 4,4.6 C4.8,4.6 5.7,4.7 6.8,4.8 L7.3,4.9 L7.3,5.9 C5.7,5.9 4.6,5.8 3.8,5.8 Z" id="Shape"></path>
                <path d="M14.5,5.9 L11.3,5.9 L11.3,10.6 C11.3,11.8 11.4,12.6 11.6,13 C11.8,13.4 12.2,13.6 12.8,13.6 L14.5,13.5 L14.6,14.5 C13.8,14.6 13.1,14.7 12.7,14.7 C11.7,14.7 11.1,14.5 10.7,14 C10.3,13.5 10.1,12.6 10.1,11.3 L10.1,6.1 L8.7,6.1 L8.7,5.1 L10.1,5.1 L10.1,2.1 L11.2,2.1 L11.2,5.1 L14.4,5.1 L14.4,5.9 L14.5,5.9 Z" id="Shape"></path>
                <path d="M22.7,7.7 L22.7,12.8 C22.7,13.3 23.2,13.5 23.9,13.6 L23.8,14.5 C22.8,14.5 22.1,14.2 21.7,13.7 C20.5,14.2 19.3,14.5 18.1,14.5 C17.3,14.5 16.6,14.3 16.2,13.8 C15.8,13.3 15.5,12.6 15.5,11.7 C15.5,10.8 15.7,10.1 16.2,9.7 C16.6,9.3 17.3,9 18.3,8.9 L21.5,8.6 L21.5,7.7 C21.5,7 21.3,6.5 21,6.2 C20.7,5.9 20.3,5.7 19.8,5.7 C19,5.7 17.9,5.8 16.7,5.9 L16.1,6 L16,5.1 C17.4,4.8 18.6,4.7 19.6,4.7 C20.6,4.7 21.4,4.9 21.9,5.4 C22.5,6 22.7,6.7 22.7,7.7 Z M16.8,11.7 C16.8,13 17.3,13.6 18.4,13.6 C18.9,13.6 19.4,13.5 19.9,13.4 C20.4,13.3 20.9,13.2 21.2,13.1 L21.7,12.9 L21.7,9.5 L18.6,9.8 C18,9.9 17.5,10 17.3,10.3 C16.9,10.7 16.8,11.1 16.8,11.7 Z" id="Shape"></path>
                <path d="M25.7,14.4 L25.7,5 L26.8,5 L26.8,6.4 C27.3,6.1 27.8,5.8 28.5,5.5 C29.2,5.2 29.8,5 30.4,4.9 L30.4,6 C29.9,6.1 29.3,6.3 28.7,6.5 C28.1,6.7 27.6,6.9 27.3,7.1 L26.8,7.4 L26.8,14.5 C26.8,14.4 25.7,14.4 25.7,14.4 Z" id="Shape"></path>
                <path d="M36.9,5.9 L33.7,5.9 L33.7,10.6 C33.7,11.8 33.8,12.6 34,13 C34.2,13.4 34.6,13.6 35.2,13.6 L36.9,13.5 L37,14.5 C36.2,14.6 35.5,14.7 35.1,14.7 C34.1,14.7 33.5,14.5 33.1,14 C32.7,13.5 32.5,12.6 32.5,11.3 L32.5,6.1 L31.1,6.1 L31.1,5.1 L32.5,5.1 L32.5,2.1 L33.6,2.1 L33.6,5.1 L36.8,5.1 L36.8,5.9 L36.9,5.9 Z" id="Shape"></path>
                <path d="M44.6,4.9 L45.7,4.9 L45.7,14.3 L44.6,14.3 L44.6,13.6 C43.6,14.2 42.7,14.5 41.7,14.5 C40.4,14.5 39.6,14.2 39.2,13.5 C38.8,12.8 38.6,11.6 38.6,9.8 L38.6,4.9 L39.7,4.9 L39.7,9.8 C39.7,11.3 39.8,12.2 40.1,12.7 C40.4,13.2 41,13.5 41.9,13.5 C42.3,13.5 42.8,13.4 43.3,13.3 C43.8,13.2 44.1,13 44.4,12.9 L44.8,12.7 C44.6,12.8 44.6,4.9 44.6,4.9 Z" id="Shape"></path>
                <path d="M48.6,18.6 L48.6,4.9 L49.7,4.9 L49.7,5.6 C50.7,5 51.7,4.7 52.8,4.7 C53.9,4.7 54.7,5.1 55.2,5.9 C55.7,6.7 56,7.9 56,9.7 C56,11.4 55.7,12.7 55.1,13.5 C54.5,14.3 53.4,14.7 52,14.7 C51.2,14.7 50.5,14.6 49.7,14.5 L49.7,18.8 L48.6,18.6 Z M52.5,5.8 C52.1,5.8 51.6,5.9 51.2,6 C50.7,6.1 50.3,6.3 50.1,6.4 L49.7,6.6 L49.7,13.3 C50.6,13.5 51.3,13.5 51.9,13.5 C53,13.5 53.7,13.2 54.2,12.6 C54.6,12 54.9,11 54.9,9.6 C54.9,8.2 54.7,7.2 54.3,6.6 C53.9,6.1 53.3,5.8 52.5,5.8 Z" id="Shape"></path>
                <path d="M65.5,5.8 C64,5.8 63.3,6.3 63.3,7.4 C63.3,7.9 63.5,8.2 63.8,8.4 C64.1,8.6 64.9,8.8 66,9 C67.2,9.2 68,9.5 68.4,9.8 C68.9,10.1 69.1,10.8 69.1,11.8 C69.1,12.8 68.8,13.5 68.2,13.9 C67.6,14.3 66.7,14.6 65.5,14.6 C64.8,14.6 63.9,14.5 62.8,14.3 L62.3,14.2 L62.4,13.2 C63.8,13.4 64.9,13.5 65.7,13.5 C66.5,13.5 67,13.4 67.5,13.1 C67.9,12.8 68.1,12.4 68.1,11.8 C68.1,11.2 67.9,10.8 67.6,10.5 C67.3,10.3 66.5,10.1 65.4,9.9 C64.3,9.7 63.5,9.5 63,9.1 C62.5,8.8 62.3,8.2 62.3,7.2 C62.3,6.3 62.6,5.6 63.3,5.2 C63.9,4.8 64.7,4.6 65.7,4.6 C66.5,4.6 67.4,4.7 68.5,4.8 L69,4.9 L69,5.9 C67.4,5.9 66.3,5.8 65.5,5.8 Z" id="Shape"></path>
                <path d="M72.5,14.4 L71.4,14.4 L71.4,0.8 L72.5,0.8 L72.5,5.5 C73.6,5 74.6,4.8 75.6,4.8 C76.9,4.8 77.7,5.1 78.1,5.8 C78.5,6.5 78.7,7.7 78.7,9.5 L78.7,14.5 L77.6,14.5 L77.6,9.6 C77.6,8.2 77.5,7.2 77.2,6.7 C76.9,6.2 76.3,5.9 75.4,5.9 C75,5.9 74.5,6 74,6.1 C73.5,6.2 73.1,6.3 72.9,6.4 L72.5,6.6 C72.5,6.4 72.5,14.4 72.5,14.4 Z" id="Shape"></path>
                <path d="M87.7,13.4 L88.3,13.3 L88.3,14.2 C86.9,14.4 85.7,14.5 84.7,14.5 C83.3,14.5 82.4,14.1 81.8,13.3 C81.3,12.5 81,11.3 81,9.6 C81,6.3 82.3,4.6 84.9,4.6 C86.1,4.6 87.1,5 87.7,5.7 C88.3,6.4 88.6,7.6 88.6,9.1 L88.6,10 L82.2,10 C82.2,11.2 82.4,12 82.8,12.6 C83.2,13.2 83.9,13.4 84.8,13.4 C85.8,13.5 86.7,13.5 87.7,13.4 Z M82.2,9.2 L87.5,9.2 C87.5,8 87.3,7.1 86.9,6.5 C86.5,6 85.8,5.7 84.9,5.7 C84,5.7 83.3,6 82.9,6.5 C82.4,7.1 82.2,8 82.2,9.2 Z" id="Shape"></path>
                <polygon id="Shape" points="91.1 14.4 91.1 0.8 92.2 0.8 92.2 14.4"></polygon>
                <polygon id="Shape" points="95.3 14.4 95.3 0.8 96.4 0.8 96.4 14.4"></polygon>
            </g>
        </g>
    </g>
</svg>