<?xml version="1.0" encoding="UTF-8"?>
<svg width="100%" height="100%" viewBox="0 0 139 26" version="1.1" xmlns="http://www.w3.org/2000/svg" xmlns:xlink="http://www.w3.org/1999/xlink">
    <!-- Generator: Sketch 46.2 (44496) - http://www.bohemiancoding.com/sketch -->
    <title>Group 3</title>
    <desc>Created with Sketch.</desc>
    <defs></defs>
    <g id="Symbols" stroke="none" stroke-width="1" fill="none" fill-rule="evenodd">
        <g id="Logo-/-WMLabs-/-Purple" fill="#2F2951">
            <g id="Group-3">
                <path d="M76.5838946,13.0727372 C76.5838946,13.2631939 76.56737,13.4596664 76.5115282,13.6319387 C76.2843145,14.3480995 75.5129277,14.9544709 74.5476614,14.9544709 C73.7368149,14.9544709 73.0993345,14.5154498 73.0993345,13.5865463 C73.0993345,12.1657096 74.7245889,11.7724911 76.5838946,11.782472 L76.5838946,13.0727372 Z M79.6613221,10.5966639 C79.6613221,8.25334974 78.6174213,6.1918239 75.0942562,6.1918239 C73.2852366,6.1918239 71.8481636,6.67910856 71.0658078,7.11334427 L71.6369048,8.99781241 C72.3525922,8.5635767 73.4962105,8.20412907 74.5785738,8.20412907 C76.3650858,8.20002734 76.6589677,9.17569046 76.6589677,9.80120317 L76.6589677,9.94954881 C72.7581579,9.9438064 70.2937087,11.2383101 70.2937087,13.8779054 C70.2937087,15.4897457 71.5481561,17 73.734678,17 C75.0721759,17 76.1984149,16.4860541 76.8700841,15.6628384 L76.9364676,15.6628384 C76.9364676,15.6628384 77.3803533,17.4510528 79.8332637,16.766612 C79.7051978,16.0226962 79.6613221,15.2296965 79.6613221,14.2748154 L79.6613221,10.5966639 Z M94,8.88966366 L94,6.2559475 L91.4637542,6.2559475 L91.4637542,3 L88.5894657,3 L88.5894657,13.1561389 C88.5894657,14.5567405 88.8668231,15.5375991 89.4550145,16.1361772 C89.9709818,16.6603774 90.8147351,17 91.8247319,17 C92.6848674,17 93.5333217,16.8434509 93.9334741,16.6998906 L93.893872,14.51586 C93.59999,14.5862729 93.2559643,14.6413727 92.7899982,14.6413727 C91.7966685,14.6413727 91.4637542,14.0324036 91.4637542,12.7752256 L91.4637542,8.88966366 L94,8.88966366 Z M83.7893456,8.37530763 L83.7119933,8.37530763 L83.7119933,6.42480175 L81.0703317,6.42480175 L81.0703317,16.766612 L84.0776719,16.766612 L84.0776719,11.4715614 C84.0776719,11.185808 84.094339,10.9362866 84.1446252,10.7078206 C84.3662831,9.59844135 85.2486414,8.88966366 86.5198983,8.88966366 C86.8689099,8.88966366 87.1133604,8.92562209 87.385447,8.96349467 L87.385447,6.2559475 C87.157806,6.21219579 87.0026739,6.1918239 86.7248892,6.1918239 C85.6037785,6.1918239 84.3275357,6.88624556 83.7893456,8.37530763 L83.7893456,8.37530763 Z M65.6938785,6.1918239 C64.8454243,6.1918239 64.1740399,6.39567952 63.5686117,6.75293957 C63.0580576,7.05304895 62.6033454,7.48017501 62.2033353,8.04074378 L62.1590322,8.04074378 C61.6983369,6.92726278 60.6114152,6.1918239 59.1907243,6.1918239 C57.3704509,6.1918239 56.5494902,7.07820618 56.0553182,7.83018868 L56.0111576,7.83018868 L56.0111576,6.42480175 L53.2308886,6.42480175 L53.2308886,16.766612 L56.1608764,16.766612 L56.1608764,10.7009844 C56.1608764,10.4170085 56.1939257,10.1168991 56.2996263,9.85479902 C56.5380939,9.24487285 57.1318409,8.52966913 58.0754543,8.52966913 C59.2571078,8.52966913 59.8122499,9.48878862 59.8122499,10.8728466 L59.8122499,16.766612 L62.7363971,16.766612 L62.7363971,10.6283839 C62.7363971,10.356303 62.775287,10.0307629 62.8584799,9.7899918 C63.0970899,9.09502324 63.735425,8.52966913 64.6177832,8.52966913 C65.8106906,8.52966913 66.3874856,9.47197156 66.3874856,11.1006289 L66.3874856,16.766612 L69.3120602,16.766612 L69.3120602,10.6756905 C69.3120602,7.46349467 67.6137271,6.1918239 65.6938785,6.1918239 L65.6938785,6.1918239 Z M43.9666966,13.0727372 C43.9666966,13.2631939 43.9498871,13.4596664 43.8947575,13.6319387 C43.6671165,14.3480995 42.8960146,14.9544709 41.9249076,14.9544709 C41.1203291,14.9544709 40.481994,14.5154498 40.481994,13.5865463 C40.481994,12.1657096 42.1082456,11.7724911 43.9666966,11.782472 L43.9666966,13.0727372 Z M47.0441241,10.5966639 C47.0441241,8.25334974 46.0009356,6.1918239 42.4769158,6.1918239 C40.6680386,6.1918239 39.2309656,6.67910856 38.4474702,7.11334427 L39.020419,8.99781241 C39.735964,8.5635767 40.8788701,8.20412907 41.9612333,8.20412907 C43.7477453,8.20002734 44.0416273,9.17569046 44.0416273,9.80120317 L44.0416273,9.94954881 C40.1409599,9.9438064 37.6796447,11.2383101 37.6796447,13.8779054 C37.6796447,15.4897457 38.9336647,17 41.1117819,17 C42.4549779,17 43.5760886,16.4860541 44.247188,15.6628384 L44.3141412,15.6628384 C44.3141412,15.6628384 44.7630129,17.4510528 47.2157808,16.766612 C47.0882847,16.0226962 47.0441241,15.2296965 47.0441241,14.2748154 L47.0441241,10.5966639 Z M35.4674811,3 L34.1734316,8.95146295 C33.8254172,10.6838939 33.5108794,12.0388296 33.2665713,13.6234619 L33.2235503,13.6234619 C33.0031744,12.0538693 32.7216859,10.7541701 32.3678309,9.06644791 L31.0219282,3 L27.833102,3 L26.3927526,8.9131802 C25.9856199,10.7100082 25.6024194,12.1611977 25.3598207,13.6922341 L25.3166573,13.6922341 C25.0677906,12.2510254 24.7361584,10.4265792 24.37746,8.68799562 C24.37746,8.68799562 23.5227377,4.45843588 23.2221604,3 L20,3 C20,3 22.5465025,13.0159967 22.9533503,14.6413727 C23.4271513,16.5392398 24.2814462,17.2381734 26.7461802,16.766612 L28.3366759,10.5559202 C28.7398199,9.01380913 29.0104819,7.91482089 29.2691778,6.34509161 L29.3150479,6.34509161 C29.4968189,7.93013399 29.756512,9.01859448 30.0870046,10.5620727 C30.0870046,10.5620727 30.7353114,13.3813235 31.0660889,14.8620454 C31.3992881,16.3420837 32.3235278,17.2746787 34.738403,16.766612 L38.5268169,3 L35.4674811,3 Z M48.6309159,16.7670221 L51.5439518,16.7670221 L51.5439518,3.00068362 L48.6309159,3.00068362 L48.6309159,16.7670221 Z" id="Fill-1"></path>
                <polygon id="Fill-3" points="102.54995 3 100 3 100 17 108 17 108 14.7885168 102.54995 14.7885168"></polygon>
                <path d="M114.934635,13.003036 C114.934635,13.1968729 114.918909,13.3968324 114.866357,13.5721623 C114.651982,14.3010335 113.923778,14.9181668 113.01359,14.9181668 C112.248424,14.9181668 111.646561,14.4713539 111.646561,13.5259643 C111.646561,12.0799104 113.180386,11.6797131 114.934635,11.6898711 L114.934635,13.003036 Z M117.838177,10.4830173 C117.838177,8.09811388 116.85326,6 113.529166,6 C111.822362,6 110.466488,6.49593301 109.728338,6.9380147 L110.267032,8.8557893 C110.94255,8.41384676 112.021281,8.04801963 113.042084,8.04801963 C114.728055,8.04384511 115.005466,9.03682433 115.005466,9.67343867 L115.005466,9.82441715 C111.325065,9.81871197 109,11.1360514 109,13.8224943 C109,15.4629416 110.183029,17 112.246408,17 C113.50793,17 114.570936,16.4769326 115.204519,15.6391064 L115.267286,15.6391064 C115.267286,15.6391064 115.686091,17.4590581 118,16.7624698 C117.879573,16.005351 117.838177,15.1981379 117.838177,14.2264487 L117.838177,10.4830173 Z" id="Fill-5"></path>
                <path d="M125.422116,14.9540555 C124.235135,14.9540555 123.271557,14.1736663 122.980322,13.1396988 C122.935528,12.9500304 122.913344,12.7391962 122.913344,12.5284993 L122.913344,10.8618916 C122.913344,10.608863 122.958138,10.3764505 123.00279,10.1869196 C123.316778,9.04794722 124.324581,8.28831164 125.4443,8.28831164 C127.281297,8.28831164 128.199654,9.7648387 128.199654,11.5791954 C128.199654,13.6463058 127.147199,14.9540555 125.422116,14.9540555 M126.45253,6.26339557 C124.81732,6.26339557 123.630197,6.91747659 122.958138,7.90897489 L122.913344,7.90897489 L122.913344,3 L120.157989,3 L120.157989,13.8783059 C120.157989,14.1913962 120.162113,14.4312305 120.166237,14.6384913 C120.154434,15.418743 120.109213,16.099625 120,16.737488 C122.180848,17.3504742 122.822191,15.9943453 122.936523,15.6899138 C123.719643,16.6172272 124.824999,17 126.049095,17 C128.513642,17 130.999803,15.1647523 130.999803,11.4735034 C131.022272,8.35167187 129.118438,6.26339557 126.45253,6.26339557" id="Fill-7"></path>
                <path d="M135.993963,10.4823385 C134.560155,10.0061694 134.028642,9.68110458 134.028642,9.00967088 C134.028642,8.36010569 134.583641,7.90552292 135.60087,7.90552292 C136.595053,7.90552292 137.497202,8.25189185 137.982477,8.51205654 L138.53733,6.62811995 C137.889855,6.30361953 136.803343,6 135.554779,6 C132.941983,6 131.300178,7.45094015 131.300178,9.31314932 C131.276839,10.5473796 132.202033,11.6731139 134.398984,12.3878614 C135.785967,12.8425852 136.248491,13.2103994 136.248491,13.9252879 C136.248491,14.618308 135.693785,15.0944771 134.444634,15.0944771 C133.427699,15.0944771 132.202033,14.7046533 131.554265,14.336698 L131,16.2638073 C131.832132,16.6970859 133.057504,17 134.421735,17 C137.404433,17 139,15.6143832 139,13.7088603 C138.977101,12.1497063 138.029155,11.1752174 135.993963,10.4823385" id="Fill-9"></path>
                <path d="M3,14 L6.37369928,1 L6.87527062,1 L3.62965291,13.4974063 L10.757525,13.4974063 C10.8914729,13.4974063 11,13.6099942 11,13.7487755 C11,13.8875568 10.8914729,14 10.757525,14 L3,14 Z M14.7365645,11.2742037 L6.58138323,11.2742037 L9.5244125,0 L3.53316563,0 L0.11636812,13.1033147 C-0.394286167,15.0742593 0.824075215,16.6869024 2.82363527,16.6869024 L6.54057016,16.6870453 L4.16303336,25.8639123 C4.13344038,25.9782943 4.27972229,26.0509269 4.34984784,25.9567047 L14.9460996,11.70428 C15.0773747,11.5277028 14.9539537,11.2742037 14.7365645,11.2742037 L14.7365645,11.2742037 Z" id="Fill-12"></path>
            </g>
        </g>
    </g>
</svg>
