<?xml version="1.0" encoding="UTF-8" standalone="no"?>
<svg
   xmlns:dc="http://purl.org/dc/elements/1.1/"
   xmlns:cc="http://creativecommons.org/ns#"
   xmlns:rdf="http://www.w3.org/1999/02/22-rdf-syntax-ns#"
   xmlns:svg="http://www.w3.org/2000/svg"
   xmlns="http://www.w3.org/2000/svg"
   viewBox="0 0 693.01331 95.360001"
   height="95.360001"
   width="693.01331"
   xml:space="preserve"
   id="svg2"
   version="1.1"><metadata
     id="metadata8"><rdf:RDF><cc:Work
         rdf:about=""><dc:format>image/svg+xml</dc:format><dc:type
           rdf:resource="http://purl.org/dc/dcmitype/StillImage" /></cc:Work></rdf:RDF></metadata><defs
     id="defs6" /><g
     transform="matrix(1.3333333,0,0,-1.3333333,0,95.36)"
     id="g10"><g
       transform="scale(0.1)"
       id="g12"><path
         id="path14"
         style="fill:#ffffff;fill-opacity:1;fill-rule:nonzero;stroke:none"
         d="m 1005.69,657.223 c -5.61,15.808 -20.229,26.175 -38.756,26.175 -28.387,0 -46.071,-20.566 -46.071,-49.125 0,-30.765 22.102,-53.375 47.942,-53.375 13.425,0 29.918,4.59 41.475,25.161 h 3.23 c -2.21,-7.653 -6.8,-18.188 -10.88,-24.821 -10.884,1.532 -18.36,-4.59 -38.415,-4.59 -34.508,0 -59.328,22.782 -59.328,54.227 0,32.977 25.5,56.777 61.027,56.777 21.414,0 30.594,-6.804 35.866,-6.804 1.87,0 2.72,0.507 3.06,1.023 h 2.55 l 1.53,-24.648 h -3.23" /><path
         id="path16"
         style="fill:#ffffff;fill-opacity:1;fill-rule:nonzero;stroke:none"
         d="m 1122.48,683.398 c -29.92,0 -41.82,-27.875 -41.82,-48.273 0,-31.785 21.59,-54.227 48.96,-54.227 27.71,0 40.97,24.477 40.97,48.618 0,31.617 -20.06,53.882 -48.11,53.882 z m 3.57,-106.75 c -33.32,0 -61.36,21.418 -61.36,53.204 0,33.828 26,57.8 62.21,57.8 32.13,0 59.66,-21.929 59.66,-52.527 0,-34.34 -27.53,-58.477 -60.51,-58.477" /><path
         id="path18"
         style="fill:#ffffff;fill-opacity:1;fill-rule:nonzero;stroke:none"
         d="m 1310.67,579.371 h -75.98 v 3.227 h 5.61 c 7.82,0 10.71,2.554 10.71,11.218 v 75.305 c 0,9.008 -2.72,12.75 -13.43,12.75 h -2.38 v 3.227 h 50.14 v -3.227 h -6.29 c -11.05,0 -13.94,-1.191 -13.94,-11.73 v -78.364 c 0,-4.589 1.87,-6.289 6.8,-6.289 h 24.99 c 10.03,0 13.09,3.91 23.8,18.7 h 3.05 l -13.08,-24.817" /><path
         id="path20"
         style="fill:#ffffff;fill-opacity:1;fill-rule:nonzero;stroke:none"
         d="m 1440.21,579.371 h -75.99 v 3.227 h 5.61 c 7.82,0 10.71,2.554 10.71,11.218 v 75.305 c 0,9.008 -2.72,12.75 -13.43,12.75 h -2.37 v 3.227 h 50.14 v -3.227 h -6.29 c -11.05,0 -13.94,-1.191 -13.94,-11.73 v -78.364 c 0,-4.589 1.87,-6.289 6.8,-6.289 h 24.99 c 10.02,0 13.09,3.91 23.79,18.7 h 3.07 l -13.09,-24.817" /><path
         id="path22"
         style="fill:#ffffff;fill-opacity:1;fill-rule:nonzero;stroke:none"
         d="m 1569.23,617.617 h -3.22 c -1.37,12.071 -4.59,13.426 -11.57,13.426 h -28.72 V 594.84 c 0,-7.82 2.89,-9.352 9.18,-9.352 h 26.17 c 11.9,0 15.47,4.59 19.72,19.207 h 3.06 l -2.72,-25.324 h -90.26 v 3.227 h 4.76 c 13.6,0 15.98,3.742 15.98,13.941 v 71.731 c 0,9.519 -2.21,13.601 -13.6,13.601 h -3.74 v 3.227 h 81.59 l 1.36,-23.629 h -3.05 c -2.22,14.449 -6.46,17.511 -12.58,17.511 h -35.87 v -41.816 h 30.43 c 6.12,0 9.01,2.891 9.86,12.746 h 3.22 v -32.293" /><path
         id="path24"
         style="fill:#ffffff;fill-opacity:1;fill-rule:nonzero;stroke:none"
         d="m 1736.85,587.359 c -16.83,-8.668 -38.42,-10.711 -45.56,-10.711 -37.22,0 -54.56,28.727 -54.56,53.547 0,25.496 17.85,57.457 59.32,57.457 18.19,0 30.26,-5.781 33.83,-5.781 1.53,0 2.89,0.34 3.91,1.192 h 2.38 v -27.54 h -3.4 c -4.59,21.25 -19.04,27.875 -34.85,27.875 -29.91,0 -45.21,-24.816 -45.21,-52.183 0,-34.848 24.48,-50.317 44.02,-50.317 7.83,0 16.49,1.7 26.01,6.461 v 21.418 c 0,9.688 -3.4,12.918 -13.6,12.918 h -6.29 v 3.059 h 45.9 v -3.059 c -8.5,-0.507 -11.9,-3.398 -11.9,-10.711 v -23.625" /><path
         id="path26"
         style="fill:#ffffff;fill-opacity:1;fill-rule:nonzero;stroke:none"
         d="m 1867.41,617.617 h -3.23 c -1.36,12.071 -4.59,13.426 -11.56,13.426 H 1823.9 V 594.84 c 0,-7.82 2.89,-9.352 9.18,-9.352 h 26.17 c 11.9,0 15.47,4.59 19.72,19.207 h 3.06 l -2.72,-25.324 h -90.26 v 3.227 h 4.76 c 13.6,0 15.98,3.742 15.98,13.941 v 71.731 c 0,9.519 -2.21,13.601 -13.6,13.601 h -3.74 v 3.227 h 81.59 l 1.36,-23.629 h -3.06 c -2.21,14.449 -6.46,17.511 -12.58,17.511 h -35.86 v -41.816 h 30.42 c 6.12,0 9.01,2.891 9.86,12.746 h 3.23 v -32.293" /><path
         id="path28"
         style="fill:#ffffff;fill-opacity:1;fill-rule:nonzero;stroke:none"
         d="m 2074.98,683.398 c -29.92,0 -41.82,-27.875 -41.82,-48.273 0,-31.785 21.6,-54.227 48.96,-54.227 27.71,0 40.97,24.477 40.97,48.618 0,31.617 -20.06,53.882 -48.11,53.882 z m 3.57,-106.75 c -33.32,0 -61.36,21.418 -61.36,53.204 0,33.828 26,57.8 62.21,57.8 32.13,0 59.67,-21.929 59.67,-52.527 0,-34.34 -27.54,-58.477 -60.52,-58.477" /><path
         id="path30"
         style="fill:#ffffff;fill-opacity:1;fill-rule:nonzero;stroke:none"
         d="m 2264.36,619.996 h -2.89 c -0.34,9.856 -3.91,12.918 -12.07,12.918 h -31.45 v -37.226 c 0,-9.516 2.05,-13.09 14.79,-13.09 v -3.227 h -41.3 v 3.227 c 10.54,0.683 12.41,2.89 12.41,16.66 v 66.637 c 0,10.878 -0.85,15.804 -12.75,15.976 v 3.227 h 76.15 v -20.059 h -2.89 c -0.17,9.863 -3.57,13.941 -14.11,13.941 h -32.3 v -39.949 h 33.66 c 6.29,0 9.35,3.571 9.86,10.879 h 2.89 v -29.914" /><path
         id="path32"
         style="fill:#ffffff;fill-opacity:1;fill-rule:nonzero;stroke:none"
         d="m 1074.58,436.762 c -9.9,27.902 -35.7,46.203 -68.4,46.203 -50.094,0 -81.293,-36.301 -81.293,-86.699 0,-54.293 39,-94.196 84.593,-94.196 23.7,0 52.8,8.106 73.2,44.395 h 5.7 c -3.9,-13.496 -12,-32.09 -19.2,-43.789 -19.2,2.695 -32.4,-8.106 -67.8,-8.106 -60.892,0 -104.692,40.196 -104.692,95.7 0,58.191 44.996,100.195 107.692,100.195 37.8,0 54,-12.004 63.3,-12.004 3.3,0 4.8,0.902 5.4,1.801 h 4.5 l 2.7,-43.5 h -5.7" /><path
         id="path34"
         style="fill:#ffffff;fill-opacity:1;fill-rule:nonzero;stroke:none"
         d="m 1204.18,482.965 c -52.8,0 -73.79,-49.199 -73.79,-85.203 0,-56.09 38.09,-95.692 86.39,-95.692 48.9,0 72.3,43.203 72.3,85.797 0,55.793 -35.4,95.098 -84.9,95.098 z m 6.3,-188.395 c -58.8,0 -108.3,37.793 -108.3,93.895 0,59.699 45.9,102 109.8,102 56.7,0 105.3,-38.703 105.3,-92.703 0,-60.594 -48.6,-103.192 -106.8,-103.192" /><path
         id="path36"
         style="fill:#ffffff;fill-opacity:1;fill-rule:nonzero;stroke:none"
         d="m 1451.68,299.375 -76.5,159.887 h -0.6 l -8.1,-134.996 c -0.9,-15.301 10.5,-18.602 24,-19.2 v -5.691 h -62.39 v 5.691 c 21.9,0 24.6,4.797 26.09,32.102 l 7.2,116.695 c 1.2,19.797 0.6,25.2 -18,26.399 v 5.402 h 45.3 l 72.3,-151.191 72,151.191 h 44.1 v -5.402 c -14.71,-1.199 -20.41,-1.496 -19.8,-11.699 l 9.6,-135.887 c 1.8,-27.61 4.19,-27.61 26.09,-27.61 v -5.691 h -77.09 v 5.691 c 14.1,0 27.89,3.899 26.7,19.797 l -8.7,134.399 h -0.6 l -74.7,-159.887 h -6.9" /><path
         id="path38"
         style="fill:#ffffff;fill-opacity:1;fill-rule:nonzero;stroke:none"
         d="m 1662.28,386.367 c 3.9,-0.898 10.5,-2.402 16.2,-2.402 32.7,0 53.7,22.203 53.7,52.5 0,23.398 -9.3,46.5 -49.2,46.5 -6.9,0 -13.5,0 -20.7,-1.203 z m 0,-58.203 c 0,-16.797 5.1,-23.098 24,-23.098 h 9.9 v -5.691 h -83.1 v 5.691 h 4.2 c 15.6,0 20.1,3.301 20.1,17.403 v 141.894 c 0,11.102 -3.6,15.899 -14.1,15.899 h -15 v 5.699 c 8.4,0.305 23.1,1.203 37.8,1.801 14.7,0.601 29.1,0.898 37.2,0.898 62.7,0 77.1,-30 77.1,-53.094 0,-35.101 -28.2,-57.3 -72.6,-57.3 -9,0 -16.5,0.601 -25.5,2.402 v -52.504" /><path
         id="path40"
         style="fill:#ffffff;fill-opacity:1;fill-rule:nonzero;stroke:none"
         d="m 2008.17,485.961 v -5.699 c -20.1,-0.301 -27.3,-8.399 -27.3,-27.594 v -81.004 c 0,-37.191 -23.7,-77.094 -88.79,-77.094 -57.3,0 -86.7,32.696 -86.7,75.598 v 87.594 c 0,19.203 -5.4,22.199 -25.8,22.5 v 5.699 h 77.09 v -5.699 h -2.7 c -16.49,0 -23.69,-4.5 -23.69,-21.899 v -83.398 c 0,-40.492 23.69,-64.789 68.39,-64.789 33.9,0 68.4,14.09 68.4,65.094 v 69.898 c 0,28.797 -4.5,33.895 -29.4,35.094 v 5.699 h 70.5" /><path
         id="path42"
         style="fill:#ffffff;fill-opacity:1;fill-rule:nonzero;stroke:none"
         d="m 2130.27,326.973 c 0,-16.203 5.4,-21.907 23.7,-21.907 h 11.1 v -5.691 h -94.49 v 5.691 h 11.09 c 18.31,0 23.7,5.704 23.7,21.907 V 475.16 h -52.2 c -11.99,0 -17.39,-6.898 -21.9,-33.297 h -5.4 l 4.8,48.602 h 5.71 c 0.29,-1.805 1.5,-3.004 3.3,-3.606 1.79,-0.593 3.89,-0.898 5.99,-0.898 h 144.3 c 4.2,0 8.7,0.898 9.3,4.504 h 5.7 l 4.8,-48.602 h -5.4 c -4.5,26.399 -9.9,33.297 -21.9,33.297 h -52.2 V 326.973" /><path
         id="path44"
         style="fill:#ffffff;fill-opacity:1;fill-rule:nonzero;stroke:none"
         d="m 2363.07,366.863 h -5.7 c -2.4,21.301 -8.1,23.703 -20.4,23.703 h -50.7 v -63.894 c 0,-13.801 5.1,-16.496 16.2,-16.496 h 46.2 c 21,0 27.3,8.094 34.8,33.887 h 5.4 l -4.8,-44.688 h -159.3 v 5.691 h 8.4 c 24,0 28.2,6.606 28.2,24.602 v 126.598 c 0,16.797 -3.9,23.996 -24,23.996 h -6.6 v 5.699 h 144 l 2.4,-41.699 h -5.4 c -3.9,25.504 -11.4,30.898 -22.2,30.898 h -63.3 v -73.793 h 53.7 c 10.8,0 15.9,5.098 17.4,22.5 h 5.7 v -57.004" /><path
         id="path46"
         style="fill:#ffffff;fill-opacity:1;fill-rule:nonzero;stroke:none"
         d="m 2466.27,383.965 c 7.2,-0.899 11.7,-0.598 18.6,-0.598 33.29,0 55.19,14.098 55.19,50.098 0,27.898 -12.59,49.5 -58.79,49.5 -5.7,0 -9.6,0 -15,-0.602 z m 0,-56.399 c 0,-17.996 7.2,-22.5 24,-22.5 h 6.9 v -5.691 h -84.9 v 5.691 h 5.1 c 17.7,0 24,4.797 24,24.903 v 126.297 c 0,18.597 -5.1,23.996 -22.5,23.996 h -6.6 v 5.699 c 7.2,0 25.5,1.203 37.8,1.801 12.3,0.601 18.3,0.898 37.8,0.898 55.49,0 80.4,-22.797 80.4,-53.398 0,-22.5 -15.31,-41.395 -39.91,-48.598 11.11,-8.695 20.11,-17.098 34.2,-31.195 l 23.7,-23.703 c 17.7,-17.703 36,-28.797 59.11,-30.301 v -5.391 c -52.5,-2.402 -66,8.992 -92.7,35.692 l -19.8,19.797 c -13.2,13.203 -23.7,21.902 -30.9,26.703 -7.5,-0.297 -12.3,-0.598 -20.4,-0.598 -6.6,0 -10.5,0.301 -15.3,0.598 v -50.7" /><path
         id="path48"
         style="fill:#ffffff;fill-opacity:1;fill-rule:nonzero;stroke:none"
         d="m 2661.87,260.371 c 15,8.699 23.1,19.199 23.1,30 0,3.594 -1.21,6.301 -4.2,6.301 -2.71,0 -3.9,-0.902 -7.2,-0.902 -7.8,0 -13.5,5.695 -13.5,13.496 0,8.097 7.19,14.699 16.19,14.699 12.01,0 21,-10.488 21,-24.895 0,-18.601 -13.5,-36.601 -33.3,-44.101 l -2.09,5.402" /><path
         id="path50"
         style="fill:#ffffff;fill-opacity:1;fill-rule:nonzero;stroke:none"
         d="m 5162.24,260.371 c 15,8.699 23.1,19.199 23.1,30 0,3.594 -1.2,6.301 -4.2,6.301 -2.71,0 -3.9,-0.902 -7.2,-0.902 -7.8,0 -13.5,5.695 -13.5,13.496 0,8.097 7.19,14.699 16.2,14.699 12,0 20.99,-10.488 20.99,-24.895 0,-18.601 -13.49,-36.601 -33.3,-44.101 l -2.09,5.402" /><path
         id="path52"
         style="fill:#ffffff;fill-opacity:1;fill-rule:nonzero;stroke:none"
         d="m 2880.6,299.375 -76.49,159.887 h -0.6 l -8.1,-134.996 c -0.9,-15.301 10.5,-18.602 24,-19.2 v -5.691 h -62.4 v 5.691 c 21.89,0 24.6,4.797 26.1,32.102 l 7.2,116.695 c 1.2,19.797 0.6,25.2 -18,26.399 v 5.402 h 45.3 l 72.29,-151.191 72,151.191 h 44.1 v -5.402 c -14.7,-1.199 -20.4,-1.496 -19.79,-11.699 l 9.59,-135.887 c 1.79,-27.61 4.2,-27.61 26.1,-27.61 v -5.691 h -77.1 v 5.691 c 14.1,0 27.9,3.899 26.7,19.797 l -8.69,134.399 h -0.61 l -74.7,-159.887 h -6.9" /><path
         id="path54"
         style="fill:#ffffff;fill-opacity:1;fill-rule:nonzero;stroke:none"
         d="m 3116.11,465.262 -25.51,-69.895 h 51.9 z m -30.61,-83.094 -17.4,-47.102 c -2.09,-5.691 -6,-14.695 -6,-18.894 0,-8.106 7.81,-11.106 24.3,-11.106 h 4.81 v -5.691 h -69.3 v 5.691 c 19.49,0.305 22.79,3.606 32.4,29.7 l 54.59,149.097 -2.69,6.602 h 26.09 l 62.7,-166.5 c 6,-15.899 12.3,-18.899 27.3,-18.899 v -5.691 h -82.5 v 5.691 h 7.8 c 17.1,0 23.4,1.809 23.4,10.207 0,4.793 -2.1,9.297 -3.3,12.293 l -20.1,54.602 h -62.1" /><path
         id="path56"
         style="fill:#ffffff;fill-opacity:1;fill-rule:nonzero;stroke:none"
         d="m 3310.82,326.973 c 0,-16.203 5.39,-21.907 23.69,-21.907 h 11.1 v -5.691 h -94.5 v 5.691 h 11.11 c 18.29,0 23.69,5.704 23.69,21.907 V 475.16 h -52.19 c -12.01,0 -17.4,-6.898 -21.91,-33.297 h -5.39 l 4.8,48.602 h 5.7 c 0.3,-1.805 1.49,-3.004 3.29,-3.606 1.81,-0.593 3.91,-0.898 6.01,-0.898 h 144.29 c 4.2,0 8.7,0.898 9.3,4.504 h 5.69 l 4.81,-48.602 h -5.39 c -4.51,26.399 -9.91,33.297 -21.91,33.297 h -52.19 V 326.973" /><path
         id="path58"
         style="fill:#ffffff;fill-opacity:1;fill-rule:nonzero;stroke:none"
         d="m 3465.31,388.465 v -57 c 0,-19.492 3.9,-26.399 24,-26.399 h 0.9 v -5.691 h -75.29 v 5.691 h 1.79 c 17.7,0 23.7,4.797 23.7,21.907 v 131.992 c 0,15.594 -5.1,20.098 -21.6,21.297 v 5.699 h 71.4 v -5.699 c -21.3,0 -24.9,-5.703 -24.9,-28.797 v -52.199 h 117.6 v 59.097 c 0,15.899 -5.1,21.899 -23.7,21.899 h -5.7 v 5.699 h 77.09 v -5.699 c -18,-0.598 -22.79,-6 -22.79,-24.598 V 331.172 c 0,-21.309 5.99,-26.106 23.99,-26.106 h 3 v -5.691 h -84.89 v 5.691 h 9.3 c 19.5,0 23.7,6.907 23.7,22.5 v 60.899 h -117.6" /><path
         id="path60"
         style="fill:#ffffff;fill-opacity:1;fill-rule:nonzero;stroke:none"
         d="m 3791.7,366.863 h -5.69 c -2.4,21.301 -8.1,23.703 -20.4,23.703 h -50.7 v -63.894 c 0,-13.801 5.09,-16.496 16.2,-16.496 h 46.2 c 21,0 27.29,8.094 34.79,33.887 h 5.4 l -4.8,-44.688 h -159.29 v 5.691 h 8.4 c 24.01,0 28.2,6.606 28.2,24.602 v 126.598 c 0,16.797 -3.9,23.996 -24,23.996 h -6.6 v 5.699 h 143.99 l 2.41,-41.699 h -5.4 c -3.9,25.504 -11.4,30.898 -22.2,30.898 h -63.3 v -73.793 h 53.7 c 10.8,0 15.9,5.098 17.4,22.5 h 5.69 v -57.004" /><path
         id="path62"
         style="fill:#ffffff;fill-opacity:1;fill-rule:nonzero;stroke:none"
         d="m 3964.2,299.375 -76.49,159.887 h -0.61 l -8.09,-134.996 c -0.9,-15.301 10.5,-18.602 23.99,-19.2 v -5.691 h -62.39 v 5.691 c 21.89,0 24.6,4.797 26.09,32.102 l 7.21,116.695 c 1.2,19.797 0.6,25.2 -18,26.399 v 5.402 h 45.3 l 72.29,-151.191 72,151.191 h 44.09 v -5.402 c -14.69,-1.199 -20.39,-1.496 -19.79,-11.699 l 9.6,-135.887 c 1.8,-27.61 4.2,-27.61 26.1,-27.61 v -5.691 h -77.1 v 5.691 c 14.1,0 27.9,3.899 26.7,19.797 l -8.7,134.399 h -0.6 l -74.69,-159.887 h -6.91" /><path
         id="path64"
         style="fill:#ffffff;fill-opacity:1;fill-rule:nonzero;stroke:none"
         d="m 4199.7,465.262 -25.5,-69.895 h 51.9 z m -30.59,-83.094 -17.41,-47.102 c -2.1,-5.691 -5.99,-14.695 -5.99,-18.894 0,-8.106 7.79,-11.106 24.29,-11.106 h 4.8 v -5.691 h -69.3 v 5.691 c 19.5,0.305 22.81,3.606 32.41,29.7 l 54.59,149.097 -2.7,6.602 h 26.1 l 62.7,-166.5 c 6,-15.899 12.3,-18.899 27.3,-18.899 v -5.691 h -82.5 v 5.691 h 7.81 c 17.1,0 23.39,1.809 23.39,10.207 0,4.793 -2.1,9.297 -3.3,12.293 l -20.09,54.602 h -62.1" /><path
         id="path66"
         style="fill:#ffffff;fill-opacity:1;fill-rule:nonzero;stroke:none"
         d="m 4391.41,326.973 c 0,-16.203 5.4,-21.907 23.7,-21.907 h 11.11 v -5.691 h -94.51 v 5.691 h 11.11 c 18.3,0 23.7,5.704 23.7,21.907 V 475.16 h -52.21 c -11.99,0 -17.39,-6.898 -21.89,-33.297 h -5.4 l 4.8,48.602 h 5.69 c 0.31,-1.805 1.51,-3.004 3.31,-3.606 1.79,-0.593 3.89,-0.898 5.99,-0.898 h 144.3 c 4.2,0 8.7,0.898 9.3,4.504 h 5.7 l 4.8,-48.602 h -5.4 c -4.5,26.399 -9.9,33.297 -21.9,33.297 h -52.2 V 326.973" /><path
         id="path68"
         style="fill:#ffffff;fill-opacity:1;fill-rule:nonzero;stroke:none"
         d="m 4563.91,299.375 h -72.9 v 5.691 c 18.6,0.911 22.5,5.704 22.5,25.801 V 458.66 c 0,16.203 -5.7,20.703 -22.5,21.602 v 5.699 h 72.9 v -5.699 c -18.9,0 -25.5,-4.199 -25.5,-24.301 V 328.77 c 0,-17.696 4.8,-23.704 25.5,-23.704 v -5.691" /><path
         id="path70"
         style="fill:#ffffff;fill-opacity:1;fill-rule:nonzero;stroke:none"
         d="m 4766.4,436.762 c -9.9,27.902 -35.69,46.203 -68.4,46.203 -50.09,0 -81.29,-36.301 -81.29,-86.699 0,-54.293 39,-94.196 84.59,-94.196 23.7,0 52.81,8.106 73.21,44.395 h 5.69 c -3.9,-13.496 -11.99,-32.09 -19.2,-43.789 -19.2,2.695 -32.39,-8.106 -67.79,-8.106 -60.9,0 -104.7,40.196 -104.7,95.7 0,58.191 45,100.195 107.7,100.195 37.8,0 53.99,-12.004 63.3,-12.004 3.3,0 4.79,0.902 5.4,1.801 h 4.49 l 2.7,-43.5 h -5.7" /><path
         id="path72"
         style="fill:#ffffff;fill-opacity:1;fill-rule:nonzero;stroke:none"
         d="m 4876.58,465.262 -25.5,-69.895 h 51.89 z m -30.61,-83.094 -17.39,-47.102 c -2.1,-5.691 -6.01,-14.695 -6.01,-18.894 0,-8.106 7.81,-11.106 24.31,-11.106 h 4.79 v -5.691 h -69.29 v 5.691 c 19.5,0.305 22.8,3.606 32.4,29.7 l 54.59,149.097 -2.7,6.602 h 26.11 l 62.69,-166.5 c 6,-15.899 12.3,-18.899 27.3,-18.899 v -5.691 h -82.5 v 5.691 h 7.8 c 17.1,0 23.4,1.809 23.4,10.207 0,4.793 -2.1,9.297 -3.3,12.293 l -20.1,54.602 h -62.1" /><path
         id="path74"
         style="fill:#ffffff;fill-opacity:1;fill-rule:nonzero;stroke:none"
         d="m 5115.37,299.375 h -134.1 v 5.691 h 9.91 c 13.8,0 18.89,4.504 18.89,19.797 v 132.899 c 0,15.898 -4.8,22.5 -23.7,22.5 h -4.2 v 5.699 h 88.5 v -5.699 h -11.09 c -19.51,0 -24.6,-2.098 -24.6,-20.696 V 321.27 c 0,-8.106 3.3,-11.094 11.99,-11.094 h 44.1 c 17.69,0 23.1,6.894 42,32.988 h 5.4 l -23.1,-43.789" /><path
         id="path76"
         style="fill:#ffffff;fill-opacity:1;fill-rule:nonzero;stroke:none"
         d="m 986.684,188.262 c -12.297,0 -19.797,-8.399 -19.797,-21.602 0,-12.597 7.5,-24.894 22.199,-35.996 13.804,8.106 19.494,17.402 19.494,32.402 0,15.293 -8.697,25.196 -21.896,25.196 z M 977.688,30.1758 c 17.394,0 39.892,11.6992 52.792,27.293 -13.19,22.1992 -31.792,42.0039 -56.996,59.3942 -22.796,-15.898 -32.097,-29.9997 -32.097,-48.6013 0,-22.7929 14.703,-38.0859 36.301,-38.0859 z M 1119.28,144.766 v -5.403 c -16.8,0 -21.3,-1.492 -25.5,-5.691 -6,-6.004 -21,-36.9064 -45,-64.8048 16.5,-25.5 21.6,-43.4961 36,-43.4961 6,0 13.5,3.3008 23.4,10.1953 l 2.7,-4.7969 c -12.9,-10.2031 -25.5,-15.5937 -36.9,-15.5937 -18.6,0 -23.7,6.8945 -40.2,37.1875 -22.19,-23.6914 -47.096,-37.1875 -68.393,-37.1875 -27.301,0 -48.602,21.5898 -48.602,49.4922 0,24.5976 14.703,40.5 52.5,55.801 -12.898,11.094 -21.297,26.094 -21.297,38.996 0,21.004 16.196,34.793 40.797,34.793 22.205,0 38.095,-11.992 38.095,-29.09 0,-13.801 -12,-27.297 -33.896,-38.098 19.506,-13.203 37.806,-31.5036 52.196,-53.1052 14.1,17.6954 37.5,51.2972 37.5,59.3942 0,4.2 -3.3,6.004 -16.5,6.004 v 5.403 h 53.1" /><path
         id="path78"
         style="fill:#ffffff;fill-opacity:1;fill-rule:nonzero;stroke:none"
         d="m 2806.34,64.9688 c 6.31,-26.6993 27.31,-42.293 50.71,-42.293 20.09,0 41.39,11.6992 41.39,35.3906 0,43.2036 -96.3,56.4066 -96.3,108.8986 0,24.898 22.81,43.504 53.4,43.504 25.2,0 30.3,-7.5 40.8,-7.5 2.41,0 3.6,0.594 5.4,2.988 h 4.8 l 5.11,-38.086 h -5.11 c -8.4,21.594 -27.6,35.391 -48.29,35.391 -19.8,0 -33.61,-11.399 -33.61,-28.203 0,-42.598 96.3,-53.996 96.3,-109.1918 0,-29.4024 -26.1,-51.2969 -61.2,-51.2969 -16.49,0 -37.5,8.1055 -41.7,8.1055 -2.69,0 -4.79,-1.5039 -5.99,-3.3008 h -5.1 l -6.3,45.5938 h 5.69" /><path
         id="path80"
         style="fill:#ffffff;fill-opacity:1;fill-rule:nonzero;stroke:none"
         d="m 3121.94,156.758 c -9.9,27.91 -35.69,46.211 -68.4,46.211 -50.1,0 -81.3,-36.309 -81.3,-86.699 0,-54.2973 39.01,-94.1997 84.6,-94.1997 23.7,0 52.8,8.1055 73.19,44.3945 h 5.71 c -3.91,-13.496 -12,-32.0898 -19.2,-43.789 -19.2,2.6953 -32.4,-8.1055 -67.79,-8.1055 -60.9,0 -104.71,40.1953 -104.71,95.7027 0,58.184 45,100.196 107.69,100.196 37.82,0 54.01,-12.012 63.3,-12.012 3.3,0 4.81,0.906 5.41,1.805 h 4.5 l 2.69,-43.504 h -5.69" /><path
         id="path82"
         style="fill:#ffffff;fill-opacity:1;fill-rule:nonzero;stroke:none"
         d="m 3233.54,19.375 h -72.9 v 5.6914 c 18.59,0.9102 22.5,5.7031 22.5,25.8008 V 178.66 c 0,16.203 -5.7,20.703 -22.5,21.602 v 5.695 h 72.9 v -5.695 c -18.9,0 -25.5,-4.199 -25.5,-24.305 V 48.7695 c 0,-17.6953 4.8,-23.7031 25.5,-23.7031 V 19.375" /><path
         id="path84"
         style="fill:#ffffff;fill-opacity:1;fill-rule:nonzero;stroke:none"
         d="m 3395.23,86.8633 h -5.69 c -2.41,21.3007 -8.1,23.7027 -20.4,23.7027 h -50.71 V 46.6719 c 0,-13.8008 5.1,-16.4961 16.21,-16.4961 h 46.19 c 21,0 27.31,8.0937 34.81,33.8867 h 5.39 l -4.79,-44.6875 h -159.3 v 5.6914 h 8.4 c 23.99,0 28.2,6.6055 28.2,24.6016 V 176.27 c 0,16.796 -3.9,23.992 -23.99,23.992 h -6.61 v 5.695 h 143.99 l 2.4,-41.699 h -5.39 c -3.91,25.508 -11.41,30.898 -22.21,30.898 h -63.3 v -73.789 h 53.7 c 10.8,0 15.9,5.098 17.41,22.5 h 5.69 V 86.8633" /><path
         id="path86"
         style="fill:#ffffff;fill-opacity:1;fill-rule:nonzero;stroke:none"
         d="M 3643.93,17.2656 3488.53,179.863 V 51.1719 c 0,-21.6016 4.8,-26.1055 30.3,-26.1055 V 19.375 h -69.6 v 5.6914 h 1.21 c 18.6,0 24.59,6.3008 24.59,20.1094 V 192.762 c -6.89,4.797 -14.69,7.199 -25.19,7.5 v 5.695 h 47.09 L 3638.23,58.6719 V 178.066 c 0,18.301 -5.4,21.602 -29.4,22.196 v 5.695 h 70.2 v -5.695 c -22.5,0 -27.3,-3.895 -27.3,-15.594 V 17.2656 h -7.8" /><path
         id="path88"
         style="fill:#ffffff;fill-opacity:1;fill-rule:nonzero;stroke:none"
         d="m 3868.63,156.758 c -9.9,27.91 -35.71,46.211 -68.4,46.211 -50.1,0 -81.3,-36.309 -81.3,-86.699 0,-54.2973 38.99,-94.1997 84.6,-94.1997 23.7,0 52.79,8.1055 73.19,44.3945 h 5.71 c -3.9,-13.496 -12.01,-32.0898 -19.2,-43.789 -19.2,2.6953 -32.4,-8.1055 -67.81,-8.1055 -60.89,0 -104.68,40.1953 -104.68,95.7027 0,58.184 45,100.196 107.69,100.196 37.8,0 54,-12.012 63.29,-12.012 3.3,0 4.81,0.906 5.4,1.805 h 4.51 l 2.7,-43.504 h -5.7" /><path
         id="path90"
         style="fill:#ffffff;fill-opacity:1;fill-rule:nonzero;stroke:none"
         d="m 4034.53,86.8633 h -5.71 c -2.4,21.3007 -8.09,23.7027 -20.4,23.7027 h -50.69 V 46.6719 c 0,-13.8008 5.1,-16.4961 16.2,-16.4961 h 46.19 c 21.01,0 27.31,8.0937 34.81,33.8867 h 5.4 l -4.81,-44.6875 h -159.28 v 5.6914 h 8.39 c 24,0 28.2,6.6055 28.2,24.6016 V 176.27 c 0,16.796 -3.9,23.992 -24,23.992 h -6.6 v 5.695 h 144 l 2.4,-41.699 h -5.4 c -3.91,25.508 -11.41,30.898 -22.2,30.898 h -63.3 v -73.789 h 53.7 c 10.79,0 15.9,5.098 17.39,22.5 h 5.71 V 86.8633" /><path
         id="path92"
         style="fill:#ffffff;fill-opacity:1;fill-rule:nonzero;stroke:none"
         d="m 4087.92,64.9688 c 6.3,-26.6993 27.31,-42.293 50.71,-42.293 20.1,0 41.39,11.6992 41.39,35.3906 0,43.2036 -96.29,56.4066 -96.29,108.8986 0,24.898 22.8,43.504 53.39,43.504 25.21,0 30.31,-7.5 40.8,-7.5 2.41,0 3.61,0.594 5.41,2.988 h 4.79 l 5.11,-38.086 h -5.11 c -8.4,21.594 -27.6,35.391 -48.29,35.391 -19.81,0 -33.6,-11.399 -33.6,-28.203 0,-42.598 96.29,-53.996 96.29,-109.1918 0,-29.4024 -26.1,-51.2969 -61.2,-51.2969 -16.49,0 -37.5,8.1055 -41.7,8.1055 -2.69,0 -4.79,-1.5039 -5.99,-3.3008 h -5.1 l -6.3,45.5938 h 5.69" /><path
         id="path94"
         style="fill:#ffffff;fill-opacity:1;fill-rule:nonzero;stroke:none"
         d="m 111.441,360.719 c 0,-138.746 112.454,-251.227 251.219,-251.227 138.77,0 251.246,112.481 251.246,251.227 0,138.738 -112.476,251.219 -251.246,251.219 -138.765,0 -251.219,-112.481 -251.219,-251.219" /><path
         id="path96"
         style="fill:#fcd213;fill-opacity:1;fill-rule:nonzero;stroke:none"
         d="m 613.883,366.313 c 0,-1.114 -4.469,-4.864 -9.242,-7.762 -0.114,-0.059 -0.231,-0.149 -0.344,-0.215 -6.504,-3.516 -15.668,-6.813 -27.106,-9.82 -11.726,-3.106 -26.199,-5.879 -42.097,-8.34 -15.953,-2.442 -33.664,-4.278 -52.797,-5.938 0,0.02 0,-0.039 0,0 -24.43,-2.207 -39.813,-3.144 -59.309,-4.101 -20.703,-0.86 -42.226,-1.309 -64.043,-1.27 0,-2.793 0.02,-5.586 0.02,-8.34 0.023,-19.648 0.082,-38.359 0.176,-55.976 0.492,-96.446 0.629,-96.387 3.519,-155.059 138.77,0 251.246,112.481 251.246,251.227 0,0 -0.023,3.633 -0.023,5.594" /><path
         id="path98"
         style="fill:#231f20;fill-opacity:1;fill-rule:nonzero;stroke:none"
         d="m 456.188,135.508 v 0.019 -0.019" /><path
         id="path100"
         style="fill:#231f20;fill-opacity:1;fill-rule:nonzero;stroke:none"
         d="m 358.965,320.527 c 0.023,-19.648 0.082,-38.359 0.176,-55.976 40.273,-38.125 40.273,-38.125 57.043,-54.942 4.441,31.914 6.906,70 6.863,112.207 -0.012,2.793 -0.035,5.547 -0.059,8.321 -25.445,-1.016 -42.226,-1.309 -64.043,-1.27 0,-2.793 0.02,-5.586 0.02,-8.34" /><path
         id="path102"
         style="fill:#231f20;fill-opacity:1;fill-rule:nonzero;stroke:none"
         d="m 451.148,166.699 c -8.8,14.317 -16.824,23.653 -35.003,42.774 -8.551,-61.172 -23.786,-98.848 -42.536,-99.649 1.582,0.059 4.032,0.196 5.614,0.313 2.007,0.136 4.437,0.332 6.445,0.488 25.992,2.324 48.352,22.285 65.48,56.074" /><path
         id="path104"
         style="fill:#231f20;fill-opacity:1;fill-rule:nonzero;stroke:none"
         d="m 479.301,269.238 c 0.023,0.391 -14.465,-75.449 -28.153,-102.539 7.872,-15.176 8.215,-21.211 5.04,-31.172 24.402,18.496 44.5,46.426 58.367,80.996 -8.871,18.106 -14.95,27.735 -35.254,52.715" /><path
         id="path106"
         style="fill:#231f20;fill-opacity:1;fill-rule:nonzero;stroke:none"
         d="m 407.363,113.438 c 5.473,0.917 5.172,1.074 15.282,3.32 l 6.023,1.758 c 18.555,5.742 21.816,8.672 27.586,17.246 -16.559,-12.461 -34.266,-20.098 -54.035,-23.164 l 5.144,0.84" /><path
         id="path108"
         style="fill:#231f20;fill-opacity:1;fill-rule:nonzero;stroke:none"
         d="m 519.023,175.078 c 36.235,41.035 58.356,98.985 58.262,165.098 0,2.793 -0.023,5.547 -0.094,8.34 -11.726,-3.106 -26.199,-5.879 -42.097,-8.34 0.226,-2.754 0.297,-5.606 0.297,-8.399 0.093,-42.988 -7.211,-82.07 -20.512,-115.097 7.465,-19.16 7.601,-27.207 4.144,-41.602" /><path
         id="path110"
         style="fill:#231f20;fill-opacity:1;fill-rule:nonzero;stroke:none"
         d="m 482.297,334.238 c -24.43,-2.207 -39.813,-3.144 -59.309,-4.101 34.446,-35.782 41.77,-44.199 56.313,-60.899 2.054,17.793 3.109,36.641 3.101,56.348 -0.015,2.832 -0.047,5.801 -0.105,8.652" /><path
         id="path112"
         style="fill:#231f20;fill-opacity:1;fill-rule:nonzero;stroke:none"
         d="m 307.582,598.969 c 14,5.676 27.461,11.543 54.574,13.066 v 0 c -18.355,-1.66 -37.523,-6.797 -54.574,-13.066" /><path
         id="path114"
         style="fill:#e22739;fill-opacity:1;fill-rule:nonzero;stroke:none"
         d="m 530.895,340.195 c -13.09,1.758 -24.043,23.864 -18.278,46.352 -18.394,-12.695 -39.121,13.437 -36.07,37.598 1.578,12.812 9.969,24.171 24.621,18.918 -5.953,20.437 -13.402,39.773 -22.121,57.597 -12.973,-1.652 -27.215,-3.019 -42.332,-4.074 13.437,-20.313 0.254,-39.188 -18.496,-36.172 -13.574,2.188 -26.25,16.438 -22.711,33.391 -11.02,-7.649 -33.606,-4.629 -35.738,19.433 -0.575,-51.074 -0.891,-116.425 -0.825,-184.371 66.762,-0.683 145,6.446 176.149,11.309 0,0 0,-0.098 0,0 -1.301,-0.098 -2.953,-0.117 -4.199,0.019" /><path
         id="path116"
         style="fill:#e22739;fill-opacity:1;fill-rule:nonzero;stroke:none"
         d="m 200.336,289.785 c 18.684,7.207 42.16,-25.097 33.937,-46.66 -3.781,-9.961 -13.609,-12.715 -23.89,-6.738 5.558,-18.828 12.769,-36.074 21.39,-51.309 13.2,-1.816 28.036,-3.398 44.266,-4.609 -13.027,16.035 -2.578,29.179 14.801,28.301 14.93,-0.762 34.707,-13.184 30.453,-30.157 13.43,6.075 36.156,1.153 38.895,-16.367 -0.645,37.676 -1.083,92.988 -1.2,158.281 0,2.852 -0.043,5.469 -0.043,8.34 -21.195,-0.058 -42.675,0.742 -64.062,1.602 -45.426,1.875 -76.309,4.511 -114.336,10.976 0,-0.117 0.016,0.118 0,0 19.488,-6.601 24.84,-35.586 19.789,-51.66" /><path
         id="path118"
         style="fill:#e22739;fill-opacity:1;fill-rule:nonzero;stroke:none"
         d="m 481.699,521.246 v 0 0 c 0.071,0.008 0.137,0.02 0.196,0.02 h -0.008 c 0,0 0.066,0.007 0.125,0.039 2.453,0.39 4.73,0.789 6.933,1.191 14.395,2.637 47.016,10.449 47.016,19.961 0,0 12.773,-12.824 22.18,-30.644 1.097,-1.946 1.839,-3.723 2.851,-6.516 1.102,-3.172 1.801,-6.817 1.684,-8.574 -0.414,-5.418 -3.871,-5.508 -7.473,-3.926 -0.363,0.137 -0.734,0.273 -1.148,0.469 -12.903,5.82 -17.153,17.675 -19.637,22.539 -6.566,-2.051 -17.422,-6.797 -26.43,-8.535 -1.062,-0.204 -2.976,-0.653 -4.066,-0.848 10.652,-17.551 20.773,-38.438 28.055,-58.672 12.656,13.008 32.453,-11.125 33.394,-34.426 0.574,-13.691 -5.574,-25.867 -18.098,-21.472 10.008,-18.536 6.829,-45.739 -12.179,-51.676 -3.184,60.961 -13.508,115.054 -53.656,180.941 h -0.012 v 0" /><path
         id="path120"
         style="fill:#e22739;fill-opacity:1;fill-rule:nonzero;stroke:none"
         d="m 481.426,521.117 v 0 0 0 0 c -31.988,48.887 -57.246,66.66 -89.692,79.473 -6.476,2.539 -28.449,11.144 -29.578,11.445 l 0.106,-0.215 v 0 c 5.73,-8.359 17.191,-13.308 19.672,-14.062 -0.704,-3.055 -0.161,-9.11 10.402,-16.778 1.633,-1.179 3.238,-2.128 4.781,-2.871 16.321,-8.535 19.899,-1.894 20.688,0.762 0.082,0.078 0.183,0.137 0.277,0.227 5,-3.684 14.691,-11.516 25.41,-23.633 6.176,-7.414 12,-13.879 16.406,-20.383 -10.093,-1.277 -23.472,-2.461 -36.714,-3.398 -0.746,16.035 -12.317,24.035 -19.59,26.73 -15.918,5.918 -21.133,-12.812 -14.254,-25.969 -12.582,6.789 -27.492,0.735 -29.578,-19.179 49.754,0.293 83.867,2.492 121.664,7.851 h 0.012 l -0.012,0.012" /><path
         id="path122"
         style="fill:#e22739;fill-opacity:1;fill-rule:nonzero;stroke:none"
         d="m 484.555,566.664 c -0.137,0.227 -0.262,1.074 -0.09,1.75 0.148,0.664 0.691,1.199 0.691,1.199 0,0 0.278,0.637 1.223,1.192 2.559,1.476 10.148,2.226 31.195,-12.305 -43.57,34.277 -90.484,48.34 -130.289,52.266 -5.629,0.625 -16.031,1.054 -16.031,1.054 12.672,-1.121 21.269,-4.48 23.277,-5.195 1.629,-0.547 2.91,-1.406 3.684,-2.098 0.078,0.02 0.137,0.02 0.137,0.02 2.5,-0.274 5.41,-0.793 8.953,-1.797 3.906,-1.133 10.386,-3.496 16.14,-6.242 5.793,-2.723 14.375,-8.848 14.422,-12.293 -1.324,-0.793 -1.738,-1.027 -5.64,0 14.859,-10.578 36.171,-30.527 48.757,-45.254 8.668,1.648 21.551,3.496 27.532,5.516 -0.414,-0.43 -19.672,14.015 -23.961,22.187" /><path
         id="path124"
         style="fill:#e22739;fill-opacity:1;fill-rule:nonzero;stroke:none"
         d="m 229.156,171.172 c -21.574,3.906 -33.953,7.129 -42.215,11.367 -1.371,0.723 -1.796,0.723 -2.113,0.781 -0.199,0.059 -12.277,12.422 -22.898,26.211 -7.727,10 -14.231,21.309 -14.926,22.344 0.074,-0.098 1.742,0 2.777,-0.312 11.278,-3.75 28.914,-34.571 29.11,-34.922 6.992,-2.578 16.07,-5.02 27.047,-7.246 -10.309,15.546 -18.961,32.988 -25.606,52.031 -15.668,-7.91 -35.652,33.515 -29.332,50.957 1.289,3.594 5.426,10.996 16.066,2.988 -8.007,18.418 -5.82,46.113 13.481,46.074 0.437,-61.074 8.808,-113.711 48.609,-170.273" /><path
         id="path126"
         style="fill:#e22739;fill-opacity:1;fill-rule:nonzero;stroke:none"
         d="M 359.828,158.711 C 357.645,150 345.449,141.66 328.176,148.73 c 8.078,-10.664 1.07,-19.863 -13.117,-17.304 -11.051,2.012 -24.153,10.898 -25.18,19.765 -13.652,1.075 -26.129,2.364 -37.227,3.907 10.551,-12.246 22.286,-22.246 34.969,-29.649 1.524,0.606 3.871,0.469 11.387,-2.187 9.644,-3.399 18.84,-7.91 28.437,-11.328 0,0 -2.023,0.312 -2.011,0.312 -7.321,1.113 -9.094,1.524 -13.188,2.324 -18.476,3.653 -50.73,14.16 -83.09,56.602 h -0.015 0.015 v 0 c 38.992,-6.016 76.973,-8.633 131.047,-8.965 -0.109,-1.055 -0.137,-2.48 -0.375,-3.496" /><path
         id="path128"
         style="fill:#fcd213;fill-opacity:1;fill-rule:nonzero;stroke:none"
         d="m 362.156,612.035 c -134.718,0 -248.097,-109.949 -250.679,-246.484 l 0.082,-0.223 c 0.101,-0.41 1.355,-2.93 6.632,-6.23 v 0 0 c 5.317,-3.332 13.133,-6.871 23.446,-9.508 12.773,-3.301 26.183,-5.977 38.672,-8.106 l 0.238,-0.039 c 38.027,-6.465 68.91,-9.101 114.336,-10.976 21.387,-0.86 42.867,-1.66 64.062,-1.602 -0.015,12.793 -0.093,85.778 0.493,156.235 0.07,9.093 0.179,18.593 0.324,28.144 0.535,45.91 1.523,92.649 2.394,98.789 v 0" /><path
         id="path130"
         style="fill:#231f20;fill-opacity:1;fill-rule:nonzero;stroke:none"
         d="m 482.516,139.863 c -14.203,-7.968 -16.973,-8.164 -36.055,-16.035 -5.301,-2.207 -10.273,-3.457 -15.754,-5.019 33.879,9.121 80.231,47.089 88.387,56.308 -4.121,-9.14 -7.239,-15.195 -17.231,-23.262 -2.761,-2.246 -14.75,-9.414 -19.347,-11.992" /><path
         id="path132"
         style="fill:#231f20;fill-opacity:1;fill-rule:nonzero;stroke:none"
         d="m 141.637,349.59 c -10.453,2.558 -18.129,6.176 -23.446,9.508 2.782,90.886 53.313,171.531 126.872,215.722 C 227.68,559.379 219.938,550.172 211.16,529.301 169.879,481.891 143.508,418.121 141.637,349.59" /><path
         id="path134"
         style="fill:#231f20;fill-opacity:1;fill-rule:nonzero;stroke:none"
         d="m 245.309,574.957 c 18.441,13.301 28.914,22.977 58.125,29.981 20.496,4.941 38.453,7.058 58.722,7.097 v 0 c -42.343,-1.797 -82.144,-16.289 -116.847,-37.078" /><path
         id="path136"
         style="fill:#231f20;fill-opacity:1;fill-rule:nonzero;stroke:none"
         d="m 231.871,334.531 c -18.348,1.778 -35.719,4.199 -51.324,6.914 1.039,45.532 10.562,89.215 27.047,127.887 6.375,-25.391 11.801,-39.062 29.742,-69.18 -3.215,-21.25 -5.106,-43.261 -5.465,-65.621" /><path
         id="path138"
         style="fill:#231f20;fill-opacity:1;fill-rule:nonzero;stroke:none"
         d="m 359.77,513.238 c -0.321,-27.656 -0.469,-56.093 -0.54,-78.066 -0.136,-21.738 -0.242,-37.492 -0.242,-40.539 -24.703,25.91 -37.933,40.469 -56.004,63.41 12.145,78.125 34.071,139.844 59.172,153.992 v 0 0 c -0.91,-7.422 -1.859,-51.785 -2.386,-98.797" /><path
         id="path140"
         style="fill:#231f20;fill-opacity:1;fill-rule:nonzero;stroke:none"
         d="m 271.582,516.227 c -15.793,-33.293 -27.598,-73.164 -34.098,-116.028 15.352,-22.832 24.844,-36.172 55.442,-69.633 0.363,44.907 3.984,88.481 10.082,127.661 -18.379,25.058 -24.203,36.984 -31.426,58" /><path
         id="path142"
         style="fill:#231f20;fill-opacity:1;fill-rule:nonzero;stroke:none"
         d="m 604.297,358.336 c 0.066,-2.754 0.137,-5.523 0.137,-8.316 0.136,-88.809 -43.211,-162.735 -111.121,-203.633 l -1.793,-1.348 c 31.902,19.59 72.21,52.715 97.871,107.5 27.496,54.043 24.492,113.774 24.492,113.774 -1.379,-2.43 -5.414,-5.547 -9.586,-7.977" /><path
         id="path144"
         style="fill:none;stroke:#231f20;stroke-width:7.5;stroke-linecap:round;stroke-linejoin:round;stroke-miterlimit:4;stroke-dasharray:none;stroke-opacity:1"
         d="m 604.297,358.336 c 0.066,-2.754 0.137,-5.523 0.137,-8.316 0.136,-88.809 -43.211,-162.735 -111.121,-203.633 l -1.793,-1.348 c 31.902,19.59 72.21,52.715 97.871,107.5 27.496,54.043 24.492,113.774 24.492,113.774 -1.379,-2.43 -5.414,-5.547 -9.586,-7.977 z" /><path
         id="path146"
         style="fill:#231f20;fill-opacity:1;fill-rule:nonzero;stroke:none"
         d="m 307.582,598.969 c -36.644,-14.364 -69.648,-38.965 -96.359,-69.637 -7.317,-22.844 -7.297,-35.598 -3.629,-60 16.301,38.094 39.066,71.102 65.996,95.77 8.297,14.355 13.48,22.949 33.992,33.867" /><path
         id="path148"
         style="fill:#231f20;fill-opacity:1;fill-rule:nonzero;stroke:none"
         d="m 271.488,516.07 c -4.523,20.516 -4.883,30.946 1.996,48.817 26.219,24.152 56.461,42.109 88.672,47.148 -35.265,-9.441 -67.23,-46.433 -90.668,-95.965" /><path
         id="path150"
         style="fill:#ffffff;fill-opacity:1;fill-rule:nonzero;stroke:none"
         d="m 59.7852,547.016 1.4492,-0.703 c -2.4531,-5.118 -1.3086,-7.95 3.5508,-10.36 l 20.4531,-10.156 c 9.4062,-4.68 16.5237,-15.656 8.3398,-32.109 -7.1679,-14.465 -19.0898,-17.813 -29.957,-12.442 L 41.4805,492.25 c -4.836,2.383 -6.2891,1.398 -8.918,-3.711 l -1.4414,0.703 9.668,19.492 1.4414,-0.711 -0.3321,-0.683 c -2.0703,-4.18 -1.8554,-6.543 2.5508,-8.731 l 21.0821,-10.461 c 10.2343,-5.078 19.3515,-2.128 24.9609,9.18 4.2422,8.567 5.0117,19.024 -7.8789,25.43 l -17.668,8.781 c -7.289,3.594 -9.125,3.094 -12.5508,-3.047 l -1.4453,0.711 8.836,17.813" /><path
         id="path152"
         style="fill:#ffffff;fill-opacity:1;fill-rule:nonzero;stroke:none"
         d="M 147.383,572.125 84.0625,568.148 111.82,544.77 c 4.668,-3.934 6.508,-3.692 11.145,1.796 l 1.234,-1.035 -12.656,-15.039 -1.215,1.047 0.219,0.262 c 3.363,3.996 3.09,6.437 0.129,8.945 l -31.8322,26.836 c -2.2813,-0.613 -4.2188,-1.863 -6.2149,-4.051 l -1.2266,1.043 8.5586,10.129 57.4651,3.719 -25.766,21.711 c -3.949,3.308 -5.625,2.754 -10.129,-2.324 l -1.218,1.054 12.753,15.125 1.235,-1.023 c -4.106,-4.856 -4.113,-6.594 -1.602,-8.711 l 36.114,-30.441 -1.43,-1.688" /><path
         id="path154"
         style="fill:#ffffff;fill-opacity:1;fill-rule:nonzero;stroke:none"
         d="m 178.207,599.359 -15.828,-13.132 -1.027,1.25 c 3.875,3.523 3.859,5.273 0.23,9.636 l -23.035,27.735 c -2.918,3.527 -4.957,3.468 -8.774,0.644 l -1.023,1.242 15.813,13.133 1.023,-1.238 c -4.086,-3.41 -4.762,-5.5 -1.137,-9.883 l 22.914,-27.609 c 3.188,-3.828 5.313,-4.266 9.828,-0.535 l 1.016,-1.243" /><path
         id="path156"
         style="fill:#ffffff;fill-opacity:1;fill-rule:nonzero;stroke:none"
         d="m 209.371,618.754 -39,30.207 c -4.508,3.543 -6.035,4.129 -10.484,1.523 l -0.821,1.387 20.09,11.777 0.821,-1.386 c -6.641,-4.094 -7.344,-6.574 -3.993,-9.102 l 32.313,-25.019 -6.145,36.902 c -0.394,2.52 -0.82,4.258 -1.414,5.254 -1.269,2.199 -3.597,2.012 -8.586,-0.906 l -0.797,1.406 16.926,9.922 0.821,-1.387 c -3.813,-2.238 -4.75,-5.129 -3.844,-10.684 l 7.773,-47.753 -3.66,-2.141" /><path
         id="path158"
         style="fill:#ffffff;fill-opacity:1;fill-rule:nonzero;stroke:none"
         d="m 271.539,668.395 -1.512,-0.508 c -2.617,5.449 -4.347,5.574 -7.644,4.433 l -13.528,-4.66 5.907,-17.039 c 1.258,-3.683 2.879,-3.937 5.828,-2.902 l 12.332,4.23 c 5.586,1.922 6.531,4.656 6.16,12.246 l 1.445,0.477 2.817,-12.352 -42.485,-14.64 -0.527,1.515 2.242,0.789 c 6.41,2.188 6.918,4.329 5.262,9.133 l -11.652,33.77 c -1.52,4.472 -3.239,6.043 -8.594,4.199 l -1.766,-0.606 -0.519,1.524 38.402,13.25 4.492,-10.899 -1.465,-0.515 c -3.379,6.433 -5.879,7.195 -8.761,6.211 l -16.868,-5.832 6.786,-19.688 14.312,4.942 c 2.879,0.988 3.77,2.824 2.582,7.617 l 1.508,0.508 5.246,-15.203" /><path
         id="path160"
         style="fill:#ffffff;fill-opacity:1;fill-rule:nonzero;stroke:none"
         d="m 307.113,680.141 c 1.364,0.07 2.453,0.117 4.297,0.351 2.266,0.266 3.606,0.5 5.703,0.86 2.172,-1.141 5.407,-3.211 9.535,-6.465 l 6.211,-4.903 c 8.371,-6.582 12.532,-9.324 27.153,-6.894 l -0.164,1.515 c -6.543,-0.363 -12.028,2.137 -17.575,6.504 l -7.437,5.86 c -4.414,3.496 -7.191,5.535 -10.602,7.597 6.649,2.84 10.293,8.641 9.551,14.942 -1.015,8.562 -8.758,14.121 -24.312,12.254 -5.453,-0.625 -7.118,-0.907 -10.559,-1.492 -3.422,-0.579 -8.504,-1.516 -10.508,-1.75 l 0.172,-1.602 1.856,0.215 c 4.863,0.578 6.476,-0.77 7.105,-5.965 l 4.207,-35.391 c 0.66,-5.605 -0.926,-7.168 -5.894,-7.773 l -1.426,-0.176 0.191,-1.582 23.785,2.832 -0.195,1.582 -1.93,-0.215 c -4.707,-0.566 -6.863,0.457 -7.472,5.496 z m -3.465,29.16 c 1.504,0.344 2.582,0.48 4.172,0.664 12.946,1.535 17.2,-4.082 18.118,-11.922 1.21,-10.059 -4.458,-14.746 -13.793,-15.832 -1.942,-0.242 -3.18,-0.488 -5.215,-0.469 l -3.282,27.559" /><path
         id="path162"
         style="fill:#ffffff;fill-opacity:1;fill-rule:nonzero;stroke:none"
         d="m 372.133,675.277 c 1.203,-7.644 6.758,-12.488 13.336,-12.996 5.652,-0.441 11.902,2.371 12.429,9.032 0.942,12.148 -25.843,18 -24.691,32.753 0.555,6.985 7.359,11.731 15.973,11.067 7.093,-0.559 8.355,-2.805 11.289,-3.028 0.679,-0.05 1.039,0.079 1.605,0.743 l 1.332,-0.129 0.625,-10.809 -1.449,0.125 c -1.894,6.25 -6.98,10.539 -12.809,10.996 -5.562,0.442 -9.71,-2.468 -10.066,-7.195 -0.922,-11.953 25.902,-17.305 24.684,-32.844 -0.629,-8.25 -8.457,-13.847 -18.344,-13.054 -4.637,0.371 -10.363,3.105 -11.535,3.191 -0.766,0.059 -1.387,-0.32 -1.785,-0.801 l -1.422,0.11 -0.758,12.957 1.586,-0.118" /><path
         id="path164"
         style="fill:#ffffff;fill-opacity:1;fill-rule:nonzero;stroke:none"
         d="m 437.207,653.09 -20.09,4.355 0.344,1.582 c 5.184,-0.879 6.555,0.235 7.738,5.762 l 7.676,35.227 c 0.98,4.461 -0.312,6.043 -4.895,7.304 l 0.333,1.571 20.105,-4.375 -0.348,-1.563 c -5.187,1.113 -7.277,0.352 -8.492,-5.183 l -7.625,-35.051 c -1.062,-4.891 -0.101,-6.836 5.602,-8.055 l -0.348,-1.574" /><path
         id="path166"
         style="fill:#ffffff;fill-opacity:1;fill-rule:nonzero;stroke:none"
         d="m 479.867,647.016 c -1.691,-4.258 -0.863,-6.297 3.957,-8.203 l 2.879,-1.161 -0.582,-1.496 -24.793,9.836 0.598,1.473 2.918,-1.121 c 4.789,-1.934 6.804,-0.989 8.492,3.25 l 15.414,38.867 -13.687,5.441 c -3.161,1.239 -5.301,0 -9.208,-6.476 l -1.429,0.578 6.328,12.246 1.488,-0.598 c -0.109,-0.507 0.078,-0.964 0.492,-1.289 0.414,-0.34 0.922,-0.644 1.481,-0.867 l 37.848,-14.992 c 1.105,-0.418 2.375,-0.672 2.91,0.195 l 1.492,-0.566 -3.797,-13.231 -1.406,0.547 c 1.566,7.383 0.867,9.746 -2.285,11.016 l -13.68,5.41 -15.43,-38.859" /><path
         id="path168"
         style="fill:#ffffff;fill-opacity:1;fill-rule:nonzero;stroke:none"
         d="m 566.039,641.5 c 4.836,2.363 4.289,4.441 -0.211,7.43 l 0.906,1.367 15.903,-10.633 -0.903,-1.34 c -5.023,2.852 -8.316,2.324 -12.492,0.332 l -24.91,-11.992 -7.031,-10.547 c -2.512,-3.719 -2.164,-6.082 2.14,-8.953 l 0.903,-0.625 -0.903,-1.32 -19.312,12.929 0.851,1.34 1.364,-0.91 c 4.355,-2.918 6.703,-2.148 9.011,1.309 l 6.614,9.922 0.551,27.929 c 0.187,7.715 -0.782,9.805 -5.254,12.981 l 0.898,1.336 18.711,-12.508 -0.895,-1.328 c -5.503,3.652 -6.726,2.547 -6.777,-2.09 l -0.363,-24.902 21.199,10.273" /><path
         id="path170"
         style="fill:#ffffff;fill-opacity:1;fill-rule:nonzero;stroke:none"
         d="m 643.02,536.07 c 12.097,9.246 12.464,26.746 2.757,39.481 -10.918,14.336 -28.277,17.394 -41.668,7.179 -12.562,-9.589 -12.582,-27.16 -2.531,-40.351 9.949,-13.047 27.817,-16.672 41.442,-6.309 z m -7.079,4.637 c -9.539,-7.273 -23.23,-9.422 -31.601,1.543 -8.246,10.82 -5.871,26.152 6.683,35.742 8.094,6.153 22.704,9.875 31.735,-1.98 8.488,-11.094 5.719,-25.762 -6.817,-35.305" /><path
         id="path172"
         style="fill:#ffffff;fill-opacity:1;fill-rule:nonzero;stroke:none"
         d="m 660.762,483.188 -0.621,1.289 c 4.355,2.277 4.953,4.523 3.203,8.203 l -6.75,14.133 -16.711,-7.981 c -4.293,-2.039 -5.469,-3.75 -2.695,-9.473 l -1.481,-0.671 -8.848,18.554 1.454,0.684 c 2.554,-4.582 3.96,-4.953 10.14,-1.992 l 29.938,14.285 c 4.906,2.324 6.937,3.789 4.441,9.152 l 1.461,0.684 16.336,-34.219 -9.012,-4.297 -0.621,1.309 c 4.379,2.168 5.484,4.59 3.246,9.304 l -6.933,14.512 -17.957,-8.543 7.214,-15.117 c 1.364,-2.832 3.625,-3.449 7.012,-2.109 l 0.621,-1.282 -13.437,-6.425" /><path
         id="path174"
         style="fill:#ffffff;fill-opacity:1;fill-rule:nonzero;stroke:none"
         d="m 68.3203,151.992 30.461,56.153 -0.129,0.195 -41.1093,-26.231 c -4.6524,-2.968 -3.1875,-6.992 -0.5157,-11.074 l -1.6601,-1.211 -13.2266,18.223 1.6914,1.191 c 4.6211,-6.386 6.5938,-6.152 14.8711,-0.8 l 35.5742,22.597 c 6.0357,3.828 7.4847,5.156 3.9024,10.84 l 1.5508,1.152 9.6015,-13.222 -28.789,-53.106 59.34,10.996 9.32,-12.851 -1.551,-1.172 c -3.468,4.062 -4.777,5.644 -7.625,3.301 L 102.406,125.43 c -7.6482,-6.387 -7.1404,-7.071 -2.5232,-13.457 l -1.668,-1.231 -16.3085,22.52 1.664,1.191 c 2.9766,-4.121 7.0391,-7.324 11.4141,-3.594 l 37.3706,30.996 -0.109,0.176 -62.4687,-12.09 -1.457,2.051" /><path
         id="path176"
         style="fill:#ffffff;fill-opacity:1;fill-rule:nonzero;stroke:none"
         d="m 174.117,88.5547 -5.84,-20.1758 c -0.285,-1.1133 -0.625,-2.8906 -1.644,-4.2578 -1.813,-2.4414 -4.028,-1.6211 -8.981,2.0312 l -2.265,1.6797 -1.215,-1.6406 23.949,-17.6367 1.203,1.6601 c -4.328,3.1641 -5.531,5.3907 -3.863,11.3086 l 17.336,61.7386 -7.578,5.566 -0.625,-2.5 -47.715,-31.621 c -8.324,-5.5273 -10.02,-5.7812 -15.719,-1.6992 l -1.226,-1.6797 20.109,-14.7656 1.223,1.6406 -1.399,1.0352 c -4.765,3.4961 -6.406,6.0351 -4.687,8.3984 0.91,1.211 3.961,3.0274 5.797,4.2188 l 15.109,9.9415 z m 1.344,4.9219 -15.078,11.0744 22.32,14.863 z" /><path
         id="path178"
         style="fill:#ffffff;fill-opacity:1;fill-rule:nonzero;stroke:none"
         d="m 230.938,54.6875 c 1.605,-0.6641 2.878,-1.2305 5.14,-2.0312 2.746,-0.9766 4.414,-1.4454 6.992,-2.2461 1.868,-2.5 4.379,-6.6993 7.278,-12.8125 l 4.343,-9.1016 c 5.868,-12.2656 9.071,-17.7734 27.184,-23.30079 l 0.652,1.83594 C 274.863,10.332 269.973,16.3086 266.109,24.4336 l -5.211,10.9375 c -3.078,6.4648 -5.117,10.4297 -7.839,14.707 9.211,-0.5078 16.703,4.0625 19.406,11.6992 3.691,10.4102 -2.02,21.1329 -20.887,27.8321 -6.617,2.3633 -8.703,2.9687 -12.93,4.2578 -4.261,1.2695 -10.636,3.0469 -13.058,3.9453 l -0.703,-1.9531 2.238,-0.7813 c 5.926,-2.1093 7.016,-4.5508 4.754,-10.8789 L 216.664,41.3086 c -2.43,-6.8164 -5.137,-7.6953 -11.152,-5.5664 l -1.723,0.625 -0.699,-1.9531 28.844,-10.2344 0.679,1.9336 -2.347,0.8398 c -5.7,2.0313 -7.602,4.4336 -5.438,10.5274 z m 12.554,35.3906 c 1.895,-0.4687 3.223,-0.9179 5.16,-1.582 15.696,-5.625 17.387,-14.4531 14.008,-23.9258 -4.332,-12.2265 -13.48,-14.3555 -24.773,-10.3711 -2.364,0.8203 -3.918,1.2696 -6.262,2.4414 l 11.867,33.4375" /><path
         id="path180"
         style="fill:#ffffff;fill-opacity:1;fill-rule:nonzero;stroke:none"
         d="m 353.613,56.9922 c 3.981,5.625 2.067,7.6367 -4.824,8.2226 l 0.172,2.0508 24.375,-2.0898 -0.195,-2.0313 c -7.364,0.0977 -10.754,-2.5586 -14.196,-7.3632 L 338.492,26.9922 337.105,10.8594 c -0.5,-5.70315 1.372,-8.14456 7.954,-8.71096 L 346.449,2.03125 346.266,0 316.637,2.5 316.82,4.55078 318.84,4.375 c 6.707,-0.52734 8.863,1.75781 9.301,7.0313 l 1.293,15.1757 -16.621,31.6016 c -4.567,8.75 -6.93,10.4492 -13.911,11.2891 l 0.176,2.0507 28.672,-2.4804 -0.195,-2.0313 c -8.395,0.7422 -9.094,-1.3086 -6.282,-6.5234 l 14.965,-28.0664 17.375,24.5703" /><path
         id="path182"
         style="fill:#ffffff;fill-opacity:1;fill-rule:nonzero;stroke:none"
         d="m 443.492,8.4375 -47.664,-8.085937 -0.32,2.031247 3.5,0.58594 c 4.914,0.83984 6.457,2.75391 5.535,8.16405 l -7.98,47.2656 c -0.961,5.6446 -3.063,7.6954 -9.782,6.5625 l -1.484,-0.2539 -0.34,2.0313 31.453,5.3125 0.344,-2.0313 -3.938,-0.6836 c -6.953,-1.1523 -8.621,-2.207 -7.507,-8.8281 l 8.3,-49.1601 c 0.473,-2.85161 1.844,-3.75004 4.942,-3.20317 l 15.664,2.61717 c 6.277,1.0938 7.797,3.8477 12.937,14.2578 l 1.926,0.3516 -5.586,-16.9336" /><path
         id="path184"
         style="fill:#ffffff;fill-opacity:1;fill-rule:nonzero;stroke:none"
         d="m 498.637,58.75 14.277,-15.3516 c 0.832,-0.8593 2.149,-2.0507 2.813,-3.6523 1.152,-2.793 -0.664,-4.2773 -6.364,-6.6406 l -2.601,-1.0742 0.789,-1.8946 27.445,11.4453 -0.781,1.9141 c -5.004,-2.0898 -7.516,-1.9531 -11.711,2.4609 l -43.992,46.6797 -8.684,-3.6133 1.82,-1.8359 2.567,-57.1484 C 474.625,20 474.004,18.457 467.551,15.6445 l 0.777,-1.8945 23.063,9.6289 -0.789,1.9141 -1.61,-0.7032 c -5.469,-2.2656 -8.488,-2.3828 -9.621,0.3125 -0.57,1.4063 -0.539,4.961 -0.621,7.1485 l -0.762,18.0859 z m -3.535,3.6914 -17.25,-7.207 -1.235,26.7773 z" /><path
         id="path186"
         style="fill:#ffffff;fill-opacity:1;fill-rule:nonzero;stroke:none"
         d="m 615.609,100.645 -80.496,9.531 29.571,-35.7815 c 4.929,-5.9765 7.304,-6.1328 14.402,-0.2929 l 1.289,-1.5821 -19.34,-15.9765 -1.289,1.6015 0.328,0.2735 c 5.16,4.2578 5.391,7.4023 2.211,11.2109 L 528.43,110.645 c -3.043,-0.235 -5.762,-1.348 -8.739,-3.692 l -1.336,1.563 13.094,10.82 73.098,-8.477 -27.422,33.204 c -4.195,5.058 -6.457,4.707 -13.277,-0.606 l -1.309,1.582 19.516,16.113 1.312,-1.562 c -6.265,-5.176 -6.679,-7.363 -4.008,-10.625 l 38.446,-46.504 -2.196,-1.816" /><path
         id="path188"
         style="fill:#ffffff;fill-opacity:1;fill-rule:nonzero;stroke:none"
         d="m 641.816,146.074 c 5.254,-3.418 5.164,-6.543 1.989,-11.426 l -0.996,-1.562 1.726,-1.113 18.785,29.062 c 14.844,22.988 5.278,44.238 -8.414,53.086 -15,9.649 -34.066,6.914 -49.551,-17.031 -3.058,-4.746 -6.542,-10.352 -9.585,-15.469 -3.04,-5.098 -5.735,-9.668 -7.723,-13.144 l 1.734,-1.114 1.149,1.817 c 3.48,5.351 5.925,5.957 11.828,2.148 z m -42.011,37.852 c 0.621,1.152 1.933,3.75 4.355,7.48 8.207,12.735 15.559,17.11 22.426,18.574 8.824,1.915 17.516,-0.976 24.242,-5.351 9.36,-6.016 13.645,-14.746 14.723,-20.195 2.008,-9.258 0.441,-15.489 -7.414,-27.637 -4.629,-7.188 -6.09,-6.641 -9.821,-4.219 l -48.511,31.348" /><path
         id="path190"
         style="fill:#ffffff;fill-opacity:1;fill-rule:nonzero;stroke:none"
         d="m 15.9023,381.832 v -46.305 c 0,-2.422 0.5079,-3.066 2.961,-3.066 h 4.4922 v -1.465 H 3.26953 v 1.465 h 4.32422 c 2.56255,0 3.03125,0.742 3.03125,3.125 v 39.859 C 8.06641,373.188 3.58203,370.25 0.628906,368.883 L 0,370.004 c 4.64453,3.125 11.2539,9.121 13.1602,11.828 h 2.7421" /><path
         id="path192"
         style="fill:#ffffff;fill-opacity:1;fill-rule:nonzero;stroke:none"
         d="m 60.8203,370.406 c 0,-4.551 -2.2344,-8.234 -6.6836,-11.008 -10.3125,4.375 -12.7109,7.571 -12.7109,11.965 0,5.028 4.2812,8.985 9.7773,8.985 5.5586,0 9.6172,-4.2 9.6172,-9.942 z m 4.8164,-0.097 c 0,6.375 -6.4101,11.523 -14.4258,11.523 -7.8945,0 -14.4961,-5.93 -14.4961,-12.949 0,-5.43 3.4375,-9.485 10.8985,-12.844 -7.8203,-3.109 -11.6211,-7.484 -11.6211,-13.09 0,-7.265 6.832,-13.105 15.4805,-13.105 8.914,0 15.7929,6.386 15.7929,14.687 0,6.153 -3.5976,10.375 -12.0156,14.125 7.0117,2.824 10.3867,6.563 10.3867,11.653 z m -3.4844,-27.985 c 0,-6.25 -4.5937,-11.035 -10.5937,-11.035 -6.0977,0 -10.582,5.02 -10.582,11.797 0,5.215 2.7304,9.199 8.1797,12.152 9.3125,-4.222 12.996,-7.582 12.996,-12.914" /><path
         id="path194"
         style="fill:#ffffff;fill-opacity:1;fill-rule:nonzero;stroke:none"
         d="m 659.281,376.109 h 18.907 c 1.421,0 1.914,0.301 2.324,1.016 h 1.519 l -0.898,-6.164 h -20.188 l -0.617,-14.324 c 2.461,1.355 5.34,1.98 8.594,1.98 8.945,0 16.359,-7.445 16.359,-16.449 0,-9.688 -8.039,-17.031 -18.734,-17.031 -6.379,0 -11.641,2.226 -11.641,5.019 0,1.348 1.172,2.481 2.61,2.481 4.304,0 5.828,-5.606 10.851,-5.606 5.903,0 10.946,6.172 10.946,13.438 0,7.383 -5.043,12.867 -11.915,12.867 -2.925,0 -6.043,-1.168 -8.437,-3.219 l -0.801,0.567 1.121,25.425" /><path
         id="path196"
         style="fill:#ffffff;fill-opacity:1;fill-rule:nonzero;stroke:none"
         d="m 720.566,377.125 c -16.703,-4.707 -26.777,-16.437 -26.777,-31.207 0,-12.266 6.871,-20.781 16.734,-20.781 8.524,0 15.551,7.324 15.551,16.113 0,8.164 -6.312,14.723 -14.144,14.723 -3.922,0 -7.032,-1.262 -11.34,-4.625 1.746,11.664 8.387,19.488 20.832,24.605 z m -0.484,-36.578 c 0,-9.063 -3.82,-14.102 -9.422,-14.102 -5.051,0 -10.887,4.395 -10.887,17.852 0,2.715 0.165,3.848 0.399,4.961 4.887,3.93 8.48,4.808 10.555,4.808 5.371,0 9.355,-4.964 9.355,-13.519" /><path
         id="path198"
         style="fill:#ffffff;fill-opacity:1;fill-rule:nonzero;stroke:none"
         d="M 1375.49,17.2734 1220.09,179.871 V 51.1719 c 0,-21.6016 4.8,-26.0938 30.31,-26.0938 V 19.375 h -69.6 v 5.7031 h 1.2 c 18.6,0 24.6,6.3008 24.6,20.0977 V 192.762 c -6.9,4.804 -14.71,7.207 -25.2,7.5 v 5.703 h 47.1 L 1369.79,58.6719 V 178.066 c 0,18.301 -5.4,21.602 -29.4,22.196 v 5.703 h 70.2 v -5.703 c -22.5,0 -27.3,-3.895 -27.3,-15.594 V 17.2734 h -7.8" /><path
         id="path200"
         style="fill:#ffffff;fill-opacity:1;fill-rule:nonzero;stroke:none"
         d="m 1505.21,185.262 -25.5,-69.891 h 51.9 z m -30.6,-83.094 -17.4,-47.0899 c -2.1,-5.7031 -6,-14.707 -6,-18.9062 0,-8.0977 7.8,-11.0938 24.3,-11.0938 h 4.8 V 19.375 h -69.29 v 5.7031 c 19.49,0.293 22.79,3.5938 32.39,29.6953 l 54.6,149.0936 -2.7,6.602 h 26.1 l 62.7,-166.4963 c 6,-15.8985 12.3,-18.8946 27.3,-18.8946 V 19.375 h -82.5 v 5.7031 h 7.8 c 17.1,0 23.4,1.7969 23.4,10.1953 0,4.8047 -2.1,9.2969 -3.3,12.3047 l -20.1,54.5899 h -62.1" /><path
         id="path202"
         style="fill:#ffffff;fill-opacity:1;fill-rule:nonzero;stroke:none"
         d="m 1709.47,46.9727 c 0,-16.2032 5.4,-21.8946 23.7,-21.8946 h 11.1 V 19.375 h -94.49 v 5.7031 h 11.09 c 18.3,0 23.71,5.6914 23.71,21.8946 V 195.168 h -52.2 c -12,0 -17.4,-6.898 -21.9,-33.305 h -5.4 l 4.8,48.606 h 5.7 c 0.3,-1.797 1.5,-3 3.3,-3.606 1.8,-0.593 3.9,-0.898 6,-0.898 h 144.29 c 4.2,0 8.7,0.898 9.3,4.504 h 5.7 l 4.8,-48.606 h -5.4 c -4.5,26.407 -9.9,33.305 -21.9,33.305 h -52.2 V 46.9727" /><path
         id="path204"
         style="fill:#ffffff;fill-opacity:1;fill-rule:nonzero;stroke:none"
         d="m 2034.58,205.965 v -5.703 c -20.1,-0.293 -27.3,-8.399 -27.3,-27.594 V 91.6719 c 0,-37.1992 -23.7,-77.1016 -88.8,-77.1016 -57.3,0 -86.7,32.7031 -86.7,75.6055 v 87.5972 c 0,19.2 -5.39,22.196 -25.79,22.489 v 5.703 h 77.09 v -5.703 h -2.7 c -16.5,0 -23.7,-4.492 -23.7,-21.895 V 94.9688 c 0,-40.4961 23.7,-64.793 68.4,-64.793 33.9,0 68.4,14.1015 68.4,65.0976 v 69.8946 c 0,28.797 -4.5,33.902 -29.4,35.094 v 5.703 h 70.5" /><path
         id="path206"
         style="fill:#ffffff;fill-opacity:1;fill-rule:nonzero;stroke:none"
         d="m 2104.69,103.973 c 7.2,-0.899 11.7,-0.606 18.6,-0.606 33.3,0 55.2,14.102 55.2,50.098 0,27.902 -12.6,49.504 -58.8,49.504 -5.7,0 -9.6,0 -15,-0.606 z m 0,-56.3949 c 0,-18.0078 7.2,-22.5 24,-22.5 h 6.9 V 19.375 h -84.9 v 5.7031 h 5.11 c 17.7,0 23.99,4.793 23.99,24.8907 V 176.27 c 0,18.593 -5.1,23.992 -22.5,23.992 h -6.6 v 5.703 c 7.21,0 25.51,1.203 37.8,1.797 12.3,0.605 18.3,0.91 37.8,0.91 55.5,0 80.4,-22.805 80.4,-53.399 0,-22.5 -15.3,-41.406 -39.9,-48.601 11.1,-8.7032 20.1,-17.1017 34.2,-31.2032 l 23.7,-23.6915 c 17.7,-17.707 36,-28.8007 59.09,-30.3046 v -5.3985 c -52.49,-2.4023 -65.99,9.0039 -92.69,35.7031 l -19.8,19.793 c -13.2,13.2031 -23.7,21.9063 -30.9,26.6992 -7.5,-0.3007 -12.3,-0.5937 -20.4,-0.5937 -6.6,0 -10.5,0.293 -15.3,0.5937 V 47.5781" /><path
         id="path208"
         style="fill:#ffffff;fill-opacity:1;fill-rule:nonzero;stroke:none"
         d="m 2391.04,185.262 -25.5,-69.891 h 51.9 z m -30.61,-83.094 -17.39,-47.0899 c -2.1,-5.7031 -6,-14.707 -6,-18.9062 0,-8.0977 7.8,-11.0938 24.3,-11.0938 h 4.8 V 19.375 h -69.3 v 5.7031 c 19.5,0.293 22.8,3.5938 32.4,29.6953 l 54.6,149.0936 -2.7,6.602 h 26.1 l 62.69,-166.4963 c 6,-15.8985 12.3,-18.8946 27.3,-18.8946 V 19.375 h -82.49 v 5.7031 h 7.79 c 17.1,0 23.4,1.7969 23.4,10.1953 0,4.8047 -2.1,9.2969 -3.3,12.3047 l -20.1,54.5899 h -62.1" /><path
         id="path210"
         style="fill:#ffffff;fill-opacity:1;fill-rule:nonzero;stroke:none"
         d="m 2646.42,19.375 h -134.1 v 5.7031 h 9.9 c 13.8,0 18.9,4.4922 18.9,19.793 V 177.773 c 0,15.899 -4.8,22.489 -23.7,22.489 h -4.2 v 5.703 h 88.49 v -5.703 h -11.09 c -19.51,0 -24.6,-2.098 -24.6,-20.692 V 41.2695 c 0,-8.0937 3.3,-11.0937 12,-11.0937 h 44.1 c 17.7,0 23.09,6.8945 42,33 h 5.39 L 2646.42,19.375" /></g></g></svg>