<?xml version="1.0" encoding="UTF-8" standalone="no"?>
<svg
   xmlns:dc="http://purl.org/dc/elements/1.1/"
   xmlns:cc="http://creativecommons.org/ns#"
   xmlns:rdf="http://www.w3.org/1999/02/22-rdf-syntax-ns#"
   xmlns:svg="http://www.w3.org/2000/svg"
   xmlns="http://www.w3.org/2000/svg"
   viewBox="0 0 1056 816"
   height="816"
   width="1056"
   xml:space="preserve"
   id="svg2"
   version="1.1"><metadata
     id="metadata8"><rdf:RDF><cc:Work
         rdf:about=""><dc:format>image/svg+xml</dc:format><dc:type
           rdf:resource="http://purl.org/dc/dcmitype/StillImage" /></cc:Work></rdf:RDF></metadata><defs
     id="defs6"><linearGradient
       id="linearGradient18"
       spreadMethod="pad"
       gradientTransform="matrix(375.242,1400.42,1400.42,-375.242,6063.01,2575.15)"
       gradientUnits="userSpaceOnUse"
       y2="0"
       x2="1"
       y1="0"
       x1="0"><stop
         id="stop14"
         offset="0"
         style="stop-opacity:1;stop-color:#5ac135" /><stop
         id="stop16"
         offset="1"
         style="stop-opacity:1;stop-color:#3e86cf" /></linearGradient><clipPath
       id="clipPath28"
       clipPathUnits="userSpaceOnUse"><path
         style="clip-rule:evenodd"
         id="path26"
         d="m 6013.17,3432.4 -0.6,-826.53 c 0.07,-48.9 89.9,-2.8 95.17,1.68 l 420.08,357.86 c 61.25,52.2 100.65,81.29 100.48,163.34 l -1.53,418.5 1.53,54.78 c 0.17,82.05 -37.03,119.38 -98.28,171.58 l -393.56,282.82 c -14.25,1.03 -128.06,-49.34 -124.34,-94.43 l 1.05,-529.6 z" /></clipPath><clipPath
       id="clipPath34"
       clipPathUnits="userSpaceOnUse"><path
         id="path32"
         d="M 6838.13,2580.73 H 5695.95 v 1419.55 h 1142.18 z" /></clipPath><linearGradient
       id="linearGradient40"
       spreadMethod="pad"
       gradientTransform="matrix(431.399,1610,1610,-431.399,6051.34,2485.51)"
       gradientUnits="userSpaceOnUse"
       y2="0"
       x2="1"
       y1="0"
       x1="0"><stop
         id="stop36"
         offset="0"
         style="stop-opacity:1;stop-color:#5ac135" /><stop
         id="stop38"
         offset="1"
         style="stop-opacity:1;stop-color:#3e86cf" /></linearGradient></defs><g
     transform="matrix(1.3333333,0,0,-1.3333333,0,816)"
     id="g10"><g
       transform="scale(0.1)"
       id="g12"><path
         id="path20"
         style="fill:url(#linearGradient18);fill-opacity:1;fill-rule:evenodd;stroke:none"
         d="m 6013.17,3432.4 -0.6,-826.53 c 0.07,-48.9 89.9,-2.8 95.17,1.68 l 420.08,357.86 c 61.25,52.2 100.65,81.29 100.48,163.34 l -1.53,418.5 1.53,54.78 c 0.17,82.05 -37.03,119.38 -98.28,171.58 l -393.56,282.82 c -14.25,1.03 -128.06,-49.34 -124.34,-94.43 l 1.05,-529.6 v 0" /><g
         id="g22"><g
           clip-path="url(#clipPath28)"
           id="g24"><g
             clip-path="url(#clipPath34)"
             id="g30"><path
               id="path42"
               style="fill:url(#linearGradient40);fill-opacity:1;fill-rule:nonzero;stroke:none"
               d="m 6031,2583 v 1 h -5 v 1 h -2 v 1 h -2 v 1 h -2 v 1 h -1 v 1 h -1 v 1 h -1 v 1 h -1 v 1 h -1 v 2 h -1 v 2 h -1 v 5 h -1 v 590 h 1 v 329 h -1 v 443 h -1 v 2 h 1 v 7 h 1 v 2 h 1 v 3 h 1 v 3 h 1 v 1 h 1 v 2 h 1 v 2 h 1 v 1 h 1 v 2 h 1 v 1 h 1 v 1 h 1 v 2 h 1 v 1 h 1 v 1 h 1 v 1 h 1 v 1 h 1 v 1 h 1 v 1 h 1 v 1 h 1 v 1 h 1 v 1 h 183 v -1 h 2 v -1 h 1 v -1 h 2 v -1 h 1 v -1 h 1 v -1 h 2 v -1 h 1 v -1 h 2 v -1 h 1 v -1 h 1 v -1 h 2 v -1 h 1 v -1 h 2 v -1 h 1 v -1 h 1 v -1 h 2 v -1 h 1 v -1 h 2 v -1 h 1 v -1 h 1 v -1 h 2 v -1 h 1 v -1 h 1 v -1 h 2 v -1 h 1 v -1 h 2 v -1 h 1 v -1 h 1 v -1 h 2 v -1 h 1 v -1 h 2 v -1 h 1 v -1 h 1 v -1 h 2 v -1 h 1 v -1 h 2 v -1 h 1 v -1 h 1 v -1 h 2 v -1 h 1 v -1 h 2 v -1 h 1 v -1 h 1 v -1 h 2 v -1 h 1 v -1 h 1 v -1 h 2 v -1 h 1 v -1 h 2 v -1 h 1 v -1 h 1 v -1 h 2 v -1 h 1 v -1 h 2 v -1 h 1 v -1 h 1 v -1 h 2 v -1 h 1 v -1 h 2 v -1 h 1 v -1 h 1 v -1 h 2 v -1 h 1 v -1 h 2 v -1 h 1 v -1 h 1 v -1 h 2 v -1 h 1 v -1 h 2 v -1 h 1 v -1 h 1 v -1 h 2 v -1 h 1 v -1 h 1 v -1 h 2 v -1 h 1 v -1 h 2 v -1 h 1 v -1 h 1 v -1 h 2 v -1 h 1 v -1 h 2 v -1 h 1 v -1 h 1 v -1 h 2 v -1 h 1 v -1 h 2 v -1 h 1 v -1 h 1 v -1 h 2 v -1 h 1 v -1 h 2 v -1 h 1 v -1 h 1 v -1 h 2 v -1 h 1 v -1 h 1 v -1 h 2 v -1 h 1 v -1 h 2 v -1 h 1 v -1 h 1 v -1 h 2 v -1 h 1 v -1 h 2 v -1 h 1 v -1 h 1 v -1 h 2 v -1 h 1 v -1 h 2 v -1 h 1 v -1 h 1 v -1 h 2 v -1 h 1 v -1 h 2 v -1 h 1 v -1 h 1 v -1 h 2 v -1 h 1 v -1 h 1 v -1 h 2 v -1 h 1 v -1 h 2 v -1 h 1 v -1 h 1 v -1 h 2 v -1 h 1 v -1 h 2 v -1 h 1 v -1 h 1 v -1 h 2 v -1 h 1 v -1 h 2 v -1 h 1 v -1 h 1 v -1 h 2 v -1 h 1 v -1 h 2 v -1 h 1 v -1 h 1 v -1 h 2 v -1 h 1 v -1 h 1 v -1 h 2 v -1 h 1 v -1 h 2 v -1 h 1 v -1 h 1 v -1 h 2 v -1 h 1 v -1 h 2 v -1 h 1 v -1 h 1 v -1 h 2 v -1 h 1 v -1 h 2 v -1 h 1 v -1 h 1 v -1 h 2 v -1 h 1 v -1 h 2 v -1 h 1 v -1 h 1 v -1 h 2 v -1 h 1 v -1 h 1 v -1 h 2 v -1 h 1 v -1 h 2 v -1 h 1 v -1 h 1 v -1 h 2 v -1 h 1 v -1 h 2 v -1 h 1 v -1 h 1 v -1 h 2 v -1 h 1 v -1 h 2 v -1 h 1 v -1 h 1 v -1 h 2 v -1 h 1 v -1 h 2 v -1 h 1 v -1 h 1 v -1 h 2 v -1 h 1 v -1 h 1 v -1 h 2 v -1 h 1 v -1 h 2 v -1 h 1 v -1 h 1 v -1 h 2 v -1 h 1 v -1 h 2 v -1 h 1 v -1 h 1 v -1 h 2 v -1 h 1 v -1 h 2 v -1 h 1 v -1 h 1 v -1 h 2 v -1 h 1 v -1 h 2 v -1 h 1 v -1 h 1 v -1 h 2 v -1 h 1 v -1 h 1 v -1 h 2 v -1 h 1 v -1 h 2 v -1 h 1 v -1 h 1 v -1 h 2 v -1 h 1 v -1 h 2 v -1 h 1 v -1 h 1 v -1 h 2 v -1 h 1 v -1 h 2 v -1 h 1 v -1 h 1 v -1 h 1 v -1 h 2 v -1 h 1 v -1 h 1 v -1 h 1 v -1 h 1 v -1 h 1 v -1 h 1 v -1 h 2 v -1 h 1 v -1 h 1 v -1 h 1 v -1 h 1 v -1 h 1 v -1 h 1 v -1 h 2 v -1 h 1 v -1 h 1 v -1 h 1 v -1 h 1 v -1 h 1 v -1 h 1 v -1 h 1 v -1 h 1 v -1 h 1 v -1 h 1 v -1 h 1 v -1 h 2 v -1 h 1 v -1 h 1 v -1 h 1 v -1 h 1 v -1 h 1 v -1 h 1 v -1 h 1 v -1 h 1 v -1 h 1 v -1 h 1 v -1 h 1 v -1 h 1 v -1 h 1 v -1 h 1 v -1 h 1 v -2 h 1 v -1 h 1 v -1 h 1 v -1 h 1 v -1 h 1 v -1 h 1 v -1 h 1 v -1 h 1 v -1 h 1 v -1 h 1 v -1 h 1 v -2 h 1 v -1 h 1 v -1 h 1 v -2 h 1 v -1 h 1 v -1 h 1 v -2 h 1 v -1 h 1 v -1 h 1 v -2 h 1 v -1 h 1 v -2 h 1 v -1 h 1 v -1 h 1 v -2 h 1 v -2 h 1 v -2 h 1 v -1 h 1 v -2 h 1 v -2 h 1 v -2 h 1 v -2 h 1 v -1 h 1 v -2 h 1 v -2 h 1 v -2 h 1 v -3 h 1 v -3 h 1 v -3 h 1 v -2 h 1 v -3 h 1 v -3 h 1 v -3 h 1 v -3 h 1 v -5 h 1 v -5 h 1 v -5 h 1 v -5 h 1 v -8 h 1 v -13 h 1 v -23 h -1 v -36 h -1 v -70 h 1 v -274 h 1 v -94 h -1 v -12 h -1 v -8 h -1 v -6 h -1 v -5 h -1 v -4 h -1 v -4 h -1 v -3 h -1 v -3 h -1 v -3 h -1 v -3 h -1 v -2 h -1 v -3 h -1 v -2 h -1 v -2 h -1 v -2 h -1 v -2 h -1 v -2 h -1 v -2 h -1 v -1 h -1 v -2 h -1 v -2 h -1 v -1 h -1 v -2 h -1 v -1 h -1 v -2 h -1 v -1 h -1 v -2 h -1 v -1 h -1 v -1 h -1 v -2 h -1 v -1 h -1 v -1 h -1 v -1 h -1 v -2 h -1 v -1 h -1 v -1 h -1 v -1 h -1 v -1 h -1 v -1 h -1 v -1 h -1 v -2 h -1 v -1 h -1 v -1 h -1 v -1 h -1 v -1 h -1 v -1 h -1 v -1 h -1 v -1 h -1 v -1 h -1 v -1 h -1 v -1 h -1 v -1 h -1 v -1 h -1 v -1 h -1 v -1 h -1 v -1 h -1 v -1 h -2 v -1 h -1 v -1 h -1 v -1 h -1 v -1 h -1 v -1 h -1 v -1 h -1 v -1 h -1 v -1 h -1 v -1 h -1 v -1 h -2 v -1 h -1 v -1 h -1 v -1 h -1 v -1 h -1 v -1 h -1 v -1 h -2 v -1 h -1 v -1 h -1 v -1 h -1 v -1 h -1 v -1 h -1 v -1 h -2 v -1 h -1 v -1 h -1 v -1 h -1 v -1 h -1 v -1 h -1 v -1 h -2 v -1 h -1 v -1 h -1 v -1 h -1 v -1 h -1 v -1 h -1 v -1 h -2 v -1 h -1 v -1 h -1 v -1 h -1 v -1 h -1 v -1 h -2 v -1 h -1 v -1 h -1 v -1 h -1 v -1 h -1 v -1 h -1 v -1 h -2 v -1 h -1 v -1 h -1 v -1 h -1 v -1 h -1 v -1 h -1 v -1 h -2 v -1 h -1 v -1 h -1 v -1 h -1 v -1 h -1 v -1 h -1 v -1 h -2 v -1 h -1 v -1 h -1 v -1 h -1 v -1 h -1 v -1 h -2 v -1 h -1 v -1 h -1 v -1 h -1 v -1 h -1 v -1 h -1 v -1 h -2 v -1 h -1 v -1 h -1 v -1 h -1 v -1 h -1 v -1 h -1 v -1 h -2 v -1 h -1 v -1 h -1 v -1 h -1 v -1 h -1 v -1 h -1 v -1 h -2 v -1 h -1 v -1 h -1 v -1 h -1 v -1 h -1 v -1 h -2 v -1 h -1 v -1 h -1 v -1 h -1 v -1 h -1 v -1 h -1 v -1 h -2 v -1 h -1 v -1 h -1 v -1 h -1 v -1 h -1 v -1 h -1 v -1 h -2 v -1 h -1 v -1 h -1 v -1 h -1 v -1 h -1 v -1 h -1 v -1 h -2 v -1 h -1 v -1 h -1 v -1 h -1 v -1 h -1 v -1 h -2 v -1 h -1 v -1 h -1 v -1 h -1 v -1 h -1 v -1 h -1 v -1 h -2 v -1 h -1 v -1 h -1 v -1 h -1 v -1 h -1 v -1 h -1 v -1 h -2 v -1 h -1 v -1 h -1 v -1 h -1 v -1 h -1 v -1 h -1 v -1 h -2 v -1 h -1 v -1 h -1 v -1 h -1 v -1 h -1 v -1 h -2 v -1 h -1 v -1 h -1 v -1 h -1 v -1 h -1 v -1 h -1 v -1 h -2 v -1 h -1 v -1 h -1 v -1 h -1 v -1 h -1 v -1 h -1 v -1 h -2 v -1 h -1 v -1 h -1 v -1 h -1 v -1 h -1 v -1 h -1 v -1 h -2 v -1 h -1 v -1 h -1 v -1 h -1 v -1 h -1 v -1 h -2 v -1 h -1 v -1 h -1 v -1 h -1 v -1 h -1 v -1 h -1 v -1 h -2 v -1 h -1 v -1 h -1 v -1 h -1 v -1 h -1 v -1 h -1 v -1 h -2 v -1 h -1 v -1 h -1 v -1 h -1 v -1 h -1 v -1 h -1 v -1 h -2 v -1 h -1 v -1 h -1 v -1 h -1 v -1 h -1 v -1 h -2 v -1 h -1 v -1 h -1 v -1 h -1 v -1 h -1 v -1 h -1 v -1 h -2 v -1 h -1 v -1 h -1 v -1 h -1 v -1 h -1 v -1 h -1 v -1 h -2 v -1 h -1 v -1 h -1 v -1 h -1 v -1 h -1 v -1 h -1 v -1 h -2 v -1 h -1 v -1 h -1 v -1 h -1 v -1 h -1 v -1 h -2 v -1 h -1 v -1 h -1 v -1 h -1 v -1 h -1 v -1 h -1 v -1 h -2 v -1 h -1 v -1 h -1 v -1 h -1 v -1 h -1 v -1 h -1 v -1 h -2 v -1 h -1 v -1 h -1 v -1 h -1 v -1 h -1 v -1 h -1 v -1 h -2 v -1 h -1 v -1 h -1 v -1 h -1 v -1 h -1 v -1 h -2 v -1 h -1 v -1 h -1 v -1 h -1 v -1 h -1 v -1 h -1 v -1 h -2 v -1 h -1 v -1 h -1 v -1 h -1 v -1 h -1 v -1 h -1 v -1 h -2 v -1 h -1 v -1 h -1 v -1 h -1 v -1 h -1 v -1 h -1 v -1 h -2 v -1 h -1 v -1 h -1 v -1 h -1 v -1 h -1 v -1 h -2 v -1 h -1 v -1 h -1 v -1 h -1 v -1 h -1 v -1 h -1 v -1 h -2 v -1 h -1 v -1 h -1 v -1 h -1 v -1 h -1 v -1 h -1 v -1 h -2 v -1 h -1 v -1 h -1 v -1 h -1 v -1 h -1 v -1 h -1 v -1 h -2 v -1 h -1 v -1 h -1 v -1 h -1 v -1 h -1 v -1 h -2 v -1 h -1 v -1 h -1 v -1 h -1 v -1 h -1 v -1 h -1 v -1 h -2 v -1 h -1 v -1 h -1 v -1 h -1 v -1 h -1 v -1 h -1 v -1 h -2 v -1 h -1 v -1 h -1 v -1 h -1 v -1 h -1 v -1 h -1 v -1 h -2 v -1 h -1 v -1 h -1 v -1 h -1 v -1 h -1 v -1 h -2 v -1 h -1 v -1 h -1 v -1 h -1 v -1 h -1 v -1 h -1 v -1 h -2 v -1 h -1 v -1 h -1 v -1 h -1 v -1 h -1 v -1 h -1 v -1 h -2 v -1 h -1 v -1 h -1 v -1 h -1 v -1 h -1 v -1 h -1 v -1 h -2 v -1 h -1 v -1 h -1 v -1 h -1 v -1 h -1 v -1 h -2 v -1 h -1 v -1 h -1 v -1 h -1 v -1 h -1 v -1 h -1 v -1 h -2 v -1 h -1 v -1 h -1 v -1 h -1 v -1 h -1 v -1 h -1 v -1 h -2 v -1 h -1 v -1 h -1 v -1 h -1 v -1 h -1 v -1 h -1 v -1 h -2 v -1 h -1 v -1 h -1 v -1 h -1 v -1 h -1 v -1 h -2 v -1 h -1 v -1 h -1 v -1 h -1 v -1 h -1 v -1 h -1 v -1 h -2 v -1 h -1 v -1 h -1 v -1 h -1 v -1 h -1 v -1 h -1 v -1 h -2 v -1 h -1 v -1 h -1 v -1 h -1 v -1 h -1 v -1 h -1 v -1 h -2 v -1 h -1 v -1 h -1 v -1 h -1 v -1 h -1 v -1 h -2 v -1 h -1 v -1 h -1 v -1 h -1 v -1 h -1 v -1 h -1 v -1 h -2 v -1 h -1 v -1 h -1 v -1 h -1 v -1 h -1 v -1 h -1 v -1 h -2 v -1 h -1 v -1 h -1 v -1 h -1 v -1 h -1 v -1 h -1 v -1 h -2 v -1 h -1 v -1 h -1 v -1 h -1 v -1 h -1 v -1 h -2 v -1 h -1 v -1 h -1 v -1 h -1 v -1 h -1 v -1 h -1 v -1 h -2 v -1 h -1 v -1 h -1 v -1 h -1 v -1 h -1 v -1 h -1 v -1 h -2 v -1 h -2 v -1 h -2 v -1 h -2 v -1 h -2 v -1 h -2 v -1 h -2 v -1 h -2 v -1 h -2 v -1 h -2 v -1 h -3 v -1 h -2 v -1 h -3 v -1 h -2 v -1 h -3 v -1 h -2 v -1 h -3 v -1 h -3 v -1 h -4 v -1 h -3 v -1 h -4 v -1 h -5 v -1 h -7 v -1" /></g></g></g><path
         id="path44"
         style="fill:#243167;fill-opacity:1;fill-rule:evenodd;stroke:none"
         d="m 6080.96,2432.56 372.25,328.76 954.9,815.68 c 37.24,31.68 61.5,-63.4 61.53,-70.31 l 7.05,-551.33 c 0.05,-80.49 -4.21,-133.02 -66.75,-186.14 L 6892.18,2330.7 c -107.8,-91.65 -647.41,-60.79 -818.68,33.28 -40.4,25.97 -33.82,32.1 7.46,68.58 v 0" /><path
         id="path46"
         style="fill:#3e86ce;fill-opacity:1;fill-rule:evenodd;stroke:none"
         d="m 6035.44,4002.92 417.77,-368.97 954.9,-815.69 c 37.24,-31.68 61,65.45 61.02,72.36 l 7.56,549.29 c 0.05,80.49 -4.21,133.02 -66.75,186.14 l -517.76,438.52 c -118,100.33 -753.42,53.86 -856.74,-61.65 v 0" /><path
         id="path48"
         style="fill:#2a669e;fill-opacity:1;fill-rule:evenodd;stroke:none"
         d="m 6961.84,3197.43 446.27,379.2 c 4.13,3.49 25.95,24.11 29.13,21.83 4.06,-2.9 16.08,-21.8 24.79,-41.66 5.15,-11.76 8.07,-24.67 9.52,-33.51 2.91,-15.87 4.23,-32.8 4.76,-51.24 l 0.22,-274.6 -0.22,-274.6 c -0.53,-18.46 -1.85,-35.39 -4.76,-51.25 -0.72,-6.9 -5.76,-25.62 -12.47,-40.62 -6.72,-15 -14.96,-25.37 -20.06,-31.99 -0.89,-1.16 -1.43,-1.64 -1.95,-2.49 -0.25,-0.41 -0.93,-1.77 -1.25,-1.5 l -2.73,2.18 -4.03,3.2 -467.22,397.05 v 0" /><path
         id="path50"
         style="fill:#243167;fill-opacity:1;fill-rule:nonzero;stroke:none"
         d="m 5598.73,3279.76 -140.16,-238.43 c -11.94,-20.41 -21.75,-37.46 -29.27,-51.02 -7.65,-13.55 -13.42,-24.3 -17.59,-32.21 -4.02,-7.78 -6.84,-13.44 -8.58,-16.65 -1.61,-3.36 -2.42,-4.98 -2.56,-4.84 h -0.8 c -0.14,-0.14 -0.95,1.48 -2.56,4.84 -1.6,3.21 -4.56,8.87 -8.58,16.65 -4.17,7.91 -9.94,18.66 -17.46,32.21 -7.65,13.56 -17.46,30.61 -29.39,51.02 l -140.16,238.43 h -62.04 V 2715.9 h 65.25 v 253.74 c 0,17.59 -0.14,35.57 -0.41,54.11 -0.26,18.52 -0.53,36.38 -0.94,53.57 -0.4,17.17 -0.81,32.61 -1.06,46.3 -0.4,13.69 -0.67,24.58 -0.8,32.64 -0.14,8.05 -0.14,12.2 0,12.34 h 0.8 c 0.25,-0.14 2,-2.94 5.23,-8.6 3.08,-5.5 7.12,-12.61 12.08,-21.34 4.98,-8.73 10.21,-17.98 15.71,-27.79 5.63,-9.8 11.02,-19.05 16.11,-27.65 l 131.3,-228.78 h 34.64 l 131.3,228.78 c 5.1,8.6 10.48,17.85 16.11,27.65 5.5,9.81 10.73,19.06 15.71,27.79 4.96,8.73 9,15.84 12.21,21.34 3.1,5.66 4.85,8.46 5.11,8.6 h 0.8 c 0.13,-0.14 0.13,-4.29 0,-12.34 -0.14,-8.06 -0.41,-18.95 -0.8,-32.64 -0.26,-13.69 -0.67,-29.13 -1.07,-46.3 -0.27,-17.19 -0.67,-35.05 -0.94,-53.57 -0.27,-18.54 -0.4,-36.52 -0.4,-54.11 V 2715.9 h 65.24 v 563.86 h -62.03 v 0" /><path
         id="path52"
         style="fill:#243167;fill-opacity:1;fill-rule:nonzero;stroke:none"
         d="m 4983.16,2715.9 h 70.88 l -244.88,563.86 h -60.41 L 4503.87,2715.9 h 70.89 l 62.82,147.41 h 282.74 l 62.84,-147.41 z m -320.6,206.21 89.41,209.44 c 3.08,7.38 6.18,15.03 9.14,22.95 3.08,7.93 5.9,15.31 8.44,22.15 2.56,6.85 4.57,12.5 6.19,16.79 1.6,4.29 2.54,6.44 2.81,6.58 h 0.8 c 0.27,-0.14 1.22,-2.29 2.83,-6.58 1.62,-4.29 3.75,-9.94 6.31,-16.79 2.56,-6.84 5.23,-14.22 8.32,-22.15 3.08,-7.92 6.04,-15.57 9.14,-22.95 l 89.41,-209.44 h -232.8 v 0" /><path
         id="path54"
         style="fill:#243167;fill-opacity:1;fill-rule:nonzero;stroke:none"
         d="m 4357.27,3279.76 v -240.84 h -335.1 v 240.84 h -66.05 V 2715.9 h 66.05 v 260.99 h 335.1 V 2715.9 h 65.24 v 563.86 h -65.24 v 0" /><path
         id="path56"
         style="fill:#243167;fill-opacity:1;fill-rule:nonzero;stroke:none"
         d="m 3739.86,3279.76 v -296.43 c 0,-20.26 0.14,-39.74 0.4,-58.4 0.27,-18.67 0.41,-35.3 0.68,-49.93 0.27,-14.64 0.54,-26.33 0.67,-34.79 0.14,-8.59 0.14,-13.01 -0.13,-13.15 h -0.81 c -0.27,0.14 -2.83,3.5 -7.52,10.08 -4.71,6.57 -11.15,15.44 -19.07,26.44 -7.93,11.15 -16.91,23.49 -26.85,37.18 -9.94,13.7 -20.4,27.79 -31.15,42.31 l -250.51,336.69 h -62.03 V 2715.9 h 66.05 v 295.62 c 0,22.69 -0.13,43.77 -0.4,63.11 -0.13,19.46 -0.4,36.38 -0.67,50.88 -0.27,14.5 -0.54,25.92 -0.68,33.97 -0.13,8.04 0,12.21 0.14,12.35 h 0.81 c 0.4,-0.27 4.3,-5.5 11.55,-15.85 7.25,-10.34 17.17,-24.43 29.8,-42.15 12.62,-17.72 26.98,-37.86 43.23,-60.41 l 250.51,-337.52 h 62.03 v 563.86 h -66.05 v 0" /><path
         id="path58"
         style="fill:#243167;fill-opacity:1;fill-rule:nonzero;stroke:none"
         d="m 3245.67,2715.9 -136.95,223.94 c 37.73,12.34 66.59,32.22 86.88,59.88 20.26,27.51 30.47,61.62 30.74,102.02 -0.13,36.38 -8.59,67.95 -25.38,94.53 -16.77,26.57 -40.8,47.11 -72.22,61.47 -31.42,14.5 -69.28,21.89 -113.45,22.02 H 2830.43 V 2715.9 h 66.05 v 210.25 h 118.81 c 4.83,0 9.81,0 14.77,0.13 4.96,0 9.81,0.27 14.23,0.67 l 127.27,-211.05 h 74.11 z m -349.19,269.05 v 232.8 h 125.25 c 28.87,-0.14 53.44,-4.85 73.84,-14.1 20.4,-9.4 35.98,-22.69 46.73,-40.01 10.86,-17.19 16.24,-37.86 16.38,-61.9 0,-22.69 -5.11,-42.82 -15.44,-60.41 -10.35,-17.45 -25.65,-31.14 -45.92,-41.08 -20.27,-10.07 -45.51,-15.17 -75.59,-15.3 h -125.25 v 0" /><path
         id="path60"
         style="fill:#243167;fill-opacity:1;fill-rule:nonzero;stroke:none"
         d="m 2679,2715.9 h 70.88 L 2505,3279.76 h -60.41 L 2199.71,2715.9 h 70.89 l 62.82,147.41 h 282.74 L 2679,2715.9 Z m -320.6,206.21 89.42,209.44 c 3.07,7.38 6.17,15.03 9.13,22.95 3.08,7.93 5.9,15.31 8.44,22.15 2.56,6.85 4.58,12.5 6.19,16.79 1.6,4.29 2.54,6.44 2.81,6.58 h 0.81 c 0.27,-0.14 1.21,-2.29 2.83,-6.58 1.61,-4.29 3.74,-9.94 6.3,-16.79 2.56,-6.84 5.23,-14.22 8.33,-22.15 3.07,-7.92 6.04,-15.57 9.13,-22.95 l 89.41,-209.44 h -232.8 v 0" /><path
         id="path62"
         style="fill:#243167;fill-opacity:1;fill-rule:nonzero;stroke:none"
         d="m 2229.39,3217.75 v 62.01 H 1805.25 V 2715.9 h 66.05 v 251.32 h 296.86 v 59.61 H 1871.3 v 190.92 h 358.09 v 0" /><path
         id="path64"
         style="fill:#243167;fill-opacity:1;fill-rule:nonzero;stroke:none"
         d="m 5357.83,3594.33 v 501.83 h -66.05 V 3532.3 h 368.13 v 62.03 h -302.08 v 0" /><path
         id="path66"
         style="fill:#243167;fill-opacity:1;fill-rule:nonzero;stroke:none"
         d="m 5157.05,3532.3 -247.3,333.48 230.38,230.38 h -81.36 l -190.91,-190.9 c -11.01,-11.02 -22.02,-22.16 -33.02,-33.31 -10.88,-11.13 -20.94,-21.48 -30.08,-30.86 -9.13,-9.54 -16.65,-17.05 -22.15,-22.82 -5.63,-5.79 -8.59,-8.74 -9,-8.87 h -0.8 c -0.27,0 -0.27,11.41 0.13,34.23 0.4,22.82 0.54,56.8 0.67,101.91 v 150.62 h -66.05 V 3532.3 h 66.05 v 197.36 l 91.84,91.82 213.46,-289.18 h 78.14 v 0" /><path
         id="path68"
         style="fill:#243167;fill-opacity:1;fill-rule:nonzero;stroke:none"
         d="m 4612.77,3959.23 c -17.06,30.21 -38.53,56.38 -64.45,78.53 -25.91,22.15 -55.04,39.21 -87.53,51.28 -32.5,12.1 -67.26,18.27 -104.18,18.4 -32.5,-0.13 -63.36,-4.82 -92.65,-14.22 -29.13,-9.27 -55.97,-22.7 -80.27,-40.02 -24.31,-17.32 -45.38,-38.13 -63.23,-62.28 -17.86,-24.17 -31.55,-51.17 -41.36,-80.97 -9.79,-29.67 -14.77,-61.61 -14.9,-95.72 0.13,-34.1 5.11,-66.05 14.9,-95.72 9.81,-29.81 23.5,-56.78 41.36,-80.95 17.85,-24.18 38.92,-44.85 63.23,-62.3 24.3,-17.31 51.14,-30.75 80.27,-40 29.29,-9.4 60.15,-14.11 92.65,-14.23 39.47,0.12 76.26,6.98 110.35,20.4 34.24,13.42 64.45,32.35 90.76,56.92 26.32,24.57 47.26,53.57 63.11,86.99 l -65.26,17.73 c -12.48,-23.77 -28.87,-44.3 -48.87,-61.76 -20.13,-17.45 -42.95,-31 -68.47,-40.54 -25.5,-9.53 -52.76,-14.36 -81.62,-14.5 -31.83,0.14 -61.36,5.64 -88.47,16.52 -27.12,10.86 -51.02,26.3 -71.3,46.44 -20.4,20.15 -36.25,44.03 -47.65,71.97 -11.42,27.92 -17.19,58.93 -17.33,93.03 0.14,34.24 5.77,65.24 17.06,93.18 11.13,27.92 26.71,52.09 46.99,72.22 20.14,20.27 43.9,35.84 71.15,46.86 27.38,10.87 57.18,16.39 89.55,16.52 26.44,-0.13 51.68,-4.17 75.59,-12.36 23.9,-8.06 45.51,-19.6 64.97,-34.63 19.48,-15.04 35.71,-32.9 48.74,-53.71 l 66.86,16.92 v 0" /><path
         id="path70"
         style="fill:#243167;fill-opacity:1;fill-rule:nonzero;stroke:none"
         d="m 3681.46,3594.33 v 207.01 h 248.91 v 58.81 h -248.91 v 173.99 h 310.13 v 62.02 H 3615.41 V 3532.3 h 381.01 v 62.03 h -314.96 v 0" /><path
         id="path72"
         style="fill:#5ac135;fill-opacity:1;fill-rule:nonzero;stroke:none"
         d="m 3368.68,3472.69 v 683.88 h -25.14 v -683.88 h 25.14 v 0" /><path
         id="path74"
         style="fill:#243167;fill-opacity:1;fill-rule:nonzero;stroke:none"
         d="m 3068.04,4096.16 -127.27,-381.02 c -5.1,-16.23 -9.41,-30.45 -12.89,-42.82 -3.5,-12.21 -6.17,-21.88 -8.06,-28.73 -1.88,-6.98 -2.96,-10.47 -3.22,-10.61 h -0.79 c -0.27,0.14 -1.22,3.63 -2.83,10.61 -1.75,6.85 -4.29,16.52 -7.79,28.73 -3.36,12.37 -7.92,26.59 -13.55,42.82 l -99.9,305.31 h -57.99 l -99.89,-305.31 c -5.63,-16.23 -10.06,-30.45 -13.56,-42.82 -3.48,-12.21 -6.04,-21.88 -7.78,-28.73 -1.62,-6.98 -2.54,-10.47 -2.81,-10.61 h -0.81 c -0.27,0.14 -1.35,3.63 -3.23,10.61 -1.88,6.85 -4.56,16.52 -8.06,28.73 -3.48,12.37 -7.78,26.59 -12.88,42.82 l -127.28,381.02 h -68.47 L 2579.9,3532.3 h 57.99 l 93.44,296.43 c 8.19,26.19 14.5,47.53 18.94,63.78 4.29,16.24 7.25,28.05 9,35.57 1.6,7.39 2.54,11.13 2.67,11 h 0.81 c 0.13,0.13 1.21,-3.48 2.96,-10.86 1.73,-7.39 4.96,-19.21 9.38,-35.44 4.44,-16.25 10.89,-37.6 19.08,-64.05 l 93.43,-296.43 h 58.01 l 190.9,563.86 h -68.47 v 0" /><path
         id="path76"
         style="fill:#243167;fill-opacity:1;fill-rule:nonzero;stroke:none"
         d="m 1992.72,3594.33 v 207.01 h 248.92 v 58.81 h -248.92 v 173.99 h 310.14 v 62.02 H 1926.67 V 3532.3 h 381.02 v 62.03 h -314.97 v 0" /><path
         id="path78"
         style="fill:#243167;fill-opacity:1;fill-rule:nonzero;stroke:none"
         d="m 1844.98,3532.3 -136.95,223.94 c 37.73,12.34 66.59,32.22 86.88,59.87 20.26,27.52 30.47,61.63 30.74,102.03 -0.13,36.38 -8.61,67.97 -25.38,94.53 -16.75,26.55 -40.8,47.11 -72.22,61.47 -31.42,14.5 -69.28,21.88 -113.45,22.02 H 1438.58 V 3532.3 h 66.05 v 210.24 h 109.97 c 4.83,0 9.81,0 14.77,0.14 4.96,0 9.8,0.27 14.23,0.67 l 127.27,-211.05 h 74.11 z m -340.35,269.04 v 232.8 h 116.41 c 28.86,-0.13 53.44,-4.84 73.84,-14.09 20.4,-9.4 35.97,-22.69 46.72,-40.01 10.87,-17.19 16.25,-37.87 16.39,-61.9 0,-22.69 -5.12,-42.82 -15.44,-60.42 -10.35,-17.44 -25.65,-31.13 -45.92,-41.07 -20.27,-10.07 -45.52,-15.17 -75.59,-15.31 h -116.41 v 0" /><path
         id="path80"
         style="fill:#243167;fill-opacity:1;fill-rule:nonzero;stroke:none"
         d="M 869.879,4096.16 V 3532.3 h 199.731 c 31.69,0 61.9,4.42 90.49,13.02 28.59,8.59 54.78,20.94 78.68,37.05 23.9,16.12 44.57,35.71 62.15,58.53 17.59,22.83 31.15,48.48 40.82,77.07 9.67,28.59 14.5,59.61 14.63,93.05 -0.13,33.96 -5.09,65.51 -14.9,94.64 -9.67,29.13 -23.49,55.45 -41.34,78.8 -17.86,23.36 -38.8,43.38 -63.11,60.01 -24.3,16.65 -50.88,29.4 -80.01,38.27 -29.13,8.86 -59.89,13.42 -92.24,13.42 H 869.879 Z m 66.047,-501.83 v 439.81 h 128.854 c 30.89,0 59.75,-5.27 86.59,-15.57 26.98,-10.36 50.76,-25.25 71.3,-44.57 20.54,-19.48 36.65,-42.96 48.32,-70.36 11.56,-27.38 17.6,-58.26 17.73,-92.62 -0.13,-33.71 -6.04,-63.92 -17.73,-90.63 -11.54,-26.72 -27.38,-49.41 -47.65,-68.2 -20.26,-18.67 -43.61,-33.12 -69.82,-42.96 -26.27,-9.87 -54.26,-14.9 -83.91,-14.9 H 935.926 v 0" /><path
         id="path82"
         style="fill:#243167;fill-opacity:1;fill-rule:nonzero;stroke:none"
         d="m 2865.57,2394.56 c -7.18,17.02 -18.08,43.36 -18.35,43.62 h -0.53 c -0.27,-0.26 -11.17,-26.6 -18.08,-43.35 l -20.48,-48.93 h 77.92 z m -65.69,-68.34 -20.74,-49.47 H 2756 l 79.25,186.16 h 23.67 l 79.26,-186.16 h -23.14 l -20.74,49.47 h -94.42" /><path
         id="path84"
         style="fill:#243167;fill-opacity:1;fill-rule:nonzero;stroke:none"
         d="m 3032.09,2442.69 v -165.94 h -21.81 v 165.94 h -63.83 v 20.22 h 149.73 v -20.22 h -64.09" /><path
         id="path86"
         style="fill:#243167;fill-opacity:1;fill-rule:nonzero;stroke:none"
         d="M 3222.81,2442.69 V 2276.75 H 3201 v 165.94 h -63.83 v 20.22 h 149.73 v -20.22 h -64.09" /><path
         id="path88"
         style="fill:#243167;fill-opacity:1;fill-rule:nonzero;stroke:none"
         d="m 3414.05,2294.04 c 41.76,0 74.74,28.71 74.74,76.05 0,47.34 -32.98,76.07 -74.74,76.07 -42.01,0 -74.72,-28.99 -74.72,-76.07 0,-47.34 32.71,-76.05 74.72,-76.05 z m 0,172.59 c 54.26,0 96.54,-38.83 96.54,-96.54 0,-57.97 -42.28,-96.8 -96.54,-96.8 -54.51,0 -96.53,38.83 -96.53,96.8 0,57.71 42.02,96.54 96.53,96.54" /><path
         id="path90"
         style="fill:#243167;fill-opacity:1;fill-rule:nonzero;stroke:none"
         d="m 3621.53,2367.7 c 27.13,0 45.21,9.58 45.21,36.43 0,26.33 -17.55,38.83 -46.54,38.83 h -36.17 v -75.26 z m 2.4,-17.81 c -3.99,-0.27 -13.04,-0.27 -17.02,-0.27 h -22.88 v -72.87 h -21.54 v 186.16 h 56.91 c 43.62,0 69.42,-21.54 69.42,-57.98 0,-28.72 -16.23,-45.47 -42.55,-51.06 l 46,-77.12 h -26.06 l -42.28,73.14" /><path
         id="path92"
         style="fill:#243167;fill-opacity:1;fill-rule:nonzero;stroke:none"
         d="m 3765.44,2428.07 h -0.53 c 0,-0.27 0.53,-21.54 0.53,-44.68 v -106.64 h -21.54 v 186.16 h 21.81 l 109.04,-149.99 h 0.53 c 0,0.26 -0.53,22.07 -0.53,43.62 v 106.37 h 21.81 v -186.16 h -22.08 l -109.04,151.32" /><path
         id="path94"
         style="fill:#243167;fill-opacity:1;fill-rule:nonzero;stroke:none"
         d="m 3958.56,2462.91 h 125.26 v -20.22 H 3980.1 v -58.5 h 80.85 v -20.21 h -80.85 v -67.02 h 104.25 v -20.21 h -125.79 v 186.16" /><path
         id="path96"
         style="fill:#243167;fill-opacity:1;fill-rule:nonzero;stroke:none"
         d="m 4217.09,2276.75 h -21.81 v 80.84 l -71.81,105.32 h 25.01 l 41.75,-61.16 c 9.58,-13.84 16.22,-23.94 16.49,-24.21 h 0.53 c 0.26,0.27 6.38,10.11 15.96,23.67 l 42.28,61.7 h 23.67 l -72.07,-105.32 v -80.84" /><path
         id="path98"
         style="fill:#243167;fill-opacity:1;fill-rule:nonzero;stroke:none"
         d="m 4341.32,2331.26 c 2.13,-26.59 24.21,-38.56 52.66,-38.56 27.13,0 43.61,10.91 43.61,33.25 0,30.59 -30.85,32.18 -53.98,37.24 -25.27,5.84 -57.71,14.89 -57.71,52.65 0,32.45 23.93,50.79 63.03,50.79 34.57,0 60.1,-14.36 68.08,-46.27 l -20.74,-5.59 c -5.06,20.48 -20.22,32.45 -47.61,32.45 -27.13,0 -40.69,-11.7 -40.69,-30.58 0,-24.74 23.4,-30.05 50,-35.38 27.66,-5.31 61.7,-14.09 61.7,-55.04 0,-35.11 -24.47,-52.93 -65.96,-52.93 -31.38,0 -67.28,10.38 -73.13,52.39 l 20.74,5.58" /><path
         id="path100"
         style="fill:#243167;fill-opacity:1;fill-rule:nonzero;stroke:none"
         d="m 4693.75,2394.56 c -7.19,17.02 -18.09,43.36 -18.36,43.62 h -0.53 c -0.26,-0.26 -11.17,-26.6 -18.08,-43.35 l -20.49,-48.93 h 77.93 z m -65.7,-68.34 -20.74,-49.47 h -23.13 l 79.25,186.16 h 23.67 l 79.25,-186.16 h -23.14 l -20.75,49.47 h -94.41" /><path
         id="path102"
         style="fill:#243167;fill-opacity:1;fill-rule:nonzero;stroke:none"
         d="m 4860.26,2442.69 v -165.94 h -21.81 v 165.94 h -63.82 v 20.22 h 149.72 v -20.22 h -64.09" /><path
         id="path104"
         style="fill:#243167;fill-opacity:1;fill-rule:nonzero;stroke:none"
         d="m 5063.75,2462.91 h 21.55 v -165.95 h 98.14 v -20.21 h -119.69 v 186.16" /><path
         id="path106"
         style="fill:#243167;fill-opacity:1;fill-rule:nonzero;stroke:none"
         d="m 5331.07,2394.56 c -7.19,17.02 -18.09,43.36 -18.36,43.62 h -0.52 c -0.27,-0.26 -11.18,-26.6 -18.09,-43.35 l -20.48,-48.93 h 77.92 z m -65.7,-68.34 -20.74,-49.47 h -23.13 l 79.25,186.16 h 23.67 l 79.25,-186.16 h -23.14 l -20.75,49.47 h -94.41" /><path
         id="path108"
         style="fill:#243167;fill-opacity:1;fill-rule:nonzero;stroke:none"
         d="m 5552.37,2360.79 c -8.51,27.12 -14.89,50.53 -15.16,50.79 h -0.53 c -0.27,-0.26 -6.39,-23.67 -15.16,-52.66 l -25.53,-82.17 h -23.41 l -60.1,186.16 h 23.94 l 27.65,-88.56 c 9.57,-30.58 21.01,-66.76 21.28,-67.28 h 0.53 c 0.26,0.52 10.9,36.43 17.55,58.77 l 22.07,72.08 h 25.27 l 21.81,-72.35 c 6.65,-22.07 17.28,-57.98 17.55,-58.5 h 0.54 c 0.26,0.52 11.42,36.7 20.47,65.68 l 28.99,90.16 h 21.54 l -59.83,-186.16 h -22.88 l -26.59,84.04" /></g></g></svg>