<?xml version="1.0" encoding="UTF-8" standalone="no"?>
<svg width="389px" height="71px" viewBox="0 0 389 71" version="1.1" xmlns="http://www.w3.org/2000/svg" xmlns:xlink="http://www.w3.org/1999/xlink">
    <!-- Generator: Sketch 41 (35326) - http://www.bohemiancoding.com/sketch -->
    <title>LOGO@2x</title>
    <desc>Created with Sketch.</desc>
    <defs>
        <polygon id="path-1" points="13.5544893 13.9654545 13.5544893 0.391428571 0.0672663165 0.391428571 0.0672663165 13.9654545 13.5544893 13.9654545"></polygon>
        <polygon id="path-3" points="3.85926736 0.525974026 0.443712218 0.525974026 0.443712218 6.09402597 3.85926736 6.09402597 3.85926736 0.525974026"></polygon>
    </defs>
    <g id="Symbols" stroke="none" stroke-width="1" fill="none" fill-rule="evenodd">
        <g id="LOGO">
            <g>
                <g id="Group-64" transform="translate(80.557377, 12.305325)">
                    <path d="M2.15062623,47.5645455 C2.58026557,49.4151948 4.01367541,50.4957143 5.60947869,50.4957143 C6.98023279,50.4957143 8.43410164,49.6853247 8.43410164,48.0424675 C8.43410164,45.048961 1.86292131,44.1346753 1.86292131,40.497013 C1.86292131,38.771039 3.41908525,37.4827273 5.50718361,37.4827273 C7.22701967,37.4827273 7.57482295,38.0022078 8.29216721,38.0022078 C8.45456066,38.0022078 8.53639672,37.9606494 8.65915082,37.7944156 L8.98649508,37.7944156 L9.33429836,40.4346753 L8.98649508,40.4346753 C8.41364262,38.9372727 7.10298689,37.9814286 5.69259344,37.9814286 C4.34101967,37.9814286 3.39990492,38.771039 3.39990492,39.935974 C3.39990492,42.8866234 9.96980656,43.6775325 9.96980656,47.5022078 C9.96980656,49.5385714 8.18987213,51.0567532 5.79488852,51.0567532 C4.66836393,51.0567532 3.23623279,50.4957143 2.94980656,50.4957143 C2.76439672,50.4957143 2.62118361,50.5996104 2.54062623,50.7242857 L2.19154426,50.7242857 L1.76062623,47.5645455 L2.15062623,47.5645455 Z" id="Fill-1" fill="#FEFEFE"></path>
                    <path d="M10.6290984,14.8966234 L14.7784426,3.34857143 L14.8398197,3.51220779 L19.2014262,15.245974 L10.5025082,15.245974 L10.6290984,14.8966234 Z M0.586278689,29.3109091 L0.586278689,29.6862338 L10.7058197,29.6862338 L10.7058197,29.3174026 L10.2250328,29.3174026 C8.25457377,29.3174026 6.23936066,29.0797403 6.23936066,27.3277922 C6.23936066,26.7615584 6.61529508,25.7732468 6.94903279,24.9018182 L6.97844262,24.8238961 C7.05004918,24.6342857 7.11781967,24.4537662 7.17791803,24.2914286 L9.90919672,16.7836364 L19.793459,16.7836364 L19.8088033,16.8264935 L23.0042459,25.6264935 C23.1960492,26.1005195 23.459459,26.7537662 23.459459,27.4680519 C23.459459,29.0407792 22.2191311,29.3174026 19.6144426,29.3174026 L18.6733279,29.3174026 L18.6733279,29.6862338 L30.8195902,29.6862338 L30.8195902,29.3148052 C28.7199836,29.281039 27.613918,28.8096104 26.6472295,26.2044156 L17.0915902,0.426493506 L13.6429672,0.426493506 L13.9511311,1.19012987 L13.9153279,1.28493506 L5.53991803,24.5174026 C4.04896721,28.632987 3.4377541,29.2368831 0.586278689,29.3109091 L0.586278689,29.3109091 Z" id="Fill-3" fill="#FEFEFE"></path>
                    <path d="M36.863823,28.8545455 C36.863823,29.7896104 36.1579869,30.3194805 35.2987082,30.3194805 C34.408741,30.3194805 33.7335934,29.7272727 33.7335934,28.8545455 C33.7335934,27.9818182 34.408741,27.3896104 35.2987082,27.3896104 C36.1579869,27.3896104 36.863823,27.9506494 36.863823,28.8545455" id="Fill-5" fill="#FEFEFE"></path>
                    <path d="M60.8962623,1.50688312 L60.8962623,1.12766234 L49.7627213,1.12766234 L49.7627213,1.49779221 L50.0133443,1.49779221 C53.5297377,1.49779221 53.9977377,2.56402597 53.9977377,6.80558442 L53.9977377,21.3783117 C53.9977377,26.1783117 52.6794098,28.5094805 49.9673115,28.5094805 C48.8663607,28.5094805 47.9763934,27.8549351 47.19,27.2757143 C46.5199672,26.7809091 45.8857377,26.3133766 45.2259344,26.3133766 C44.4663934,26.3133766 43.8257705,27.0497403 43.8257705,27.9237662 C43.8257705,29.2133766 45.6338361,30.1874026 48.0326557,30.1874026 C53.5783279,30.1874026 57.3044262,23.9796104 57.3044262,14.7406494 L57.3044262,5.16922078 C57.3044262,2.50298701 58.1458033,1.63935065 60.8962623,1.50688312" id="Fill-7" fill="#FEFEFE"></path>
                    <path d="M66.5595738,12.7076623 L63.9510492,19.97 L69.2601639,19.97 L66.5595738,12.7076623 Z M63.430623,21.3414286 L61.6494098,26.2349351 C61.4345902,26.8271429 61.0356393,27.7635065 61.0356393,28.1998701 C61.0356393,29.0414286 61.8348197,29.3531169 63.5214098,29.3531169 L64.0124262,29.3531169 L64.0124262,29.9453247 L56.923377,29.9453247 L56.923377,29.3531169 C58.9168525,29.3219481 59.2544262,28.9790909 60.2390164,26.2674026 L65.8230492,10.7751948 L65.5481311,10.0881818 L68.2180328,10.0881818 L74.6306557,27.3894805 C75.2457049,29.0414286 75.8901639,29.3531169 77.4245902,29.3531169 L77.4245902,29.9453247 L68.9839672,29.9453247 L68.9839672,29.3531169 L69.7831475,29.3531169 C71.5323934,29.3531169 72.1768525,29.1661039 72.1768525,28.2933766 C72.1768525,27.7946753 71.9620328,27.3271429 71.8392787,27.0154545 L69.7831475,21.3414286 L63.430623,21.3414286 Z" id="Fill-9" fill="#FEFEFE"></path>
                    <path d="M90.6198885,29.9451948 L82.7930361,13.3309091 L82.731659,13.3309091 L81.9043475,27.3581818 C81.8110033,28.9477922 82.9784459,29.2906494 84.3594295,29.352987 L84.3594295,29.9451948 L77.9749377,29.9451948 L77.9749377,29.352987 C80.2152,29.352987 80.4913967,28.8542857 80.6448393,26.0179221 L81.3813639,13.8919481 C81.504118,11.8348052 81.442741,11.2737662 79.5400525,11.1490909 L79.5400525,10.5880519 L84.1740197,10.5880519 L91.5712328,26.2984416 L98.9364787,10.5880519 L103.44897,10.5880519 L103.44897,11.1490909 C101.945233,11.2737662 101.360872,11.3049351 101.422249,12.3646753 L102.405561,26.4854545 C102.588413,29.352987 102.8352,29.352987 105.075462,29.352987 L105.075462,29.9451948 L97.1885115,29.9451948 L97.1885115,29.352987 C98.6295934,29.352987 100.041266,28.9477922 99.9197902,27.2958442 L99.0285443,13.3309091 L98.9671672,13.3309091 L91.3257246,29.9451948 L90.6198885,29.9451948 Z" id="Fill-11" fill="#FEFEFE"></path>
                    <path d="M119.957351,22.9316883 L119.375548,22.9316883 C119.128761,20.7187013 118.545679,20.4693506 117.287449,20.4693506 L112.09981,20.4693506 L112.09981,27.1083117 C112.09981,28.5420779 112.622793,28.8225974 113.758269,28.8225974 L118.484302,28.8225974 C120.632498,28.8225974 121.276957,27.981039 122.045449,25.3005195 L122.596564,25.3005195 L122.105548,29.9446753 L105.809941,29.9446753 L105.809941,29.3524675 L106.667941,29.3524675 C109.123023,29.3524675 109.552662,28.6667532 109.552662,26.7966234 L109.552662,13.6420779 C109.552662,11.8966234 109.153711,11.1485714 107.09758,11.1485714 L106.423711,11.1485714 L106.423711,10.5563636 L121.154203,10.5563636 L121.40099,14.8901299 L120.847318,14.8901299 C120.449646,12.2394805 119.681154,11.6784416 118.576367,11.6784416 L112.09981,11.6784416 L112.09981,19.3472727 L117.594334,19.3472727 C118.699121,19.3472727 119.220826,18.8174026 119.375548,17.0083117 L119.957351,17.0083117 L119.957351,22.9316883 Z" id="Fill-13" fill="#FEFEFE"></path>
                    <path d="M125.87883,25.207013 C126.523289,27.981039 128.671485,29.6018182 131.066469,29.6018182 C133.1226,29.6018182 135.301485,28.3862338 135.301485,25.9238961 C135.301485,21.4355844 125.44919,20.0628571 125.44919,14.6083117 C125.44919,12.0212987 127.781518,10.0888312 130.911748,10.0888312 C133.490862,10.0888312 134.012567,10.8680519 135.086666,10.8680519 C135.332174,10.8680519 135.454928,10.8057143 135.639059,10.5563636 L136.131354,10.5563636 L136.653059,14.5161039 L136.131354,14.5161039 C135.272075,12.2706494 133.306731,10.8368831 131.187944,10.8368831 C129.162502,10.8368831 127.752108,12.0212987 127.752108,13.7667532 C127.752108,18.194026 137.604403,19.3784416 137.604403,25.1135065 C137.604403,28.1680519 134.933223,30.4433766 131.342666,30.4433766 C129.654797,30.4433766 127.505321,29.6018182 127.075682,29.6018182 C126.800764,29.6018182 126.585944,29.7576623 126.46319,29.9446753 L125.941485,29.9446753 L125.297026,25.207013 L125.87883,25.207013 Z" id="Fill-15" fill="#FEFEFE"></path>
                    <path d="M176.241767,29.1518182 C177.248095,27.4492208 178.361833,24.8855844 178.975603,22.8648052 L178.594554,22.8648052 C176.00521,27.4557143 172.176816,29.7842857 167.212948,29.7842857 C159.792718,29.7842857 153.978521,23.2232468 153.978521,14.8453247 C153.978521,6.61025974 159.094554,1.07649351 166.707866,1.07649351 C171.664062,1.07649351 175.749472,3.83363636 177.382357,8.27519481 L177.805603,8.27519481 L177.423275,2.01675325 L177.08698,2.01675325 C176.891341,2.20246753 176.574226,2.29597403 176.143308,2.29597403 C175.627997,2.29597403 175.033407,2.08948052 174.21121,1.80246753 C172.638423,1.25441558 170.263898,0.427142857 166.431669,0.427142857 C157.005177,0.427142857 150.162915,6.88428571 150.162915,15.7803896 C150.162915,24.2712987 156.812095,30.4336364 165.971341,30.4336364 C168.753767,30.4336364 170.669243,29.9790909 172.208784,29.6128571 C173.357046,29.3401299 174.349308,29.1037662 175.41957,29.1037662 C175.704718,29.1037662 175.973243,29.1193506 176.241767,29.1518182" id="Fill-17" fill="#FEFEFE"></path>
                    <path d="M195.404961,29.9451948 L181.684633,29.9451948 L181.684633,29.352987 L182.697354,29.352987 C184.109026,29.352987 184.630731,28.8854545 184.630731,27.2958442 L184.630731,13.4867532 C184.630731,11.8348052 184.140993,11.1490909 182.207616,11.1490909 L181.777977,11.1490909 L181.777977,10.5568831 L190.83237,10.5568831 L190.83237,11.1490909 L189.695616,11.1490909 C187.700862,11.1490909 187.177879,11.3672727 187.177879,13.2997403 L187.177879,27.6698701 C187.177879,28.5114286 187.516731,28.8231169 188.406698,28.8231169 L192.917911,28.8231169 C194.729813,28.8231169 195.280928,28.1062338 197.215584,25.3945455 L197.767977,25.3945455 L195.404961,29.9451948 Z" id="Fill-19" fill="#FEFEFE"></path>
                    <path d="M206.543489,12.7076623 L203.934964,19.97 L209.244079,19.97 L206.543489,12.7076623 Z M203.414538,21.3414286 L201.633325,26.2349351 C201.418505,26.8271429 201.019554,27.7635065 201.019554,28.1998701 C201.019554,29.0414286 201.818734,29.3531169 203.505325,29.3531169 L203.996341,29.3531169 L203.996341,29.9453247 L196.907292,29.9453247 L196.907292,29.3531169 C198.900767,29.3219481 199.238341,28.9790909 200.222931,26.2674026 L205.806964,10.7751948 L205.532046,10.0881818 L208.201948,10.0881818 L214.61457,27.3894805 C215.22962,29.0414286 215.874079,29.3531169 217.408505,29.3531169 L217.408505,29.9453247 L208.967882,29.9453247 L208.967882,29.3531169 L209.767062,29.3531169 C211.516308,29.3531169 212.160767,29.1661039 212.160767,28.2933766 C212.160767,27.7946753 211.945948,27.3271429 211.823193,27.0154545 L209.767062,21.3414286 L203.414538,21.3414286 Z" id="Fill-21" fill="#FEFEFE"></path>
                    <path d="M223.576003,21.217013 L224.802266,21.217013 C226.153839,21.217013 227.134593,21.1858442 228.208692,20.8741558 C230.3262,20.2507792 231.12538,17.8507792 231.12538,15.9806494 C231.12538,14.7338961 230.72643,12.5520779 228.670298,11.5546753 C227.197249,10.8364935 225.262593,10.9001299 223.576003,10.9312987 L223.576003,21.217013 Z M237.172298,30.3507792 C234.89879,30.3507792 232.936003,29.9455844 230.204725,25.6754545 C229.804495,25.0507792 228.085938,22.2767532 227.656298,21.7780519 L223.576003,21.7780519 L223.576003,25.9546753 C223.576003,28.6676623 223.790823,29.3845455 226.858397,29.3845455 L226.858397,29.9455844 L218.081479,29.9455844 L218.081479,29.3845455 C221.028856,29.3845455 221.028856,28.5741558 221.028856,25.8936364 L221.028856,13.3624675 C221.028856,11.8027273 220.56597,11.2105195 218.052069,11.2105195 L218.052069,10.6494805 C220.628626,10.4312987 223.237151,10.3079221 225.845675,10.3079221 C228.271348,10.3079221 229.652331,10.5871429 230.970659,11.2416883 C232.230167,11.8650649 234.04079,13.2676623 234.04079,15.855974 C234.04079,16.6975325 233.765872,19.5962338 230.019315,20.9053247 L233.765872,26.6728571 C235.176266,28.8546753 236.158298,29.6325974 237.172298,29.7897403 L237.172298,30.3507792 Z" id="Fill-23" fill="#FEFEFE"></path>
                    <path d="M249.844102,29.9451948 L249.844102,29.352987 C251.257052,29.3218182 251.840134,29.0724675 251.840134,28.4802597 C251.840134,27.9503896 251.164987,26.8906494 248.064167,23.7425974 C245.610364,21.2477922 244.872561,20.7802597 243.523544,20.9374026 L243.523544,26.765974 C243.523544,28.7296104 244.074659,29.352987 245.978626,29.352987 L246.377577,29.352987 L246.377577,29.9451948 L237.967643,29.9451948 L237.967643,29.352987 L238.521315,29.352987 C240.484102,29.352987 240.975118,28.6672727 240.975118,27.0776623 L240.975118,13.3932468 C240.975118,11.5231169 240.146528,11.1490909 238.521315,11.1490909 L237.967643,11.1490909 L237.967643,10.5568831 L246.253544,10.5568831 L246.253544,11.1490909 L245.978626,11.1490909 C244.136036,11.1490909 243.523544,11.7412987 243.523544,13.6114286 L243.523544,20.3438961 C244.719118,20.2192208 245.670462,19.6581818 246.95938,18.3490909 C249.354364,15.9179221 251.225085,13.1127273 251.225085,12.1153247 C251.225085,11.3984416 250.766036,11.1490909 249.108856,11.1490909 L249.108856,10.5568831 L257.179938,10.5568831 L257.179938,11.1490909 C255.001052,11.1802597 254.049708,11.4919481 253.127774,12.427013 C252.17643,13.3932468 250.243052,17.2893506 247.022036,19.7828571 C247.57443,19.8776623 248.125544,20.3438961 249.477118,21.7166234 C252.698134,24.9893506 254.41797,27.4205195 255.430692,28.4490909 C255.952397,28.978961 256.750298,29.352987 258.837118,29.352987 L258.837118,29.9451948 L249.844102,29.9451948 Z" id="Fill-25" fill="#FEFEFE"></path>
                    <path d="M25.9924131,41.2036364 C25.3172656,39.2711688 23.5565115,38.0023377 21.3264787,38.0023377 C17.9072656,38.0023377 15.7795279,40.5179221 15.7795279,44.0101299 C15.7795279,47.7724675 18.4404787,50.5374026 21.5502492,50.5374026 C23.1677902,50.5374026 25.1535934,49.9763636 26.5460852,47.4607792 L26.9335279,47.4607792 C26.6675607,48.3958442 26.1164459,49.6854545 25.6241508,50.4958442 C24.3147738,50.3088312 23.4132984,51.0568831 20.9991344,51.0568831 C16.8433967,51.0568831 13.8563803,48.2711688 13.8563803,44.4257143 C13.8563803,40.3932468 16.9252328,37.4828571 21.2037246,37.4828571 C23.7815607,37.4828571 24.8876262,38.314026 25.5218557,38.314026 C25.7469049,38.314026 25.8492,38.2516883 25.890118,38.1893506 L26.1970033,38.1893506 L26.3811344,41.2036364 L25.9924131,41.2036364 Z" id="Fill-27" fill="#FEFEFE"></path>
                    <path d="M33.700859,44.5505195 L33.700859,48.4998701 C33.700859,49.8518182 33.9681049,50.3297403 35.338859,50.3297403 L35.4002361,50.3297403 L35.4002361,50.7245455 L30.2624656,50.7245455 L30.2624656,50.3297403 L30.3852197,50.3297403 C31.5935803,50.3297403 32.0027607,49.9972727 32.0027607,48.8115584 L32.0027607,39.6648052 C32.0027607,38.5842857 31.6549574,38.2725974 30.5297115,38.1894805 L30.5297115,37.7946753 L35.4002361,37.7946753 L35.4002361,38.1894805 C33.9463672,38.1894805 33.700859,38.5842857 33.700859,40.1855844 L33.700859,43.8024675 L41.7246295,43.8024675 L41.7246295,39.7063636 C41.7246295,38.6050649 41.3768262,38.1894805 40.1070885,38.1894805 L39.7183672,38.1894805 L39.7183672,37.7946753 L44.9788918,37.7946753 L44.9788918,38.1894805 C43.7500721,38.231039 43.4240066,38.6050649 43.4240066,39.8946753 L43.4240066,48.5206494 C43.4240066,49.9972727 43.8331869,50.3297403 45.0607279,50.3297403 L45.265318,50.3297403 L45.265318,50.7245455 L39.472859,50.7245455 L39.472859,50.3297403 L40.1070885,50.3297403 C41.4382033,50.3297403 41.7246295,49.8518182 41.7246295,48.77 L41.7246295,44.5505195 L33.700859,44.5505195 Z" id="Fill-29" fill="#FEFEFE"></path>
                    <path d="M55.6333082,38.0024675 C52.0312426,38.0024675 50.5978328,41.4115584 50.5978328,43.9063636 C50.5978328,47.7933766 53.1974066,50.5375325 56.4925869,50.5375325 C59.8286852,50.5375325 61.4244885,47.544026 61.4244885,44.5920779 C61.4244885,40.7258442 59.0103246,38.0024675 55.6333082,38.0024675 M56.0629475,51.057013 C52.050423,51.057013 48.6734066,48.4375325 48.6734066,44.5505195 C48.6734066,40.4141558 51.8049148,37.482987 56.1652426,37.482987 C60.0332754,37.482987 63.3489148,40.1648052 63.3489148,43.9063636 C63.3489148,48.1050649 60.0332754,51.057013 56.0629475,51.057013" id="Fill-31" fill="#FEFEFE"></path>
                    <path d="M74.4876984,38.0024675 C70.8856328,38.0024675 69.452223,41.4115584 69.452223,43.9063636 C69.452223,47.7933766 72.0517967,50.5375325 75.3482557,50.5375325 C78.6830754,50.5375325 80.2801574,47.544026 80.2801574,44.5920779 C80.2801574,40.7258442 77.8659934,38.0024675 74.4876984,38.0024675 M74.9173377,51.057013 C70.9048131,51.057013 67.5290754,48.4375325 67.5290754,44.5505195 C67.5290754,40.4141558 70.6605836,37.482987 75.0196328,37.482987 C78.8876656,37.482987 82.2033049,40.1648052 82.2033049,43.9063636 C82.2033049,48.1050649 78.8876656,51.057013 74.9173377,51.057013" id="Fill-33" fill="#FEFEFE"></path>
                    <path d="M94.5934131,50.7244156 L85.4456754,50.7244156 L85.4456754,50.3296104 L86.1195443,50.3296104 C87.060659,50.3296104 87.409741,50.0179221 87.409741,48.9581818 L87.409741,39.7490909 C87.409741,38.6464935 87.081118,38.1893506 85.7922,38.1893506 L85.5057738,38.1893506 L85.5057738,37.7945455 L91.543741,37.7945455 L91.543741,38.1893506 L90.7867574,38.1893506 C89.4556426,38.1893506 89.1078393,38.3348052 89.1078393,39.6244156 L89.1078393,49.2075325 C89.1078393,49.7685714 89.3341672,49.9763636 89.9274787,49.9763636 L92.9349541,49.9763636 C94.1433148,49.9763636 94.511577,49.4984416 95.8004951,47.6893506 L96.1687574,47.6893506 L94.5934131,50.7244156 Z" id="Fill-35" fill="#FEFEFE"></path>
                    <path d="M114.150826,38.0024675 C110.550039,38.0024675 109.115351,41.4115584 109.115351,43.9063636 C109.115351,47.7933766 111.716203,50.5375325 115.011384,50.5375325 C118.346203,50.5375325 119.943285,47.544026 119.943285,44.5920779 C119.943285,40.7258442 117.529121,38.0024675 114.150826,38.0024675 M114.580466,51.057013 C110.56922,51.057013 107.193482,48.4375325 107.193482,44.5505195 C107.193482,40.4141558 110.32499,37.482987 114.682761,37.482987 C118.550793,37.482987 121.867711,40.1648052 121.867711,43.9063636 C121.867711,48.1050649 118.550793,51.057013 114.580466,51.057013" id="Fill-37" fill="#FEFEFE"></path>
                    <path d="M134.38377,45.755974 L134.035967,45.755974 C133.995049,44.5507792 133.56541,44.1767532 132.583377,44.1767532 L128.795902,44.1767532 L128.795902,48.7287013 C128.795902,49.8936364 129.04141,50.3287013 130.577115,50.3287013 L130.577115,50.7248052 L125.604295,50.7248052 L125.604295,50.3287013 C126.872754,50.2468831 127.097803,49.9767532 127.097803,48.2923377 L127.097803,40.142987 C127.097803,38.8131169 126.995508,38.2105195 125.563377,38.1897403 L125.563377,37.7949351 L134.732852,37.7949351 L134.732852,40.2468831 L134.38377,40.2468831 C134.363311,39.0416883 133.954131,38.542987 132.684393,38.542987 L128.795902,38.542987 L128.795902,43.4287013 L132.849344,43.4287013 C133.606328,43.4287013 133.975869,42.991039 134.035967,42.0975325 L134.38377,42.0975325 L134.38377,45.755974 Z" id="Fill-39" fill="#FEFEFE"></path>
                    <path d="M154.821561,46.0471429 L154.432839,46.0471429 C154.269167,44.5718182 153.880446,44.4042857 153.040348,44.4042857 L149.581495,44.4042857 L149.581495,48.8328571 C149.581495,49.7887013 149.930577,49.9757143 150.688839,49.9757143 L153.839528,49.9757143 C155.272938,49.9757143 155.702577,49.4146753 156.214052,47.6276623 L156.582315,47.6276623 L156.25497,50.7250649 L145.386118,50.7250649 L145.386118,50.328961 L145.95897,50.328961 C147.59697,50.328961 147.883397,49.8718182 147.883397,48.6250649 L147.883397,39.8523377 C147.883397,38.6887013 147.616151,38.19 146.245397,38.19 L145.795298,38.19 L145.795298,37.7951948 L155.620741,37.7951948 L155.783134,40.6848052 L155.416151,40.6848052 C155.148905,38.9172727 154.636151,38.5432468 153.899626,38.5432468 L149.581495,38.5432468 L149.581495,43.6562338 L153.246216,43.6562338 C153.982741,43.6562338 154.330544,43.302987 154.432839,42.0977922 L154.821561,42.0977922 L154.821561,46.0471429 Z" id="Fill-41" fill="#FEFEFE"></path>
                    <path d="M173.577364,50.8696104 L162.975757,39.6033766 L162.975757,48.5202597 C162.975757,50.0176623 163.303102,50.3293506 165.043397,50.3293506 L165.043397,50.7241558 L160.294348,50.7241558 L160.294348,50.3293506 L160.377462,50.3293506 C161.645921,50.3293506 162.055102,49.892987 162.055102,48.9371429 L162.055102,38.7085714 C161.584544,38.3761039 161.05261,38.2111688 160.336544,38.1890909 L160.336544,37.7942857 L163.549889,37.7942857 L173.189921,48.0020779 L173.189921,39.7280519 C173.189921,38.4592208 172.82038,38.2306494 171.183659,38.1890909 L171.183659,37.7942857 L175.972348,37.7942857 L175.972348,38.1890909 C174.437921,38.1890909 174.110577,38.4592208 174.110577,39.2709091 L174.110577,50.8696104 L173.577364,50.8696104 Z" id="Fill-43" fill="#FEFEFE"></path>
                    <path d="M190.559882,49.7472727 C188.531882,50.807013 185.933587,51.0563636 185.07303,51.0563636 C180.591226,51.0563636 178.504407,47.5433766 178.504407,44.5083117 C178.504407,41.3901299 180.652603,37.4823377 185.647161,37.4823377 C187.837554,37.4823377 189.290144,38.1901299 189.721062,38.1901299 C189.903915,38.1901299 190.067587,38.1472727 190.190341,38.0433766 L190.478046,38.0433766 L190.478046,41.4109091 L190.067587,41.4109091 C189.516472,38.8135065 187.774898,38.0018182 185.87221,38.0018182 C182.270144,38.0018182 180.427554,41.0368831 180.427554,44.3849351 C180.427554,48.645974 183.374931,50.5368831 185.728997,50.5368831 C186.670111,50.5368831 187.713521,50.3290909 188.860505,49.7472727 L188.860505,47.1277922 C188.860505,45.9433766 188.451325,45.5485714 187.223784,45.5485714 L186.465521,45.5485714 L186.465521,45.1745455 L191.990734,45.1745455 L191.990734,45.5485714 C190.967784,45.6109091 190.559882,45.9641558 190.559882,46.8576623 L190.559882,49.7472727 Z" id="Fill-45" fill="#FEFEFE"></path>
                    <path d="M200.241216,50.7244156 L195.267118,50.7244156 L195.267118,50.3296104 C196.536856,50.2672727 196.802823,49.9348052 196.802823,48.5412987 L196.802823,39.6867532 C196.802823,38.5633766 196.414102,38.2516883 195.267118,38.1893506 L195.267118,37.7945455 L200.241216,37.7945455 L200.241216,38.1893506 C198.95102,38.1893506 198.5022,38.4802597 198.5022,39.8737662 L198.5022,48.6867532 C198.5022,49.914026 198.828266,50.3296104 200.241216,50.3296104 L200.241216,50.7244156 Z" id="Fill-47" fill="#FEFEFE"></path>
                    <path d="M217.362472,50.8696104 L206.760866,39.6033766 L206.760866,48.5202597 C206.760866,50.0176623 207.08821,50.3293506 208.827226,50.3293506 L208.827226,50.7241558 L204.078177,50.7241558 L204.078177,50.3293506 L204.161292,50.3293506 C205.429751,50.3293506 205.838931,49.892987 205.838931,48.9371429 L205.838931,38.7085714 C205.368374,38.3761039 204.835161,38.2111688 204.120374,38.1890909 L204.120374,37.7942857 L207.332439,37.7942857 L216.972472,48.0020779 L216.972472,39.7280519 C216.972472,38.4592208 216.605489,38.2306494 214.967489,38.1890909 L214.967489,37.7942857 L219.757456,37.7942857 L219.757456,38.1890909 C218.221751,38.1890909 217.894407,38.4592208 217.894407,39.2709091 L217.894407,50.8696104 L217.362472,50.8696104 Z" id="Fill-49" fill="#FEFEFE"></path>
                    <path d="M232.292184,46.0471429 L231.902184,46.0471429 C231.737233,44.5718182 231.351069,44.4042857 230.51097,44.4042857 L227.052118,44.4042857 L227.052118,48.8328571 C227.052118,49.7887013 227.399921,49.9757143 228.156905,49.9757143 L231.307593,49.9757143 C232.742282,49.9757143 233.170643,49.4146753 233.683397,47.6276623 L234.051659,47.6276623 L233.723036,50.7250649 L222.855462,50.7250649 L222.855462,50.328961 L223.428315,50.328961 C225.067593,50.328961 225.352741,49.8718182 225.352741,48.6250649 L225.352741,39.8523377 C225.352741,38.6887013 225.086774,38.19 223.71602,38.19 L223.264643,38.19 L223.264643,37.7951948 L233.088807,37.7951948 L233.253757,40.6848052 L232.884216,40.6848052 C232.619528,38.9172727 232.106774,38.5432468 231.370249,38.5432468 L227.052118,38.5432468 L227.052118,43.6562338 L230.715561,43.6562338 C231.452085,43.6562338 231.799889,43.302987 231.902184,42.0977922 L232.292184,42.0977922 L232.292184,46.0471429 Z" id="Fill-51" fill="#FEFEFE"></path>
                    <path d="M246.9246,46.0471429 L246.537157,46.0471429 C246.372207,44.5718182 245.984764,44.4042857 245.144666,44.4042857 L241.684534,44.4042857 L241.684534,48.8328571 C241.684534,49.7887013 242.034895,49.9757143 242.791879,49.9757143 L245.942567,49.9757143 C247.377256,49.9757143 247.806895,49.4146753 248.31837,47.6276623 L248.685354,47.6276623 L248.35801,50.7250649 L237.489157,50.7250649 L237.489157,50.328961 L238.063289,50.328961 C239.701289,50.328961 239.986436,49.8718182 239.986436,48.6250649 L239.986436,39.8523377 C239.986436,38.6887013 239.721748,38.19 238.349715,38.19 L237.898338,38.19 L237.898338,37.7951948 L247.72378,37.7951948 L247.887452,40.6848052 L247.51919,40.6848052 C247.253223,38.9172727 246.741748,38.5432468 246.003944,38.5432468 L241.684534,38.5432468 L241.684534,43.6562338 L245.349256,43.6562338 C246.08578,43.6562338 246.434862,43.302987 246.537157,42.0977922 L246.9246,42.0977922 L246.9246,46.0471429 Z" id="Fill-53" fill="#FEFEFE"></path>
                    <path d="M255.930403,44.9037662 L256.750043,44.9037662 C257.651518,44.9037662 258.304928,44.882987 259.022272,44.6751948 C260.433944,44.2596104 260.965879,42.6583117 260.965879,41.4115584 C260.965879,40.5803896 260.699911,39.1245455 259.329157,38.4596104 C258.345846,37.9816883 257.056928,38.0232468 255.930403,38.044026 L255.930403,44.9037662 Z M264.998862,50.9946753 C263.482338,50.9946753 262.174239,50.7245455 260.352108,47.8764935 C260.086141,47.4609091 258.940436,45.6102597 258.652731,45.2777922 L255.930403,45.2777922 L255.930403,48.0635065 C255.930403,49.8725974 256.074895,50.3505195 258.120797,50.3505195 L258.120797,50.7245455 L252.266961,50.7245455 L252.266961,50.3505195 C254.232305,50.3505195 254.232305,49.8102597 254.232305,48.0219481 L254.232305,39.6648052 C254.232305,38.6258442 253.92542,38.231039 252.246502,38.231039 L252.246502,37.857013 C253.966338,37.7115584 255.705354,37.6284416 257.446928,37.6284416 C259.061911,37.6284416 259.983846,37.8154545 260.862305,38.2518182 C261.702403,38.6674026 262.910764,39.6024675 262.910764,41.3284416 C262.910764,41.8894805 262.725354,43.8232468 260.228075,44.695974 L262.725354,48.5414286 C263.667748,49.9972727 264.321157,50.5167532 264.998862,50.6206494 L264.998862,50.9946753 Z" id="Fill-55" fill="#FEFEFE"></path>
                    <path d="M273.594718,50.7244156 L268.619341,50.7244156 L268.619341,50.3296104 C269.890357,50.2672727 270.156325,49.9348052 270.156325,48.5412987 L270.156325,39.6867532 C270.156325,38.5633766 269.766325,38.2516883 268.619341,38.1893506 L268.619341,37.7945455 L273.594718,37.7945455 L273.594718,38.1893506 C272.304521,38.1893506 271.854423,38.4802597 271.854423,39.8737662 L271.854423,48.6867532 C271.854423,49.914026 272.181767,50.3296104 273.594718,50.3296104 L273.594718,50.7244156 Z" id="Fill-57" fill="#FEFEFE"></path>
                    <path d="M290.714823,50.8696104 L280.113216,39.6033766 L280.113216,48.5202597 C280.113216,50.0176623 280.440561,50.3293506 282.180856,50.3293506 L282.180856,50.7241558 L277.431807,50.7241558 L277.431807,50.3293506 L277.514921,50.3293506 C278.78338,50.3293506 279.192561,49.892987 279.192561,48.9371429 L279.192561,38.7085714 C278.722003,38.3761039 278.190069,38.2111688 277.472725,38.1890909 L277.472725,37.7942857 L280.687348,37.7942857 L290.32738,48.0020779 L290.32738,39.7280519 C290.32738,38.4592208 289.957839,38.2306494 288.321118,38.1890909 L288.321118,37.7942857 L293.109807,37.7942857 L293.109807,38.1890909 C291.57538,38.1890909 291.248036,38.4592208 291.248036,39.2709091 L291.248036,50.8696104 L290.714823,50.8696104 Z" id="Fill-59" fill="#FEFEFE"></path>
                    <g id="Group-63" transform="translate(294.816593, 37.090909)">
                        <mask id="mask-2" fill="white">
                            <use xlink:href="#path-1"></use>
                        </mask>
                        <g id="Clip-62"></g>
                        <path d="M12.1227417,12.6563636 C10.0960204,13.7161039 7.49644664,13.9654545 6.63716796,13.9654545 C2.15408599,13.9654545 0.0672663165,10.4524675 0.0672663165,7.4174026 C0.0672663165,4.29922078 2.21674173,0.391428571 7.21002041,0.391428571 C9.40041386,0.391428571 10.853004,1.09922078 11.2839221,1.09922078 C11.4667745,1.09922078 11.6317253,1.05636364 11.7544794,0.952467532 L12.0421843,0.952467532 L12.0421843,4.32 L11.6317253,4.32 C11.0793319,1.7225974 9.33903681,0.910909091 7.43634828,0.910909091 C3.83300402,0.910909091 1.99169255,3.94597403 1.99169255,7.29402597 C1.99169255,11.5550649 4.9390696,13.445974 7.29185648,13.445974 C8.23297123,13.445974 9.27638107,13.2381818 10.4233647,12.6563636 L10.4233647,10.0368831 C10.4233647,8.85246753 10.0141843,8.45766234 8.78664337,8.45766234 L8.02838107,8.45766234 L8.02838107,8.08363636 L13.5548729,8.08363636 L13.5548729,8.45766234 C12.5306434,8.52 12.1227417,8.87324675 12.1227417,9.76675325 L12.1227417,12.6563636 Z" id="Fill-61" fill="#FEFEFE" mask="url(#mask-2)"></path>
                    </g>
                </g>
                <path d="M10.8061967,35.1157143 C10.8061967,48.6845455 21.6763279,59.7248052 35.0360656,59.7248052 L35.0360656,59.7248052 C48.3983607,59.7248052 59.2672131,48.6845455 59.2672131,35.1157143 L59.2672131,35.1157143 C59.2672131,21.5455844 48.3983607,10.5066234 35.0360656,10.5066234 L35.0360656,10.5066234 C21.6763279,10.5066234 10.8061967,21.5455844 10.8061967,35.1157143" id="Fill-65" fill="#FFFFFF"></path>
                <g id="Group-168" transform="translate(0.000000, 0.045584)">
                    <path d="M35.036577,10.7871429 C21.8520197,10.7871429 11.1263803,21.6806494 11.1263803,35.0702597 C11.1263803,48.4598701 21.8520197,59.3533766 35.036577,59.3533766 C48.2198557,59.3533766 58.9454951,48.4598701 58.9454951,35.0702597 C58.9454951,21.6806494 48.2198557,10.7871429 35.036577,10.7871429 M35.036577,59.6793506 C21.6755607,59.6793506 10.8054295,48.6390909 10.8054295,35.0702597 C10.8054295,21.5001299 21.6755607,10.4611688 35.036577,10.4611688 C48.3975934,10.4611688 59.2664459,21.5001299 59.2664459,35.0702597 C59.2664459,48.6390909 48.3975934,59.6793506 35.036577,59.6793506" id="Fill-67" fill="#D1D2D4"></path>
                    <path d="M59.1014951,34.5267532 C59.1014951,34.6345455 58.6744131,35.0007792 58.2179213,35.2825974 C58.2064131,35.2890909 58.1949049,35.2955844 58.1833967,35.3020779 C57.5632328,35.6462338 56.6822164,35.967013 55.5863803,36.2592208 C54.4649705,36.5605195 53.0775934,36.8319481 51.5546754,37.0696104 C50.0279213,37.3072727 48.3311016,37.4851948 46.5000197,37.6501299 C46.5000197,37.6462338 46.5000197,37.654026 46.5000197,37.6501299 C44.1574623,37.8618182 42.6831344,37.9527273 40.8162492,38.0475325 C38.8330033,38.1319481 36.7717574,38.1748052 34.679823,38.1735065 C34.679823,38.4423377 34.6811016,38.7124675 34.6811016,38.9838961 C34.683659,40.892987 34.6900525,42.7137662 34.6990033,44.4267532 C34.7463148,53.8124675 34.7591016,53.8085714 35.036577,59.5163636 C48.329823,59.5163636 59.1066098,48.5709091 59.1066098,35.0709091 C59.1066098,35.0709091 59.1014951,34.7163636 59.1014951,34.5267532" id="Fill-69" fill="#FFD200"></path>
                    <path d="M34.6809738,38.9835065 C34.6835311,40.8925974 34.6899246,42.7133766 34.6988754,44.4263636 C38.5566787,48.1393506 38.5566787,48.1393506 40.1627115,49.7744156 C40.5885148,46.6705195 40.8276295,42.964026 40.8212361,38.8588312 C40.8212361,38.5887013 40.8186787,38.3185714 40.8161213,38.0484416 C38.378941,38.1458442 36.7716295,38.1744156 34.6796951,38.1731169 C34.6796951,38.4432468 34.6809738,38.7133766 34.6809738,38.9835065" id="Fill-71" fill="#221F20"></path>
                    <path d="M43.5131311,53.95 C42.6704754,52.5564935 41.9032623,51.6474026 40.1604098,49.788961 C39.3420492,55.7422078 37.8817869,59.4058442 36.0839508,59.4850649 C36.2361148,59.4785714 36.4713934,59.4642857 36.6222787,59.4551948 C36.814082,59.4422078 37.048082,59.4214286 37.2398852,59.4058442 C39.7307705,59.1798701 41.8738525,57.2396104 43.5131311,53.95" id="Fill-73" fill="#221F20"></path>
                    <path d="M46.2102689,43.9723377 C46.2141049,43.9372727 44.8241705,51.3151948 43.5135148,53.9502597 C44.267941,55.4268831 44.3011869,56.0151948 43.996859,56.984026 C46.3343016,55.1827273 48.2612852,52.4658442 49.5872852,49.1009091 C48.7356787,47.3411688 48.1577115,46.4035065 46.2102689,43.9723377" id="Fill-75" fill="#221F20"></path>
                    <path d="M39.317882,59.1342857 C39.8421443,59.0407792 39.8140131,59.0303896 40.783259,58.8096104 L41.3599475,58.6407792 C43.1373246,58.0797403 43.4493246,57.7966234 44.0029967,56.9602597 C42.417423,58.1732468 40.7206033,58.9161039 38.8255869,59.2174026 L39.317882,59.1342857 Z" id="Fill-77" fill="#221F20"></path>
                    <path d="M50.0170525,53.1353247 C53.4874131,49.1431169 55.6087574,43.5054545 55.5985279,37.0690909 C55.5985279,36.798961 55.5946918,36.5288312 55.5870197,36.26 C54.4656098,36.56 53.0782328,36.8327273 51.5553148,37.0690909 C51.5757738,37.3405195 51.5847246,37.6171429 51.5847246,37.8872727 C51.5923967,42.0703896 50.8916754,45.872987 49.6193803,49.0872727 C50.3354459,50.9522078 50.3469541,51.734026 50.0170525,53.1353247" id="Fill-79" fill="#221F20"></path>
                    <path d="M46.4997639,37.6502597 C44.1584852,37.8619481 42.6828787,37.9528571 40.8159934,38.0476623 C44.1162885,41.5307792 44.8157311,42.3463636 46.2107803,43.9723377 C46.4076984,42.2424675 46.5099934,40.4074026 46.5074361,38.4892208 C46.5061574,38.2138961 46.5036,37.9242857 46.4997639,37.6502597" id="Fill-81" fill="#221F20"></path>
                    <path d="M29.758918,11.8864935 C31.1002623,11.3358442 32.3891803,10.7644156 34.9874754,10.6150649 C33.2292787,10.7761039 31.3918033,11.2735065 29.758918,11.8864935" id="Fill-83" fill="#221F20"></path>
                    <path d="M51.1536787,37.0661039 C49.8992852,36.8985714 48.8507607,34.7453247 49.4018754,32.557013 C47.6398426,33.7946753 45.6565967,31.2518182 45.9455803,28.8985714 C46.099023,27.6518182 46.903318,26.544026 48.3047607,27.0583117 C47.7357443,25.0687013 47.0209574,23.1855844 46.1872525,21.4531169 C44.9430885,21.6128571 43.5787279,21.7466234 42.1299738,21.8505195 C43.4163344,23.8232468 42.1542689,25.6596104 40.3602689,25.3674026 C39.0585639,25.1557143 37.8438098,23.77 38.1826623,22.1193506 C37.1277443,22.8622078 34.9629246,22.57 34.7583344,20.2271429 C34.7020721,25.1985714 34.6726623,31.5583117 34.6803344,38.1725974 C41.0763344,38.2375325 48.5720066,37.544026 51.5551869,37.0687013 C51.5551869,37.0687013 51.5551869,37.0790909 51.5551869,37.0687013 C51.4324328,37.0790909 51.271318,37.0816883 51.1536787,37.0661039" id="Fill-85" fill="#E21933"></path>
                    <path d="M19.4855508,41.9738961 C21.2757148,41.2725974 23.5236492,44.4128571 22.735977,46.5128571 C22.3728295,47.4816883 21.4317148,47.7505195 20.4458459,47.1687013 C20.9777803,49.0024675 21.6695508,50.6777922 22.4955836,52.1622078 C23.7602066,52.3401299 25.1808295,52.4920779 26.7369934,52.6115584 C25.4877148,51.0505195 26.4889279,49.7712987 28.155059,49.857013 C29.5846328,49.9323377 31.4783705,51.1401299 31.0730262,52.7907792 C32.3606656,52.1998701 34.5357148,52.6816883 34.7991246,54.3855844 C34.7364689,50.7193506 34.6929934,45.3362338 34.6827639,38.982987 C34.6827639,38.7050649 34.6802066,38.4505195 34.6802066,38.1725974 C32.6496492,38.1777922 30.5909607,38.0998701 28.541223,38.0141558 C24.1898459,37.831039 21.2309607,37.5764935 17.5892557,36.9466234 C17.587977,36.957013 17.5892557,36.9349351 17.5892557,36.9466234 C19.456141,37.5881818 19.9676164,40.408961 19.4855508,41.9738961" id="Fill-87" fill="#E21933"></path>
                    <path d="M46.440177,19.4497403 L46.440177,19.4497403 C46.4465705,19.4484416 46.4529639,19.4471429 46.4529639,19.4471429 L46.4580787,19.4458442 L46.4708656,19.4432468 C46.7035869,19.4042857 46.9248,19.3666234 47.1357836,19.3276623 C48.5142098,19.0705195 51.6367672,18.3094805 51.6367672,17.3848052 C51.6367672,17.3848052 52.8630295,18.6328571 53.7619475,20.3666234 C53.8693574,20.5562338 53.9384066,20.728961 54.0355869,21.002987 C54.1442754,21.3094805 54.2094885,21.6653247 54.1967016,21.8367532 C54.1570623,22.364026 53.8271607,22.3731169 53.4819148,22.2172727 C53.4461115,22.202987 53.4103082,22.19 53.3719475,22.1718182 C52.134177,21.6055844 51.7301115,20.4536364 51.489718,19.9783117 C50.861882,20.1809091 49.8223082,20.6393506 48.9566361,20.8094805 C48.8568984,20.8302597 48.6727672,20.8744156 48.5691934,20.8938961 C49.5883082,22.5977922 50.5588328,24.6315584 51.255718,26.6016883 C52.4679148,25.3354545 54.3654885,27.6835065 54.4575541,29.951039 C54.511259,31.2822078 53.9217836,32.4679221 52.7236525,32.0406494 C53.6813902,33.8445455 53.3757836,36.49 51.5549311,37.0692208 C51.251882,31.1380519 50.262177,25.8731169 46.415882,19.4601299 L46.4146033,19.4601299" id="Fill-89" fill="#E21933"></path>
                    <path d="M46.4149869,19.4603896 L46.4149869,19.4603896 C43.3486918,14.7045455 40.9294131,12.975974 37.8209213,11.7305195 C37.2007574,11.4824675 35.0947574,10.6422078 34.9873475,10.6149351 L34.997577,10.6344156 C35.5461344,11.45 36.6445279,11.9331169 36.8823639,12.0045455 C36.8145934,12.3006494 36.865741,12.8915584 37.879741,13.637013 C38.0370197,13.7525974 38.1891836,13.8435065 38.3362328,13.9162338 C39.9000689,14.7474026 40.2453148,14.1006494 40.3182,13.8422078 C40.3271508,13.8344156 40.3373803,13.8279221 40.3450525,13.8214286 C40.823282,14.1785714 41.7528885,14.9383117 42.7796754,16.1201299 C43.3717082,16.8422078 43.9304951,17.4707792 44.3499049,18.1019481 C43.3844951,18.2253247 42.1032492,18.3409091 40.8335115,18.4331169 C40.7619049,16.8746753 39.6558393,16.0954545 38.9576754,15.8331169 C37.4334787,15.2564935 36.9309541,17.0798701 37.5920361,18.3616883 C36.3849541,17.6980519 34.9579377,18.288961 34.7571836,20.2253247 C39.5241344,20.1967532 42.7924623,19.9824675 46.4149869,19.4603896 L46.4162656,19.4603896 L46.4149869,19.4590909" id="Fill-91" fill="#E21933"></path>
                    <path d="M46.7147115,15.0319481 C46.7019246,15.0085714 46.6891377,14.9241558 46.704482,14.8592208 C46.7198262,14.7955844 46.7735311,14.7436364 46.7735311,14.7436364 C46.7735311,14.7436364 46.7978262,14.68 46.8898918,14.6267532 C47.1354,14.4838961 47.8604164,14.4111688 49.8756295,15.8241558 C45.7019902,12.4903896 41.2086787,11.1202597 37.3956295,10.7397403 C36.8573016,10.6761039 35.8599246,10.6345455 35.8599246,10.6345455 C37.0734,10.7436364 37.8955967,11.0722078 38.0912361,11.1423377 C38.2459574,11.1968831 38.3687115,11.28 38.4428754,11.3462338 C38.4492689,11.3436364 38.4556623,11.3436364 38.4556623,11.3436364 C38.6960557,11.3696104 38.9722525,11.418961 39.314941,11.518961 C39.6870393,11.6293506 40.308482,11.8605195 40.8608754,12.1254545 C41.4145475,12.3916883 42.2367443,12.9877922 42.2405803,13.3202597 C42.1139902,13.3981818 42.0743508,13.4215584 41.7009738,13.3202597 C43.1241541,14.3514286 45.1662197,16.292987 46.3733016,17.7241558 C47.2018918,17.5644156 48.4383836,17.3838961 49.0086787,17.1903896 C48.9690393,17.2306494 47.1251705,15.8254545 46.7147115,15.0319481" id="Fill-93" fill="#E21933"></path>
                    <path d="M22.2432984,53.5155844 C20.1782164,53.1363636 18.9928721,52.8207792 18.2013639,52.4077922 C18.069659,52.338961 18.028741,52.338961 17.9967738,52.3324675 C17.9788721,52.3285714 16.821659,51.1246753 15.803823,49.7831169 C15.064741,48.8090909 14.4420197,47.7090909 14.3742492,47.6051948 C14.3819213,47.6168831 14.5417574,47.6051948 14.6402164,47.638961 C15.7219869,48.0038961 17.4098557,51.0025974 17.4303148,51.0350649 C18.0990689,51.2883117 18.9698557,51.525974 20.019659,51.7415584 C19.0325115,50.2298701 18.2052,48.5311688 17.5671344,46.6779221 C16.0659541,47.4493506 14.1504787,43.4194805 14.7578557,41.7194805 C14.8818885,41.3727273 15.2795607,40.6506494 16.296118,41.4311688 C15.5301836,39.6376623 15.7386098,36.9428571 17.5888721,36.9467532 C17.6310689,42.8883117 18.4315279,48.0103896 22.2432984,53.5155844" id="Fill-95" fill="#E21933"></path>
                    <path d="M34.7631934,54.7290909 C34.5547672,55.5758442 33.3873246,56.3849351 31.7327016,55.7005195 C32.5050295,56.7368831 31.8349967,57.6316883 30.4744721,57.381039 C29.4169967,57.1862338 28.1613246,56.3225974 28.0628656,55.4576623 C26.7547672,55.3563636 25.5591934,55.2290909 24.4953246,55.0784416 C25.5054885,56.2706494 26.6307344,57.2446753 27.8467672,57.9667532 C27.9925377,57.907013 28.2175869,57.9212987 28.9387672,58.1784416 C29.8607016,58.5057143 30.741718,58.945974 31.6623738,59.2784416 C31.6623738,59.2797403 31.4680131,59.2485714 31.4680131,59.2485714 C30.7685705,59.1394805 30.5985049,59.1018182 30.2072262,59.0238961 C28.4336852,58.6680519 25.3456525,57.6420779 22.2435541,53.5161039 L22.2422754,53.5161039 L22.2435541,53.5161039 C25.9811607,54.1018182 29.6190295,54.3537662 34.8015541,54.3875325 C34.7900459,54.4901299 34.7874885,54.6290909 34.7631934,54.7290909" id="Fill-97" fill="#E21933"></path>
                    <path d="M34.9877311,10.6148052 C22.0806492,10.6148052 11.2181902,21.3161039 10.9714033,34.6005195 L10.9777967,34.6225974 C10.9880262,34.6615584 11.1095016,34.9057143 11.6145836,35.2290909 L11.6145836,35.2290909 L11.6145836,35.2290909 C12.1235016,35.5524675 12.8715344,35.8966234 13.8599607,36.1550649 C15.0849443,36.4732468 16.3674689,36.7342857 17.5643213,36.9420779 L17.5886164,36.9472727 C21.2303213,37.5758442 24.1904852,37.8303896 28.5418623,38.0135065 C30.5903213,38.0992208 32.6490098,38.1784416 34.6795672,38.1732468 C34.6782885,36.9251948 34.6706164,29.8238961 34.7268787,22.9680519 C34.7332721,22.0823377 34.746059,21.1563636 34.7562885,20.2277922 C34.8099934,15.7602597 34.902059,11.2135065 34.9877311,10.6148052" id="Fill-99" fill="#FFD200"></path>
                    <path d="M46.5184328,56.5627273 C45.1579082,57.3380519 44.8932197,57.3575325 43.0634164,58.1237662 C42.5544984,58.3354545 42.0801049,58.4601299 41.5558426,58.6107792 C44.8011541,57.7224675 49.239482,54.0302597 50.0207607,53.1315584 C49.6256459,54.0198701 49.3289902,54.6107792 48.3725311,55.3951948 C48.1065639,55.6133766 46.9595803,56.3107792 46.5184328,56.5627273" id="Fill-101" fill="#221F20"></path>
                    <path d="M13.8604721,36.1545455 C12.8579803,35.9051948 12.1227344,35.5532468 11.6150951,35.2285714 C11.8810623,26.3831169 16.7208984,18.5350649 23.7690295,14.2363636 C22.1028984,15.738961 21.3625377,16.6350649 20.5224393,18.6662338 C16.566177,23.2792208 14.0407672,29.4857143 13.8604721,36.1545455" id="Fill-103" fill="#221F20"></path>
                    <path d="M23.7923016,14.2227273 C25.5594492,12.9292208 26.5632197,11.9863636 29.3622689,11.3045455 C31.323777,10.8266234 33.0436131,10.6188312 34.9872197,10.6149351 C30.9312197,10.7915584 27.1168918,12.2006494 23.7923016,14.2227273" id="Fill-105" fill="#221F20"></path>
                    <path d="M22.5064525,37.6196104 C20.7482557,37.4468831 19.0834033,37.2092208 17.5886164,36.9468831 C17.6870754,32.5131169 18.5987803,28.2650649 20.180518,24.5001299 C20.7917311,26.9715584 21.3108787,28.3014286 23.0281574,31.2312987 C22.7199934,33.3014286 22.5396984,35.4442857 22.5064525,37.6196104" id="Fill-107" fill="#221F20"></path>
                    <path d="M34.7589738,20.2275325 C34.7282852,22.9197403 34.712941,25.6872727 34.7065475,27.8223377 C34.692482,29.9405195 34.6848098,31.472987 34.6848098,31.7690909 C32.3179574,29.2483117 31.0494984,27.8327273 29.3194328,25.5976623 C30.4830393,17.9950649 32.5839246,11.9911688 34.987859,10.6145455 C34.9009082,11.3366234 34.8101213,15.6548052 34.7589738,20.2275325" id="Fill-109" fill="#221F20"></path>
                    <path d="M26.3096557,19.9358442 C24.7969672,23.1761039 23.6653279,27.0579221 23.0426066,31.2280519 C24.514377,33.4501299 25.4235246,34.7475325 28.3555574,38.0046753 C28.3875246,33.6345455 28.7378852,29.3955844 29.3222459,25.58 C27.5602131,23.1436364 27.0014262,21.9838961 26.3096557,19.9358442" id="Fill-111" fill="#221F20"></path>
                    <path d="M58.1836525,35.3015584 C58.1926033,35.5716883 58.197718,35.8405195 58.197718,36.1106494 C58.2105049,44.7548052 54.0586033,51.9457143 47.5526361,55.9262338 L47.3825705,56.0587013 C50.4360787,54.1496104 54.3002754,50.9288312 56.7566361,45.5976623 C59.3894557,40.3392208 59.1017508,34.5262338 59.1017508,34.5262338 C58.9713246,34.7625974 58.5851607,35.0651948 58.1836525,35.3015584" id="Fill-113" fill="#221F20"></path>
                    <path d="M29.758918,11.8864935 C26.2476393,13.2838961 23.0867213,15.6774026 20.5255082,18.6618182 C19.8273443,20.8851948 19.828623,22.1254545 20.1802623,24.5007792 C21.7428197,20.7942857 23.9217049,17.5838961 26.5008197,15.1838961 C27.2961639,13.7851948 27.7922951,12.9488312 29.758918,11.8864935" id="Fill-115" fill="#221F20"></path>
                    <path d="M26.3016,19.9541558 C25.8668459,17.9580519 25.8310426,16.9398701 26.4908459,15.2022078 C29.0034689,12.8528571 31.900977,11.1048052 34.9877311,10.6151948 C31.6094361,11.5346753 28.5482557,15.1333766 26.3016,19.9541558" id="Fill-117" fill="#221F20"></path>
                    <path d="M8.25751475,19.0983117 L6.28321967,18.1022078 C5.83951475,17.8788312 5.75767869,17.6385714 5.97377705,17.1827273 L6.00446557,17.1177922 L5.73721967,16.9866234 L4.82167869,18.8606494 L5.08508852,18.9931169 L5.11833443,18.9333766 C5.31908852,18.5684416 5.44184262,18.4515584 5.62469508,18.4515584 C5.7564,18.4515584 5.9341377,18.5125974 6.2359082,18.6645455 L7.94167869,19.5242857 C9.1999082,20.1593506 9.0324,21.1775325 8.67053115,21.9216883 C8.32017049,22.6372727 7.8176459,23.0151948 7.2166623,23.0151948 C6.94558033,23.0151948 6.65659672,22.9398701 6.35610492,22.7879221 L4.32171148,21.7632468 C3.95728525,21.5788312 3.90997377,21.41 4.1068918,21.0035065 L4.17082623,20.8723377 L3.90485902,20.7385714 L2.90876066,22.7775325 L3.17472787,22.91 L3.20541639,22.8476623 C3.37676066,22.51 3.47777705,22.4022078 3.62226885,22.4022078 C3.7066623,22.4022078 3.8179082,22.4372727 3.97135082,22.5151948 L6.10931803,23.5944156 C6.43154754,23.7554545 6.76017049,23.8385714 7.08367869,23.8385714 C7.90971148,23.8385714 8.62321967,23.3074026 9.09505574,22.3424675 C9.9121377,20.6749351 9.19735082,19.5723377 8.25751475,19.0983117" id="Fill-119" fill="#FEFEFE"></path>
                    <path d="M10.7820295,11.2087013 C10.7718,11.0931169 10.8638656,10.9307792 11.0850787,10.6645455 L11.1311115,10.61 L10.9022262,10.4177922 L9.58261967,12.0087013 L9.80511148,12.2048052 L9.85242295,12.1515584 C10.1145541,11.8515584 10.2526525,11.7450649 10.3818,11.7450649 C10.4725869,11.7450649 10.5774393,11.7996104 10.730882,11.9307792 L13.0823902,13.9437662 L7.68248852,14.2996104 L6.79124262,15.3697403 L7.01501311,15.5645455 L7.0610459,15.5125974 C7.23366885,15.3216883 7.39861967,15.2074026 7.59298033,15.1463636 L10.6349803,17.7515584 C10.8651443,17.9502597 10.9354721,18.1398701 10.6145213,18.5281818 L10.5480295,18.6087013 L10.7730787,18.8035065 L12.0862918,17.2190909 L11.8586852,17.0255844 L11.8139311,17.0801299 C11.5633082,17.3814286 11.4188164,17.4931169 11.2794393,17.4931169 C11.1694721,17.4931169 11.0416033,17.4216883 10.8370131,17.2476623 L8.29370164,15.0723377 L14.2587836,14.6905195 L14.4620951,14.4476623 L10.9226852,11.4177922 C10.829341,11.3372727 10.7871443,11.2749351 10.7820295,11.2087013" id="Fill-121" fill="#FEFEFE"></path>
                    <path d="M17.055659,11.7749351 C16.8612984,11.9385714 16.7219213,12.0112987 16.6055607,12.0112987 C16.4853639,12.0112987 16.370282,11.9294805 16.2066098,11.7320779 L13.9957574,9.02558442 C13.6696918,8.62688312 13.7323475,8.46714286 14.0954951,8.15805195 L14.1504787,8.1125974 L13.9612328,7.88012987 L12.3257902,9.25935065 L12.5137574,9.48792208 L12.5674623,9.44766234 C12.7400852,9.31779221 12.8615607,9.26064935 12.962577,9.26064935 C13.073823,9.26064935 13.1799541,9.33207792 13.3154951,9.49961039 L15.5391344,12.2177922 C15.8690361,12.6203896 15.8664787,12.7463636 15.5237902,13.0645455 L15.4739213,13.11 L15.6606098,13.3398701 L17.2986098,11.9619481 L17.1106426,11.7294805 L17.055659,11.7749351 Z" id="Fill-123" fill="#FEFEFE"></path>
                    <path d="M20.2163213,4.17519481 L20.2776984,4.13883117 L20.1255344,3.87909091 L18.3724525,4.92324675 L18.518223,5.18688312 L18.5808787,5.14922078 C18.8378951,4.99597403 19.0143541,4.92454545 19.1345508,4.92454545 C19.2151082,4.92454545 19.2688131,4.95701299 19.3122885,5.03493506 C19.3608787,5.11805195 19.4017967,5.2725974 19.4401574,5.52454545 L20.0027803,8.96220779 L17.0272721,6.62064935 C16.9160262,6.53493506 16.8623213,6.45701299 16.8661574,6.38168831 C16.8725508,6.24662338 17.0490098,6.0712987 17.4057639,5.84792208 L17.4658623,5.81025974 L17.314977,5.55311688 L15.2550098,6.77909091 L15.4058951,7.03883117 L15.4672721,7.00246753 C15.6424525,6.89727273 15.7575344,6.85441558 15.8598295,6.85441558 C16.0081574,6.85441558 16.1513705,6.94922078 16.3994361,7.14662338 L20.200977,10.1375325 L20.6382885,9.87779221 L19.8787475,5.14922078 C19.7943541,4.62194805 19.8787475,4.37519481 20.2163213,4.17519481" id="Fill-125" fill="#FEFEFE"></path>
                    <path d="M26.8610262,5.54623377 L26.8635836,5.60077922 C26.8993869,6.35012987 26.7970918,6.56051948 26.3163049,6.72935065 L25.1258459,7.14363636 C25.035059,7.1761039 24.9672885,7.19168831 24.9148623,7.19168831 C24.8164033,7.19168831 24.7345672,7.14233766 24.6540098,6.90467532 L24.1067311,5.30207792 L25.3457803,4.86831169 C25.4506328,4.83194805 25.519682,4.81636364 25.577223,4.81636364 C25.7012557,4.81636364 25.8201738,4.89298701 25.9966328,5.26571429 L26.0234852,5.32285714 L26.2958459,5.23064935 L25.7434525,3.60467532 L25.4698131,3.69818182 L25.4851574,3.76181818 C25.597682,4.22155844 25.5043377,4.34623377 25.2818459,4.42285714 L23.9673541,4.8838961 L23.3586984,3.09038961 L24.919977,2.54233766 C24.9800754,2.52155844 25.0325016,2.51116883 25.0810918,2.51116883 C25.2140754,2.51116883 25.4020426,2.58 25.679518,3.11636364 L25.7076492,3.17220779 L25.9774525,3.07480519 L25.4902721,1.87480519 L21.6542066,3.21896104 L21.7501082,3.50467532 L21.9879443,3.42025974 C22.1222066,3.37350649 22.2308951,3.35012987 22.3191246,3.35012987 C22.5147639,3.35012987 22.6183377,3.46051948 22.7270262,3.78779221 L23.8509934,7.09818182 C23.9341082,7.34103896 23.9468951,7.4761039 23.8957475,7.5812987 C23.8382066,7.70077922 23.6822066,7.79948052 23.3868295,7.90207792 L23.1042393,8.00337662 L23.2014197,8.28649351 L27.4287639,6.80727273 L27.1244361,5.45662338 L26.8610262,5.54623377 Z" id="Fill-127" fill="#FEFEFE"></path>
                    <path d="M31.386177,2.28766234 C31.4347672,2.69805195 31.3644393,3.02792208 31.1777508,3.26818182 C30.9706033,3.53571429 30.6138492,3.70064935 30.1151607,3.75909091 L30.0077508,3.77337662 C29.8939475,3.78896104 29.8031607,3.80194805 29.6842426,3.80454545 L29.3824721,1.23181818 C29.4949967,1.20844156 29.5870623,1.19675325 29.7162098,1.18116883 C30.7532262,1.05649351 31.283882,1.40194805 31.386177,2.28766234 L31.386177,2.28766234 Z M34.7248328,5.48506494 C34.1545377,5.51753247 33.6571279,5.32662338 33.0766033,4.86298701 L32.3579803,4.28896104 C32.0012262,4.00064935 31.7365377,3.79935065 31.439882,3.60844156 C32.0344721,3.30194805 32.3541443,2.74480519 32.2825377,2.12662338 C32.1712918,1.16818182 31.2659803,0.691558442 29.859423,0.862987013 C29.3326033,0.924025974 29.1689311,0.952597403 28.8364721,1.00974026 C28.7367344,1.02662338 28.6229311,1.0474026 28.5052918,1.06818182 C28.2367672,1.11623377 27.9592918,1.16558442 27.8250295,1.17987013 L27.7559803,1.18896104 L27.7879475,1.48896104 L28.0385705,1.45909091 C28.0999475,1.4512987 28.1574885,1.4474026 28.2086361,1.4474026 C28.4605377,1.4474026 28.5909639,1.52792208 28.6446689,1.98116883 L29.0512918,5.45 C29.1113902,5.97337662 28.9771279,6.07857143 28.5436525,6.13311688 L28.3352262,6.15909091 L28.3723082,6.45519481 L30.8082098,6.16038961 L30.7711279,5.86428571 L30.5153902,5.89285714 C30.4425049,5.90194805 30.3798492,5.90584416 30.3261443,5.90584416 C30.0691279,5.90584416 29.9220787,5.82792208 29.8722098,5.41753247 L29.7187672,4.10194805 C29.8197836,4.09675325 29.9169639,4.08896104 30.0627344,4.07077922 C30.273718,4.0461039 30.4003082,4.02402597 30.5921115,3.99025974 L30.5933902,3.99025974 C30.741718,4.07207792 31.0409311,4.2538961 31.4808,4.60584416 L32.0805049,5.08636364 C32.8975869,5.73831169 33.311882,6.01883117 34.7555213,5.77597403 L34.8207344,5.76558442 L34.7926033,5.48116883 L34.7248328,5.48506494 Z" id="Fill-129" fill="#FEFEFE"></path>
                    <g id="Group-133" transform="translate(35.242822, 0.000000)">
                        <mask id="mask-4" fill="white">
                            <use xlink:href="#path-3"></use>
                        </mask>
                        <g id="Clip-132"></g>
                        <path d="M2.52413845,2.84337662 C1.96279419,2.4238961 1.43341714,2.02779221 1.47305648,1.5212987 C1.503745,1.10181818 1.86689255,0.842077922 2.36813845,0.881038961 C2.907745,0.925194805 3.36935156,1.32779221 3.54197451,1.90831169 L3.55604009,1.95506494 L3.82584337,1.97844156 L3.75679419,0.774545455 L3.531745,0.752467532 L3.50744992,0.781038961 C3.46653189,0.829090909 3.45118763,0.829090909 3.42944992,0.829090909 L3.41154828,0.829090909 C3.31308927,0.821298701 3.23253189,0.784935065 3.13279419,0.739480519 C2.97167943,0.666753247 2.75046632,0.566753247 2.32210566,0.531688312 C1.45131878,0.462857143 0.759548284,0.968051948 0.704564677,1.68233766 C0.643187628,2.48103896 1.3375155,3.00701299 2.00754828,3.5161039 C2.58295812,3.95376623 3.12767943,4.36675325 3.08804009,4.89402597 C3.03944992,5.50441558 2.46659746,5.75246753 1.96407287,5.71350649 C1.32728599,5.66285714 0.847777792,5.18753247 0.741646644,4.49922078 L0.732695825,4.44337662 L0.443712218,4.4212987 L0.524269595,5.83558442 L0.759548284,5.85376623 L0.782564677,5.82519481 C0.799187628,5.80571429 0.833712218,5.77324675 0.895089267,5.77324675 L0.896367956,5.77324675 C0.924499103,5.77454545 1.02295812,5.81090909 1.12013845,5.84727273 C1.35158107,5.93168831 1.70194173,6.06155844 2.00882697,6.08623377 C2.07020402,6.09012987 2.13158107,6.09402597 2.19167943,6.09402597 L2.19295812,6.09402597 C3.11105648,6.09402597 3.79515484,5.53688312 3.8552532,4.73948052 C3.92046632,3.88883117 3.17882697,3.33298701 2.52413845,2.84337662" id="Fill-131" fill="#FEFEFE" mask="url(#mask-4)"></path>
                    </g>
                    <path d="M41.2212098,1.42116883 L41.2851443,1.43935065 C41.7032754,1.55623377 41.7902262,1.6861039 41.7071115,2.07051948 L40.9667508,5.52376623 C40.8708492,5.97701299 40.7723902,6.05753247 40.5435049,6.05753247 C40.4795705,6.05753247 40.3990131,6.04974026 40.3005541,6.03285714 L40.2327836,6.02116883 L40.1714066,6.31337662 L42.2479967,6.77051948 L42.3119311,6.47571429 L42.242882,6.46142857 C41.9807508,6.40428571 41.836259,6.33285714 41.7710459,6.22896104 C41.7096689,6.13415584 41.7058328,5.9938961 41.7569803,5.75623377 L42.4922262,2.32116883 C42.5817344,1.90558442 42.7121607,1.82636364 42.9205869,1.82636364 C43.0011443,1.82636364 43.0983246,1.83935065 43.2287508,1.86792208 L43.2965213,1.88220779 L43.3604557,1.59 L41.2813082,1.13025974 L41.2212098,1.42116883 Z" id="Fill-134" fill="#FEFEFE"></path>
                    <path d="M49.6386885,3.74571429 C49.6348525,3.75220779 49.6259016,3.76779221 49.5837049,3.76779221 C49.5479016,3.76779221 49.5005902,3.7574026 49.4443279,3.73532468 L45.7923934,2.26649351 C45.7463607,2.24701299 45.7041639,2.22103896 45.6658033,2.19116883 C45.6415082,2.17168831 45.6415082,2.14961039 45.6453443,2.13662338 L45.6581311,2.07688312 L45.3985574,1.97168831 L44.7221311,3.30025974 L44.9880984,3.40935065 L45.0200656,3.3574026 C45.2937049,2.89506494 45.4727213,2.71454545 45.6555738,2.71454545 C45.7054426,2.71454545 45.7591475,2.72623377 45.8218033,2.75220779 L47.0774754,3.2587013 L45.6146557,7.00155844 C45.4957377,7.30545455 45.3780984,7.36909091 45.2374426,7.36909091 C45.1479344,7.36909091 45.0328525,7.33922078 44.887082,7.27948052 L44.5405574,7.14441558 L44.4305902,7.42103896 L46.9547213,8.43792208 L47.0621311,8.1587013 L46.7194426,8.01714286 C46.4943934,7.92753247 46.3741967,7.83922078 46.3281639,7.73142857 C46.2846885,7.63272727 46.3000328,7.50285714 46.3767541,7.30675325 L47.8408525,3.56519481 L49.0939672,4.06909091 C49.3407541,4.16909091 49.4238689,4.33792208 49.2729836,5.06649351 L49.258918,5.12623377 L49.5236066,5.23142857 L49.9289508,3.79506494 L49.669377,3.69506494 L49.6386885,3.74571429 Z" id="Fill-136" fill="#FEFEFE"></path>
                    <path d="M54.5098525,7.11311688 L54.5686721,7.15337662 C54.7873279,7.30012987 54.8909016,7.41441558 54.8845082,7.50142857 C54.8806721,7.57805195 54.7834918,7.66506494 54.598082,7.75597403 L52.6544754,8.71311688 L52.6877213,6.38844156 C52.6915574,6.04038961 52.7682787,6.04038961 52.8091967,6.04038961 C52.8923115,6.04038961 53.0304098,6.10662338 53.2324426,6.24168831 L53.2899836,6.28194805 L53.4562131,6.0338961 L51.5317869,4.7274026 L51.3681148,4.97545455 L51.424377,5.01571429 C51.8220492,5.30142857 51.9192295,5.47415584 51.9013279,6.2287013 L51.847623,8.94558442 L51.2223443,9.90012987 C50.9947377,10.2455844 50.8144426,10.2572727 50.4500164,10.0079221 L50.2594918,9.87805195 L50.0996557,10.1312987 L52.0803443,11.4767532 L52.2465738,11.23 L52.1008033,11.1274026 C51.9051639,10.9936364 51.8028689,10.8767532 51.7785738,10.7572727 C51.7581148,10.6468831 51.7977541,10.5209091 51.9128361,10.3494805 L52.5803115,9.3312987 L54.967623,8.16506494 C55.1913934,8.05597403 55.3563443,8.01051948 55.5200164,8.01051948 C55.7015902,8.01051948 55.8882787,8.06896104 56.1082131,8.19493506 L56.1644754,8.2287013 L56.3281475,7.98194805 L54.6748033,6.85857143 L54.5098525,7.11311688 Z" id="Fill-138" fill="#FEFEFE"></path>
                    <path d="M62.4140656,15.8937662 C62.3271148,16.5496104 61.9435082,17.1716883 61.3310164,17.6431169 C60.8489508,18.0171429 60.2965574,18.2236364 59.7799672,18.2236364 C59.2173443,18.2236364 58.7327213,17.9755844 58.381082,17.5067532 C57.5934098,16.4561039 57.8644918,14.9937662 59.0127541,14.1041558 C59.4602951,13.7574026 60.0331475,13.5522078 60.5459016,13.5522078 C61.1225902,13.5522078 61.6161639,13.8054545 61.9754754,14.2846753 C62.3373443,14.7651948 62.4895082,15.3223377 62.4140656,15.8937662 M62.379541,14.2418182 C61.7491475,13.4015584 60.8668525,12.921039 59.9577049,12.921039 C59.3567213,12.921039 58.7685246,13.1301299 58.2596066,13.5249351 C57.0691475,14.447013 56.9591803,16.1911688 58.0013115,17.5807792 C58.5907869,18.3664935 59.456459,18.8171429 60.3745574,18.8171429 L60.3758361,18.8171429 C60.9921639,18.8171429 61.5880328,18.6080519 62.0995082,18.2132468 C63.2554426,17.3158442 63.3781967,15.5716883 62.379541,14.2418182" id="Fill-140" fill="#FEFEFE"></path>
                    <path d="M65.1083902,18.65 L64.8398656,18.7772727 L64.8705541,18.8435065 C65.0815377,19.3045455 64.9472754,19.4162338 64.4754393,19.6448052 L61.586882,21.0448052 C61.3234721,21.1720779 61.1738656,21.224026 61.065177,21.224026 C60.9309148,21.224026 60.8426852,21.1396104 60.6994721,20.8785714 L60.6662262,20.8201299 L60.4040951,20.9474026 L61.3170787,22.8954545 L61.5894393,22.7681818 L61.5574721,22.7032468 C61.4334393,22.4409091 61.3950787,22.2733766 61.4359967,22.1564935 C61.4705213,22.0551948 61.5689803,21.9746753 61.7850787,21.8707792 L63.3335705,21.1188312 L63.9550131,22.4396104 C64.0943902,22.7383117 64.0905541,22.9305195 63.676259,23.1487013 L63.6161607,23.1811688 L63.7363574,23.4344156 L65.1608164,22.7422078 L65.0418984,22.4928571 L64.9805213,22.5162338 C64.686423,22.6344156 64.5086852,22.5876623 64.3936033,22.3461039 L63.7286852,20.9292208 L65.3334393,20.1538961 L65.9715049,21.511039 C66.1620295,21.9201299 66.0917016,22.1266234 65.6901934,22.3279221 L65.6288164,22.3590909 L65.7477344,22.6162338 L66.7463902,22.1331169 L65.1083902,18.65 Z" id="Fill-142" fill="#FEFEFE"></path>
                    <path d="M6.59368525,55.8031169 L9.53339016,50.2979221 L9.52060328,50.2797403 L5.55411148,52.8511688 C5.10401311,53.1420779 5.24594754,53.5368831 5.50424262,53.9355844 L5.34312787,54.0537662 L4.06699672,52.2680519 L4.23066885,52.1511688 C4.67565246,52.7771429 4.86617705,52.7537662 5.66535738,52.2303896 L9.09863607,50.0161039 C9.68171803,49.6394805 9.82109508,49.5109091 9.47457049,48.9537662 L9.62545574,48.8407792 L10.5512262,50.1368831 L7.77263607,55.3407792 L13.499882,54.2628571 L14.4000787,55.5238961 L14.2504721,55.6381818 C13.9154557,55.2407792 13.7888656,55.0849351 13.5139475,55.3135065 L9.88375082,58.4057143 C9.14466885,59.0316883 9.19325902,59.0992208 9.63952131,59.7251948 L9.47840656,59.845974 L7.90434098,57.6381818 L8.06545574,57.5212987 C8.35316066,57.9251948 8.74443934,58.2394805 9.16640656,57.8745455 L12.7735869,54.8355844 L12.7633574,54.8187013 L6.73434098,56.0031169 L6.59368525,55.8031169 Z" id="Fill-144" fill="#FEFEFE"></path>
                    <path d="M16.8038852,62.0202597 L16.2399836,63.9981818 C16.2131311,64.1072727 16.1798852,64.2812987 16.0814262,64.4150649 C15.9062459,64.6553247 15.6927049,64.5748052 15.2144754,64.2163636 L14.9958197,64.0527273 L14.879459,64.2137662 L17.1900492,65.9423377 L17.3064098,65.7787013 C16.8882787,65.4683117 16.7731967,65.2501299 16.9330328,64.6709091 L18.6068361,58.618961 L17.8754262,58.0735065 L17.8153279,58.3176623 L13.2094918,61.4176623 C12.4064754,61.9605195 12.2428033,61.9851948 11.6929672,61.5838961 L11.5740492,61.7488312 L13.5150984,63.1955844 L13.6340164,63.0345455 L13.4984754,62.9345455 C13.0381475,62.5916883 12.8808689,62.3423377 13.0458197,62.1111688 C13.1340492,61.9916883 13.4281475,61.8150649 13.6058852,61.6981818 L15.0635902,60.7228571 L16.8038852,62.0202597 Z M16.9330328,61.5384416 L15.4778852,60.4527273 L17.6324754,58.9968831 L16.9330328,61.5384416 Z" id="Fill-146" fill="#FEFEFE"></path>
                    <path d="M22.2876689,65.3398701 C22.4423902,65.4048052 22.5651443,65.4619481 22.7838,65.5385714 C23.0484885,65.635974 23.2096033,65.6814286 23.4589475,65.7593506 C23.6392426,66.0048052 23.8809148,66.4164935 24.1609475,67.0151948 L24.5803574,67.9074026 C25.1455377,69.1087013 25.4549803,69.6502597 27.2029475,70.1918182 L27.266882,70.0112987 C26.5265213,69.6879221 26.0546852,69.1022078 25.6813082,68.3048052 L25.1787836,67.2346753 C24.8821279,66.6009091 24.6852098,66.2112987 24.4218,65.7918182 C25.3117672,65.8424675 26.0342262,65.3931169 26.2950787,64.6463636 C26.6518328,63.6242857 26.100718,62.5736364 24.2798656,61.9164935 C23.6405213,61.6866234 23.4397672,61.6255844 23.0318656,61.5009091 C22.6201279,61.3749351 22.0050787,61.2009091 21.7710787,61.1138961 L21.7033082,61.3048052 L21.9194066,61.3814286 C22.492259,61.5879221 22.5971115,61.8268831 22.3784557,62.4476623 L20.9105213,66.6515584 C20.6752426,67.3203896 20.4143902,67.4061039 19.8338656,67.1983117 L19.6676361,67.135974 L19.5998656,67.3281818 L22.3835705,68.3307792 L22.4487836,68.1411688 L22.2224557,68.0593506 C21.6726197,67.8606494 21.4897672,67.6242857 21.6981934,67.0268831 L22.2876689,65.3398701 Z M23.4985869,61.871039 C23.6814393,61.9164935 23.8105869,61.9606494 23.9972754,62.0268831 C25.5112426,62.5775325 25.6749148,63.4424675 25.3488492,64.3723377 C24.930718,65.571039 24.048423,65.7788312 22.9577016,65.3879221 C22.7300951,65.3087013 22.5804885,65.2632468 22.3541607,65.148961 L23.4985869,61.871039 Z" id="Fill-148" fill="#FEFEFE"></path>
                    <path d="M34.126918,65.1149351 C34.5105246,64.562987 34.3263934,64.3655844 33.6614754,64.3084416 L33.6780984,64.1084416 L36.0308852,64.3123377 L36.0117049,64.511039 C35.3007541,64.5006494 34.9734098,64.762987 34.6409508,65.2331169 L32.6679344,68.0551948 L32.5336721,69.6357143 C32.485082,70.1954545 32.665377,70.4357143 33.3008852,70.4902597 L33.4351475,70.5006494 L33.4172459,70.7006494 L30.5580984,70.4551948 L30.576,70.2538961 L30.7703607,70.2720779 C31.4186557,70.324026 31.627082,70.1006494 31.668,69.5837662 L31.7933115,68.0941558 L30.1898361,64.9967532 C29.7486885,64.1409091 29.521082,63.9733766 28.8472131,63.8902597 L28.8638361,63.688961 L31.630918,63.9331169 L31.6117377,64.1318182 C30.8023279,64.0590909 30.7345574,64.2603896 31.0056393,64.7707792 L32.4505574,67.5227273 L34.126918,65.1149351 Z" id="Fill-150" fill="#FEFEFE"></path>
                    <path d="M42.8009016,69.8741558 L38.201459,70.6663636 L38.1694918,70.4663636 L38.5083443,70.4105195 C38.981459,70.3274026 39.1310656,70.1390909 39.0415574,69.6092208 L38.2717869,64.9767532 C38.1784426,64.4235065 37.9764098,64.2222078 37.3281148,64.3338961 L37.1849016,64.3585714 L37.1516557,64.1598701 L40.1872623,63.6377922 L40.2205082,63.8364935 L39.8407377,63.904026 C39.1694262,64.0183117 39.0083115,64.1209091 39.1157213,64.7702597 L39.917459,69.5884416 C39.9622131,69.8676623 40.0951967,69.955974 40.3931311,69.9027273 L41.9058197,69.6455844 C42.511918,69.5377922 42.6576885,69.268961 43.1538197,68.2481818 L43.3405082,68.2144156 L42.8009016,69.8741558 Z" id="Fill-152" fill="#FEFEFE"></path>
                    <path d="M48.123059,64.9416883 L49.5002066,66.4468831 C49.5807639,66.5312987 49.7086328,66.6481818 49.7725672,66.8053247 C49.8838131,67.0780519 49.7086328,67.2235065 49.1587967,67.455974 L48.9068951,67.5611688 L48.9836164,67.7468831 L51.6317803,66.6261039 L51.5563377,66.4377922 C51.0729934,66.642987 50.8313213,66.6287013 50.425977,66.1949351 L46.1807311,61.6196104 L45.3431902,61.9754545 L45.5183705,62.1546753 L45.7664361,67.755974 C45.8060754,68.7403896 45.745977,68.8923377 45.1232557,69.1676623 L45.1986984,69.3520779 L47.4236164,68.4092208 L47.3468951,68.2222078 L47.1921738,68.2897403 C46.6640754,68.5118182 46.3725344,68.5235065 46.2638459,68.2598701 C46.2088623,68.1222078 46.2114197,67.7728571 46.2037475,67.5598701 L46.1295836,65.7871429 L48.123059,64.9416883 Z M47.7816492,64.5793506 L46.1167967,65.2871429 L45.9978787,62.6624675 L47.7816492,64.5793506 Z" id="Fill-154" fill="#FEFEFE"></path>
                    <path d="M59.4119607,60.8351948 L51.6426492,59.9014286 L54.496682,63.4079221 C54.9736328,63.9949351 55.202518,64.0105195 55.8866164,63.4377922 L56.0119279,63.5923377 L54.1450426,65.1572727 L54.0210098,65.0014286 L54.0516984,64.9754545 C54.5503869,64.5572727 54.5721246,64.2494805 54.2652393,63.8754545 L50.9981902,59.855974 C50.7040918,59.8793506 50.4419607,59.9884416 50.1555344,60.2183117 L50.0263869,60.0637662 L51.2897311,59.0027273 L58.3442557,59.8338961 L55.6973705,56.5806494 C55.2933049,56.0832468 55.0746492,56.1183117 54.4161246,56.6390909 L54.2895344,56.4832468 L56.1730426,54.904026 L56.3009115,55.0585714 C55.6948131,55.5650649 55.6551738,55.7806494 55.9134689,56.1001299 L59.6229443,60.6585714 L59.4119607,60.8351948 Z" id="Fill-156" fill="#FEFEFE"></path>
                    <path d="M61.9410787,56.3832468 C62.4474393,56.717013 62.4397672,57.0248052 62.132882,57.5027273 L62.0369803,57.655974 L62.2032098,57.7650649 L64.0163902,54.9157143 C65.4485213,52.6637662 64.5253082,50.5806494 63.204423,49.7118182 C61.7569475,48.7663636 59.9169148,49.0351948 58.4221279,51.3832468 C58.1267508,51.8481818 57.7904557,52.3975325 57.4976361,52.8975325 C57.2035377,53.3988312 56.9439639,53.8455844 56.7521607,54.1871429 L56.9196689,54.2962338 L57.0296361,54.117013 C57.3659311,53.5923377 57.6024885,53.5338961 58.1715049,53.9066234 L61.9410787,56.3832468 Z M57.8863574,52.6728571 C57.9464557,52.5585714 58.0730459,52.304026 58.3070459,51.9390909 C59.0985541,50.691039 59.8082262,50.2624675 60.4705869,50.1183117 C61.3221934,49.9312987 62.1610131,50.2144156 62.8105869,50.642987 C63.713341,51.2338961 64.1276361,52.0884416 64.2312098,52.6235065 C64.4255705,53.53 64.2746852,54.1403896 63.516423,55.3312987 C63.068882,56.0351948 62.9282262,55.9832468 62.5676361,55.7442857 L57.8863574,52.6728571 Z" id="Fill-158" fill="#FEFEFE"></path>
                    <path d="M1.5349377,33.274026 L1.5349377,37.812987 C1.5349377,38.0506494 1.58352787,38.112987 1.82008525,38.112987 L2.25356066,38.112987 L2.25356066,38.2571429 L0.316347541,38.2571429 L0.316347541,38.112987 L0.7332,38.112987 C0.979986885,38.112987 1.02601967,38.0415584 1.02601967,37.8077922 L1.02601967,33.9 C0.779232787,34.1207792 0.345757377,34.4090909 0.0606098361,34.5428571 L0.00051147541,34.4337662 C0.448052459,34.1272727 1.08611803,33.538961 1.27024918,33.274026 L1.5349377,33.274026 Z" id="Fill-160" fill="#FEFEFE"></path>
                    <path d="M5.86981967,34.3938961 C5.86981967,34.8393506 5.65372131,35.2003896 5.22408197,35.4731169 C4.2292623,35.0432468 3.99781967,34.7302597 3.99781967,34.3003896 C3.99781967,33.8068831 4.41083607,33.4198701 4.9414918,33.4198701 C5.47854098,33.4198701 5.86981967,33.8315584 5.86981967,34.3938961 M6.33398361,34.402987 C6.33398361,33.7783117 5.71637705,33.2744156 4.94277049,33.2744156 C4.18067213,33.2744156 3.54260656,33.8549351 3.54260656,34.5432468 C3.54260656,35.0757143 3.87506557,35.4731169 4.59496721,35.8016883 C3.84054098,36.1068831 3.47355738,36.5354545 3.47355738,37.0848052 C3.47355738,37.7964935 4.13336066,38.3692208 4.96834426,38.3692208 C5.82762295,38.3692208 6.4912623,37.7432468 6.4912623,36.928961 C6.4912623,36.3263636 6.1447377,35.9133766 5.3314918,35.5458442 C6.00919672,35.2692208 6.33398361,34.9016883 6.33398361,34.402987 M5.99896721,37.1471429 C5.99896721,37.7588312 5.5552623,38.228961 4.97601639,38.228961 C4.38781967,38.228961 3.95434426,37.7367532 3.95434426,37.0705195 C3.95434426,36.5614286 4.2177541,36.1692208 4.74457377,35.8809091 C5.64221311,36.2938961 5.99896721,36.6237662 5.99896721,37.1471429" id="Fill-162" fill="#FEFEFE"></path>
                    <path d="M63.6266459,33.8349351 L65.4513344,33.8349351 C65.5881541,33.8349351 65.6354656,33.8050649 65.6751049,33.7349351 L65.8221541,33.7349351 L65.7352033,34.3388312 L63.7877607,34.3388312 L63.7276623,35.744026 C63.9654984,35.6102597 64.2429738,35.5492208 64.5562525,35.5492208 C65.4206459,35.5492208 66.1354328,36.2790909 66.1354328,37.1609091 C66.1354328,38.1115584 65.3592689,38.831039 64.3273672,38.831039 C63.712318,38.831039 63.2046787,38.6128571 63.2046787,38.3388312 C63.2046787,38.2063636 63.3172033,38.095974 63.4565803,38.095974 C63.8721541,38.095974 64.0192033,38.6453247 64.5038262,38.6453247 C65.0728426,38.6453247 65.560023,38.0414286 65.560023,37.3271429 C65.560023,36.6050649 65.0728426,36.0674026 64.4092033,36.0674026 C64.1278918,36.0674026 63.8274,36.1816883 63.5959574,36.382987 L63.5179574,36.3271429 L63.6266459,33.8349351 Z" id="Fill-164" fill="#FEFEFE"></path>
                    <path d="M69.5410918,33.7353247 C67.9286656,34.1963636 66.9568623,35.347013 66.9568623,36.7950649 C66.9568623,37.9963636 67.6205016,38.8314286 68.5718459,38.8314286 C69.3940426,38.8314286 70.0730262,38.1132468 70.0730262,37.2509091 C70.0730262,36.4509091 69.4630918,35.8093506 68.7073869,35.8093506 C68.3288951,35.8093506 68.0284033,35.9327273 67.6128295,36.2625974 C67.7816164,35.1184416 68.4222393,34.3522078 69.6229279,33.8509091 L69.5410918,33.7353247 Z M69.495059,37.321039 C69.495059,38.2080519 69.125518,38.7028571 68.5846328,38.7028571 C68.0974525,38.7028571 67.5348295,38.2716883 67.5348295,36.9522078 C67.5348295,36.685974 67.5501738,36.5768831 67.5731902,36.4664935 C68.0450262,36.0820779 68.3915508,35.9950649 68.5910262,35.9950649 C69.1101738,35.9950649 69.495059,36.4820779 69.495059,37.321039 L69.495059,37.321039 Z" id="Fill-166" fill="#FEFEFE"></path>
                </g>
            </g>
        </g>
    </g>
</svg>