<?xml version="1.0" encoding="utf-8"?>
<!-- Generator: Adobe Illustrator 22.1.0, SVG Export Plug-In . SVG Version: 6.00 Build 0)  -->
<svg version="1.1" id="Layer_1" xmlns="http://www.w3.org/2000/svg" xmlns:xlink="http://www.w3.org/1999/xlink" x="0px" y="0px"
	 viewBox="0 0 114 114" style="enable-background:new 0 0 114 114;" xml:space="preserve">
<style type="text/css">
	.st0{fill:#FFFFFF;}
</style>
<g>
	<g>
		<g>
			<polygon class="st0" points="49.9,28.5 49.9,21.4 42.8,21.4 42.8,28.5 28.6,28.5 28.6,57 35.7,57 35.7,35.7 57,35.7 57,28.5 			
				"/>
			<polygon class="st0" points="42.8,7.2 42.8,14.3 35.7,14.3 35.7,21.4 28.6,21.4 28.6,28.5 42.8,28.5 42.8,21.4 49.9,21.4 
				49.9,7.2 			"/>
			<rect x="49.9" y="0.1" class="st0" width="7.1" height="7.1"/>
			<rect x="71.2" y="21.4" class="st0" width="7.1" height="7.1"/>
			<rect x="64.1" y="14.3" class="st0" width="7.1" height="7.1"/>
			<polygon class="st0" points="78.3,35.7 78.3,28.5 64.1,28.5 64.1,35.7 71.2,35.7 71.2,42.8 78.3,42.8 78.3,57 85.4,57 85.4,35.7 
							"/>
			<polygon class="st0" points="71.2,42.8 71.2,35.7 35.7,35.7 35.7,64.1 42.8,64.1 42.8,42.8 64.1,42.8 64.1,49.9 71.2,49.9 
				71.2,64.1 78.3,64.1 78.3,42.8 			"/>
			<path class="st0" d="M64.1,49.9v-7.1H42.8v28.5h28.4V49.9H64.1z M64.1,64.1H49.9V49.9H57V57h7.1V64.1z"/>
			<polygon class="st0" points="57,57 57,49.9 49.9,49.9 49.9,64.1 64.1,64.1 64.1,57 			"/>
		</g>
		<g>
			<path class="st0" d="M113.9,103.3c0,5.9-4.8,10.7-10.7,10.7l0,0c-5.9,0-10.7-4.8-10.7-10.7l0,0c0-5.9,4.8-10.7,10.7-10.7l0,0
				C109.2,92.6,113.9,97.4,113.9,103.3L113.9,103.3z"/>
			<path class="st0" d="M7.8,93L7.8,93c0.1,0,0.2,0,0.3-0.1L7.8,93z"/>
			<path class="st0" d="M113.9,81.9c0-5.9-4.8-10.7-10.7-10.7c-1,0-1.9,0.1-2.8,0.4l0,0L8.8,92.8c0.6-0.1,1.3-0.2,2-0.2
				c5.9,0,10.7,4.8,10.7,10.7c0,4.9-3.4,9.1-7.9,10.3l0,0l92.6-21.4l0,0C110.6,91,113.9,86.8,113.9,81.9z"/>
			<path class="st0" d="M21.4,103.3c0,5.9-4.8,10.7-10.7,10.7l0,0c-5.9,0-10.7-4.8-10.7-10.7l0,0c0-5.9,4.8-10.7,10.7-10.7l0,0
				C16.6,92.6,21.4,97.4,21.4,103.3L21.4,103.3z"/>
			<path class="st0" d="M92.6,103.3c0-5.9,4.8-10.7,10.7-10.7c0.7,0,1.3,0.1,2,0.2L13.5,71.6l0,0c-0.9-0.2-1.8-0.4-2.8-0.4
				C4.8,71.2,0.3,76,0.3,81.9c0,4.9,3.7,9,7.9,10.3l0,0c0.3,0.1,0.4,0.2,0.7,0.2l91.6,21.2l0,0C95.9,112.3,92.6,108.2,92.6,103.3z"
				/>
			<path class="st0" d="M106.2,93L106.2,93l-0.3-0.1C106,93,106.1,93,106.2,93z"/>
		</g>
	</g>
</g>
</svg>
