<?xml version="1.0" encoding="UTF-8"?>
<svg width="201px" height="214px" viewBox="0 0 201 214" version="1.1" xmlns="http://www.w3.org/2000/svg" xmlns:xlink="http://www.w3.org/1999/xlink">
    <!-- Generator: Sketch 48.2 (47327) - http://www.bohemiancoding.com/sketch -->
    <title>logo_no_fire</title>
    <desc>Created with Sketch.</desc>
    <defs></defs>
    <g id="Page-1" stroke="none" stroke-width="1" fill="none" fill-rule="evenodd">
        <g id="logo_no_fire" fill-rule="nonzero">
            <g id="Group" transform="translate(43.000000, 107.000000)">
                <g id="Shape">
                    <path d="M114.432,32.497 C114.432,38.393 109.662,43.164 103.764,43.164 C97.869,43.164 93.083,38.393 93.083,32.497 C93.083,26.599 97.869,21.808 103.764,21.808 C109.661,21.808 114.432,26.599 114.432,32.497 Z" fill="#806D60"></path>
                    <path d="M8.266,22.227 L8.268,22.236 C8.379,22.204 8.494,22.177 8.606,22.148 L8.266,22.227 Z" fill="#806D60"></path>
                    <path d="M114.432,11.121 C114.432,5.226 109.662,0.454 103.764,0.454 C102.807,0.454 101.884,0.592 101.001,0.828 L100.997,0.813 L9.252,22 C9.896,21.878 10.559,21.808 11.238,21.808 C17.135,21.808 21.916,26.599 21.916,32.497 C21.916,37.435 18.559,41.571 14.005,42.79 L14.009,42.804 L106.581,21.438 L106.576,21.42 C111.104,20.182 114.432,16.044 114.432,11.121 Z" fill="#806D60"></path>
                    <path d="M21.916,32.497 C21.916,38.393 17.136,43.164 11.238,43.164 C5.341,43.164 0.572,38.393 0.572,32.497 C0.572,26.599 5.341,21.808 11.238,21.808 C17.136,21.808 21.916,26.599 21.916,32.497 Z" fill="#A68E7C"></path>
                    <path d="M93.083,32.497 C93.083,26.599 97.869,21.808 103.764,21.808 C104.442,21.808 105.102,21.878 105.744,21.999 L14.009,0.813 L14.005,0.82 C13.115,0.607 12.216,0.454 11.238,0.454 C5.341,0.454 0.824,5.226 0.824,11.121 C0.824,15.991 4.483,20.106 8.764,21.388 L8.721,21.424 C9.002,21.51 9.14,21.588 9.429,21.612 L100.996,42.804 L101,42.791 C96.446,41.573 93.083,37.435 93.083,32.497 Z" fill="#A68E7C"></path>
                    <path d="M106.732,22.235 L106.734,22.227 L106.414,22.153 C106.52,22.181 106.627,22.205 106.732,22.235 Z" fill="#A68E7C"></path>
                </g>
            </g>
            <g id="Group" fill="#806D60">
                <path d="M191.712,58.476 C191.089,57.156 190.465,55.852 189.822,54.568 L188.553,55.223 C189.202,56.487 189.826,57.766 190.418,59.066 L191.712,58.476 Z" id="Shape"></path>
                <path d="M191.639,142.369 C192.236,141.059 192.799,139.732 193.368,138.428 L192.042,137.867 C191.504,139.189 190.926,140.492 190.339,141.778 L191.639,142.369 Z" id="Shape"></path>
                <path d="M197.537,74.721 C197.18,73.34 196.766,71.934 196.346,70.578 L194.984,71.002 C195.404,72.336 195.789,73.715 196.143,75.072 L197.537,74.721 Z" id="Shape"></path>
                <path d="M194.97,66.457 C194.469,65.112 193.975,63.749 193.409,62.442 L192.119,62.963 C192.637,64.285 193.162,65.616 193.618,66.944 L194.97,66.457 Z" id="Shape"></path>
                <path d="M197.974,83.412 L199.365,83.164 C199.112,81.751 198.862,80.314 198.542,78.922 L197.165,79.239 C197.445,80.603 197.723,81.994 197.974,83.412 Z" id="Shape"></path>
                <path d="M183.143,43.447 C182.332,42.273 181.489,41.082 180.612,39.956 L179.502,40.817 C180.361,41.926 181.187,43.096 181.988,44.25 L183.143,43.447 Z" id="Shape"></path>
                <path d="M172.194,30.135 C171.16,29.093 170.134,28.095 169.087,27.123 L168.13,28.159 C169.159,29.114 170.166,30.132 171.152,31.14 L172.194,30.135 Z" id="Shape"></path>
                <path d="M177.95,36.558 C177.027,35.437 176.101,34.336 175.134,33.285 L174.088,34.236 C175.024,35.292 175.968,36.372 176.842,37.476 L177.95,36.558 Z" id="Shape"></path>
                <path d="M165.895,24.248 C164.803,23.294 163.68,22.368 162.541,21.505 L161.686,22.596 C162.774,23.481 163.877,24.395 164.96,25.308 L165.895,24.248 Z" id="Shape"></path>
                <path d="M187.735,50.76 C187.044,49.509 186.28,48.275 185.531,47.066 L184.34,47.805 C185.075,49.029 185.822,50.244 186.499,51.48 L187.735,50.76 Z" id="Shape"></path>
                <path d="M183.11,157.334 C183.926,156.129 184.708,154.939 185.464,153.729 L184.267,152.958 C183.527,154.176 182.72,155.347 181.921,156.523 L183.11,157.334 Z" id="Shape"></path>
                <path d="M199.058,91.856 L200.471,91.715 C200.332,90.28 200.185,88.859 200.008,87.444 L198.608,87.62 C198.78,89.012 198.921,90.408 199.058,91.856 Z" id="Shape"></path>
                <path d="M0.981,113.16 C1.158,114.585 1.37,116.006 1.619,117.441 L3.011,117.195 C2.774,115.791 2.56,114.386 2.381,112.986 L0.981,113.16 Z" id="Shape"></path>
                <path d="M159.118,18.893 C157.932,18.053 156.761,17.244 155.57,16.461 L154.773,17.634 C155.968,18.404 157.119,19.217 158.284,20.057 L159.118,18.893 Z" id="Shape"></path>
                <path d="M0.254,104.561 C0.311,106 0.416,107.429 0.522,108.867 L1.934,108.747 C1.826,107.351 1.723,105.928 1.692,104.492 L0.254,104.561 Z" id="Shape"></path>
                <path d="M8.857,137.626 L7.551,138.168 C8.078,139.52 8.65,140.816 9.274,142.138 L10.537,141.551 C9.953,140.258 9.4,138.942 8.857,137.626 Z" id="Shape"></path>
                <path d="M199.4,100.341 L199.4,100.329 L200.827,100.329 L200.827,100.341 C200.827,98.9 200.791,97.468 200.74,96.046 L199.302,96.077 C199.367,97.515 199.4,98.921 199.4,100.341 Z" id="Shape"></path>
                <path d="M12.426,145.394 L11.164,146.024 C11.797,147.3 12.485,148.567 13.208,149.82 L14.441,149.139 C13.728,147.912 13.055,146.658 12.426,145.394 Z" id="Shape"></path>
                <path d="M2.438,121.67 C2.762,123.088 3.082,124.475 3.437,125.868 L4.832,125.498 C4.452,124.147 4.132,122.745 3.819,121.368 L2.438,121.67 Z" id="Shape"></path>
                <path d="M7.35,133.642 C6.859,132.315 6.405,130.95 5.985,129.607 L4.644,130.026 C5.07,131.383 5.498,132.785 5.996,134.116 L7.35,133.642 Z" id="Shape"></path>
                <path d="M196.116,125.789 L197.477,126.144 C197.836,124.77 198.2,123.35 198.488,121.948 L197.114,121.666 C196.788,123.041 196.475,124.404 196.116,125.789 Z" id="Shape"></path>
                <path d="M193.581,133.899 L194.898,134.393 C195.396,133.026 195.864,131.679 196.293,130.286 L194.919,129.863 C194.494,131.233 194.037,132.587 193.581,133.899 Z" id="Shape"></path>
                <path d="M200.74,104.868 L199.298,104.795 C199.264,106.209 199.152,107.615 199.045,109.05 L200.454,109.157 C200.561,107.737 200.674,106.308 200.74,104.868 Z" id="Shape"></path>
                <path d="M16.629,152.779 L15.408,153.558 C16.199,154.771 16.98,155.965 17.793,157.156 L18.949,156.338 C18.15,155.185 17.381,154.003 16.629,152.779 Z" id="Shape"></path>
                <path d="M197.935,117.471 L199.325,117.708 C199.578,116.306 199.795,114.893 199.98,113.466 L198.58,113.272 C198.397,114.685 198.181,116.076 197.935,117.471 Z" id="Shape"></path>
                <path d="M187.7,150.017 C188.389,148.763 189.086,147.5 189.749,146.238 L188.486,145.599 C187.833,146.862 187.146,148.102 186.469,149.324 L187.7,150.017 Z" id="Shape"></path>
                <path d="M21.5,40.817 L20.388,39.956 C19.516,41.082 18.673,42.269 17.861,43.44 L19.016,44.243 C19.816,43.093 20.645,41.925 21.5,40.817 Z" id="Shape"></path>
                <path d="M12.468,55.18 L11.2,54.525 C10.543,55.802 9.913,57.098 9.315,58.415 L10.614,59.003 C11.2,57.711 11.818,56.433 12.468,55.18 Z" id="Shape"></path>
                <path d="M16.675,47.79 L15.48,47.049 C14.73,48.256 13.971,49.484 13.27,50.733 L14.515,51.451 C15.191,50.225 15.938,49.015 16.675,47.79 Z" id="Shape"></path>
                <path d="M46.227,17.632 L45.441,16.453 C44.248,17.237 43.075,18.052 41.888,18.892 L42.716,20.056 C43.885,19.218 45.041,18.403 46.227,17.632 Z" id="Shape"></path>
                <path d="M39.311,22.599 L38.458,21.507 C37.312,22.37 36.191,23.299 35.104,24.253 L36.036,25.308 C37.118,24.399 38.221,23.485 39.311,22.599 Z" id="Shape"></path>
                <path d="M32.868,28.167 L31.909,27.13 C30.857,28.105 29.834,29.102 28.805,30.135 L29.846,31.149 C30.828,30.135 31.836,29.123 32.868,28.167 Z" id="Shape"></path>
                <path d="M26.912,34.245 L25.865,33.285 C24.895,34.346 23.972,35.442 23.047,36.565 L24.155,37.482 C25.028,36.38 25.968,35.299 26.912,34.245 Z" id="Shape"></path>
                <path d="M2.412,87.508 L1.009,87.33 C0.831,88.741 0.674,90.178 0.54,91.637 L1.948,91.742 C2.092,90.334 2.233,88.918 2.412,87.508 Z" id="Shape"></path>
                <path d="M1.701,96.052 L0.254,96.005 C0.215,97.429 0.174,98.902 0.173,100.329 L1.59,100.329 C1.591,98.902 1.628,97.451 1.701,96.052 Z" id="Shape"></path>
                <path d="M6.053,70.893 L4.674,70.468 C4.247,71.862 3.848,73.244 3.493,74.64 L4.871,74.998 C5.245,73.603 5.633,72.259 6.053,70.893 Z" id="Shape"></path>
                <path d="M8.921,62.887 L7.598,62.358 C7.066,63.702 6.551,65.02 6.068,66.396 L7.391,66.877 C7.875,65.535 8.398,64.199 8.921,62.887 Z" id="Shape"></path>
                <path d="M3.862,79.125 L2.486,78.84 C2.162,80.234 1.912,81.636 1.659,83.051 L3.05,83.299 C3.298,81.908 3.583,80.519 3.862,79.125 Z" id="Shape"></path>
                <path d="M69.169,6.483 L68.713,5.151 C67.359,5.584 65.983,6.082 64.663,6.614 L65.149,7.917 C66.485,7.432 67.84,6.942 69.169,6.483 Z" id="Shape"></path>
                <path d="M100.502,1.417 C101.233,1.417 101.953,1.425 102.692,1.443 L102.707,0.029 C102.011,0.01 101.294,0.002 100.607,0.002 C99.85,-0.005 99.133,0.008 98.389,0.027 L98.423,1.44 C99.125,1.425 99.797,1.417 100.502,1.417 Z" id="Shape"></path>
                <path d="M119.862,1.861 C118.448,1.583 117.019,1.361 115.598,1.145 L115.387,2.541 C116.783,2.752 118.205,3 119.579,3.261 L119.862,1.861 Z" id="Shape"></path>
                <path d="M111.312,0.568 C109.889,0.427 108.46,0.318 107.023,0.209 L106.917,1.62 C108.369,1.729 109.77,1.835 111.163,2.003 L111.312,0.568 Z" id="Shape"></path>
                <path d="M53.56,13.267 L52.873,12.015 C51.603,12.708 50.351,13.402 49.121,14.16 L49.828,15.375 C51.061,14.63 52.311,13.952 53.56,13.267 Z" id="Shape"></path>
                <path d="M136.433,6.621 C135.079,6.119 133.746,5.621 132.358,5.155 L131.904,6.522 C133.264,6.977 134.614,7.46 135.912,7.952 L136.433,6.621 Z" id="Shape"></path>
                <path d="M144.32,10.053 C143.026,9.425 141.748,8.832 140.422,8.27 L139.862,9.561 C141.136,10.135 142.425,10.722 143.699,11.338 L144.32,10.053 Z" id="Shape"></path>
                <path d="M128.251,3.893 C126.85,3.477 125.472,3.118 124.082,2.796 L123.727,4.163 C125.132,4.516 126.486,4.87 127.863,5.256 L128.251,3.893 Z" id="Shape"></path>
                <path d="M151.904,14.172 C150.677,13.417 149.43,12.71 148.163,12.036 L147.478,13.286 C148.721,13.967 149.949,14.645 151.193,15.388 L151.904,14.172 Z" id="Shape"></path>
                <path d="M61.208,9.552 L60.651,8.238 C59.315,8.801 57.996,9.399 56.723,10.027 L57.355,11.314 C58.617,10.693 59.893,10.106 61.208,9.552 Z" id="Shape"></path>
                <path d="M85.697,2.524 L85.49,1.13 C84.061,1.344 82.651,1.583 81.256,1.844 L81.499,3.26 C82.91,2.982 84.295,2.737 85.697,2.524 Z" id="Shape"></path>
                <path d="M77.349,4.141 L77.035,2.77 C75.621,3.092 74.226,3.474 72.864,3.876 L73.248,5.229 C74.59,4.843 75.981,4.493 77.349,4.141 Z" id="Shape"></path>
                <path d="M94.163,1.613 L94.093,0.204 C92.629,0.31 91.194,0.417 89.777,0.558 L89.919,1.998 C91.349,1.823 92.751,1.721 94.163,1.613 Z" id="Shape"></path>
            </g>
            <g id="Group" transform="translate(0.000000, 164.000000)" fill="#FF7040">
                <path d="M29.71,26.668 C29.71,28.721 29.43,30.631 28.88,32.399 C28.343,34.131 27.545,35.663 26.501,36.96 C25.478,38.254 24.239,39.258 22.789,39.968 C21.335,40.701 19.716,41.055 17.89,41.055 C13.924,41.055 9.456,40.576 4.447,39.548 L4.447,30.929 L4.447,6.054 C3.771,5.954 3.205,5.843 2.783,5.762 C2.361,5.714 2.084,5.66 1.91,5.628 C1.719,5.597 1.585,5.571 1.514,5.555 C0.625,5.369 0.173,4.822 0.173,3.875 L0.173,0.716 L4.447,0.716 L11.044,0.716 L11.044,16.463 C12.142,15.316 13.369,14.373 14.734,13.712 C16.123,13.01 17.714,12.674 19.568,12.674 C21.051,12.674 22.441,12.967 23.677,13.58 C24.915,14.198 25.99,15.109 26.904,16.277 C27.779,17.481 28.485,18.942 28.991,20.655 C29.457,22.402 29.71,24.418 29.71,26.668 Z M22.898,26.668 C22.898,25.064 22.744,23.682 22.506,22.551 C22.246,21.455 21.873,20.532 21.396,19.823 C20.9,19.148 20.324,18.623 19.624,18.318 C18.935,17.974 18.158,17.823 17.275,17.823 C15.918,17.823 14.735,18.129 13.76,18.701 C12.803,19.274 11.883,20.093 11.044,21.149 L11.044,35.515 C12.848,35.839 14.61,36.001 16.39,36.001 C17.38,36.001 18.292,35.817 19.09,35.448 C19.889,35.078 20.581,34.509 21.133,33.72 C21.682,32.963 22.117,31.989 22.437,30.809 C22.719,29.653 22.898,28.246 22.898,26.668 Z" id="Shape"></path>
                <path d="M46.867,37.496 L46.867,40.657 L42.833,40.657 L36.201,40.657 L32.164,40.657 L32.164,37.496 C32.164,36.589 32.584,36.005 33.486,35.815 C33.58,35.796 33.671,35.777 33.841,35.769 C33.98,35.748 34.255,35.689 34.634,35.61 C35.018,35.562 35.526,35.453 36.2,35.348 L36.2,18.412 C35.524,18.311 35.015,18.2 34.634,18.134 C34.255,18.075 33.98,18.019 33.841,17.986 C33.669,17.953 33.578,17.931 33.486,17.929 C32.584,17.725 32.164,17.176 32.164,16.249 L32.164,13.095 L36.201,13.095 L42.833,13.095 L42.833,35.348 C43.502,35.452 44.022,35.562 44.4,35.61 C44.781,35.692 45.056,35.749 45.191,35.769 C45.364,35.777 45.459,35.796 45.549,35.815 C46.441,36.005 46.867,36.589 46.867,37.496 Z M43.479,6.665 C43.243,7.183 42.918,7.624 42.541,7.993 C42.16,8.361 41.706,8.677 41.187,8.897 C40.674,9.111 40.133,9.224 39.513,9.224 C38.954,9.224 38.429,9.111 37.902,8.897 C37.408,8.676 36.97,8.361 36.568,7.993 C36.199,7.624 35.921,7.183 35.696,6.665 C35.471,6.172 35.34,5.629 35.34,5.064 C35.34,4.481 35.472,3.899 35.696,3.4 C35.921,2.862 36.199,2.41 36.568,2.043 C36.97,1.673 37.408,1.355 37.902,1.135 C38.427,0.919 38.953,0.81 39.513,0.81 C40.133,0.81 40.674,0.919 41.187,1.135 C41.708,1.357 42.162,1.673 42.541,2.043 C42.918,2.41 43.242,2.861 43.479,3.4 C43.707,3.899 43.813,4.481 43.813,5.064 C43.814,5.629 43.707,6.172 43.479,6.665 Z" id="Shape"></path>
                <path d="M53.925,39.073 C52.637,37.706 51.991,35.84 51.991,33.465 L51.991,18.069 L49.195,18.069 C48.849,18.069 48.541,17.933 48.292,17.715 C48.026,17.499 47.906,17.124 47.906,16.67 L47.906,14.032 L52.32,13.31 L53.711,5.77 C53.785,5.423 53.95,5.135 54.205,4.939 C54.451,4.742 54.797,4.666 55.184,4.666 L58.617,4.666 L58.617,13.321 L65.838,13.321 L65.838,18.072 L58.617,18.072 L58.617,33.022 C58.617,33.882 58.823,34.527 59.243,35.019 C59.666,35.515 60.261,35.765 60.955,35.765 C61.361,35.765 61.73,35.705 61.982,35.588 C62.27,35.512 62.516,35.39 62.724,35.298 C62.928,35.173 63.105,35.088 63.258,34.971 C63.442,34.894 63.599,34.835 63.75,34.835 C63.944,34.835 64.096,34.892 64.243,34.971 C64.352,35.088 64.495,35.224 64.642,35.421 L66.601,38.659 C65.654,39.459 64.538,40.064 63.288,40.473 C62.04,40.886 60.741,41.09 59.425,41.09 C57.036,41.089 55.216,40.404 53.925,39.073 Z" id="Shape"></path>
                <path d="M91.277,36.562 C90.529,37.428 89.739,38.125 88.881,38.708 C88.02,39.309 87.16,39.761 86.227,40.122 C85.293,40.458 84.358,40.711 83.39,40.843 C82.38,41.014 81.42,41.059 80.451,41.059 C78.771,41.059 77.153,40.757 75.648,40.121 C74.152,39.484 72.864,38.539 71.736,37.33 C70.608,36.12 69.741,34.624 69.098,32.847 C68.443,31.104 68.095,29.07 68.095,26.823 C68.095,24.811 68.398,22.936 68.969,21.199 C69.541,19.463 70.396,17.962 71.534,16.697 C72.674,15.433 74.052,14.453 75.709,13.73 C77.367,13.028 79.281,12.675 81.454,12.675 C83.661,12.675 86.536,13.312 90.108,14.65 L90.108,23.147 L89.88,23.147 L89.227,23.147 L87.005,23.147 C86.33,23.147 85.91,22.793 85.757,22.126 C85.698,21.695 85.532,20.391 85.325,18.242 C83.942,17.904 82.76,17.714 81.85,17.714 C80.67,17.714 79.657,17.927 78.775,18.349 C77.931,18.769 77.188,19.388 76.617,20.168 C76.04,20.946 75.608,21.913 75.309,23.015 C75.012,24.148 74.879,25.417 74.879,26.825 C74.879,28.291 75.025,29.61 75.357,30.734 C75.65,31.896 76.107,32.843 76.689,33.652 C77.299,34.42 78,35.003 78.841,35.405 C79.678,35.803 80.643,36.004 81.698,36.004 C82.751,36.004 83.596,35.888 84.229,35.62 C84.878,35.352 85.451,35.089 85.901,34.757 C86.329,34.464 86.733,34.163 87.05,33.893 C87.376,33.663 87.762,33.511 88.172,33.511 C88.691,33.511 89.089,33.716 89.367,34.127 L91.277,36.562 Z" id="Shape"></path>
                <path d="M120.342,37.449 L120.342,40.601 L116.991,40.601 L116.282,40.601 L114.045,40.601 C113.409,40.601 112.924,40.521 112.569,40.334 C112.193,40.152 111.945,39.761 111.742,39.179 L111.162,37.241 C110.47,37.865 109.798,38.403 109.118,38.887 C108.445,39.34 107.746,39.76 107.049,40.073 C106.32,40.387 105.575,40.625 104.778,40.805 C103.966,40.966 103.077,41.026 102.074,41.026 C100.929,41.026 99.853,40.878 98.883,40.584 C97.877,40.248 97.035,39.767 96.352,39.139 C95.632,38.511 95.097,37.739 94.709,36.822 C94.309,35.875 94.096,34.776 94.096,33.542 C94.096,32.5 94.372,31.477 94.935,30.467 C95.469,29.458 96.389,28.528 97.657,27.713 C98.923,26.9 100.608,26.211 102.708,25.689 C104.808,25.129 107.425,24.855 110.546,24.855 L110.546,23.235 C110.546,21.38 110.164,20.02 109.399,19.116 C108.596,18.214 107.49,17.761 106.006,17.761 C104.93,17.761 104.027,17.91 103.334,18.137 C102.605,18.39 101.987,18.684 101.448,18.978 C100.937,19.307 100.439,19.603 99.982,19.828 C99.554,20.085 99.067,20.233 98.508,20.233 C98.088,20.233 97.682,20.094 97.376,19.86 C97.035,19.624 96.807,19.36 96.61,18.995 L95.378,16.878 C98.54,13.973 102.357,12.524 106.832,12.524 C108.426,12.524 109.852,12.798 111.112,13.314 C112.37,13.857 113.439,14.574 114.321,15.532 C115.202,16.458 115.877,17.592 116.336,18.907 C116.771,20.223 116.991,21.65 116.991,23.187 L116.991,35.41 C117.608,35.537 118.077,35.598 118.429,35.672 C118.742,35.744 118.933,35.772 118.995,35.772 C119.899,35.978 120.342,36.526 120.342,37.449 Z M110.545,28.918 C108.607,28.918 107.009,29.051 105.713,29.272 C104.41,29.522 103.373,29.852 102.595,30.222 C101.82,30.594 101.235,31.039 100.922,31.563 C100.608,32.044 100.412,32.617 100.412,33.205 C100.412,34.364 100.778,35.201 101.447,35.723 C102.136,36.207 103.046,36.463 104.163,36.463 C104.813,36.463 105.437,36.404 106.035,36.286 C106.597,36.176 107.121,35.982 107.648,35.742 C108.166,35.487 108.635,35.167 109.118,34.814 C109.602,34.463 110.052,34.036 110.545,33.527 L110.545,28.918 Z" id="Shape"></path>
                <path d="M170.333,37.496 L170.333,40.659 L166.3,40.659 L159.665,40.659 L159.665,23.126 C159.665,21.355 159.288,20.031 158.531,19.165 C157.739,18.27 156.639,17.823 155.156,17.823 C154.467,17.823 153.838,17.929 153.269,18.16 C152.673,18.396 152.171,18.754 151.732,19.187 C151.291,19.609 150.962,20.175 150.704,20.844 C150.444,21.493 150.337,22.258 150.337,23.124 L150.337,35.348 C150.994,35.454 151.523,35.562 151.902,35.606 C152.281,35.689 152.556,35.745 152.691,35.769 C152.866,35.773 152.96,35.796 153.051,35.815 C153.933,36.003 154.366,36.588 154.366,37.495 L154.366,40.657 L150.339,40.657 L143.672,40.657 L143.672,23.125 C143.672,21.285 143.31,19.929 142.587,19.086 C141.825,18.243 140.723,17.823 139.282,17.823 C138.354,17.823 137.457,18.062 136.629,18.549 C135.799,18.997 135.036,19.649 134.311,20.468 L134.311,35.349 C134.986,35.453 135.492,35.563 135.877,35.607 C136.289,35.69 136.527,35.746 136.699,35.77 C136.837,35.774 136.929,35.797 137.019,35.814 C137.922,36.002 138.376,36.585 138.376,37.494 L138.376,40.656 L134.313,40.656 L127.686,40.656 L123.648,40.656 L123.648,37.494 C123.645,36.59 124.099,36.003 124.964,35.814 C125.057,35.797 125.164,35.774 125.32,35.77 C125.458,35.746 125.734,35.69 126.114,35.607 C126.494,35.563 127.042,35.454 127.685,35.349 L127.685,18.413 C127.04,18.308 126.491,18.2 126.114,18.135 C125.734,18.072 125.458,18.017 125.32,17.984 C125.164,17.953 125.054,17.932 124.964,17.93 C124.099,17.723 123.645,17.177 123.648,16.25 L123.648,13.096 L127.686,13.096 L131.733,13.096 C132.594,13.096 133.147,13.506 133.423,14.307 L133.85,16.342 C134.346,15.82 134.827,15.314 135.374,14.861 C135.883,14.408 136.472,14.028 137.063,13.723 C137.654,13.379 138.299,13.119 138.998,12.935 C139.659,12.747 140.434,12.675 141.255,12.675 C142.997,12.675 144.41,13.118 145.534,14.076 C146.628,14.997 147.461,16.25 148.039,17.819 C148.468,16.892 148.986,16.118 149.633,15.46 C150.276,14.803 150.993,14.286 151.753,13.877 C152.507,13.467 153.316,13.145 154.192,12.947 C155.062,12.751 155.937,12.673 156.819,12.673 C158.338,12.673 159.669,12.891 160.857,13.348 C162.036,13.821 163.016,14.513 163.813,15.411 C164.634,16.288 165.256,17.388 165.674,18.682 C166.094,19.98 166.304,21.459 166.304,23.122 L166.304,35.35 C166.948,35.451 167.489,35.564 167.868,35.605 C168.248,35.688 168.524,35.744 168.658,35.771 C168.831,35.774 168.926,35.795 169.017,35.813 C169.889,36.005 170.333,36.589 170.333,37.496 Z" id="Shape"></path>
                <path d="M200.827,26.668 C200.827,28.721 200.547,30.632 199.999,32.402 C199.458,34.133 198.644,35.665 197.618,36.961 C196.595,38.255 195.358,39.259 193.905,39.969 C192.449,40.705 190.832,41.056 189.005,41.056 C187.476,41.056 186.147,40.813 185.063,40.368 C183.976,39.884 183.023,39.221 182.162,38.376 L182.162,44.351 C182.841,44.456 183.349,44.564 183.745,44.608 C184.143,44.692 184.382,44.747 184.554,44.781 C184.692,44.801 184.793,44.801 184.875,44.812 C185.779,45.008 186.23,45.586 186.23,46.496 L186.23,49.655 L182.162,49.655 L175.555,49.655 L171.497,49.655 L171.497,46.496 C171.497,45.592 171.946,45.009 172.829,44.812 C172.907,44.801 173.035,44.801 173.173,44.781 C173.309,44.747 173.583,44.692 173.963,44.608 C174.344,44.563 174.893,44.456 175.555,44.351 L175.555,18.416 C174.889,18.312 174.344,18.203 173.963,18.135 C173.583,18.076 173.309,18.02 173.173,17.987 C173.035,17.956 172.903,17.934 172.829,17.93 C171.946,17.726 171.497,17.18 171.497,16.25 L171.497,13.096 L175.555,13.096 L179.583,13.096 C180.013,13.096 180.388,13.188 180.69,13.382 C181.009,13.577 181.204,13.9 181.272,14.31 L181.828,16.87 C182.909,15.597 184.182,14.569 185.631,13.752 C187.083,12.975 188.768,12.585 190.672,12.585 C192.169,12.585 193.559,12.892 194.796,13.518 C196.035,14.152 197.109,15.053 198.021,16.251 C198.898,17.448 199.605,18.917 200.107,20.655 C200.574,22.4 200.827,24.423 200.827,26.668 Z M194.015,26.668 C194.015,25.064 193.86,23.686 193.604,22.551 C193.362,21.455 192.987,20.532 192.508,19.823 C192.016,19.152 191.439,18.623 190.74,18.318 C190.048,17.976 189.27,17.823 188.389,17.823 C187.034,17.823 185.846,18.129 184.877,18.702 C183.916,19.274 182.997,20.093 182.161,21.152 L182.161,33.506 C182.904,34.455 183.744,35.11 184.598,35.467 C185.489,35.824 186.459,36.003 187.473,36.003 C188.463,36.003 189.382,35.817 190.189,35.448 C190.996,35.082 191.696,34.509 192.245,33.722 C192.797,32.965 193.23,31.989 193.551,30.811 C193.833,29.653 194.015,28.248 194.015,26.668 Z" id="Shape"></path>
            </g>
        </g>
    </g>
</svg>