<?xml version="1.0" encoding="utf-8"?>
<!-- Generator: Adobe Illustrator 21.0.0, SVG Export Plug-In . SVG Version: 6.00 Build 0)  -->
<svg version="1.1" id="Layer_1" xmlns="http://www.w3.org/2000/svg" xmlns:xlink="http://www.w3.org/1999/xlink" x="0px" y="0px"
	 viewBox="0 0 612 792" style="enable-background:new 0 0 612 792;" xml:space="preserve">
<style type="text/css">
	.st0{clip-path:url(#SVGID_2_);fill:none;stroke:#CDECF9;stroke-width:7;stroke-dasharray:21.706,14.706;}
	.st1{clip-path:url(#SVGID_2_);fill:none;stroke:#CDECF9;stroke-width:7;stroke-dasharray:20.685,13.685;}
	.st2{clip-path:url(#SVGID_2_);fill:none;stroke:#CDECF9;stroke-width:7;stroke-dasharray:20.711,13.711;}
	.st3{clip-path:url(#SVGID_2_);fill:none;stroke:#CDECF9;stroke-width:7;stroke-dasharray:21.335,14.335;}
	.st4{clip-path:url(#SVGID_2_);fill:none;stroke:#CDECF9;stroke-width:7;}
</style>
<g>
	<defs>
		<rect id="SVGID_1_" x="-217" y="-34.1" width="955.6" height="847.1"/>
	</defs>
	<clipPath id="SVGID_2_">
		<use xlink:href="#SVGID_1_"  style="overflow:visible;"/>
	</clipPath>
	<path class="st0" d="M-22.6-8.6C-1.9,86.9,150.1,105.3,328,39"/>
	<path class="st1" d="M367.5,24.2c186.7-62.8,353.9,26.9,366.8,267.6"/>
	<path class="st2" d="M735,333.1C728.5,568,543,605.8,342.2,593.7"/>
	<path class="st3" d="M300.1,590.5c-208.8-17.4-500.8-60.1-513.2,204.6"/>
	<path class="st4" d="M-213.4,802.3c-0.1,3.5-0.1,7.1-0.1,10.7 M335.3,593.2c-3.4-0.2-6.9-0.5-10.3-0.7c-3.5-0.3-7.1-0.5-10.6-0.8
		 M734.7,298.7c0.1,3.4,0.3,6.9,0.3,10.3c0.1,3.5,0.1,6.9,0.1,10.4 M334.9,36.5c3.4-1.3,6.7-2.6,10.1-4c3.2-1.3,6.4-2.5,9.6-3.7
		 M-25-34c-0.1,3.7,0,7.3,0.3,10.8"/>
</g>
</svg>
